%TF.GenerationSoftware,KiCad,Pcbnew,7.0.2*%
%TF.CreationDate,2023-12-16T15:11:12-05:00*%
%TF.ProjectId,Flatbox-rev7,466c6174-626f-4782-9d72-6576372e6b69,rev?*%
%TF.SameCoordinates,Original*%
%TF.FileFunction,Legend,Top*%
%TF.FilePolarity,Positive*%
%FSLAX46Y46*%
G04 Gerber Fmt 4.6, Leading zero omitted, Abs format (unit mm)*
G04 Created by KiCad (PCBNEW 7.0.2) date 2023-12-16 15:11:12*
%MOMM*%
%LPD*%
G01*
G04 APERTURE LIST*
G04 Aperture macros list*
%AMRoundRect*
0 Rectangle with rounded corners*
0 $1 Rounding radius*
0 $2 $3 $4 $5 $6 $7 $8 $9 X,Y pos of 4 corners*
0 Add a 4 corners polygon primitive as box body*
4,1,4,$2,$3,$4,$5,$6,$7,$8,$9,$2,$3,0*
0 Add four circle primitives for the rounded corners*
1,1,$1+$1,$2,$3*
1,1,$1+$1,$4,$5*
1,1,$1+$1,$6,$7*
1,1,$1+$1,$8,$9*
0 Add four rect primitives between the rounded corners*
20,1,$1+$1,$2,$3,$4,$5,0*
20,1,$1+$1,$4,$5,$6,$7,0*
20,1,$1+$1,$6,$7,$8,$9,0*
20,1,$1+$1,$8,$9,$2,$3,0*%
G04 Aperture macros list end*
%ADD10C,0.300000*%
%ADD11C,0.200000*%
%ADD12C,0.150000*%
%ADD13C,1.000000*%
%ADD14C,0.120000*%
%ADD15C,0.203200*%
%ADD16C,2.200000*%
%ADD17R,1.400000X1.600000*%
%ADD18R,1.600000X1.400000*%
%ADD19C,1.701800*%
%ADD20C,3.000000*%
%ADD21C,3.429000*%
%ADD22C,2.032000*%
%ADD23C,6.400000*%
%ADD24RoundRect,0.135000X-0.185000X0.135000X-0.185000X-0.135000X0.185000X-0.135000X0.185000X0.135000X0*%
%ADD25C,0.650000*%
%ADD26R,0.600000X1.450000*%
%ADD27R,0.300000X1.450000*%
%ADD28O,1.000000X2.100000*%
%ADD29O,1.000000X1.600000*%
%ADD30RoundRect,0.135000X0.135000X0.185000X-0.135000X0.185000X-0.135000X-0.185000X0.135000X-0.185000X0*%
%ADD31RoundRect,0.140000X0.170000X-0.140000X0.170000X0.140000X-0.170000X0.140000X-0.170000X-0.140000X0*%
%ADD32RoundRect,0.140000X-0.140000X-0.170000X0.140000X-0.170000X0.140000X0.170000X-0.140000X0.170000X0*%
%ADD33RoundRect,0.140000X-0.170000X0.140000X-0.170000X-0.140000X0.170000X-0.140000X0.170000X0.140000X0*%
%ADD34RoundRect,0.135000X-0.135000X-0.185000X0.135000X-0.185000X0.135000X0.185000X-0.135000X0.185000X0*%
%ADD35RoundRect,0.150000X0.512500X0.150000X-0.512500X0.150000X-0.512500X-0.150000X0.512500X-0.150000X0*%
%ADD36RoundRect,0.150000X-0.650000X-0.150000X0.650000X-0.150000X0.650000X0.150000X-0.650000X0.150000X0*%
%ADD37RoundRect,0.050000X-0.387500X-0.050000X0.387500X-0.050000X0.387500X0.050000X-0.387500X0.050000X0*%
%ADD38RoundRect,0.050000X-0.050000X-0.387500X0.050000X-0.387500X0.050000X0.387500X-0.050000X0.387500X0*%
%ADD39RoundRect,0.144000X-1.456000X-1.456000X1.456000X-1.456000X1.456000X1.456000X-1.456000X1.456000X0*%
%ADD40R,1.200000X1.400000*%
%ADD41RoundRect,0.140000X0.140000X0.170000X-0.140000X0.170000X-0.140000X-0.170000X0.140000X-0.170000X0*%
%ADD42RoundRect,0.135000X0.185000X-0.135000X0.185000X0.135000X-0.185000X0.135000X-0.185000X-0.135000X0*%
G04 APERTURE END LIST*
D10*
X226917142Y-96820714D02*
X226417142Y-96820714D01*
X226417142Y-97606428D02*
X226417142Y-96106428D01*
X226417142Y-96106428D02*
X227131428Y-96106428D01*
X227702856Y-97606428D02*
X227702856Y-96106428D01*
X227702856Y-96106428D02*
X228059999Y-96106428D01*
X228059999Y-96106428D02*
X228274285Y-96177857D01*
X228274285Y-96177857D02*
X228417142Y-96320714D01*
X228417142Y-96320714D02*
X228488571Y-96463571D01*
X228488571Y-96463571D02*
X228559999Y-96749285D01*
X228559999Y-96749285D02*
X228559999Y-96963571D01*
X228559999Y-96963571D02*
X228488571Y-97249285D01*
X228488571Y-97249285D02*
X228417142Y-97392142D01*
X228417142Y-97392142D02*
X228274285Y-97535000D01*
X228274285Y-97535000D02*
X228059999Y-97606428D01*
X228059999Y-97606428D02*
X227702856Y-97606428D01*
X229845714Y-96606428D02*
X229845714Y-97606428D01*
X229488571Y-96035000D02*
X229131428Y-97106428D01*
X229131428Y-97106428D02*
X230059999Y-97106428D01*
X199358142Y-98598714D02*
X198858142Y-98598714D01*
X198858142Y-99384428D02*
X198858142Y-97884428D01*
X198858142Y-97884428D02*
X199572428Y-97884428D01*
X200143856Y-99384428D02*
X200143856Y-97884428D01*
X200143856Y-97884428D02*
X200500999Y-97884428D01*
X200500999Y-97884428D02*
X200715285Y-97955857D01*
X200715285Y-97955857D02*
X200858142Y-98098714D01*
X200858142Y-98098714D02*
X200929571Y-98241571D01*
X200929571Y-98241571D02*
X201000999Y-98527285D01*
X201000999Y-98527285D02*
X201000999Y-98741571D01*
X201000999Y-98741571D02*
X200929571Y-99027285D01*
X200929571Y-99027285D02*
X200858142Y-99170142D01*
X200858142Y-99170142D02*
X200715285Y-99313000D01*
X200715285Y-99313000D02*
X200500999Y-99384428D01*
X200500999Y-99384428D02*
X200143856Y-99384428D01*
X201500999Y-97884428D02*
X202429571Y-97884428D01*
X202429571Y-97884428D02*
X201929571Y-98455857D01*
X201929571Y-98455857D02*
X202143856Y-98455857D01*
X202143856Y-98455857D02*
X202286714Y-98527285D01*
X202286714Y-98527285D02*
X202358142Y-98598714D01*
X202358142Y-98598714D02*
X202429571Y-98741571D01*
X202429571Y-98741571D02*
X202429571Y-99098714D01*
X202429571Y-99098714D02*
X202358142Y-99241571D01*
X202358142Y-99241571D02*
X202286714Y-99313000D01*
X202286714Y-99313000D02*
X202143856Y-99384428D01*
X202143856Y-99384428D02*
X201715285Y-99384428D01*
X201715285Y-99384428D02*
X201572428Y-99313000D01*
X201572428Y-99313000D02*
X201500999Y-99241571D01*
X173958142Y-104567714D02*
X173458142Y-104567714D01*
X173458142Y-105353428D02*
X173458142Y-103853428D01*
X173458142Y-103853428D02*
X174172428Y-103853428D01*
X174743856Y-105353428D02*
X174743856Y-103853428D01*
X174743856Y-103853428D02*
X175100999Y-103853428D01*
X175100999Y-103853428D02*
X175315285Y-103924857D01*
X175315285Y-103924857D02*
X175458142Y-104067714D01*
X175458142Y-104067714D02*
X175529571Y-104210571D01*
X175529571Y-104210571D02*
X175600999Y-104496285D01*
X175600999Y-104496285D02*
X175600999Y-104710571D01*
X175600999Y-104710571D02*
X175529571Y-104996285D01*
X175529571Y-104996285D02*
X175458142Y-105139142D01*
X175458142Y-105139142D02*
X175315285Y-105282000D01*
X175315285Y-105282000D02*
X175100999Y-105353428D01*
X175100999Y-105353428D02*
X174743856Y-105353428D01*
X176172428Y-103996285D02*
X176243856Y-103924857D01*
X176243856Y-103924857D02*
X176386714Y-103853428D01*
X176386714Y-103853428D02*
X176743856Y-103853428D01*
X176743856Y-103853428D02*
X176886714Y-103924857D01*
X176886714Y-103924857D02*
X176958142Y-103996285D01*
X176958142Y-103996285D02*
X177029571Y-104139142D01*
X177029571Y-104139142D02*
X177029571Y-104282000D01*
X177029571Y-104282000D02*
X176958142Y-104496285D01*
X176958142Y-104496285D02*
X176100999Y-105353428D01*
X176100999Y-105353428D02*
X177029571Y-105353428D01*
X151733142Y-114981714D02*
X151233142Y-114981714D01*
X151233142Y-115767428D02*
X151233142Y-114267428D01*
X151233142Y-114267428D02*
X151947428Y-114267428D01*
X152518856Y-115767428D02*
X152518856Y-114267428D01*
X152518856Y-114267428D02*
X152875999Y-114267428D01*
X152875999Y-114267428D02*
X153090285Y-114338857D01*
X153090285Y-114338857D02*
X153233142Y-114481714D01*
X153233142Y-114481714D02*
X153304571Y-114624571D01*
X153304571Y-114624571D02*
X153375999Y-114910285D01*
X153375999Y-114910285D02*
X153375999Y-115124571D01*
X153375999Y-115124571D02*
X153304571Y-115410285D01*
X153304571Y-115410285D02*
X153233142Y-115553142D01*
X153233142Y-115553142D02*
X153090285Y-115696000D01*
X153090285Y-115696000D02*
X152875999Y-115767428D01*
X152875999Y-115767428D02*
X152518856Y-115767428D01*
X154804571Y-115767428D02*
X153947428Y-115767428D01*
X154375999Y-115767428D02*
X154375999Y-114267428D01*
X154375999Y-114267428D02*
X154233142Y-114481714D01*
X154233142Y-114481714D02*
X154090285Y-114624571D01*
X154090285Y-114624571D02*
X153947428Y-114696000D01*
X59835237Y-146276904D02*
X60216189Y-147610238D01*
X60216189Y-147610238D02*
X60597142Y-146657857D01*
X60597142Y-146657857D02*
X60978094Y-147610238D01*
X60978094Y-147610238D02*
X61359046Y-146276904D01*
X61930475Y-146276904D02*
X62311427Y-147610238D01*
X62311427Y-147610238D02*
X62692380Y-146657857D01*
X62692380Y-146657857D02*
X63073332Y-147610238D01*
X63073332Y-147610238D02*
X63454284Y-146276904D01*
X64025713Y-146276904D02*
X64406665Y-147610238D01*
X64406665Y-147610238D02*
X64787618Y-146657857D01*
X64787618Y-146657857D02*
X65168570Y-147610238D01*
X65168570Y-147610238D02*
X65549522Y-146276904D01*
X66311427Y-147419761D02*
X66406665Y-147515000D01*
X66406665Y-147515000D02*
X66311427Y-147610238D01*
X66311427Y-147610238D02*
X66216189Y-147515000D01*
X66216189Y-147515000D02*
X66311427Y-147419761D01*
X66311427Y-147419761D02*
X66311427Y-147610238D01*
X68120951Y-146276904D02*
X68120951Y-147895952D01*
X68120951Y-147895952D02*
X68025713Y-148086428D01*
X68025713Y-148086428D02*
X67930475Y-148181666D01*
X67930475Y-148181666D02*
X67739998Y-148276904D01*
X67739998Y-148276904D02*
X67454284Y-148276904D01*
X67454284Y-148276904D02*
X67263808Y-148181666D01*
X68120951Y-147515000D02*
X67930475Y-147610238D01*
X67930475Y-147610238D02*
X67549522Y-147610238D01*
X67549522Y-147610238D02*
X67359046Y-147515000D01*
X67359046Y-147515000D02*
X67263808Y-147419761D01*
X67263808Y-147419761D02*
X67168570Y-147229285D01*
X67168570Y-147229285D02*
X67168570Y-146657857D01*
X67168570Y-146657857D02*
X67263808Y-146467380D01*
X67263808Y-146467380D02*
X67359046Y-146372142D01*
X67359046Y-146372142D02*
X67549522Y-146276904D01*
X67549522Y-146276904D02*
X67930475Y-146276904D01*
X67930475Y-146276904D02*
X68120951Y-146372142D01*
X69073332Y-147610238D02*
X69073332Y-146276904D01*
X69073332Y-145610238D02*
X68978094Y-145705476D01*
X68978094Y-145705476D02*
X69073332Y-145800714D01*
X69073332Y-145800714D02*
X69168570Y-145705476D01*
X69168570Y-145705476D02*
X69073332Y-145610238D01*
X69073332Y-145610238D02*
X69073332Y-145800714D01*
X69739999Y-146276904D02*
X70501903Y-146276904D01*
X70025713Y-145610238D02*
X70025713Y-147324523D01*
X70025713Y-147324523D02*
X70120951Y-147515000D01*
X70120951Y-147515000D02*
X70311427Y-147610238D01*
X70311427Y-147610238D02*
X70501903Y-147610238D01*
X71168570Y-147610238D02*
X71168570Y-145610238D01*
X72025713Y-147610238D02*
X72025713Y-146562619D01*
X72025713Y-146562619D02*
X71930475Y-146372142D01*
X71930475Y-146372142D02*
X71739999Y-146276904D01*
X71739999Y-146276904D02*
X71454284Y-146276904D01*
X71454284Y-146276904D02*
X71263808Y-146372142D01*
X71263808Y-146372142D02*
X71168570Y-146467380D01*
X73835237Y-146276904D02*
X73835237Y-147610238D01*
X72978094Y-146276904D02*
X72978094Y-147324523D01*
X72978094Y-147324523D02*
X73073332Y-147515000D01*
X73073332Y-147515000D02*
X73263808Y-147610238D01*
X73263808Y-147610238D02*
X73549523Y-147610238D01*
X73549523Y-147610238D02*
X73739999Y-147515000D01*
X73739999Y-147515000D02*
X73835237Y-147419761D01*
X74787618Y-147610238D02*
X74787618Y-145610238D01*
X74787618Y-146372142D02*
X74978094Y-146276904D01*
X74978094Y-146276904D02*
X75359047Y-146276904D01*
X75359047Y-146276904D02*
X75549523Y-146372142D01*
X75549523Y-146372142D02*
X75644761Y-146467380D01*
X75644761Y-146467380D02*
X75739999Y-146657857D01*
X75739999Y-146657857D02*
X75739999Y-147229285D01*
X75739999Y-147229285D02*
X75644761Y-147419761D01*
X75644761Y-147419761D02*
X75549523Y-147515000D01*
X75549523Y-147515000D02*
X75359047Y-147610238D01*
X75359047Y-147610238D02*
X74978094Y-147610238D01*
X74978094Y-147610238D02*
X74787618Y-147515000D01*
X76597142Y-147419761D02*
X76692380Y-147515000D01*
X76692380Y-147515000D02*
X76597142Y-147610238D01*
X76597142Y-147610238D02*
X76501904Y-147515000D01*
X76501904Y-147515000D02*
X76597142Y-147419761D01*
X76597142Y-147419761D02*
X76597142Y-147610238D01*
X78406666Y-147515000D02*
X78216190Y-147610238D01*
X78216190Y-147610238D02*
X77835237Y-147610238D01*
X77835237Y-147610238D02*
X77644761Y-147515000D01*
X77644761Y-147515000D02*
X77549523Y-147419761D01*
X77549523Y-147419761D02*
X77454285Y-147229285D01*
X77454285Y-147229285D02*
X77454285Y-146657857D01*
X77454285Y-146657857D02*
X77549523Y-146467380D01*
X77549523Y-146467380D02*
X77644761Y-146372142D01*
X77644761Y-146372142D02*
X77835237Y-146276904D01*
X77835237Y-146276904D02*
X78216190Y-146276904D01*
X78216190Y-146276904D02*
X78406666Y-146372142D01*
X79549523Y-147610238D02*
X79359047Y-147515000D01*
X79359047Y-147515000D02*
X79263809Y-147419761D01*
X79263809Y-147419761D02*
X79168571Y-147229285D01*
X79168571Y-147229285D02*
X79168571Y-146657857D01*
X79168571Y-146657857D02*
X79263809Y-146467380D01*
X79263809Y-146467380D02*
X79359047Y-146372142D01*
X79359047Y-146372142D02*
X79549523Y-146276904D01*
X79549523Y-146276904D02*
X79835238Y-146276904D01*
X79835238Y-146276904D02*
X80025714Y-146372142D01*
X80025714Y-146372142D02*
X80120952Y-146467380D01*
X80120952Y-146467380D02*
X80216190Y-146657857D01*
X80216190Y-146657857D02*
X80216190Y-147229285D01*
X80216190Y-147229285D02*
X80120952Y-147419761D01*
X80120952Y-147419761D02*
X80025714Y-147515000D01*
X80025714Y-147515000D02*
X79835238Y-147610238D01*
X79835238Y-147610238D02*
X79549523Y-147610238D01*
X81073333Y-147610238D02*
X81073333Y-146276904D01*
X81073333Y-146467380D02*
X81168571Y-146372142D01*
X81168571Y-146372142D02*
X81359047Y-146276904D01*
X81359047Y-146276904D02*
X81644762Y-146276904D01*
X81644762Y-146276904D02*
X81835238Y-146372142D01*
X81835238Y-146372142D02*
X81930476Y-146562619D01*
X81930476Y-146562619D02*
X81930476Y-147610238D01*
X81930476Y-146562619D02*
X82025714Y-146372142D01*
X82025714Y-146372142D02*
X82216190Y-146276904D01*
X82216190Y-146276904D02*
X82501904Y-146276904D01*
X82501904Y-146276904D02*
X82692381Y-146372142D01*
X82692381Y-146372142D02*
X82787619Y-146562619D01*
X82787619Y-146562619D02*
X82787619Y-147610238D01*
X85168571Y-145515000D02*
X83454286Y-148086428D01*
X86692381Y-147610238D02*
X86692381Y-145610238D01*
X86692381Y-147515000D02*
X86501905Y-147610238D01*
X86501905Y-147610238D02*
X86120952Y-147610238D01*
X86120952Y-147610238D02*
X85930476Y-147515000D01*
X85930476Y-147515000D02*
X85835238Y-147419761D01*
X85835238Y-147419761D02*
X85740000Y-147229285D01*
X85740000Y-147229285D02*
X85740000Y-146657857D01*
X85740000Y-146657857D02*
X85835238Y-146467380D01*
X85835238Y-146467380D02*
X85930476Y-146372142D01*
X85930476Y-146372142D02*
X86120952Y-146276904D01*
X86120952Y-146276904D02*
X86501905Y-146276904D01*
X86501905Y-146276904D02*
X86692381Y-146372142D01*
X88501905Y-146276904D02*
X88501905Y-147610238D01*
X87644762Y-146276904D02*
X87644762Y-147324523D01*
X87644762Y-147324523D02*
X87740000Y-147515000D01*
X87740000Y-147515000D02*
X87930476Y-147610238D01*
X87930476Y-147610238D02*
X88216191Y-147610238D01*
X88216191Y-147610238D02*
X88406667Y-147515000D01*
X88406667Y-147515000D02*
X88501905Y-147419761D01*
X89454286Y-147610238D02*
X89454286Y-145610238D01*
X89454286Y-146372142D02*
X89644762Y-146276904D01*
X89644762Y-146276904D02*
X90025715Y-146276904D01*
X90025715Y-146276904D02*
X90216191Y-146372142D01*
X90216191Y-146372142D02*
X90311429Y-146467380D01*
X90311429Y-146467380D02*
X90406667Y-146657857D01*
X90406667Y-146657857D02*
X90406667Y-147229285D01*
X90406667Y-147229285D02*
X90311429Y-147419761D01*
X90311429Y-147419761D02*
X90216191Y-147515000D01*
X90216191Y-147515000D02*
X90025715Y-147610238D01*
X90025715Y-147610238D02*
X89644762Y-147610238D01*
X89644762Y-147610238D02*
X89454286Y-147515000D01*
X91263810Y-146276904D02*
X91263810Y-148276904D01*
X91263810Y-146372142D02*
X91454286Y-146276904D01*
X91454286Y-146276904D02*
X91835239Y-146276904D01*
X91835239Y-146276904D02*
X92025715Y-146372142D01*
X92025715Y-146372142D02*
X92120953Y-146467380D01*
X92120953Y-146467380D02*
X92216191Y-146657857D01*
X92216191Y-146657857D02*
X92216191Y-147229285D01*
X92216191Y-147229285D02*
X92120953Y-147419761D01*
X92120953Y-147419761D02*
X92025715Y-147515000D01*
X92025715Y-147515000D02*
X91835239Y-147610238D01*
X91835239Y-147610238D02*
X91454286Y-147610238D01*
X91454286Y-147610238D02*
X91263810Y-147515000D01*
X93073334Y-147610238D02*
X93073334Y-146276904D01*
X93073334Y-145610238D02*
X92978096Y-145705476D01*
X92978096Y-145705476D02*
X93073334Y-145800714D01*
X93073334Y-145800714D02*
X93168572Y-145705476D01*
X93168572Y-145705476D02*
X93073334Y-145610238D01*
X93073334Y-145610238D02*
X93073334Y-145800714D01*
X93835239Y-147610238D02*
X94882858Y-146276904D01*
X93835239Y-146276904D02*
X94882858Y-147610238D01*
X96406668Y-147515000D02*
X96216192Y-147610238D01*
X96216192Y-147610238D02*
X95835239Y-147610238D01*
X95835239Y-147610238D02*
X95644763Y-147515000D01*
X95644763Y-147515000D02*
X95549525Y-147324523D01*
X95549525Y-147324523D02*
X95549525Y-146562619D01*
X95549525Y-146562619D02*
X95644763Y-146372142D01*
X95644763Y-146372142D02*
X95835239Y-146276904D01*
X95835239Y-146276904D02*
X96216192Y-146276904D01*
X96216192Y-146276904D02*
X96406668Y-146372142D01*
X96406668Y-146372142D02*
X96501906Y-146562619D01*
X96501906Y-146562619D02*
X96501906Y-146753095D01*
X96501906Y-146753095D02*
X95549525Y-146943571D01*
X97644763Y-147610238D02*
X97454287Y-147515000D01*
X97454287Y-147515000D02*
X97359049Y-147324523D01*
X97359049Y-147324523D02*
X97359049Y-145610238D01*
D11*
X210385198Y-43047376D02*
X210728920Y-43254086D01*
X211064135Y-43471198D01*
X211390685Y-43698439D01*
X211708413Y-43935534D01*
X212017160Y-44182210D01*
X212316769Y-44438193D01*
X212607083Y-44703209D01*
X212887943Y-44976983D01*
X213159191Y-45259243D01*
X213420671Y-45549715D01*
X213672225Y-45848124D01*
X213913694Y-46154196D01*
X214144922Y-46467658D01*
X214365750Y-46788236D01*
X214576021Y-47115656D01*
X214775576Y-47449645D01*
X214964260Y-47789927D01*
X215141912Y-48136230D01*
X215308377Y-48488280D01*
X215463497Y-48845802D01*
X215607112Y-49208524D01*
X215739067Y-49576170D01*
X215859203Y-49948467D01*
X215967363Y-50325142D01*
X216063389Y-50705920D01*
X216147122Y-51090528D01*
X216218407Y-51478691D01*
X216277084Y-51870136D01*
X216322996Y-52264589D01*
X216355986Y-52661776D01*
X216375895Y-53061424D01*
X216382567Y-53463258D01*
X154860422Y-75530868D02*
X154510027Y-75725991D01*
X154154903Y-75908526D01*
X153795363Y-76078472D01*
X153431723Y-76235830D01*
X153064299Y-76380599D01*
X152693406Y-76512779D01*
X152319358Y-76632371D01*
X151942473Y-76739375D01*
X151563064Y-76833789D01*
X151181448Y-76915615D01*
X150797940Y-76984853D01*
X150412855Y-77041501D01*
X150026508Y-77085561D01*
X149639215Y-77117033D01*
X149251291Y-77135916D01*
X148863053Y-77142210D01*
X148474814Y-77135916D01*
X148086890Y-77117033D01*
X147699597Y-77085561D01*
X147313250Y-77041501D01*
X146928165Y-76984853D01*
X146544657Y-76915615D01*
X146163041Y-76833789D01*
X145783632Y-76739375D01*
X145406747Y-76632371D01*
X145032699Y-76512779D01*
X144661806Y-76380599D01*
X144294382Y-76235830D01*
X143930742Y-76078472D01*
X143571202Y-75908526D01*
X143216078Y-75725991D01*
X142865684Y-75530868D01*
X163420555Y-53581518D02*
X163427226Y-53179684D01*
X163447135Y-52780036D01*
X163480125Y-52382849D01*
X163526037Y-51988396D01*
X163584714Y-51596951D01*
X163655999Y-51208788D01*
X163739732Y-50824181D01*
X163835758Y-50443403D01*
X163943918Y-50066728D01*
X164064054Y-49694431D01*
X164196009Y-49326784D01*
X164339624Y-48964063D01*
X164494744Y-48606541D01*
X164661208Y-48254491D01*
X164838861Y-47908188D01*
X165027545Y-47567906D01*
X165227100Y-47233917D01*
X165437371Y-46906497D01*
X165658199Y-46585919D01*
X165889426Y-46272457D01*
X166130896Y-45966384D01*
X166382449Y-45667975D01*
X166643929Y-45377504D01*
X166915178Y-45095244D01*
X167196038Y-44821469D01*
X167486351Y-44556453D01*
X167785960Y-44300471D01*
X168094707Y-44053795D01*
X168412435Y-43816699D01*
X168738985Y-43589458D01*
X169074200Y-43372346D01*
X169417923Y-43165636D01*
X210385198Y-63879139D02*
X210034803Y-64074262D01*
X209679679Y-64256797D01*
X209320139Y-64426743D01*
X208956499Y-64584101D01*
X208589075Y-64728870D01*
X208218182Y-64861050D01*
X207844134Y-64980642D01*
X207467249Y-65087646D01*
X207087840Y-65182060D01*
X206706224Y-65263886D01*
X206322716Y-65333124D01*
X205937631Y-65389772D01*
X205551284Y-65433832D01*
X205163991Y-65465304D01*
X204776067Y-65484187D01*
X204387829Y-65490481D01*
X203999590Y-65484187D01*
X203611666Y-65465304D01*
X203224373Y-65433832D01*
X202838026Y-65389772D01*
X202452941Y-65333124D01*
X202069433Y-65263886D01*
X201687817Y-65182060D01*
X201308408Y-65087646D01*
X200931523Y-64980642D01*
X200557475Y-64861050D01*
X200186582Y-64728870D01*
X199819158Y-64584101D01*
X199455518Y-64426743D01*
X199095978Y-64256797D01*
X198740854Y-64074262D01*
X198390460Y-63879139D01*
X210706299Y-85037421D02*
X210699627Y-85439254D01*
X210679718Y-85838902D01*
X210646728Y-86236089D01*
X210600816Y-86630542D01*
X210542139Y-87021987D01*
X210470854Y-87410150D01*
X210387121Y-87794757D01*
X210291095Y-88175535D01*
X210182935Y-88552210D01*
X210062799Y-88924507D01*
X209930844Y-89292154D01*
X209787229Y-89654875D01*
X209632109Y-90012397D01*
X209465644Y-90364447D01*
X209287992Y-90710750D01*
X209099308Y-91051033D01*
X208899753Y-91385021D01*
X208689482Y-91712441D01*
X208468654Y-92033019D01*
X208237426Y-92346481D01*
X207995957Y-92652554D01*
X207744403Y-92950963D01*
X207482923Y-93241434D01*
X207211675Y-93523694D01*
X206930815Y-93797469D01*
X206640501Y-94062485D01*
X206340892Y-94318467D01*
X206032145Y-94565143D01*
X205714417Y-94802239D01*
X205387867Y-95029480D01*
X205052652Y-95246592D01*
X204708930Y-95453303D01*
X181412661Y-63997400D02*
X181062266Y-64192523D01*
X180707142Y-64375058D01*
X180347602Y-64545004D01*
X179983962Y-64702362D01*
X179616538Y-64847131D01*
X179245645Y-64979311D01*
X178871597Y-65098903D01*
X178494712Y-65205907D01*
X178115303Y-65300321D01*
X177733687Y-65382147D01*
X177350179Y-65451385D01*
X176965094Y-65508033D01*
X176578747Y-65552093D01*
X176191454Y-65583565D01*
X175803530Y-65602448D01*
X175415292Y-65608742D01*
X175027053Y-65602448D01*
X174639129Y-65583565D01*
X174251836Y-65552093D01*
X173865489Y-65508033D01*
X173480404Y-65451385D01*
X173096896Y-65382147D01*
X172715280Y-65300321D01*
X172335871Y-65205907D01*
X171958986Y-65098903D01*
X171584938Y-64979311D01*
X171214045Y-64847131D01*
X170846621Y-64702362D01*
X170482981Y-64545004D01*
X170123441Y-64375058D01*
X169768317Y-64192523D01*
X169417923Y-63997400D01*
X163859914Y-74621539D02*
X164210308Y-74426415D01*
X164565432Y-74243880D01*
X164924972Y-74073934D01*
X165288612Y-73916576D01*
X165656036Y-73771807D01*
X166026929Y-73639627D01*
X166400977Y-73520035D01*
X166777862Y-73413031D01*
X167157271Y-73318617D01*
X167538887Y-73236791D01*
X167922395Y-73167553D01*
X168307480Y-73110905D01*
X168693827Y-73066845D01*
X169081120Y-73035373D01*
X169469044Y-73016490D01*
X169857283Y-73010196D01*
X170245521Y-73016490D01*
X170633445Y-73035373D01*
X171020738Y-73066845D01*
X171407085Y-73110905D01*
X171792170Y-73167553D01*
X172175678Y-73236791D01*
X172557294Y-73318617D01*
X172936703Y-73413031D01*
X173313588Y-73520035D01*
X173687636Y-73639627D01*
X174058529Y-73771807D01*
X174425953Y-73916576D01*
X174789593Y-74073934D01*
X175149133Y-74243880D01*
X175504257Y-74426415D01*
X175854652Y-74621539D01*
X137252477Y-106569308D02*
X136908754Y-106362597D01*
X136573539Y-106145485D01*
X136246989Y-105918244D01*
X135929261Y-105681149D01*
X135620514Y-105434473D01*
X135320905Y-105178490D01*
X135030592Y-104913474D01*
X134749732Y-104639700D01*
X134478483Y-104357440D01*
X134217003Y-104066968D01*
X133965449Y-103768559D01*
X133723980Y-103462487D01*
X133492753Y-103149025D01*
X133271925Y-102828447D01*
X133061654Y-102501027D01*
X132862098Y-102167038D01*
X132673415Y-101826756D01*
X132495762Y-101480453D01*
X132329297Y-101128403D01*
X132174178Y-100770881D01*
X132030562Y-100408159D01*
X131898607Y-100040513D01*
X131778471Y-99668216D01*
X131670311Y-99291541D01*
X131574286Y-98910763D01*
X131490552Y-98526155D01*
X131419268Y-98137992D01*
X131360590Y-97746547D01*
X131314678Y-97352094D01*
X131281688Y-96954907D01*
X131261779Y-96555259D01*
X131255108Y-96153426D01*
X198390460Y-43047376D02*
X198740854Y-42852252D01*
X199095978Y-42669717D01*
X199455518Y-42499771D01*
X199819158Y-42342413D01*
X200186582Y-42197644D01*
X200557475Y-42065464D01*
X200931523Y-41945872D01*
X201308408Y-41838868D01*
X201687817Y-41744454D01*
X202069433Y-41662628D01*
X202452941Y-41593390D01*
X202838026Y-41536742D01*
X203224373Y-41492682D01*
X203611666Y-41461210D01*
X203999590Y-41442327D01*
X204387829Y-41436033D01*
X204776067Y-41442327D01*
X205163991Y-41461210D01*
X205551284Y-41492682D01*
X205937631Y-41536742D01*
X206322716Y-41593390D01*
X206706224Y-41662628D01*
X207087840Y-41744454D01*
X207467249Y-41838868D01*
X207844134Y-41945872D01*
X208218182Y-42065464D01*
X208589075Y-42197644D01*
X208956499Y-42342413D01*
X209320139Y-42499771D01*
X209679679Y-42669717D01*
X210034803Y-42852252D01*
X210385198Y-43047376D01*
X210706299Y-85037421D02*
X210706299Y-85037421D01*
X221923290Y-74621539D02*
X222273684Y-74426415D01*
X222628808Y-74243880D01*
X222988348Y-74073934D01*
X223351988Y-73916576D01*
X223719412Y-73771807D01*
X224090305Y-73639627D01*
X224464353Y-73520035D01*
X224841238Y-73413031D01*
X225220647Y-73318617D01*
X225602263Y-73236791D01*
X225985771Y-73167553D01*
X226370856Y-73110905D01*
X226757203Y-73066845D01*
X227144496Y-73035373D01*
X227532420Y-73016490D01*
X227920659Y-73010196D01*
X228308897Y-73016490D01*
X228696821Y-73035373D01*
X229084114Y-73066845D01*
X229470461Y-73110905D01*
X229855546Y-73167553D01*
X230239054Y-73236791D01*
X230620670Y-73318617D01*
X231000079Y-73413031D01*
X231376964Y-73520035D01*
X231751012Y-73639627D01*
X232121905Y-73771807D01*
X232489329Y-73916576D01*
X232852969Y-74073934D01*
X233212509Y-74243880D01*
X233567633Y-74426415D01*
X233918028Y-74621539D01*
X175854652Y-95453303D02*
X175504257Y-95648426D01*
X175149133Y-95830961D01*
X174789593Y-96000907D01*
X174425953Y-96158265D01*
X174058529Y-96303034D01*
X173687636Y-96435214D01*
X173313588Y-96554806D01*
X172936703Y-96661809D01*
X172557294Y-96756224D01*
X172175678Y-96838050D01*
X171792170Y-96907287D01*
X171407085Y-96963936D01*
X171020738Y-97007996D01*
X170633445Y-97039467D01*
X170245521Y-97058350D01*
X169857283Y-97064645D01*
X169469044Y-97058350D01*
X169081120Y-97039467D01*
X168693827Y-97007996D01*
X168307480Y-96963936D01*
X167922395Y-96907287D01*
X167538887Y-96838050D01*
X167157271Y-96756224D01*
X166777862Y-96661809D01*
X166400977Y-96554806D01*
X166026929Y-96435214D01*
X165656036Y-96303034D01*
X165288612Y-96158265D01*
X164924972Y-96000907D01*
X164565432Y-95830961D01*
X164210308Y-95648426D01*
X163859914Y-95453303D01*
X149247215Y-106569308D02*
X148896820Y-106764431D01*
X148541696Y-106946966D01*
X148182156Y-107116912D01*
X147818516Y-107274270D01*
X147451092Y-107419039D01*
X147080199Y-107551219D01*
X146706151Y-107670811D01*
X146329266Y-107777815D01*
X145949857Y-107872229D01*
X145568241Y-107954055D01*
X145184733Y-108023293D01*
X144799648Y-108079941D01*
X144413301Y-108124001D01*
X144026008Y-108155473D01*
X143638084Y-108174356D01*
X143249846Y-108180650D01*
X142861607Y-108174356D01*
X142473683Y-108155473D01*
X142086390Y-108124001D01*
X141700043Y-108079941D01*
X141314958Y-108023293D01*
X140931450Y-107954055D01*
X140549834Y-107872229D01*
X140170425Y-107777815D01*
X139793540Y-107670811D01*
X139419492Y-107551219D01*
X139048599Y-107419039D01*
X138681175Y-107274270D01*
X138317535Y-107116912D01*
X137957995Y-106946966D01*
X137602871Y-106764431D01*
X137252477Y-106569308D01*
X99309821Y-65170530D02*
X99309821Y-65170530D01*
X136868315Y-65114986D02*
X136874986Y-64713152D01*
X136894895Y-64313504D01*
X136927885Y-63916317D01*
X136973797Y-63521864D01*
X137032474Y-63130419D01*
X137103759Y-62742256D01*
X137187492Y-62357649D01*
X137283518Y-61976871D01*
X137391678Y-61600196D01*
X137511814Y-61227899D01*
X137643769Y-60860252D01*
X137787384Y-60497531D01*
X137942504Y-60140009D01*
X138108969Y-59787959D01*
X138286621Y-59441656D01*
X138475305Y-59101374D01*
X138674860Y-58767385D01*
X138885131Y-58439965D01*
X139105959Y-58119387D01*
X139337187Y-57805925D01*
X139578656Y-57499852D01*
X139830210Y-57201443D01*
X140091690Y-56910972D01*
X140362938Y-56628712D01*
X140643798Y-56354937D01*
X140934112Y-56089921D01*
X141233721Y-55833939D01*
X141542468Y-55587263D01*
X141860196Y-55350167D01*
X142186746Y-55122926D01*
X142521961Y-54905814D01*
X142865684Y-54699104D01*
X192714192Y-74621539D02*
X193064586Y-74426415D01*
X193419710Y-74243880D01*
X193779250Y-74073934D01*
X194142890Y-73916576D01*
X194510314Y-73771807D01*
X194881207Y-73639627D01*
X195255255Y-73520035D01*
X195632140Y-73413031D01*
X196011549Y-73318617D01*
X196393165Y-73236791D01*
X196776673Y-73167553D01*
X197161758Y-73110905D01*
X197548105Y-73066845D01*
X197935398Y-73035373D01*
X198323322Y-73016490D01*
X198711561Y-73010196D01*
X199099799Y-73016490D01*
X199487723Y-73035373D01*
X199875016Y-73066845D01*
X200261363Y-73110905D01*
X200646448Y-73167553D01*
X201029956Y-73236791D01*
X201411572Y-73318617D01*
X201790981Y-73413031D01*
X202167866Y-73520035D01*
X202541914Y-73639627D01*
X202912807Y-73771807D01*
X203280231Y-73916576D01*
X203643871Y-74073934D01*
X204003411Y-74243880D01*
X204358535Y-74426415D01*
X204708930Y-74621539D01*
X146420969Y-129619665D02*
X146420969Y-129619665D01*
X233918028Y-95453303D02*
X233567633Y-95648426D01*
X233212509Y-95830961D01*
X232852969Y-96000907D01*
X232489329Y-96158265D01*
X232121905Y-96303034D01*
X231751012Y-96435214D01*
X231376964Y-96554806D01*
X231000079Y-96661809D01*
X230620670Y-96756224D01*
X230239054Y-96838050D01*
X229855546Y-96907287D01*
X229470461Y-96963936D01*
X229084114Y-97007996D01*
X228696821Y-97039467D01*
X228308897Y-97058350D01*
X227920659Y-97064645D01*
X227532420Y-97058350D01*
X227144496Y-97039467D01*
X226757203Y-97007996D01*
X226370856Y-96963936D01*
X225985771Y-96907287D01*
X225602263Y-96838050D01*
X225220647Y-96756224D01*
X224841238Y-96661809D01*
X224464353Y-96554806D01*
X224090305Y-96435214D01*
X223719412Y-96303034D01*
X223351988Y-96158265D01*
X222988348Y-96000907D01*
X222628808Y-95830961D01*
X222273684Y-95648426D01*
X221923290Y-95453303D01*
X187410030Y-53581518D02*
X187403358Y-53983351D01*
X187383449Y-54382999D01*
X187350459Y-54780186D01*
X187304547Y-55174639D01*
X187245870Y-55566084D01*
X187174585Y-55954247D01*
X187090852Y-56338855D01*
X186994826Y-56719633D01*
X186886666Y-57096308D01*
X186766530Y-57468605D01*
X186634575Y-57836251D01*
X186490960Y-58198972D01*
X186335840Y-58556495D01*
X186169375Y-58908544D01*
X185991723Y-59254847D01*
X185803039Y-59595130D01*
X185603484Y-59929118D01*
X185393213Y-60256538D01*
X185172385Y-60577116D01*
X184941157Y-60890579D01*
X184699688Y-61196651D01*
X184448134Y-61495060D01*
X184186654Y-61785531D01*
X183915406Y-62067791D01*
X183634546Y-62341566D01*
X183344232Y-62606582D01*
X183044623Y-62862565D01*
X182735876Y-63109241D01*
X182418148Y-63346336D01*
X182091598Y-63573577D01*
X181756383Y-63790689D01*
X181412661Y-63997400D01*
X175854652Y-74621539D02*
X176198374Y-74828249D01*
X176533589Y-75045361D01*
X176860139Y-75272602D01*
X177177867Y-75509697D01*
X177486614Y-75756373D01*
X177786223Y-76012356D01*
X178076537Y-76277372D01*
X178357397Y-76551147D01*
X178628645Y-76833407D01*
X178890125Y-77123878D01*
X179141679Y-77422287D01*
X179383148Y-77728359D01*
X179614376Y-78041822D01*
X179835204Y-78362400D01*
X180045475Y-78689820D01*
X180245030Y-79023808D01*
X180433714Y-79364091D01*
X180611366Y-79710394D01*
X180777831Y-80062443D01*
X180932951Y-80419966D01*
X181076566Y-80782687D01*
X181208521Y-81150333D01*
X181328657Y-81522630D01*
X181436817Y-81899305D01*
X181532843Y-82280083D01*
X181616576Y-82664691D01*
X181687861Y-83052854D01*
X181746538Y-83444299D01*
X181792450Y-83838752D01*
X181825440Y-84235939D01*
X181845349Y-84635587D01*
X181852021Y-85037421D01*
X233918028Y-74621539D02*
X234261750Y-74828249D01*
X234596965Y-75045361D01*
X234923515Y-75272602D01*
X235241243Y-75509697D01*
X235549990Y-75756373D01*
X235849599Y-76012356D01*
X236139913Y-76277372D01*
X236420773Y-76551147D01*
X236692021Y-76833407D01*
X236953501Y-77123878D01*
X237205055Y-77422287D01*
X237446524Y-77728359D01*
X237677752Y-78041822D01*
X237898580Y-78362400D01*
X238108851Y-78689820D01*
X238308406Y-79023808D01*
X238497090Y-79364091D01*
X238674742Y-79710394D01*
X238841207Y-80062443D01*
X238996327Y-80419966D01*
X239139942Y-80782687D01*
X239271897Y-81150333D01*
X239392033Y-81522630D01*
X239500193Y-81899305D01*
X239596219Y-82280083D01*
X239679952Y-82664691D01*
X239751237Y-83052854D01*
X239809914Y-83444299D01*
X239855826Y-83838752D01*
X239888816Y-84235939D01*
X239908725Y-84635587D01*
X239915397Y-85037421D01*
X216382567Y-53463258D02*
X216382567Y-53463258D01*
X46229540Y-65052280D02*
X46236211Y-64650446D01*
X46256120Y-64250798D01*
X46289110Y-63853611D01*
X46335022Y-63459158D01*
X46393699Y-63067713D01*
X46464984Y-62679550D01*
X46548717Y-62294943D01*
X46644743Y-61914165D01*
X46752903Y-61537490D01*
X46873039Y-61165193D01*
X47004994Y-60797546D01*
X47148609Y-60434825D01*
X47303729Y-60077303D01*
X47470194Y-59725253D01*
X47647846Y-59378950D01*
X47836530Y-59038668D01*
X48036085Y-58704679D01*
X48246356Y-58377259D01*
X48467184Y-58056681D01*
X48698412Y-57743219D01*
X48939881Y-57437146D01*
X49191435Y-57138737D01*
X49452915Y-56848266D01*
X49724163Y-56566006D01*
X50005023Y-56292231D01*
X50295337Y-56027215D01*
X50594946Y-55771233D01*
X50903693Y-55524557D01*
X51221421Y-55287461D01*
X51547971Y-55060220D01*
X51883186Y-54843108D01*
X52226909Y-54636398D01*
X155244584Y-96153426D02*
X155237912Y-96555259D01*
X155218003Y-96954907D01*
X155185013Y-97352094D01*
X155139101Y-97746547D01*
X155080424Y-98137992D01*
X155009139Y-98526155D01*
X154925406Y-98910763D01*
X154829380Y-99291541D01*
X154721220Y-99668216D01*
X154601084Y-100040513D01*
X154469129Y-100408159D01*
X154325514Y-100770881D01*
X154170394Y-101128403D01*
X154003929Y-101480453D01*
X153826277Y-101826756D01*
X153637593Y-102167038D01*
X153438038Y-102501027D01*
X153227767Y-102828447D01*
X153006939Y-103149025D01*
X152775711Y-103462487D01*
X152534242Y-103768559D01*
X152282688Y-104066968D01*
X152021208Y-104357440D01*
X151749960Y-104639700D01*
X151469100Y-104913474D01*
X151178786Y-105178490D01*
X150879177Y-105434473D01*
X150570430Y-105681149D01*
X150252702Y-105918244D01*
X149926152Y-106145485D01*
X149590937Y-106362597D01*
X149247215Y-106569308D01*
X101927798Y-76523042D02*
X101934469Y-76121208D01*
X101954378Y-75721560D01*
X101987368Y-75324373D01*
X102033280Y-74929920D01*
X102091957Y-74538475D01*
X102163242Y-74150312D01*
X102246975Y-73765704D01*
X102343001Y-73384926D01*
X102451161Y-73008251D01*
X102571297Y-72635954D01*
X102703252Y-72268308D01*
X102846867Y-71905587D01*
X103001987Y-71548064D01*
X103168451Y-71196015D01*
X103346104Y-70849712D01*
X103534788Y-70509429D01*
X103734343Y-70175441D01*
X103944614Y-69848021D01*
X104165442Y-69527443D01*
X104396669Y-69213980D01*
X104638139Y-68907908D01*
X104889692Y-68609499D01*
X105151172Y-68319028D01*
X105422421Y-68036768D01*
X105703281Y-67762993D01*
X105993594Y-67497977D01*
X106293203Y-67241994D01*
X106601950Y-66995318D01*
X106919678Y-66758223D01*
X107246228Y-66530982D01*
X107581443Y-66313870D01*
X107925166Y-66107160D01*
X131255108Y-96153426D02*
X131261779Y-95751592D01*
X131281688Y-95351944D01*
X131314678Y-94954757D01*
X131360590Y-94560304D01*
X131419268Y-94168859D01*
X131490552Y-93780696D01*
X131574286Y-93396089D01*
X131670311Y-93015311D01*
X131778471Y-92638636D01*
X131898607Y-92266339D01*
X132030562Y-91898692D01*
X132174178Y-91535971D01*
X132329297Y-91178449D01*
X132495762Y-90826399D01*
X132673415Y-90480096D01*
X132862098Y-90139814D01*
X133061654Y-89805825D01*
X133271925Y-89478405D01*
X133492753Y-89157827D01*
X133723980Y-88844365D01*
X133965449Y-88538293D01*
X134217003Y-88239884D01*
X134478483Y-87949413D01*
X134749732Y-87667153D01*
X135030592Y-87393378D01*
X135320905Y-87128362D01*
X135620514Y-86872380D01*
X135929261Y-86625704D01*
X136246989Y-86388609D01*
X136573539Y-86161368D01*
X136908754Y-85944256D01*
X137252477Y-85737546D01*
X125917273Y-76523042D02*
X125917273Y-76523042D01*
X123913745Y-142649412D02*
X123483765Y-142390827D01*
X123064427Y-142119230D01*
X122655929Y-141834964D01*
X122258468Y-141538369D01*
X121872241Y-141229790D01*
X121497445Y-140909568D01*
X121134277Y-140578047D01*
X120782936Y-140235568D01*
X120443617Y-139882475D01*
X120116518Y-139519110D01*
X119801838Y-139145815D01*
X119499772Y-138762934D01*
X119210517Y-138370808D01*
X118934273Y-137969781D01*
X118671235Y-137560195D01*
X118421600Y-137142393D01*
X118185567Y-136716716D01*
X117963332Y-136283508D01*
X117755093Y-135843112D01*
X117561047Y-135395869D01*
X117381391Y-134942123D01*
X117216322Y-134482216D01*
X117066037Y-134016491D01*
X116930735Y-133545290D01*
X116810612Y-133068955D01*
X116705865Y-132587831D01*
X116616692Y-132102258D01*
X116543290Y-131612580D01*
X116485856Y-131119139D01*
X116444588Y-130622277D01*
X116419682Y-130122338D01*
X116411337Y-129619665D01*
X52226909Y-54636398D02*
X52577302Y-54441274D01*
X52932427Y-54258739D01*
X53291967Y-54088793D01*
X53655607Y-53931435D01*
X54023031Y-53786666D01*
X54393924Y-53654486D01*
X54767971Y-53534894D01*
X55144857Y-53427890D01*
X55524265Y-53333476D01*
X55905881Y-53251650D01*
X56289390Y-53182412D01*
X56674475Y-53125764D01*
X57060822Y-53081704D01*
X57448114Y-53050232D01*
X57836038Y-53031349D01*
X58224277Y-53025055D01*
X58612516Y-53031349D01*
X59000440Y-53050232D01*
X59387732Y-53081704D01*
X59774079Y-53125764D01*
X60159164Y-53182412D01*
X60542673Y-53251650D01*
X60924289Y-53333476D01*
X61303697Y-53427890D01*
X61680583Y-53534894D01*
X62054630Y-53654486D01*
X62425523Y-53786666D01*
X62792947Y-53931435D01*
X63156587Y-54088793D01*
X63516127Y-54258739D01*
X63871252Y-54441274D01*
X64221646Y-54636398D01*
X239915397Y-85037421D02*
X239915397Y-85037421D01*
X107925166Y-86938924D02*
X107581443Y-86732213D01*
X107246228Y-86515101D01*
X106919678Y-86287860D01*
X106601950Y-86050764D01*
X106293203Y-85804088D01*
X105993594Y-85548106D01*
X105703281Y-85283090D01*
X105422421Y-85009315D01*
X105151172Y-84727055D01*
X104889692Y-84436584D01*
X104638139Y-84138175D01*
X104396669Y-83832102D01*
X104165442Y-83518640D01*
X103944614Y-83198062D01*
X103734343Y-82870642D01*
X103534788Y-82536654D01*
X103346104Y-82196371D01*
X103168451Y-81850068D01*
X103001987Y-81498018D01*
X102846867Y-81140496D01*
X102703252Y-80777775D01*
X102571297Y-80410128D01*
X102451161Y-80037831D01*
X102343001Y-79661156D01*
X102246975Y-79280378D01*
X102163242Y-78895771D01*
X102091957Y-78507608D01*
X102033280Y-78116163D01*
X101987368Y-77721710D01*
X101954378Y-77324523D01*
X101934469Y-76924875D01*
X101927798Y-76523042D01*
X146420969Y-129619665D02*
X146412623Y-130122338D01*
X146387717Y-130622277D01*
X146346449Y-131119139D01*
X146289015Y-131612580D01*
X146215613Y-132102258D01*
X146126440Y-132587831D01*
X146021693Y-133068955D01*
X145901570Y-133545290D01*
X145766267Y-134016491D01*
X145615983Y-134482216D01*
X145450914Y-134942123D01*
X145271258Y-135395869D01*
X145077212Y-135843112D01*
X144868972Y-136283508D01*
X144646737Y-136716716D01*
X144410704Y-137142393D01*
X144161070Y-137560195D01*
X143898032Y-137969781D01*
X143621787Y-138370808D01*
X143332533Y-138762934D01*
X143030467Y-139145815D01*
X142715786Y-139519110D01*
X142388688Y-139882475D01*
X142049369Y-140235568D01*
X141698027Y-140578047D01*
X141334860Y-140909568D01*
X140960064Y-141229790D01*
X140573837Y-141538369D01*
X140176375Y-141834964D01*
X139767877Y-142119230D01*
X139348540Y-142390827D01*
X138918561Y-142649412D01*
X192393091Y-53463258D02*
X192399762Y-53061424D01*
X192419671Y-52661776D01*
X192452661Y-52264589D01*
X192498573Y-51870136D01*
X192557250Y-51478691D01*
X192628535Y-51090528D01*
X192712268Y-50705920D01*
X192808294Y-50325142D01*
X192916454Y-49948467D01*
X193036590Y-49576170D01*
X193168545Y-49208524D01*
X193312160Y-48845802D01*
X193467280Y-48488280D01*
X193633745Y-48136230D01*
X193811397Y-47789927D01*
X194000081Y-47449645D01*
X194199636Y-47115656D01*
X194409907Y-46788236D01*
X194630735Y-46467658D01*
X194861963Y-46154196D01*
X195103432Y-45848124D01*
X195354986Y-45549715D01*
X195616466Y-45259243D01*
X195887714Y-44976983D01*
X196168574Y-44703209D01*
X196458888Y-44438193D01*
X196758497Y-44182210D01*
X197067244Y-43935534D01*
X197384972Y-43698439D01*
X197711522Y-43471198D01*
X198046737Y-43254086D01*
X198390460Y-43047376D01*
X245355098Y-53699766D02*
X245355098Y-53699766D01*
X142865684Y-54699104D02*
X143216078Y-54503980D01*
X143571202Y-54321445D01*
X143930742Y-54151499D01*
X144294382Y-53994141D01*
X144661806Y-53849372D01*
X145032699Y-53717192D01*
X145406747Y-53597600D01*
X145783632Y-53490597D01*
X146163041Y-53396182D01*
X146544657Y-53314356D01*
X146928165Y-53245119D01*
X147313250Y-53188470D01*
X147699597Y-53144410D01*
X148086890Y-53112939D01*
X148474814Y-53094056D01*
X148863053Y-53087762D01*
X149251291Y-53094056D01*
X149639215Y-53112939D01*
X150026508Y-53144410D01*
X150412855Y-53188470D01*
X150797940Y-53245119D01*
X151181448Y-53314356D01*
X151563064Y-53396182D01*
X151942473Y-53490597D01*
X152319358Y-53597600D01*
X152693406Y-53717192D01*
X153064299Y-53849372D01*
X153431723Y-53994141D01*
X153795363Y-54151499D01*
X154154903Y-54321445D01*
X154510027Y-54503980D01*
X154860422Y-54699104D01*
X149247215Y-85737546D02*
X149590937Y-85944256D01*
X149926152Y-86161368D01*
X150252702Y-86388609D01*
X150570430Y-86625704D01*
X150879177Y-86872380D01*
X151178786Y-87128362D01*
X151469100Y-87393378D01*
X151749960Y-87667153D01*
X152021208Y-87949413D01*
X152282688Y-88239884D01*
X152534242Y-88538293D01*
X152775711Y-88844365D01*
X153006939Y-89157827D01*
X153227767Y-89478405D01*
X153438038Y-89805825D01*
X153637593Y-90139814D01*
X153826277Y-90480096D01*
X154003929Y-90826399D01*
X154170394Y-91178449D01*
X154325514Y-91535971D01*
X154469129Y-91898692D01*
X154601084Y-92266339D01*
X154721220Y-92638636D01*
X154829380Y-93015311D01*
X154925406Y-93396089D01*
X155009139Y-93780696D01*
X155080424Y-94168859D01*
X155139101Y-94560304D01*
X155185013Y-94954757D01*
X155218003Y-95351944D01*
X155237912Y-95751592D01*
X155244584Y-96153426D01*
X192714192Y-95453303D02*
X192370469Y-95246592D01*
X192035254Y-95029480D01*
X191708704Y-94802239D01*
X191390976Y-94565143D01*
X191082229Y-94318467D01*
X190782620Y-94062485D01*
X190492307Y-93797469D01*
X190211447Y-93523694D01*
X189940198Y-93241434D01*
X189678718Y-92950963D01*
X189427164Y-92652554D01*
X189185695Y-92346481D01*
X188954468Y-92033019D01*
X188733640Y-91712441D01*
X188523369Y-91385021D01*
X188323813Y-91051033D01*
X188135130Y-90710750D01*
X187957477Y-90364447D01*
X187791012Y-90012397D01*
X187635893Y-89654875D01*
X187492277Y-89292154D01*
X187360322Y-88924507D01*
X187240186Y-88552210D01*
X187132026Y-88175535D01*
X187036001Y-87794757D01*
X186952267Y-87410150D01*
X186880983Y-87021987D01*
X186822305Y-86630542D01*
X186776393Y-86236089D01*
X186743403Y-85838902D01*
X186723494Y-85439254D01*
X186716823Y-85037421D01*
X81317714Y-54754648D02*
X81668108Y-54559524D01*
X82023232Y-54376989D01*
X82382772Y-54207043D01*
X82746412Y-54049685D01*
X83113836Y-53904916D01*
X83484729Y-53772736D01*
X83858777Y-53653144D01*
X84235662Y-53546141D01*
X84615071Y-53451726D01*
X84996687Y-53369900D01*
X85380195Y-53300663D01*
X85765280Y-53244014D01*
X86151627Y-53199954D01*
X86538920Y-53168483D01*
X86926844Y-53149600D01*
X87315083Y-53143306D01*
X87703321Y-53149600D01*
X88091245Y-53168483D01*
X88478538Y-53199954D01*
X88864885Y-53244014D01*
X89249970Y-53300663D01*
X89633478Y-53369900D01*
X90015094Y-53451726D01*
X90394503Y-53546141D01*
X90771388Y-53653144D01*
X91145436Y-53772736D01*
X91516329Y-53904916D01*
X91883753Y-54049685D01*
X92247393Y-54207043D01*
X92606933Y-54376989D01*
X92962057Y-54559524D01*
X93312452Y-54754648D01*
X160857791Y-65114986D02*
X160851119Y-65516819D01*
X160831210Y-65916467D01*
X160798220Y-66313654D01*
X160752308Y-66708107D01*
X160693631Y-67099552D01*
X160622346Y-67487715D01*
X160538613Y-67872323D01*
X160442587Y-68253101D01*
X160334427Y-68629776D01*
X160214291Y-69002073D01*
X160082336Y-69369719D01*
X159938721Y-69732440D01*
X159783601Y-70089963D01*
X159617136Y-70442012D01*
X159439484Y-70788315D01*
X159250800Y-71128598D01*
X159051245Y-71462586D01*
X158840974Y-71790006D01*
X158620146Y-72110584D01*
X158388918Y-72424047D01*
X158147449Y-72730119D01*
X157895895Y-73028528D01*
X157634415Y-73318999D01*
X157363167Y-73601259D01*
X157082307Y-73875034D01*
X156791993Y-74140050D01*
X156492384Y-74396033D01*
X156183637Y-74642709D01*
X155865909Y-74879804D01*
X155539359Y-75107045D01*
X155204144Y-75324157D01*
X154860422Y-75530868D01*
X138918561Y-116589918D02*
X139348540Y-116848502D01*
X139767877Y-117120098D01*
X140176375Y-117404365D01*
X140573837Y-117700960D01*
X140960064Y-118009539D01*
X141334860Y-118329761D01*
X141698027Y-118661282D01*
X142049369Y-119003760D01*
X142388688Y-119356854D01*
X142715786Y-119720219D01*
X143030467Y-120093513D01*
X143332533Y-120476395D01*
X143621787Y-120868520D01*
X143898032Y-121269547D01*
X144161070Y-121679133D01*
X144410704Y-122096936D01*
X144646737Y-122522613D01*
X144868972Y-122955820D01*
X145077212Y-123396217D01*
X145271258Y-123843460D01*
X145450914Y-124297206D01*
X145615983Y-124757113D01*
X145766267Y-125222838D01*
X145901570Y-125694039D01*
X146021693Y-126170373D01*
X146126440Y-126651498D01*
X146215613Y-127137071D01*
X146289015Y-127626749D01*
X146346449Y-128120190D01*
X146387717Y-128617052D01*
X146412623Y-129116991D01*
X146420969Y-129619665D01*
X221923290Y-95453303D02*
X221579567Y-95246592D01*
X221244352Y-95029480D01*
X220917802Y-94802239D01*
X220600074Y-94565143D01*
X220291327Y-94318467D01*
X219991718Y-94062485D01*
X219701404Y-93797469D01*
X219420544Y-93523694D01*
X219149296Y-93241434D01*
X218887816Y-92950963D01*
X218636262Y-92652554D01*
X218394793Y-92346481D01*
X218163565Y-92033019D01*
X217942737Y-91712441D01*
X217732466Y-91385021D01*
X217532911Y-91051033D01*
X217344227Y-90710750D01*
X217166575Y-90364447D01*
X217000110Y-90012397D01*
X216844990Y-89654875D01*
X216701375Y-89292154D01*
X216569420Y-88924507D01*
X216449284Y-88552210D01*
X216341124Y-88175535D01*
X216245098Y-87794757D01*
X216161365Y-87410150D01*
X216090080Y-87021987D01*
X216031403Y-86630542D01*
X215985491Y-86236089D01*
X215952501Y-85838902D01*
X215932592Y-85439254D01*
X215925921Y-85037421D01*
X137252477Y-85737546D02*
X137602871Y-85542422D01*
X137957995Y-85359887D01*
X138317535Y-85189940D01*
X138681175Y-85032583D01*
X139048599Y-84887814D01*
X139419492Y-84755633D01*
X139793540Y-84636041D01*
X140170425Y-84529038D01*
X140549834Y-84434623D01*
X140931450Y-84352797D01*
X141314958Y-84283560D01*
X141700043Y-84226911D01*
X142086390Y-84182851D01*
X142473683Y-84151379D01*
X142861607Y-84132496D01*
X143249846Y-84126202D01*
X143638084Y-84132496D01*
X144026008Y-84151379D01*
X144413301Y-84182851D01*
X144799648Y-84226911D01*
X145184733Y-84283560D01*
X145568241Y-84352797D01*
X145949857Y-84434623D01*
X146329266Y-84529038D01*
X146706151Y-84636041D01*
X147080199Y-84755633D01*
X147451092Y-84887814D01*
X147818516Y-85032583D01*
X148182156Y-85189940D01*
X148541696Y-85359887D01*
X148896820Y-85542422D01*
X149247215Y-85737546D01*
X186716823Y-85037421D02*
X186723494Y-84635587D01*
X186743403Y-84235939D01*
X186776393Y-83838752D01*
X186822305Y-83444299D01*
X186880983Y-83052854D01*
X186952267Y-82664691D01*
X187036001Y-82280083D01*
X187132026Y-81899305D01*
X187240186Y-81522630D01*
X187360322Y-81150333D01*
X187492277Y-80782687D01*
X187635893Y-80419966D01*
X187791012Y-80062443D01*
X187957477Y-79710394D01*
X188135130Y-79364091D01*
X188323813Y-79023808D01*
X188523369Y-78689820D01*
X188733640Y-78362400D01*
X188954468Y-78041822D01*
X189185695Y-77728359D01*
X189427164Y-77422287D01*
X189678718Y-77123878D01*
X189940198Y-76833407D01*
X190211447Y-76551147D01*
X190492307Y-76277372D01*
X190782620Y-76012356D01*
X191082229Y-75756373D01*
X191390976Y-75509697D01*
X191708704Y-75272602D01*
X192035254Y-75045361D01*
X192370469Y-74828249D01*
X192714192Y-74621539D01*
X245355098Y-53699766D02*
X245339490Y-54318685D01*
X245293170Y-54929479D01*
X245216891Y-55531393D01*
X245111407Y-56123671D01*
X244977471Y-56705556D01*
X244815837Y-57276294D01*
X244627259Y-57835128D01*
X244412491Y-58381304D01*
X244172286Y-58914064D01*
X243907397Y-59432654D01*
X243618578Y-59936318D01*
X243306584Y-60424301D01*
X242972167Y-60895845D01*
X242616082Y-61350197D01*
X242239081Y-61786599D01*
X241841919Y-62204297D01*
X241425350Y-62602535D01*
X240990126Y-62980556D01*
X240537002Y-63337606D01*
X240066731Y-63672928D01*
X239580067Y-63985768D01*
X239077763Y-64275368D01*
X238560574Y-64540975D01*
X238029252Y-64781831D01*
X237484552Y-64997181D01*
X236927227Y-65186269D01*
X236358031Y-65348341D01*
X235777717Y-65482639D01*
X235187040Y-65588409D01*
X234586752Y-65664894D01*
X233977607Y-65711340D01*
X233360360Y-65726990D01*
X239915397Y-85037421D02*
X239908725Y-85439254D01*
X239888816Y-85838902D01*
X239855826Y-86236089D01*
X239809914Y-86630542D01*
X239751237Y-87021987D01*
X239679952Y-87410150D01*
X239596219Y-87794757D01*
X239500193Y-88175535D01*
X239392033Y-88552210D01*
X239271897Y-88924507D01*
X239139942Y-89292154D01*
X238996327Y-89654875D01*
X238841207Y-90012397D01*
X238674742Y-90364447D01*
X238497090Y-90710750D01*
X238308406Y-91051033D01*
X238108851Y-91385021D01*
X237898580Y-91712441D01*
X237677752Y-92033019D01*
X237446524Y-92346481D01*
X237205055Y-92652554D01*
X236953501Y-92950963D01*
X236692021Y-93241434D01*
X236420773Y-93523694D01*
X236139913Y-93797469D01*
X235849599Y-94062485D01*
X235549990Y-94318467D01*
X235241243Y-94565143D01*
X234923515Y-94802239D01*
X234596965Y-95029480D01*
X234261750Y-95246592D01*
X233918028Y-95453303D01*
X239357729Y-43283884D02*
X239701451Y-43490594D01*
X240036666Y-43707706D01*
X240363216Y-43934947D01*
X240680944Y-44172043D01*
X240989691Y-44418719D01*
X241289300Y-44674701D01*
X241579614Y-44939717D01*
X241860474Y-45213492D01*
X242131722Y-45495752D01*
X242393202Y-45786223D01*
X242644756Y-46084632D01*
X242886225Y-46390705D01*
X243117453Y-46704167D01*
X243338281Y-47024745D01*
X243548552Y-47352165D01*
X243748107Y-47686154D01*
X243936791Y-48026436D01*
X244114443Y-48372739D01*
X244280908Y-48724789D01*
X244436028Y-49082311D01*
X244579643Y-49445032D01*
X244711598Y-49812679D01*
X244831734Y-50184976D01*
X244939894Y-50561651D01*
X245035920Y-50942429D01*
X245119653Y-51327036D01*
X245190938Y-51715199D01*
X245249615Y-52106644D01*
X245295527Y-52501097D01*
X245328517Y-52898284D01*
X245348426Y-53297932D01*
X245355098Y-53699766D01*
X155244584Y-96153426D02*
X155244584Y-96153426D01*
X123913745Y-116589918D02*
X124352070Y-116345828D01*
X124796313Y-116117486D01*
X125246079Y-115904891D01*
X125700974Y-115708045D01*
X126160604Y-115526946D01*
X126624573Y-115361595D01*
X127092487Y-115211991D01*
X127563952Y-115078136D01*
X128038573Y-114960028D01*
X128515955Y-114857668D01*
X128995705Y-114771055D01*
X129477428Y-114700190D01*
X129960728Y-114645073D01*
X130445212Y-114605704D01*
X130930485Y-114582082D01*
X131416153Y-114574209D01*
X131901820Y-114582082D01*
X132387093Y-114605704D01*
X132871577Y-114645073D01*
X133354877Y-114700190D01*
X133836600Y-114771055D01*
X134316350Y-114857668D01*
X134793732Y-114960028D01*
X135268353Y-115078136D01*
X135739818Y-115211991D01*
X136207732Y-115361595D01*
X136671701Y-115526946D01*
X137131331Y-115708045D01*
X137586226Y-115904891D01*
X138035992Y-116117486D01*
X138480235Y-116345828D01*
X138918561Y-116589918D01*
X138918561Y-142649412D02*
X138480235Y-142893501D01*
X138035992Y-143121843D01*
X137586226Y-143334438D01*
X137131331Y-143531284D01*
X136671701Y-143712383D01*
X136207732Y-143877734D01*
X135739818Y-144027338D01*
X135268353Y-144161193D01*
X134793732Y-144279301D01*
X134316350Y-144381661D01*
X133836600Y-144468274D01*
X133354877Y-144539139D01*
X132871577Y-144594256D01*
X132387093Y-144633625D01*
X131901820Y-144657247D01*
X131416153Y-144665121D01*
X130930485Y-144657247D01*
X130445212Y-144633625D01*
X129960728Y-144594256D01*
X129477428Y-144539139D01*
X128995705Y-144468274D01*
X128515955Y-144381661D01*
X128038573Y-144279301D01*
X127563952Y-144161193D01*
X127092487Y-144027338D01*
X126624573Y-143877734D01*
X126160604Y-143712383D01*
X125700974Y-143531284D01*
X125246079Y-143334438D01*
X124796313Y-143121843D01*
X124352070Y-142893501D01*
X123913745Y-142649412D01*
X99309821Y-65170530D02*
X99303149Y-65572363D01*
X99283240Y-65972011D01*
X99250250Y-66369198D01*
X99204338Y-66763651D01*
X99145660Y-67155096D01*
X99074376Y-67543259D01*
X98990642Y-67927867D01*
X98894617Y-68308645D01*
X98786457Y-68685320D01*
X98666321Y-69057617D01*
X98534366Y-69425263D01*
X98390750Y-69787984D01*
X98235631Y-70145507D01*
X98069166Y-70497556D01*
X97891513Y-70843859D01*
X97702830Y-71184142D01*
X97503274Y-71518130D01*
X97293003Y-71845550D01*
X97072175Y-72166128D01*
X96840948Y-72479591D01*
X96599479Y-72785663D01*
X96347925Y-73084072D01*
X96086445Y-73374543D01*
X95815196Y-73656803D01*
X95534336Y-73930578D01*
X95244023Y-74195594D01*
X94944414Y-74451577D01*
X94635667Y-74698253D01*
X94317939Y-74935348D01*
X93991389Y-75162589D01*
X93656174Y-75379701D01*
X93312452Y-75586412D01*
X64221646Y-75468162D02*
X63871252Y-75663285D01*
X63516127Y-75845820D01*
X63156587Y-76015766D01*
X62792947Y-76173124D01*
X62425523Y-76317893D01*
X62054630Y-76450073D01*
X61680583Y-76569665D01*
X61303697Y-76676669D01*
X60924289Y-76771083D01*
X60542673Y-76852909D01*
X60159164Y-76922147D01*
X59774079Y-76978795D01*
X59387732Y-77022855D01*
X59000440Y-77054327D01*
X58612516Y-77073210D01*
X58224277Y-77079504D01*
X57836038Y-77073210D01*
X57448114Y-77054327D01*
X57060822Y-77022855D01*
X56674475Y-76978795D01*
X56289390Y-76922147D01*
X55905881Y-76852909D01*
X55524265Y-76771083D01*
X55144857Y-76676669D01*
X54767971Y-76569665D01*
X54393924Y-76450073D01*
X54023031Y-76317893D01*
X53655607Y-76173124D01*
X53291967Y-76015766D01*
X52932427Y-75845820D01*
X52577302Y-75663285D01*
X52226909Y-75468162D01*
X70219015Y-65052280D02*
X70219015Y-65052280D01*
X204708930Y-95453303D02*
X204358535Y-95648426D01*
X204003411Y-95830961D01*
X203643871Y-96000907D01*
X203280231Y-96158265D01*
X202912807Y-96303034D01*
X202541914Y-96435214D01*
X202167866Y-96554806D01*
X201790981Y-96661809D01*
X201411572Y-96756224D01*
X201029956Y-96838050D01*
X200646448Y-96907287D01*
X200261363Y-96963936D01*
X199875016Y-97007996D01*
X199487723Y-97039467D01*
X199099799Y-97058350D01*
X198711561Y-97064645D01*
X198323322Y-97058350D01*
X197935398Y-97039467D01*
X197548105Y-97007996D01*
X197161758Y-96963936D01*
X196776673Y-96907287D01*
X196393165Y-96838050D01*
X196011549Y-96756224D01*
X195632140Y-96661809D01*
X195255255Y-96554806D01*
X194881207Y-96435214D01*
X194510314Y-96303034D01*
X194142890Y-96158265D01*
X193779250Y-96000907D01*
X193419710Y-95830961D01*
X193064586Y-95648426D01*
X192714192Y-95453303D01*
X215925921Y-85037421D02*
X215932592Y-84635587D01*
X215952501Y-84235939D01*
X215985491Y-83838752D01*
X216031403Y-83444299D01*
X216090080Y-83052854D01*
X216161365Y-82664691D01*
X216245098Y-82280083D01*
X216341124Y-81899305D01*
X216449284Y-81522630D01*
X216569420Y-81150333D01*
X216701375Y-80782687D01*
X216844990Y-80419966D01*
X217000110Y-80062443D01*
X217166575Y-79710394D01*
X217344227Y-79364091D01*
X217532911Y-79023808D01*
X217732466Y-78689820D01*
X217942737Y-78362400D01*
X218163565Y-78041822D01*
X218394793Y-77728359D01*
X218636262Y-77422287D01*
X218887816Y-77123878D01*
X219149296Y-76833407D01*
X219420544Y-76551147D01*
X219701404Y-76277372D01*
X219991718Y-76012356D01*
X220291327Y-75756373D01*
X220600074Y-75509697D01*
X220917802Y-75272602D01*
X221244352Y-75045361D01*
X221579567Y-74828249D01*
X221923290Y-74621539D01*
X157862545Y-85037421D02*
X157869216Y-84635587D01*
X157889125Y-84235939D01*
X157922115Y-83838752D01*
X157968027Y-83444299D01*
X158026704Y-83052854D01*
X158097989Y-82664691D01*
X158181722Y-82280083D01*
X158277748Y-81899305D01*
X158385908Y-81522630D01*
X158506044Y-81150333D01*
X158637999Y-80782687D01*
X158781614Y-80419966D01*
X158936734Y-80062443D01*
X159103199Y-79710394D01*
X159280851Y-79364091D01*
X159469535Y-79023808D01*
X159669090Y-78689820D01*
X159879361Y-78362400D01*
X160100189Y-78041822D01*
X160331417Y-77728359D01*
X160572886Y-77422287D01*
X160824440Y-77123878D01*
X161085920Y-76833407D01*
X161357168Y-76551147D01*
X161638028Y-76277372D01*
X161928342Y-76012356D01*
X162227951Y-75756373D01*
X162536698Y-75509697D01*
X162854426Y-75272602D01*
X163180976Y-75045361D01*
X163516191Y-74828249D01*
X163859914Y-74621539D01*
X163859914Y-95453303D02*
X163516191Y-95246592D01*
X163180976Y-95029480D01*
X162854426Y-94802239D01*
X162536698Y-94565143D01*
X162227951Y-94318467D01*
X161928342Y-94062485D01*
X161638028Y-93797469D01*
X161357168Y-93523694D01*
X161085920Y-93241434D01*
X160824440Y-92950963D01*
X160572886Y-92652554D01*
X160331417Y-92346481D01*
X160100189Y-92033019D01*
X159879361Y-91712441D01*
X159669090Y-91385021D01*
X159469535Y-91051033D01*
X159280851Y-90710750D01*
X159103199Y-90364447D01*
X158936734Y-90012397D01*
X158781614Y-89654875D01*
X158637999Y-89292154D01*
X158506044Y-88924507D01*
X158385908Y-88552210D01*
X158277748Y-88175535D01*
X158181722Y-87794757D01*
X158097989Y-87410150D01*
X158026704Y-87021987D01*
X157968027Y-86630542D01*
X157922115Y-86236089D01*
X157889125Y-85838902D01*
X157869216Y-85439254D01*
X157862545Y-85037421D01*
X119919904Y-86938924D02*
X119569509Y-87134047D01*
X119214385Y-87316582D01*
X118854845Y-87486528D01*
X118491205Y-87643886D01*
X118123781Y-87788655D01*
X117752888Y-87920835D01*
X117378840Y-88040427D01*
X117001955Y-88147430D01*
X116622546Y-88241845D01*
X116240930Y-88323671D01*
X115857422Y-88392908D01*
X115472337Y-88449557D01*
X115085990Y-88493617D01*
X114698697Y-88525088D01*
X114310773Y-88543971D01*
X113922535Y-88550266D01*
X113534296Y-88543971D01*
X113146372Y-88525088D01*
X112759079Y-88493617D01*
X112372732Y-88449557D01*
X111987647Y-88392908D01*
X111604139Y-88323671D01*
X111222523Y-88241845D01*
X110843114Y-88147430D01*
X110466229Y-88040427D01*
X110092181Y-87920835D01*
X109721288Y-87788655D01*
X109353864Y-87643886D01*
X108990224Y-87486528D01*
X108630684Y-87316582D01*
X108275560Y-87134047D01*
X107925166Y-86938924D01*
X181852021Y-85037421D02*
X181852021Y-85037421D01*
X154860422Y-54699104D02*
X155204144Y-54905814D01*
X155539359Y-55122926D01*
X155865909Y-55350167D01*
X156183637Y-55587263D01*
X156492384Y-55833939D01*
X156791993Y-56089921D01*
X157082307Y-56354937D01*
X157363167Y-56628712D01*
X157634415Y-56910972D01*
X157895895Y-57201443D01*
X158147449Y-57499852D01*
X158388918Y-57805925D01*
X158620146Y-58119387D01*
X158840974Y-58439965D01*
X159051245Y-58767385D01*
X159250800Y-59101374D01*
X159439484Y-59441656D01*
X159617136Y-59787959D01*
X159783601Y-60140009D01*
X159938721Y-60497531D01*
X160082336Y-60860252D01*
X160214291Y-61227899D01*
X160334427Y-61600196D01*
X160442587Y-61976871D01*
X160538613Y-62357649D01*
X160622346Y-62742256D01*
X160693631Y-63130419D01*
X160752308Y-63521864D01*
X160798220Y-63916317D01*
X160831210Y-64313504D01*
X160851119Y-64713152D01*
X160857791Y-65114986D01*
X75320345Y-65170530D02*
X75327016Y-64768696D01*
X75346925Y-64369048D01*
X75379915Y-63971861D01*
X75425827Y-63577408D01*
X75484504Y-63185963D01*
X75555789Y-62797800D01*
X75639522Y-62413193D01*
X75735548Y-62032415D01*
X75843708Y-61655740D01*
X75963844Y-61283443D01*
X76095799Y-60915796D01*
X76239414Y-60553075D01*
X76394534Y-60195553D01*
X76560999Y-59843503D01*
X76738651Y-59497200D01*
X76927335Y-59156918D01*
X77126890Y-58822929D01*
X77337161Y-58495509D01*
X77557989Y-58174931D01*
X77789217Y-57861469D01*
X78030686Y-57555396D01*
X78282240Y-57256987D01*
X78543720Y-56966516D01*
X78814968Y-56684256D01*
X79095828Y-56410481D01*
X79386142Y-56145465D01*
X79685751Y-55889483D01*
X79994498Y-55642807D01*
X80312226Y-55405711D01*
X80638776Y-55178470D01*
X80973991Y-54961358D01*
X81317714Y-54754648D01*
X93312452Y-54754648D02*
X93656174Y-54961358D01*
X93991389Y-55178470D01*
X94317939Y-55405711D01*
X94635667Y-55642807D01*
X94944414Y-55889483D01*
X95244023Y-56145465D01*
X95534336Y-56410481D01*
X95815196Y-56684256D01*
X96086445Y-56966516D01*
X96347925Y-57256987D01*
X96599479Y-57555396D01*
X96840948Y-57861469D01*
X97072175Y-58174931D01*
X97293003Y-58495509D01*
X97503274Y-58822929D01*
X97702830Y-59156918D01*
X97891513Y-59497200D01*
X98069166Y-59843503D01*
X98235631Y-60195553D01*
X98390750Y-60553075D01*
X98534366Y-60915796D01*
X98666321Y-61283443D01*
X98786457Y-61655740D01*
X98894617Y-62032415D01*
X98990642Y-62413193D01*
X99074376Y-62797800D01*
X99145660Y-63185963D01*
X99204338Y-63577408D01*
X99250250Y-63971861D01*
X99283240Y-64369048D01*
X99303149Y-64768696D01*
X99309821Y-65170530D01*
X119919904Y-66107160D02*
X120263626Y-66313870D01*
X120598841Y-66530982D01*
X120925391Y-66758223D01*
X121243119Y-66995318D01*
X121551866Y-67241994D01*
X121851475Y-67497977D01*
X122141789Y-67762993D01*
X122422649Y-68036768D01*
X122693897Y-68319028D01*
X122955377Y-68609499D01*
X123206931Y-68907908D01*
X123448400Y-69213980D01*
X123679628Y-69527443D01*
X123900456Y-69848021D01*
X124110727Y-70175441D01*
X124310282Y-70509429D01*
X124498966Y-70849712D01*
X124676618Y-71196015D01*
X124843083Y-71548064D01*
X124998203Y-71905587D01*
X125141818Y-72268308D01*
X125273773Y-72635954D01*
X125393909Y-73008251D01*
X125502069Y-73384926D01*
X125598095Y-73765704D01*
X125681828Y-74150312D01*
X125753113Y-74538475D01*
X125811790Y-74929920D01*
X125857702Y-75324373D01*
X125890692Y-75721560D01*
X125910601Y-76121208D01*
X125917273Y-76523042D01*
X116411337Y-129619665D02*
X116419682Y-129116991D01*
X116444588Y-128617052D01*
X116485856Y-128120190D01*
X116543290Y-127626749D01*
X116616692Y-127137071D01*
X116705865Y-126651498D01*
X116810612Y-126170373D01*
X116930735Y-125694039D01*
X117066037Y-125222838D01*
X117216322Y-124757113D01*
X117381391Y-124297206D01*
X117561047Y-123843460D01*
X117755093Y-123396217D01*
X117963332Y-122955820D01*
X118185567Y-122522613D01*
X118421600Y-122096936D01*
X118671235Y-121679133D01*
X118934273Y-121269547D01*
X119210517Y-120868520D01*
X119499772Y-120476395D01*
X119801838Y-120093513D01*
X120116518Y-119720219D01*
X120443617Y-119356854D01*
X120782936Y-119003760D01*
X121134277Y-118661282D01*
X121497445Y-118329761D01*
X121872241Y-118009539D01*
X122258468Y-117700960D01*
X122655929Y-117404365D01*
X123064427Y-117120098D01*
X123483765Y-116848502D01*
X123913745Y-116589918D01*
X187410030Y-53581518D02*
X187410030Y-53581518D01*
X107925166Y-66107160D02*
X108275560Y-65912036D01*
X108630684Y-65729501D01*
X108990224Y-65559555D01*
X109353864Y-65402197D01*
X109721288Y-65257428D01*
X110092181Y-65125248D01*
X110466229Y-65005656D01*
X110843114Y-64898652D01*
X111222523Y-64804238D01*
X111604139Y-64722412D01*
X111987647Y-64653174D01*
X112372732Y-64596526D01*
X112759079Y-64552466D01*
X113146372Y-64520994D01*
X113534296Y-64502111D01*
X113922535Y-64495817D01*
X114310773Y-64502111D01*
X114698697Y-64520994D01*
X115085990Y-64552466D01*
X115472337Y-64596526D01*
X115857422Y-64653174D01*
X116240930Y-64722412D01*
X116622546Y-64804238D01*
X117001955Y-64898652D01*
X117378840Y-65005656D01*
X117752888Y-65125248D01*
X118123781Y-65257428D01*
X118491205Y-65402197D01*
X118854845Y-65559555D01*
X119214385Y-65729501D01*
X119569509Y-65912036D01*
X119919904Y-66107160D01*
X169417923Y-63997400D02*
X169074200Y-63790689D01*
X168738985Y-63573577D01*
X168412435Y-63346336D01*
X168094707Y-63109241D01*
X167785960Y-62862565D01*
X167486351Y-62606582D01*
X167196038Y-62341566D01*
X166915178Y-62067791D01*
X166643929Y-61785531D01*
X166382449Y-61495060D01*
X166130896Y-61196651D01*
X165889426Y-60890579D01*
X165658199Y-60577116D01*
X165437371Y-60256538D01*
X165227100Y-59929118D01*
X165027545Y-59595130D01*
X164838861Y-59254847D01*
X164661208Y-58908544D01*
X164494744Y-58556495D01*
X164339624Y-58198972D01*
X164196009Y-57836251D01*
X164064054Y-57468605D01*
X163943918Y-57096308D01*
X163835758Y-56719633D01*
X163739732Y-56338855D01*
X163655999Y-55954247D01*
X163584714Y-55566084D01*
X163526037Y-55174639D01*
X163480125Y-54780186D01*
X163447135Y-54382999D01*
X163427226Y-53983351D01*
X163420555Y-53581518D01*
X93312452Y-75586412D02*
X92962057Y-75781535D01*
X92606933Y-75964070D01*
X92247393Y-76134016D01*
X91883753Y-76291374D01*
X91516329Y-76436143D01*
X91145436Y-76568323D01*
X90771388Y-76687915D01*
X90394503Y-76794919D01*
X90015094Y-76889333D01*
X89633478Y-76971159D01*
X89249970Y-77040397D01*
X88864885Y-77097045D01*
X88478538Y-77141105D01*
X88091245Y-77172577D01*
X87703321Y-77191460D01*
X87315083Y-77197754D01*
X86926844Y-77191460D01*
X86538920Y-77172577D01*
X86151627Y-77141105D01*
X85765280Y-77097045D01*
X85380195Y-77040397D01*
X84996687Y-76971159D01*
X84615071Y-76889333D01*
X84235662Y-76794919D01*
X83858777Y-76687915D01*
X83484729Y-76568323D01*
X83113836Y-76436143D01*
X82746412Y-76291374D01*
X82382772Y-76134016D01*
X82023232Y-75964070D01*
X81668108Y-75781535D01*
X81317714Y-75586412D01*
X181412661Y-43165636D02*
X181756383Y-43372346D01*
X182091598Y-43589458D01*
X182418148Y-43816699D01*
X182735876Y-44053795D01*
X183044623Y-44300471D01*
X183344232Y-44556453D01*
X183634546Y-44821469D01*
X183915406Y-45095244D01*
X184186654Y-45377504D01*
X184448134Y-45667975D01*
X184699688Y-45966384D01*
X184941157Y-46272457D01*
X185172385Y-46585919D01*
X185393213Y-46906497D01*
X185603484Y-47233917D01*
X185803039Y-47567906D01*
X185991723Y-47908188D01*
X186169375Y-48254491D01*
X186335840Y-48606541D01*
X186490960Y-48964063D01*
X186634575Y-49326784D01*
X186766530Y-49694431D01*
X186886666Y-50066728D01*
X186994826Y-50443403D01*
X187090852Y-50824181D01*
X187174585Y-51208788D01*
X187245870Y-51596951D01*
X187304547Y-51988396D01*
X187350459Y-52382849D01*
X187383449Y-52780036D01*
X187403358Y-53179684D01*
X187410030Y-53581518D01*
X125917273Y-76523042D02*
X125910601Y-76924875D01*
X125890692Y-77324523D01*
X125857702Y-77721710D01*
X125811790Y-78116163D01*
X125753113Y-78507608D01*
X125681828Y-78895771D01*
X125598095Y-79280378D01*
X125502069Y-79661156D01*
X125393909Y-80037831D01*
X125273773Y-80410128D01*
X125141818Y-80777775D01*
X124998203Y-81140496D01*
X124843083Y-81498018D01*
X124676618Y-81850068D01*
X124498966Y-82196371D01*
X124310282Y-82536654D01*
X124110727Y-82870642D01*
X123900456Y-83198062D01*
X123679628Y-83518640D01*
X123448400Y-83832102D01*
X123206931Y-84138175D01*
X122955377Y-84436584D01*
X122693897Y-84727055D01*
X122422649Y-85009315D01*
X122141789Y-85283090D01*
X121851475Y-85548106D01*
X121551866Y-85804088D01*
X121243119Y-86050764D01*
X120925391Y-86287860D01*
X120598841Y-86515101D01*
X120263626Y-86732213D01*
X119919904Y-86938924D01*
X181852021Y-85037421D02*
X181845349Y-85439254D01*
X181825440Y-85838902D01*
X181792450Y-86236089D01*
X181746538Y-86630542D01*
X181687861Y-87021987D01*
X181616576Y-87410150D01*
X181532843Y-87794757D01*
X181436817Y-88175535D01*
X181328657Y-88552210D01*
X181208521Y-88924507D01*
X181076566Y-89292154D01*
X180932951Y-89654875D01*
X180777831Y-90012397D01*
X180611366Y-90364447D01*
X180433714Y-90710750D01*
X180245030Y-91051033D01*
X180045475Y-91385021D01*
X179835204Y-91712441D01*
X179614376Y-92033019D01*
X179383148Y-92346481D01*
X179141679Y-92652554D01*
X178890125Y-92950963D01*
X178628645Y-93241434D01*
X178357397Y-93523694D01*
X178076537Y-93797469D01*
X177786223Y-94062485D01*
X177486614Y-94318467D01*
X177177867Y-94565143D01*
X176860139Y-94802239D01*
X176533589Y-95029480D01*
X176198374Y-95246592D01*
X175854652Y-95453303D01*
X160857791Y-65114986D02*
X160857791Y-65114986D01*
X216382567Y-53463258D02*
X216375895Y-53865091D01*
X216355986Y-54264739D01*
X216322996Y-54661926D01*
X216277084Y-55056379D01*
X216218407Y-55447824D01*
X216147122Y-55835987D01*
X216063389Y-56220594D01*
X215967363Y-56601372D01*
X215859203Y-56978047D01*
X215739067Y-57350344D01*
X215607112Y-57717991D01*
X215463497Y-58080712D01*
X215308377Y-58438234D01*
X215141912Y-58790284D01*
X214964260Y-59136587D01*
X214775576Y-59476869D01*
X214576021Y-59810858D01*
X214365750Y-60138278D01*
X214144922Y-60458856D01*
X213913694Y-60772318D01*
X213672225Y-61078390D01*
X213420671Y-61376799D01*
X213159191Y-61667271D01*
X212887943Y-61949531D01*
X212607083Y-62223305D01*
X212316769Y-62488321D01*
X212017160Y-62744304D01*
X211708413Y-62990980D01*
X211390685Y-63228075D01*
X211064135Y-63455316D01*
X210728920Y-63672428D01*
X210385198Y-63879139D01*
X70219015Y-65052280D02*
X70212343Y-65454113D01*
X70192434Y-65853761D01*
X70159444Y-66250948D01*
X70113532Y-66645401D01*
X70054855Y-67036846D01*
X69983570Y-67425009D01*
X69899837Y-67809616D01*
X69803811Y-68190394D01*
X69695651Y-68567069D01*
X69575515Y-68939366D01*
X69443560Y-69307013D01*
X69299945Y-69669734D01*
X69144825Y-70027256D01*
X68978360Y-70379306D01*
X68800708Y-70725609D01*
X68612024Y-71065892D01*
X68412469Y-71399880D01*
X68202198Y-71727300D01*
X67981370Y-72047878D01*
X67750142Y-72361340D01*
X67508673Y-72667413D01*
X67257119Y-72965822D01*
X66995639Y-73256293D01*
X66724391Y-73538553D01*
X66443531Y-73812328D01*
X66153217Y-74077344D01*
X65853608Y-74333326D01*
X65544861Y-74580002D01*
X65227133Y-74817098D01*
X64900583Y-75044339D01*
X64565368Y-75261451D01*
X64221646Y-75468162D01*
X221365622Y-53699766D02*
X221372293Y-53297932D01*
X221392202Y-52898284D01*
X221425192Y-52501097D01*
X221471104Y-52106644D01*
X221529781Y-51715199D01*
X221601066Y-51327036D01*
X221684799Y-50942429D01*
X221780825Y-50561651D01*
X221888985Y-50184976D01*
X222009121Y-49812679D01*
X222141076Y-49445032D01*
X222284691Y-49082311D01*
X222439811Y-48724789D01*
X222606276Y-48372739D01*
X222783928Y-48026436D01*
X222972612Y-47686154D01*
X223172167Y-47352165D01*
X223382438Y-47024745D01*
X223603266Y-46704167D01*
X223834494Y-46390705D01*
X224075963Y-46084632D01*
X224327517Y-45786223D01*
X224588997Y-45495752D01*
X224860245Y-45213492D01*
X225141105Y-44939717D01*
X225431419Y-44674701D01*
X225731028Y-44418719D01*
X226039775Y-44172043D01*
X226357503Y-43934947D01*
X226684053Y-43707706D01*
X227019268Y-43490594D01*
X227362991Y-43283884D01*
X233360360Y-65726990D02*
X232743112Y-65711340D01*
X232133967Y-65664894D01*
X231533679Y-65588409D01*
X230943002Y-65482639D01*
X230362688Y-65348341D01*
X229793492Y-65186269D01*
X229236167Y-64997181D01*
X228691467Y-64781831D01*
X228160145Y-64540975D01*
X227642956Y-64275368D01*
X227140652Y-63985768D01*
X226653988Y-63672928D01*
X226183717Y-63337606D01*
X225730593Y-62980556D01*
X225295369Y-62602535D01*
X224878800Y-62204297D01*
X224481638Y-61786599D01*
X224104637Y-61350197D01*
X223748552Y-60895845D01*
X223414135Y-60424301D01*
X223102141Y-59936318D01*
X222813322Y-59432654D01*
X222548433Y-58914064D01*
X222308228Y-58381304D01*
X222093460Y-57835128D01*
X221904882Y-57276294D01*
X221743248Y-56705556D01*
X221609312Y-56123671D01*
X221503828Y-55531393D01*
X221427549Y-54929479D01*
X221381229Y-54318685D01*
X221365622Y-53699766D01*
X142865684Y-75530868D02*
X142521961Y-75324157D01*
X142186746Y-75107045D01*
X141860196Y-74879804D01*
X141542468Y-74642709D01*
X141233721Y-74396033D01*
X140934112Y-74140050D01*
X140643798Y-73875034D01*
X140362938Y-73601259D01*
X140091690Y-73318999D01*
X139830210Y-73028528D01*
X139578656Y-72730119D01*
X139337187Y-72424047D01*
X139105959Y-72110584D01*
X138885131Y-71790006D01*
X138674860Y-71462586D01*
X138475305Y-71128598D01*
X138286621Y-70788315D01*
X138108969Y-70442012D01*
X137942504Y-70089963D01*
X137787384Y-69732440D01*
X137643769Y-69369719D01*
X137511814Y-69002073D01*
X137391678Y-68629776D01*
X137283518Y-68253101D01*
X137187492Y-67872323D01*
X137103759Y-67487715D01*
X137032474Y-67099552D01*
X136973797Y-66708107D01*
X136927885Y-66313654D01*
X136894895Y-65916467D01*
X136874986Y-65516819D01*
X136868315Y-65114986D01*
X169417923Y-43165636D02*
X169768317Y-42970512D01*
X170123441Y-42787977D01*
X170482981Y-42618031D01*
X170846621Y-42460673D01*
X171214045Y-42315904D01*
X171584938Y-42183724D01*
X171958986Y-42064132D01*
X172335871Y-41957129D01*
X172715280Y-41862714D01*
X173096896Y-41780888D01*
X173480404Y-41711651D01*
X173865489Y-41655002D01*
X174251836Y-41610942D01*
X174639129Y-41579471D01*
X175027053Y-41560588D01*
X175415292Y-41554294D01*
X175803530Y-41560588D01*
X176191454Y-41579471D01*
X176578747Y-41610942D01*
X176965094Y-41655002D01*
X177350179Y-41711651D01*
X177733687Y-41780888D01*
X178115303Y-41862714D01*
X178494712Y-41957129D01*
X178871597Y-42064132D01*
X179245645Y-42183724D01*
X179616538Y-42315904D01*
X179983962Y-42460673D01*
X180347602Y-42618031D01*
X180707142Y-42787977D01*
X181062266Y-42970512D01*
X181412661Y-43165636D01*
X81317714Y-75586412D02*
X80973991Y-75379701D01*
X80638776Y-75162589D01*
X80312226Y-74935348D01*
X79994498Y-74698253D01*
X79685751Y-74451577D01*
X79386142Y-74195594D01*
X79095828Y-73930578D01*
X78814968Y-73656803D01*
X78543720Y-73374543D01*
X78282240Y-73084072D01*
X78030686Y-72785663D01*
X77789217Y-72479591D01*
X77557989Y-72166128D01*
X77337161Y-71845550D01*
X77126890Y-71518130D01*
X76927335Y-71184142D01*
X76738651Y-70843859D01*
X76560999Y-70497556D01*
X76394534Y-70145507D01*
X76239414Y-69787984D01*
X76095799Y-69425263D01*
X75963844Y-69057617D01*
X75843708Y-68685320D01*
X75735548Y-68308645D01*
X75639522Y-67927867D01*
X75555789Y-67543259D01*
X75484504Y-67155096D01*
X75425827Y-66763651D01*
X75379915Y-66369198D01*
X75346925Y-65972011D01*
X75327016Y-65572363D01*
X75320345Y-65170530D01*
X198390460Y-63879139D02*
X198046737Y-63672428D01*
X197711522Y-63455316D01*
X197384972Y-63228075D01*
X197067244Y-62990980D01*
X196758497Y-62744304D01*
X196458888Y-62488321D01*
X196168574Y-62223305D01*
X195887714Y-61949531D01*
X195616466Y-61667271D01*
X195354986Y-61376799D01*
X195103432Y-61078390D01*
X194861963Y-60772318D01*
X194630735Y-60458856D01*
X194409907Y-60138278D01*
X194199636Y-59810858D01*
X194000081Y-59476869D01*
X193811397Y-59136587D01*
X193633745Y-58790284D01*
X193467280Y-58438234D01*
X193312160Y-58080712D01*
X193168545Y-57717991D01*
X193036590Y-57350344D01*
X192916454Y-56978047D01*
X192808294Y-56601372D01*
X192712268Y-56220594D01*
X192628535Y-55835987D01*
X192557250Y-55447824D01*
X192498573Y-55056379D01*
X192452661Y-54661926D01*
X192419671Y-54264739D01*
X192399762Y-53865091D01*
X192393091Y-53463258D01*
X204708930Y-74621539D02*
X205052652Y-74828249D01*
X205387867Y-75045361D01*
X205714417Y-75272602D01*
X206032145Y-75509697D01*
X206340892Y-75756373D01*
X206640501Y-76012356D01*
X206930815Y-76277372D01*
X207211675Y-76551147D01*
X207482923Y-76833407D01*
X207744403Y-77123878D01*
X207995957Y-77422287D01*
X208237426Y-77728359D01*
X208468654Y-78041822D01*
X208689482Y-78362400D01*
X208899753Y-78689820D01*
X209099308Y-79023808D01*
X209287992Y-79364091D01*
X209465644Y-79710394D01*
X209632109Y-80062443D01*
X209787229Y-80419966D01*
X209930844Y-80782687D01*
X210062799Y-81150333D01*
X210182935Y-81522630D01*
X210291095Y-81899305D01*
X210387121Y-82280083D01*
X210470854Y-82664691D01*
X210542139Y-83052854D01*
X210600816Y-83444299D01*
X210646728Y-83838752D01*
X210679718Y-84235939D01*
X210699627Y-84635587D01*
X210706299Y-85037421D01*
X64221646Y-54636398D02*
X64565368Y-54843108D01*
X64900583Y-55060220D01*
X65227133Y-55287461D01*
X65544861Y-55524557D01*
X65853608Y-55771233D01*
X66153217Y-56027215D01*
X66443531Y-56292231D01*
X66724391Y-56566006D01*
X66995639Y-56848266D01*
X67257119Y-57138737D01*
X67508673Y-57437146D01*
X67750142Y-57743219D01*
X67981370Y-58056681D01*
X68202198Y-58377259D01*
X68412469Y-58704679D01*
X68612024Y-59038668D01*
X68800708Y-59378950D01*
X68978360Y-59725253D01*
X69144825Y-60077303D01*
X69299945Y-60434825D01*
X69443560Y-60797546D01*
X69575515Y-61165193D01*
X69695651Y-61537490D01*
X69803811Y-61914165D01*
X69899837Y-62294943D01*
X69983570Y-62679550D01*
X70054855Y-63067713D01*
X70113532Y-63459158D01*
X70159444Y-63853611D01*
X70192434Y-64250798D01*
X70212343Y-64650446D01*
X70219015Y-65052280D01*
X52226909Y-75468162D02*
X51883186Y-75261451D01*
X51547971Y-75044339D01*
X51221421Y-74817098D01*
X50903693Y-74580002D01*
X50594946Y-74333326D01*
X50295337Y-74077344D01*
X50005023Y-73812328D01*
X49724163Y-73538553D01*
X49452915Y-73256293D01*
X49191435Y-72965822D01*
X48939881Y-72667413D01*
X48698412Y-72361340D01*
X48467184Y-72047878D01*
X48246356Y-71727300D01*
X48036085Y-71399880D01*
X47836530Y-71065892D01*
X47647846Y-70725609D01*
X47470194Y-70379306D01*
X47303729Y-70027256D01*
X47148609Y-69669734D01*
X47004994Y-69307013D01*
X46873039Y-68939366D01*
X46752903Y-68567069D01*
X46644743Y-68190394D01*
X46548717Y-67809616D01*
X46464984Y-67425009D01*
X46393699Y-67036846D01*
X46335022Y-66645401D01*
X46289110Y-66250948D01*
X46256120Y-65853761D01*
X46236211Y-65454113D01*
X46229540Y-65052280D01*
X227362991Y-43283884D02*
X227713385Y-43088760D01*
X228068509Y-42906225D01*
X228428049Y-42736279D01*
X228791689Y-42578921D01*
X229159113Y-42434152D01*
X229530006Y-42301972D01*
X229904054Y-42182380D01*
X230280939Y-42075376D01*
X230660348Y-41980962D01*
X231041964Y-41899136D01*
X231425472Y-41829898D01*
X231810557Y-41773250D01*
X232196904Y-41729190D01*
X232584197Y-41697718D01*
X232972121Y-41678835D01*
X233360360Y-41672541D01*
X233748598Y-41678835D01*
X234136522Y-41697718D01*
X234523815Y-41729190D01*
X234910162Y-41773250D01*
X235295247Y-41829898D01*
X235678755Y-41899136D01*
X236060371Y-41980962D01*
X236439780Y-42075376D01*
X236816665Y-42182380D01*
X237190713Y-42301972D01*
X237561606Y-42434152D01*
X237929030Y-42578921D01*
X238292670Y-42736279D01*
X238652210Y-42906225D01*
X239007334Y-43088760D01*
X239357729Y-43283884D01*
D12*
X118547618Y-63462619D02*
X118214285Y-62986428D01*
X117976190Y-63462619D02*
X117976190Y-62462619D01*
X117976190Y-62462619D02*
X118357142Y-62462619D01*
X118357142Y-62462619D02*
X118452380Y-62510238D01*
X118452380Y-62510238D02*
X118499999Y-62557857D01*
X118499999Y-62557857D02*
X118547618Y-62653095D01*
X118547618Y-62653095D02*
X118547618Y-62795952D01*
X118547618Y-62795952D02*
X118499999Y-62891190D01*
X118499999Y-62891190D02*
X118452380Y-62938809D01*
X118452380Y-62938809D02*
X118357142Y-62986428D01*
X118357142Y-62986428D02*
X117976190Y-62986428D01*
X118976190Y-62938809D02*
X119309523Y-62938809D01*
X119452380Y-63462619D02*
X118976190Y-63462619D01*
X118976190Y-63462619D02*
X118976190Y-62462619D01*
X118976190Y-62462619D02*
X119452380Y-62462619D01*
X119833333Y-63415000D02*
X119976190Y-63462619D01*
X119976190Y-63462619D02*
X120214285Y-63462619D01*
X120214285Y-63462619D02*
X120309523Y-63415000D01*
X120309523Y-63415000D02*
X120357142Y-63367380D01*
X120357142Y-63367380D02*
X120404761Y-63272142D01*
X120404761Y-63272142D02*
X120404761Y-63176904D01*
X120404761Y-63176904D02*
X120357142Y-63081666D01*
X120357142Y-63081666D02*
X120309523Y-63034047D01*
X120309523Y-63034047D02*
X120214285Y-62986428D01*
X120214285Y-62986428D02*
X120023809Y-62938809D01*
X120023809Y-62938809D02*
X119928571Y-62891190D01*
X119928571Y-62891190D02*
X119880952Y-62843571D01*
X119880952Y-62843571D02*
X119833333Y-62748333D01*
X119833333Y-62748333D02*
X119833333Y-62653095D01*
X119833333Y-62653095D02*
X119880952Y-62557857D01*
X119880952Y-62557857D02*
X119928571Y-62510238D01*
X119928571Y-62510238D02*
X120023809Y-62462619D01*
X120023809Y-62462619D02*
X120261904Y-62462619D01*
X120261904Y-62462619D02*
X120404761Y-62510238D01*
X120833333Y-62938809D02*
X121166666Y-62938809D01*
X121309523Y-63462619D02*
X120833333Y-63462619D01*
X120833333Y-63462619D02*
X120833333Y-62462619D01*
X120833333Y-62462619D02*
X121309523Y-62462619D01*
X121595238Y-62462619D02*
X122166666Y-62462619D01*
X121880952Y-63462619D02*
X121880952Y-62462619D01*
D13*
X44262618Y-134891952D02*
X44262618Y-126891952D01*
X44262618Y-126891952D02*
X46167380Y-126891952D01*
X46167380Y-126891952D02*
X47310237Y-127272904D01*
X47310237Y-127272904D02*
X48072142Y-128034809D01*
X48072142Y-128034809D02*
X48453095Y-128796714D01*
X48453095Y-128796714D02*
X48834047Y-130320523D01*
X48834047Y-130320523D02*
X48834047Y-131463380D01*
X48834047Y-131463380D02*
X48453095Y-132987190D01*
X48453095Y-132987190D02*
X48072142Y-133749095D01*
X48072142Y-133749095D02*
X47310237Y-134511000D01*
X47310237Y-134511000D02*
X46167380Y-134891952D01*
X46167380Y-134891952D02*
X44262618Y-134891952D01*
X52262618Y-134891952D02*
X52262618Y-126891952D01*
X52262618Y-126891952D02*
X55310237Y-126891952D01*
X55310237Y-126891952D02*
X56072142Y-127272904D01*
X56072142Y-127272904D02*
X56453095Y-127653857D01*
X56453095Y-127653857D02*
X56834047Y-128415761D01*
X56834047Y-128415761D02*
X56834047Y-129558619D01*
X56834047Y-129558619D02*
X56453095Y-130320523D01*
X56453095Y-130320523D02*
X56072142Y-130701476D01*
X56072142Y-130701476D02*
X55310237Y-131082428D01*
X55310237Y-131082428D02*
X52262618Y-131082428D01*
X59500714Y-126891952D02*
X64834047Y-134891952D01*
X64834047Y-126891952D02*
X59500714Y-134891952D01*
X65976905Y-135653857D02*
X72072143Y-135653857D01*
X76643571Y-130701476D02*
X77786428Y-131082428D01*
X77786428Y-131082428D02*
X78167381Y-131463380D01*
X78167381Y-131463380D02*
X78548333Y-132225285D01*
X78548333Y-132225285D02*
X78548333Y-133368142D01*
X78548333Y-133368142D02*
X78167381Y-134130047D01*
X78167381Y-134130047D02*
X77786428Y-134511000D01*
X77786428Y-134511000D02*
X77024523Y-134891952D01*
X77024523Y-134891952D02*
X73976904Y-134891952D01*
X73976904Y-134891952D02*
X73976904Y-126891952D01*
X73976904Y-126891952D02*
X76643571Y-126891952D01*
X76643571Y-126891952D02*
X77405476Y-127272904D01*
X77405476Y-127272904D02*
X77786428Y-127653857D01*
X77786428Y-127653857D02*
X78167381Y-128415761D01*
X78167381Y-128415761D02*
X78167381Y-129177666D01*
X78167381Y-129177666D02*
X77786428Y-129939571D01*
X77786428Y-129939571D02*
X77405476Y-130320523D01*
X77405476Y-130320523D02*
X76643571Y-130701476D01*
X76643571Y-130701476D02*
X73976904Y-130701476D01*
X83500714Y-126891952D02*
X85024523Y-126891952D01*
X85024523Y-126891952D02*
X85786428Y-127272904D01*
X85786428Y-127272904D02*
X86548333Y-128034809D01*
X86548333Y-128034809D02*
X86929285Y-129558619D01*
X86929285Y-129558619D02*
X86929285Y-132225285D01*
X86929285Y-132225285D02*
X86548333Y-133749095D01*
X86548333Y-133749095D02*
X85786428Y-134511000D01*
X85786428Y-134511000D02*
X85024523Y-134891952D01*
X85024523Y-134891952D02*
X83500714Y-134891952D01*
X83500714Y-134891952D02*
X82738809Y-134511000D01*
X82738809Y-134511000D02*
X81976904Y-133749095D01*
X81976904Y-133749095D02*
X81595952Y-132225285D01*
X81595952Y-132225285D02*
X81595952Y-129558619D01*
X81595952Y-129558619D02*
X81976904Y-128034809D01*
X81976904Y-128034809D02*
X82738809Y-127272904D01*
X82738809Y-127272904D02*
X83500714Y-126891952D01*
X89595952Y-126891952D02*
X94929285Y-134891952D01*
X94929285Y-126891952D02*
X89595952Y-134891952D01*
D12*
X111642857Y-62938809D02*
X111785714Y-62986428D01*
X111785714Y-62986428D02*
X111833333Y-63034047D01*
X111833333Y-63034047D02*
X111880952Y-63129285D01*
X111880952Y-63129285D02*
X111880952Y-63272142D01*
X111880952Y-63272142D02*
X111833333Y-63367380D01*
X111833333Y-63367380D02*
X111785714Y-63415000D01*
X111785714Y-63415000D02*
X111690476Y-63462619D01*
X111690476Y-63462619D02*
X111309524Y-63462619D01*
X111309524Y-63462619D02*
X111309524Y-62462619D01*
X111309524Y-62462619D02*
X111642857Y-62462619D01*
X111642857Y-62462619D02*
X111738095Y-62510238D01*
X111738095Y-62510238D02*
X111785714Y-62557857D01*
X111785714Y-62557857D02*
X111833333Y-62653095D01*
X111833333Y-62653095D02*
X111833333Y-62748333D01*
X111833333Y-62748333D02*
X111785714Y-62843571D01*
X111785714Y-62843571D02*
X111738095Y-62891190D01*
X111738095Y-62891190D02*
X111642857Y-62938809D01*
X111642857Y-62938809D02*
X111309524Y-62938809D01*
X112500000Y-62462619D02*
X112690476Y-62462619D01*
X112690476Y-62462619D02*
X112785714Y-62510238D01*
X112785714Y-62510238D02*
X112880952Y-62605476D01*
X112880952Y-62605476D02*
X112928571Y-62795952D01*
X112928571Y-62795952D02*
X112928571Y-63129285D01*
X112928571Y-63129285D02*
X112880952Y-63319761D01*
X112880952Y-63319761D02*
X112785714Y-63415000D01*
X112785714Y-63415000D02*
X112690476Y-63462619D01*
X112690476Y-63462619D02*
X112500000Y-63462619D01*
X112500000Y-63462619D02*
X112404762Y-63415000D01*
X112404762Y-63415000D02*
X112309524Y-63319761D01*
X112309524Y-63319761D02*
X112261905Y-63129285D01*
X112261905Y-63129285D02*
X112261905Y-62795952D01*
X112261905Y-62795952D02*
X112309524Y-62605476D01*
X112309524Y-62605476D02*
X112404762Y-62510238D01*
X112404762Y-62510238D02*
X112500000Y-62462619D01*
X113547619Y-62462619D02*
X113738095Y-62462619D01*
X113738095Y-62462619D02*
X113833333Y-62510238D01*
X113833333Y-62510238D02*
X113928571Y-62605476D01*
X113928571Y-62605476D02*
X113976190Y-62795952D01*
X113976190Y-62795952D02*
X113976190Y-63129285D01*
X113976190Y-63129285D02*
X113928571Y-63319761D01*
X113928571Y-63319761D02*
X113833333Y-63415000D01*
X113833333Y-63415000D02*
X113738095Y-63462619D01*
X113738095Y-63462619D02*
X113547619Y-63462619D01*
X113547619Y-63462619D02*
X113452381Y-63415000D01*
X113452381Y-63415000D02*
X113357143Y-63319761D01*
X113357143Y-63319761D02*
X113309524Y-63129285D01*
X113309524Y-63129285D02*
X113309524Y-62795952D01*
X113309524Y-62795952D02*
X113357143Y-62605476D01*
X113357143Y-62605476D02*
X113452381Y-62510238D01*
X113452381Y-62510238D02*
X113547619Y-62462619D01*
X114261905Y-62462619D02*
X114833333Y-62462619D01*
X114547619Y-63462619D02*
X114547619Y-62462619D01*
%TO.C,SW20*%
X124765000Y-58859523D02*
X124812619Y-58716666D01*
X124812619Y-58716666D02*
X124812619Y-58478571D01*
X124812619Y-58478571D02*
X124765000Y-58383333D01*
X124765000Y-58383333D02*
X124717380Y-58335714D01*
X124717380Y-58335714D02*
X124622142Y-58288095D01*
X124622142Y-58288095D02*
X124526904Y-58288095D01*
X124526904Y-58288095D02*
X124431666Y-58335714D01*
X124431666Y-58335714D02*
X124384047Y-58383333D01*
X124384047Y-58383333D02*
X124336428Y-58478571D01*
X124336428Y-58478571D02*
X124288809Y-58669047D01*
X124288809Y-58669047D02*
X124241190Y-58764285D01*
X124241190Y-58764285D02*
X124193571Y-58811904D01*
X124193571Y-58811904D02*
X124098333Y-58859523D01*
X124098333Y-58859523D02*
X124003095Y-58859523D01*
X124003095Y-58859523D02*
X123907857Y-58811904D01*
X123907857Y-58811904D02*
X123860238Y-58764285D01*
X123860238Y-58764285D02*
X123812619Y-58669047D01*
X123812619Y-58669047D02*
X123812619Y-58430952D01*
X123812619Y-58430952D02*
X123860238Y-58288095D01*
X123812619Y-57954761D02*
X124812619Y-57716666D01*
X124812619Y-57716666D02*
X124098333Y-57526190D01*
X124098333Y-57526190D02*
X124812619Y-57335714D01*
X124812619Y-57335714D02*
X123812619Y-57097619D01*
X123907857Y-56764285D02*
X123860238Y-56716666D01*
X123860238Y-56716666D02*
X123812619Y-56621428D01*
X123812619Y-56621428D02*
X123812619Y-56383333D01*
X123812619Y-56383333D02*
X123860238Y-56288095D01*
X123860238Y-56288095D02*
X123907857Y-56240476D01*
X123907857Y-56240476D02*
X124003095Y-56192857D01*
X124003095Y-56192857D02*
X124098333Y-56192857D01*
X124098333Y-56192857D02*
X124241190Y-56240476D01*
X124241190Y-56240476D02*
X124812619Y-56811904D01*
X124812619Y-56811904D02*
X124812619Y-56192857D01*
X123812619Y-55573809D02*
X123812619Y-55478571D01*
X123812619Y-55478571D02*
X123860238Y-55383333D01*
X123860238Y-55383333D02*
X123907857Y-55335714D01*
X123907857Y-55335714D02*
X124003095Y-55288095D01*
X124003095Y-55288095D02*
X124193571Y-55240476D01*
X124193571Y-55240476D02*
X124431666Y-55240476D01*
X124431666Y-55240476D02*
X124622142Y-55288095D01*
X124622142Y-55288095D02*
X124717380Y-55335714D01*
X124717380Y-55335714D02*
X124765000Y-55383333D01*
X124765000Y-55383333D02*
X124812619Y-55478571D01*
X124812619Y-55478571D02*
X124812619Y-55573809D01*
X124812619Y-55573809D02*
X124765000Y-55669047D01*
X124765000Y-55669047D02*
X124717380Y-55716666D01*
X124717380Y-55716666D02*
X124622142Y-55764285D01*
X124622142Y-55764285D02*
X124431666Y-55811904D01*
X124431666Y-55811904D02*
X124193571Y-55811904D01*
X124193571Y-55811904D02*
X124003095Y-55764285D01*
X124003095Y-55764285D02*
X123907857Y-55716666D01*
X123907857Y-55716666D02*
X123860238Y-55669047D01*
X123860238Y-55669047D02*
X123812619Y-55573809D01*
%TO.C,SWr1*%
X58110143Y-43831000D02*
X58253000Y-43878619D01*
X58253000Y-43878619D02*
X58491095Y-43878619D01*
X58491095Y-43878619D02*
X58586333Y-43831000D01*
X58586333Y-43831000D02*
X58633952Y-43783380D01*
X58633952Y-43783380D02*
X58681571Y-43688142D01*
X58681571Y-43688142D02*
X58681571Y-43592904D01*
X58681571Y-43592904D02*
X58633952Y-43497666D01*
X58633952Y-43497666D02*
X58586333Y-43450047D01*
X58586333Y-43450047D02*
X58491095Y-43402428D01*
X58491095Y-43402428D02*
X58300619Y-43354809D01*
X58300619Y-43354809D02*
X58205381Y-43307190D01*
X58205381Y-43307190D02*
X58157762Y-43259571D01*
X58157762Y-43259571D02*
X58110143Y-43164333D01*
X58110143Y-43164333D02*
X58110143Y-43069095D01*
X58110143Y-43069095D02*
X58157762Y-42973857D01*
X58157762Y-42973857D02*
X58205381Y-42926238D01*
X58205381Y-42926238D02*
X58300619Y-42878619D01*
X58300619Y-42878619D02*
X58538714Y-42878619D01*
X58538714Y-42878619D02*
X58681571Y-42926238D01*
X59014905Y-42878619D02*
X59253000Y-43878619D01*
X59253000Y-43878619D02*
X59443476Y-43164333D01*
X59443476Y-43164333D02*
X59633952Y-43878619D01*
X59633952Y-43878619D02*
X59872048Y-42878619D01*
X60253000Y-43878619D02*
X60253000Y-43211952D01*
X60253000Y-43402428D02*
X60300619Y-43307190D01*
X60300619Y-43307190D02*
X60348238Y-43259571D01*
X60348238Y-43259571D02*
X60443476Y-43211952D01*
X60443476Y-43211952D02*
X60538714Y-43211952D01*
X61395857Y-43878619D02*
X60824429Y-43878619D01*
X61110143Y-43878619D02*
X61110143Y-42878619D01*
X61110143Y-42878619D02*
X61014905Y-43021476D01*
X61014905Y-43021476D02*
X60919667Y-43116714D01*
X60919667Y-43116714D02*
X60824429Y-43164333D01*
%TO.C,SW19*%
X109015000Y-58859523D02*
X109062619Y-58716666D01*
X109062619Y-58716666D02*
X109062619Y-58478571D01*
X109062619Y-58478571D02*
X109015000Y-58383333D01*
X109015000Y-58383333D02*
X108967380Y-58335714D01*
X108967380Y-58335714D02*
X108872142Y-58288095D01*
X108872142Y-58288095D02*
X108776904Y-58288095D01*
X108776904Y-58288095D02*
X108681666Y-58335714D01*
X108681666Y-58335714D02*
X108634047Y-58383333D01*
X108634047Y-58383333D02*
X108586428Y-58478571D01*
X108586428Y-58478571D02*
X108538809Y-58669047D01*
X108538809Y-58669047D02*
X108491190Y-58764285D01*
X108491190Y-58764285D02*
X108443571Y-58811904D01*
X108443571Y-58811904D02*
X108348333Y-58859523D01*
X108348333Y-58859523D02*
X108253095Y-58859523D01*
X108253095Y-58859523D02*
X108157857Y-58811904D01*
X108157857Y-58811904D02*
X108110238Y-58764285D01*
X108110238Y-58764285D02*
X108062619Y-58669047D01*
X108062619Y-58669047D02*
X108062619Y-58430952D01*
X108062619Y-58430952D02*
X108110238Y-58288095D01*
X108062619Y-57954761D02*
X109062619Y-57716666D01*
X109062619Y-57716666D02*
X108348333Y-57526190D01*
X108348333Y-57526190D02*
X109062619Y-57335714D01*
X109062619Y-57335714D02*
X108062619Y-57097619D01*
X109062619Y-56192857D02*
X109062619Y-56764285D01*
X109062619Y-56478571D02*
X108062619Y-56478571D01*
X108062619Y-56478571D02*
X108205476Y-56573809D01*
X108205476Y-56573809D02*
X108300714Y-56669047D01*
X108300714Y-56669047D02*
X108348333Y-56764285D01*
X109062619Y-55716666D02*
X109062619Y-55526190D01*
X109062619Y-55526190D02*
X109015000Y-55430952D01*
X109015000Y-55430952D02*
X108967380Y-55383333D01*
X108967380Y-55383333D02*
X108824523Y-55288095D01*
X108824523Y-55288095D02*
X108634047Y-55240476D01*
X108634047Y-55240476D02*
X108253095Y-55240476D01*
X108253095Y-55240476D02*
X108157857Y-55288095D01*
X108157857Y-55288095D02*
X108110238Y-55335714D01*
X108110238Y-55335714D02*
X108062619Y-55430952D01*
X108062619Y-55430952D02*
X108062619Y-55621428D01*
X108062619Y-55621428D02*
X108110238Y-55716666D01*
X108110238Y-55716666D02*
X108157857Y-55764285D01*
X108157857Y-55764285D02*
X108253095Y-55811904D01*
X108253095Y-55811904D02*
X108491190Y-55811904D01*
X108491190Y-55811904D02*
X108586428Y-55764285D01*
X108586428Y-55764285D02*
X108634047Y-55716666D01*
X108634047Y-55716666D02*
X108681666Y-55621428D01*
X108681666Y-55621428D02*
X108681666Y-55430952D01*
X108681666Y-55430952D02*
X108634047Y-55335714D01*
X108634047Y-55335714D02*
X108586428Y-55288095D01*
X108586428Y-55288095D02*
X108491190Y-55240476D01*
%TO.C,SW6*%
X109791667Y-43831000D02*
X109934524Y-43878619D01*
X109934524Y-43878619D02*
X110172619Y-43878619D01*
X110172619Y-43878619D02*
X110267857Y-43831000D01*
X110267857Y-43831000D02*
X110315476Y-43783380D01*
X110315476Y-43783380D02*
X110363095Y-43688142D01*
X110363095Y-43688142D02*
X110363095Y-43592904D01*
X110363095Y-43592904D02*
X110315476Y-43497666D01*
X110315476Y-43497666D02*
X110267857Y-43450047D01*
X110267857Y-43450047D02*
X110172619Y-43402428D01*
X110172619Y-43402428D02*
X109982143Y-43354809D01*
X109982143Y-43354809D02*
X109886905Y-43307190D01*
X109886905Y-43307190D02*
X109839286Y-43259571D01*
X109839286Y-43259571D02*
X109791667Y-43164333D01*
X109791667Y-43164333D02*
X109791667Y-43069095D01*
X109791667Y-43069095D02*
X109839286Y-42973857D01*
X109839286Y-42973857D02*
X109886905Y-42926238D01*
X109886905Y-42926238D02*
X109982143Y-42878619D01*
X109982143Y-42878619D02*
X110220238Y-42878619D01*
X110220238Y-42878619D02*
X110363095Y-42926238D01*
X110696429Y-42878619D02*
X110934524Y-43878619D01*
X110934524Y-43878619D02*
X111125000Y-43164333D01*
X111125000Y-43164333D02*
X111315476Y-43878619D01*
X111315476Y-43878619D02*
X111553572Y-42878619D01*
X112363095Y-42878619D02*
X112172619Y-42878619D01*
X112172619Y-42878619D02*
X112077381Y-42926238D01*
X112077381Y-42926238D02*
X112029762Y-42973857D01*
X112029762Y-42973857D02*
X111934524Y-43116714D01*
X111934524Y-43116714D02*
X111886905Y-43307190D01*
X111886905Y-43307190D02*
X111886905Y-43688142D01*
X111886905Y-43688142D02*
X111934524Y-43783380D01*
X111934524Y-43783380D02*
X111982143Y-43831000D01*
X111982143Y-43831000D02*
X112077381Y-43878619D01*
X112077381Y-43878619D02*
X112267857Y-43878619D01*
X112267857Y-43878619D02*
X112363095Y-43831000D01*
X112363095Y-43831000D02*
X112410714Y-43783380D01*
X112410714Y-43783380D02*
X112458333Y-43688142D01*
X112458333Y-43688142D02*
X112458333Y-43450047D01*
X112458333Y-43450047D02*
X112410714Y-43354809D01*
X112410714Y-43354809D02*
X112363095Y-43307190D01*
X112363095Y-43307190D02*
X112267857Y-43259571D01*
X112267857Y-43259571D02*
X112077381Y-43259571D01*
X112077381Y-43259571D02*
X111982143Y-43307190D01*
X111982143Y-43307190D02*
X111934524Y-43354809D01*
X111934524Y-43354809D02*
X111886905Y-43450047D01*
%TO.C,SW5*%
X99504667Y-43831000D02*
X99647524Y-43878619D01*
X99647524Y-43878619D02*
X99885619Y-43878619D01*
X99885619Y-43878619D02*
X99980857Y-43831000D01*
X99980857Y-43831000D02*
X100028476Y-43783380D01*
X100028476Y-43783380D02*
X100076095Y-43688142D01*
X100076095Y-43688142D02*
X100076095Y-43592904D01*
X100076095Y-43592904D02*
X100028476Y-43497666D01*
X100028476Y-43497666D02*
X99980857Y-43450047D01*
X99980857Y-43450047D02*
X99885619Y-43402428D01*
X99885619Y-43402428D02*
X99695143Y-43354809D01*
X99695143Y-43354809D02*
X99599905Y-43307190D01*
X99599905Y-43307190D02*
X99552286Y-43259571D01*
X99552286Y-43259571D02*
X99504667Y-43164333D01*
X99504667Y-43164333D02*
X99504667Y-43069095D01*
X99504667Y-43069095D02*
X99552286Y-42973857D01*
X99552286Y-42973857D02*
X99599905Y-42926238D01*
X99599905Y-42926238D02*
X99695143Y-42878619D01*
X99695143Y-42878619D02*
X99933238Y-42878619D01*
X99933238Y-42878619D02*
X100076095Y-42926238D01*
X100409429Y-42878619D02*
X100647524Y-43878619D01*
X100647524Y-43878619D02*
X100838000Y-43164333D01*
X100838000Y-43164333D02*
X101028476Y-43878619D01*
X101028476Y-43878619D02*
X101266572Y-42878619D01*
X102123714Y-42878619D02*
X101647524Y-42878619D01*
X101647524Y-42878619D02*
X101599905Y-43354809D01*
X101599905Y-43354809D02*
X101647524Y-43307190D01*
X101647524Y-43307190D02*
X101742762Y-43259571D01*
X101742762Y-43259571D02*
X101980857Y-43259571D01*
X101980857Y-43259571D02*
X102076095Y-43307190D01*
X102076095Y-43307190D02*
X102123714Y-43354809D01*
X102123714Y-43354809D02*
X102171333Y-43450047D01*
X102171333Y-43450047D02*
X102171333Y-43688142D01*
X102171333Y-43688142D02*
X102123714Y-43783380D01*
X102123714Y-43783380D02*
X102076095Y-43831000D01*
X102076095Y-43831000D02*
X101980857Y-43878619D01*
X101980857Y-43878619D02*
X101742762Y-43878619D01*
X101742762Y-43878619D02*
X101647524Y-43831000D01*
X101647524Y-43831000D02*
X101599905Y-43783380D01*
%TO.C,SW4*%
X89217667Y-43831000D02*
X89360524Y-43878619D01*
X89360524Y-43878619D02*
X89598619Y-43878619D01*
X89598619Y-43878619D02*
X89693857Y-43831000D01*
X89693857Y-43831000D02*
X89741476Y-43783380D01*
X89741476Y-43783380D02*
X89789095Y-43688142D01*
X89789095Y-43688142D02*
X89789095Y-43592904D01*
X89789095Y-43592904D02*
X89741476Y-43497666D01*
X89741476Y-43497666D02*
X89693857Y-43450047D01*
X89693857Y-43450047D02*
X89598619Y-43402428D01*
X89598619Y-43402428D02*
X89408143Y-43354809D01*
X89408143Y-43354809D02*
X89312905Y-43307190D01*
X89312905Y-43307190D02*
X89265286Y-43259571D01*
X89265286Y-43259571D02*
X89217667Y-43164333D01*
X89217667Y-43164333D02*
X89217667Y-43069095D01*
X89217667Y-43069095D02*
X89265286Y-42973857D01*
X89265286Y-42973857D02*
X89312905Y-42926238D01*
X89312905Y-42926238D02*
X89408143Y-42878619D01*
X89408143Y-42878619D02*
X89646238Y-42878619D01*
X89646238Y-42878619D02*
X89789095Y-42926238D01*
X90122429Y-42878619D02*
X90360524Y-43878619D01*
X90360524Y-43878619D02*
X90551000Y-43164333D01*
X90551000Y-43164333D02*
X90741476Y-43878619D01*
X90741476Y-43878619D02*
X90979572Y-42878619D01*
X91789095Y-43211952D02*
X91789095Y-43878619D01*
X91551000Y-42831000D02*
X91312905Y-43545285D01*
X91312905Y-43545285D02*
X91931952Y-43545285D01*
%TO.C,SW3*%
X78803667Y-43831000D02*
X78946524Y-43878619D01*
X78946524Y-43878619D02*
X79184619Y-43878619D01*
X79184619Y-43878619D02*
X79279857Y-43831000D01*
X79279857Y-43831000D02*
X79327476Y-43783380D01*
X79327476Y-43783380D02*
X79375095Y-43688142D01*
X79375095Y-43688142D02*
X79375095Y-43592904D01*
X79375095Y-43592904D02*
X79327476Y-43497666D01*
X79327476Y-43497666D02*
X79279857Y-43450047D01*
X79279857Y-43450047D02*
X79184619Y-43402428D01*
X79184619Y-43402428D02*
X78994143Y-43354809D01*
X78994143Y-43354809D02*
X78898905Y-43307190D01*
X78898905Y-43307190D02*
X78851286Y-43259571D01*
X78851286Y-43259571D02*
X78803667Y-43164333D01*
X78803667Y-43164333D02*
X78803667Y-43069095D01*
X78803667Y-43069095D02*
X78851286Y-42973857D01*
X78851286Y-42973857D02*
X78898905Y-42926238D01*
X78898905Y-42926238D02*
X78994143Y-42878619D01*
X78994143Y-42878619D02*
X79232238Y-42878619D01*
X79232238Y-42878619D02*
X79375095Y-42926238D01*
X79708429Y-42878619D02*
X79946524Y-43878619D01*
X79946524Y-43878619D02*
X80137000Y-43164333D01*
X80137000Y-43164333D02*
X80327476Y-43878619D01*
X80327476Y-43878619D02*
X80565572Y-42878619D01*
X80851286Y-42878619D02*
X81470333Y-42878619D01*
X81470333Y-42878619D02*
X81137000Y-43259571D01*
X81137000Y-43259571D02*
X81279857Y-43259571D01*
X81279857Y-43259571D02*
X81375095Y-43307190D01*
X81375095Y-43307190D02*
X81422714Y-43354809D01*
X81422714Y-43354809D02*
X81470333Y-43450047D01*
X81470333Y-43450047D02*
X81470333Y-43688142D01*
X81470333Y-43688142D02*
X81422714Y-43783380D01*
X81422714Y-43783380D02*
X81375095Y-43831000D01*
X81375095Y-43831000D02*
X81279857Y-43878619D01*
X81279857Y-43878619D02*
X80994143Y-43878619D01*
X80994143Y-43878619D02*
X80898905Y-43831000D01*
X80898905Y-43831000D02*
X80851286Y-43783380D01*
%TO.C,SW2*%
X68676667Y-43831000D02*
X68819524Y-43878619D01*
X68819524Y-43878619D02*
X69057619Y-43878619D01*
X69057619Y-43878619D02*
X69152857Y-43831000D01*
X69152857Y-43831000D02*
X69200476Y-43783380D01*
X69200476Y-43783380D02*
X69248095Y-43688142D01*
X69248095Y-43688142D02*
X69248095Y-43592904D01*
X69248095Y-43592904D02*
X69200476Y-43497666D01*
X69200476Y-43497666D02*
X69152857Y-43450047D01*
X69152857Y-43450047D02*
X69057619Y-43402428D01*
X69057619Y-43402428D02*
X68867143Y-43354809D01*
X68867143Y-43354809D02*
X68771905Y-43307190D01*
X68771905Y-43307190D02*
X68724286Y-43259571D01*
X68724286Y-43259571D02*
X68676667Y-43164333D01*
X68676667Y-43164333D02*
X68676667Y-43069095D01*
X68676667Y-43069095D02*
X68724286Y-42973857D01*
X68724286Y-42973857D02*
X68771905Y-42926238D01*
X68771905Y-42926238D02*
X68867143Y-42878619D01*
X68867143Y-42878619D02*
X69105238Y-42878619D01*
X69105238Y-42878619D02*
X69248095Y-42926238D01*
X69581429Y-42878619D02*
X69819524Y-43878619D01*
X69819524Y-43878619D02*
X70010000Y-43164333D01*
X70010000Y-43164333D02*
X70200476Y-43878619D01*
X70200476Y-43878619D02*
X70438572Y-42878619D01*
X70771905Y-42973857D02*
X70819524Y-42926238D01*
X70819524Y-42926238D02*
X70914762Y-42878619D01*
X70914762Y-42878619D02*
X71152857Y-42878619D01*
X71152857Y-42878619D02*
X71248095Y-42926238D01*
X71248095Y-42926238D02*
X71295714Y-42973857D01*
X71295714Y-42973857D02*
X71343333Y-43069095D01*
X71343333Y-43069095D02*
X71343333Y-43164333D01*
X71343333Y-43164333D02*
X71295714Y-43307190D01*
X71295714Y-43307190D02*
X70724286Y-43878619D01*
X70724286Y-43878619D02*
X71343333Y-43878619D01*
%TO.C,SW8*%
X85986667Y-57330000D02*
X86129524Y-57377619D01*
X86129524Y-57377619D02*
X86367619Y-57377619D01*
X86367619Y-57377619D02*
X86462857Y-57330000D01*
X86462857Y-57330000D02*
X86510476Y-57282380D01*
X86510476Y-57282380D02*
X86558095Y-57187142D01*
X86558095Y-57187142D02*
X86558095Y-57091904D01*
X86558095Y-57091904D02*
X86510476Y-56996666D01*
X86510476Y-56996666D02*
X86462857Y-56949047D01*
X86462857Y-56949047D02*
X86367619Y-56901428D01*
X86367619Y-56901428D02*
X86177143Y-56853809D01*
X86177143Y-56853809D02*
X86081905Y-56806190D01*
X86081905Y-56806190D02*
X86034286Y-56758571D01*
X86034286Y-56758571D02*
X85986667Y-56663333D01*
X85986667Y-56663333D02*
X85986667Y-56568095D01*
X85986667Y-56568095D02*
X86034286Y-56472857D01*
X86034286Y-56472857D02*
X86081905Y-56425238D01*
X86081905Y-56425238D02*
X86177143Y-56377619D01*
X86177143Y-56377619D02*
X86415238Y-56377619D01*
X86415238Y-56377619D02*
X86558095Y-56425238D01*
X86891429Y-56377619D02*
X87129524Y-57377619D01*
X87129524Y-57377619D02*
X87320000Y-56663333D01*
X87320000Y-56663333D02*
X87510476Y-57377619D01*
X87510476Y-57377619D02*
X87748572Y-56377619D01*
X88272381Y-56806190D02*
X88177143Y-56758571D01*
X88177143Y-56758571D02*
X88129524Y-56710952D01*
X88129524Y-56710952D02*
X88081905Y-56615714D01*
X88081905Y-56615714D02*
X88081905Y-56568095D01*
X88081905Y-56568095D02*
X88129524Y-56472857D01*
X88129524Y-56472857D02*
X88177143Y-56425238D01*
X88177143Y-56425238D02*
X88272381Y-56377619D01*
X88272381Y-56377619D02*
X88462857Y-56377619D01*
X88462857Y-56377619D02*
X88558095Y-56425238D01*
X88558095Y-56425238D02*
X88605714Y-56472857D01*
X88605714Y-56472857D02*
X88653333Y-56568095D01*
X88653333Y-56568095D02*
X88653333Y-56615714D01*
X88653333Y-56615714D02*
X88605714Y-56710952D01*
X88605714Y-56710952D02*
X88558095Y-56758571D01*
X88558095Y-56758571D02*
X88462857Y-56806190D01*
X88462857Y-56806190D02*
X88272381Y-56806190D01*
X88272381Y-56806190D02*
X88177143Y-56853809D01*
X88177143Y-56853809D02*
X88129524Y-56901428D01*
X88129524Y-56901428D02*
X88081905Y-56996666D01*
X88081905Y-56996666D02*
X88081905Y-57187142D01*
X88081905Y-57187142D02*
X88129524Y-57282380D01*
X88129524Y-57282380D02*
X88177143Y-57330000D01*
X88177143Y-57330000D02*
X88272381Y-57377619D01*
X88272381Y-57377619D02*
X88462857Y-57377619D01*
X88462857Y-57377619D02*
X88558095Y-57330000D01*
X88558095Y-57330000D02*
X88605714Y-57282380D01*
X88605714Y-57282380D02*
X88653333Y-57187142D01*
X88653333Y-57187142D02*
X88653333Y-56996666D01*
X88653333Y-56996666D02*
X88605714Y-56901428D01*
X88605714Y-56901428D02*
X88558095Y-56853809D01*
X88558095Y-56853809D02*
X88462857Y-56806190D01*
%TO.C,SW9*%
X112586667Y-68680000D02*
X112729524Y-68727619D01*
X112729524Y-68727619D02*
X112967619Y-68727619D01*
X112967619Y-68727619D02*
X113062857Y-68680000D01*
X113062857Y-68680000D02*
X113110476Y-68632380D01*
X113110476Y-68632380D02*
X113158095Y-68537142D01*
X113158095Y-68537142D02*
X113158095Y-68441904D01*
X113158095Y-68441904D02*
X113110476Y-68346666D01*
X113110476Y-68346666D02*
X113062857Y-68299047D01*
X113062857Y-68299047D02*
X112967619Y-68251428D01*
X112967619Y-68251428D02*
X112777143Y-68203809D01*
X112777143Y-68203809D02*
X112681905Y-68156190D01*
X112681905Y-68156190D02*
X112634286Y-68108571D01*
X112634286Y-68108571D02*
X112586667Y-68013333D01*
X112586667Y-68013333D02*
X112586667Y-67918095D01*
X112586667Y-67918095D02*
X112634286Y-67822857D01*
X112634286Y-67822857D02*
X112681905Y-67775238D01*
X112681905Y-67775238D02*
X112777143Y-67727619D01*
X112777143Y-67727619D02*
X113015238Y-67727619D01*
X113015238Y-67727619D02*
X113158095Y-67775238D01*
X113491429Y-67727619D02*
X113729524Y-68727619D01*
X113729524Y-68727619D02*
X113920000Y-68013333D01*
X113920000Y-68013333D02*
X114110476Y-68727619D01*
X114110476Y-68727619D02*
X114348572Y-67727619D01*
X114777143Y-68727619D02*
X114967619Y-68727619D01*
X114967619Y-68727619D02*
X115062857Y-68680000D01*
X115062857Y-68680000D02*
X115110476Y-68632380D01*
X115110476Y-68632380D02*
X115205714Y-68489523D01*
X115205714Y-68489523D02*
X115253333Y-68299047D01*
X115253333Y-68299047D02*
X115253333Y-67918095D01*
X115253333Y-67918095D02*
X115205714Y-67822857D01*
X115205714Y-67822857D02*
X115158095Y-67775238D01*
X115158095Y-67775238D02*
X115062857Y-67727619D01*
X115062857Y-67727619D02*
X114872381Y-67727619D01*
X114872381Y-67727619D02*
X114777143Y-67775238D01*
X114777143Y-67775238D02*
X114729524Y-67822857D01*
X114729524Y-67822857D02*
X114681905Y-67918095D01*
X114681905Y-67918095D02*
X114681905Y-68156190D01*
X114681905Y-68156190D02*
X114729524Y-68251428D01*
X114729524Y-68251428D02*
X114777143Y-68299047D01*
X114777143Y-68299047D02*
X114872381Y-68346666D01*
X114872381Y-68346666D02*
X115062857Y-68346666D01*
X115062857Y-68346666D02*
X115158095Y-68299047D01*
X115158095Y-68299047D02*
X115205714Y-68251428D01*
X115205714Y-68251428D02*
X115253333Y-68156190D01*
%TO.C,SW10*%
X129610476Y-121780000D02*
X129753333Y-121827619D01*
X129753333Y-121827619D02*
X129991428Y-121827619D01*
X129991428Y-121827619D02*
X130086666Y-121780000D01*
X130086666Y-121780000D02*
X130134285Y-121732380D01*
X130134285Y-121732380D02*
X130181904Y-121637142D01*
X130181904Y-121637142D02*
X130181904Y-121541904D01*
X130181904Y-121541904D02*
X130134285Y-121446666D01*
X130134285Y-121446666D02*
X130086666Y-121399047D01*
X130086666Y-121399047D02*
X129991428Y-121351428D01*
X129991428Y-121351428D02*
X129800952Y-121303809D01*
X129800952Y-121303809D02*
X129705714Y-121256190D01*
X129705714Y-121256190D02*
X129658095Y-121208571D01*
X129658095Y-121208571D02*
X129610476Y-121113333D01*
X129610476Y-121113333D02*
X129610476Y-121018095D01*
X129610476Y-121018095D02*
X129658095Y-120922857D01*
X129658095Y-120922857D02*
X129705714Y-120875238D01*
X129705714Y-120875238D02*
X129800952Y-120827619D01*
X129800952Y-120827619D02*
X130039047Y-120827619D01*
X130039047Y-120827619D02*
X130181904Y-120875238D01*
X130515238Y-120827619D02*
X130753333Y-121827619D01*
X130753333Y-121827619D02*
X130943809Y-121113333D01*
X130943809Y-121113333D02*
X131134285Y-121827619D01*
X131134285Y-121827619D02*
X131372381Y-120827619D01*
X132277142Y-121827619D02*
X131705714Y-121827619D01*
X131991428Y-121827619D02*
X131991428Y-120827619D01*
X131991428Y-120827619D02*
X131896190Y-120970476D01*
X131896190Y-120970476D02*
X131800952Y-121065714D01*
X131800952Y-121065714D02*
X131705714Y-121113333D01*
X132896190Y-120827619D02*
X132991428Y-120827619D01*
X132991428Y-120827619D02*
X133086666Y-120875238D01*
X133086666Y-120875238D02*
X133134285Y-120922857D01*
X133134285Y-120922857D02*
X133181904Y-121018095D01*
X133181904Y-121018095D02*
X133229523Y-121208571D01*
X133229523Y-121208571D02*
X133229523Y-121446666D01*
X133229523Y-121446666D02*
X133181904Y-121637142D01*
X133181904Y-121637142D02*
X133134285Y-121732380D01*
X133134285Y-121732380D02*
X133086666Y-121780000D01*
X133086666Y-121780000D02*
X132991428Y-121827619D01*
X132991428Y-121827619D02*
X132896190Y-121827619D01*
X132896190Y-121827619D02*
X132800952Y-121780000D01*
X132800952Y-121780000D02*
X132753333Y-121732380D01*
X132753333Y-121732380D02*
X132705714Y-121637142D01*
X132705714Y-121637142D02*
X132658095Y-121446666D01*
X132658095Y-121446666D02*
X132658095Y-121208571D01*
X132658095Y-121208571D02*
X132705714Y-121018095D01*
X132705714Y-121018095D02*
X132753333Y-120922857D01*
X132753333Y-120922857D02*
X132800952Y-120875238D01*
X132800952Y-120875238D02*
X132896190Y-120827619D01*
%TO.C,SW11*%
X147050476Y-57270000D02*
X147193333Y-57317619D01*
X147193333Y-57317619D02*
X147431428Y-57317619D01*
X147431428Y-57317619D02*
X147526666Y-57270000D01*
X147526666Y-57270000D02*
X147574285Y-57222380D01*
X147574285Y-57222380D02*
X147621904Y-57127142D01*
X147621904Y-57127142D02*
X147621904Y-57031904D01*
X147621904Y-57031904D02*
X147574285Y-56936666D01*
X147574285Y-56936666D02*
X147526666Y-56889047D01*
X147526666Y-56889047D02*
X147431428Y-56841428D01*
X147431428Y-56841428D02*
X147240952Y-56793809D01*
X147240952Y-56793809D02*
X147145714Y-56746190D01*
X147145714Y-56746190D02*
X147098095Y-56698571D01*
X147098095Y-56698571D02*
X147050476Y-56603333D01*
X147050476Y-56603333D02*
X147050476Y-56508095D01*
X147050476Y-56508095D02*
X147098095Y-56412857D01*
X147098095Y-56412857D02*
X147145714Y-56365238D01*
X147145714Y-56365238D02*
X147240952Y-56317619D01*
X147240952Y-56317619D02*
X147479047Y-56317619D01*
X147479047Y-56317619D02*
X147621904Y-56365238D01*
X147955238Y-56317619D02*
X148193333Y-57317619D01*
X148193333Y-57317619D02*
X148383809Y-56603333D01*
X148383809Y-56603333D02*
X148574285Y-57317619D01*
X148574285Y-57317619D02*
X148812381Y-56317619D01*
X149717142Y-57317619D02*
X149145714Y-57317619D01*
X149431428Y-57317619D02*
X149431428Y-56317619D01*
X149431428Y-56317619D02*
X149336190Y-56460476D01*
X149336190Y-56460476D02*
X149240952Y-56555714D01*
X149240952Y-56555714D02*
X149145714Y-56603333D01*
X150669523Y-57317619D02*
X150098095Y-57317619D01*
X150383809Y-57317619D02*
X150383809Y-56317619D01*
X150383809Y-56317619D02*
X150288571Y-56460476D01*
X150288571Y-56460476D02*
X150193333Y-56555714D01*
X150193333Y-56555714D02*
X150098095Y-56603333D01*
%TO.C,SW12*%
X173610476Y-45740000D02*
X173753333Y-45787619D01*
X173753333Y-45787619D02*
X173991428Y-45787619D01*
X173991428Y-45787619D02*
X174086666Y-45740000D01*
X174086666Y-45740000D02*
X174134285Y-45692380D01*
X174134285Y-45692380D02*
X174181904Y-45597142D01*
X174181904Y-45597142D02*
X174181904Y-45501904D01*
X174181904Y-45501904D02*
X174134285Y-45406666D01*
X174134285Y-45406666D02*
X174086666Y-45359047D01*
X174086666Y-45359047D02*
X173991428Y-45311428D01*
X173991428Y-45311428D02*
X173800952Y-45263809D01*
X173800952Y-45263809D02*
X173705714Y-45216190D01*
X173705714Y-45216190D02*
X173658095Y-45168571D01*
X173658095Y-45168571D02*
X173610476Y-45073333D01*
X173610476Y-45073333D02*
X173610476Y-44978095D01*
X173610476Y-44978095D02*
X173658095Y-44882857D01*
X173658095Y-44882857D02*
X173705714Y-44835238D01*
X173705714Y-44835238D02*
X173800952Y-44787619D01*
X173800952Y-44787619D02*
X174039047Y-44787619D01*
X174039047Y-44787619D02*
X174181904Y-44835238D01*
X174515238Y-44787619D02*
X174753333Y-45787619D01*
X174753333Y-45787619D02*
X174943809Y-45073333D01*
X174943809Y-45073333D02*
X175134285Y-45787619D01*
X175134285Y-45787619D02*
X175372381Y-44787619D01*
X176277142Y-45787619D02*
X175705714Y-45787619D01*
X175991428Y-45787619D02*
X175991428Y-44787619D01*
X175991428Y-44787619D02*
X175896190Y-44930476D01*
X175896190Y-44930476D02*
X175800952Y-45025714D01*
X175800952Y-45025714D02*
X175705714Y-45073333D01*
X176658095Y-44882857D02*
X176705714Y-44835238D01*
X176705714Y-44835238D02*
X176800952Y-44787619D01*
X176800952Y-44787619D02*
X177039047Y-44787619D01*
X177039047Y-44787619D02*
X177134285Y-44835238D01*
X177134285Y-44835238D02*
X177181904Y-44882857D01*
X177181904Y-44882857D02*
X177229523Y-44978095D01*
X177229523Y-44978095D02*
X177229523Y-45073333D01*
X177229523Y-45073333D02*
X177181904Y-45216190D01*
X177181904Y-45216190D02*
X176610476Y-45787619D01*
X176610476Y-45787619D02*
X177229523Y-45787619D01*
%TO.C,SW13*%
X202580476Y-45620000D02*
X202723333Y-45667619D01*
X202723333Y-45667619D02*
X202961428Y-45667619D01*
X202961428Y-45667619D02*
X203056666Y-45620000D01*
X203056666Y-45620000D02*
X203104285Y-45572380D01*
X203104285Y-45572380D02*
X203151904Y-45477142D01*
X203151904Y-45477142D02*
X203151904Y-45381904D01*
X203151904Y-45381904D02*
X203104285Y-45286666D01*
X203104285Y-45286666D02*
X203056666Y-45239047D01*
X203056666Y-45239047D02*
X202961428Y-45191428D01*
X202961428Y-45191428D02*
X202770952Y-45143809D01*
X202770952Y-45143809D02*
X202675714Y-45096190D01*
X202675714Y-45096190D02*
X202628095Y-45048571D01*
X202628095Y-45048571D02*
X202580476Y-44953333D01*
X202580476Y-44953333D02*
X202580476Y-44858095D01*
X202580476Y-44858095D02*
X202628095Y-44762857D01*
X202628095Y-44762857D02*
X202675714Y-44715238D01*
X202675714Y-44715238D02*
X202770952Y-44667619D01*
X202770952Y-44667619D02*
X203009047Y-44667619D01*
X203009047Y-44667619D02*
X203151904Y-44715238D01*
X203485238Y-44667619D02*
X203723333Y-45667619D01*
X203723333Y-45667619D02*
X203913809Y-44953333D01*
X203913809Y-44953333D02*
X204104285Y-45667619D01*
X204104285Y-45667619D02*
X204342381Y-44667619D01*
X205247142Y-45667619D02*
X204675714Y-45667619D01*
X204961428Y-45667619D02*
X204961428Y-44667619D01*
X204961428Y-44667619D02*
X204866190Y-44810476D01*
X204866190Y-44810476D02*
X204770952Y-44905714D01*
X204770952Y-44905714D02*
X204675714Y-44953333D01*
X205580476Y-44667619D02*
X206199523Y-44667619D01*
X206199523Y-44667619D02*
X205866190Y-45048571D01*
X205866190Y-45048571D02*
X206009047Y-45048571D01*
X206009047Y-45048571D02*
X206104285Y-45096190D01*
X206104285Y-45096190D02*
X206151904Y-45143809D01*
X206151904Y-45143809D02*
X206199523Y-45239047D01*
X206199523Y-45239047D02*
X206199523Y-45477142D01*
X206199523Y-45477142D02*
X206151904Y-45572380D01*
X206151904Y-45572380D02*
X206104285Y-45620000D01*
X206104285Y-45620000D02*
X206009047Y-45667619D01*
X206009047Y-45667619D02*
X205723333Y-45667619D01*
X205723333Y-45667619D02*
X205628095Y-45620000D01*
X205628095Y-45620000D02*
X205580476Y-45572380D01*
%TO.C,SW14*%
X231550476Y-45860000D02*
X231693333Y-45907619D01*
X231693333Y-45907619D02*
X231931428Y-45907619D01*
X231931428Y-45907619D02*
X232026666Y-45860000D01*
X232026666Y-45860000D02*
X232074285Y-45812380D01*
X232074285Y-45812380D02*
X232121904Y-45717142D01*
X232121904Y-45717142D02*
X232121904Y-45621904D01*
X232121904Y-45621904D02*
X232074285Y-45526666D01*
X232074285Y-45526666D02*
X232026666Y-45479047D01*
X232026666Y-45479047D02*
X231931428Y-45431428D01*
X231931428Y-45431428D02*
X231740952Y-45383809D01*
X231740952Y-45383809D02*
X231645714Y-45336190D01*
X231645714Y-45336190D02*
X231598095Y-45288571D01*
X231598095Y-45288571D02*
X231550476Y-45193333D01*
X231550476Y-45193333D02*
X231550476Y-45098095D01*
X231550476Y-45098095D02*
X231598095Y-45002857D01*
X231598095Y-45002857D02*
X231645714Y-44955238D01*
X231645714Y-44955238D02*
X231740952Y-44907619D01*
X231740952Y-44907619D02*
X231979047Y-44907619D01*
X231979047Y-44907619D02*
X232121904Y-44955238D01*
X232455238Y-44907619D02*
X232693333Y-45907619D01*
X232693333Y-45907619D02*
X232883809Y-45193333D01*
X232883809Y-45193333D02*
X233074285Y-45907619D01*
X233074285Y-45907619D02*
X233312381Y-44907619D01*
X234217142Y-45907619D02*
X233645714Y-45907619D01*
X233931428Y-45907619D02*
X233931428Y-44907619D01*
X233931428Y-44907619D02*
X233836190Y-45050476D01*
X233836190Y-45050476D02*
X233740952Y-45145714D01*
X233740952Y-45145714D02*
X233645714Y-45193333D01*
X235074285Y-45240952D02*
X235074285Y-45907619D01*
X234836190Y-44860000D02*
X234598095Y-45574285D01*
X234598095Y-45574285D02*
X235217142Y-45574285D01*
%TO.C,SW15*%
X141440476Y-88310000D02*
X141583333Y-88357619D01*
X141583333Y-88357619D02*
X141821428Y-88357619D01*
X141821428Y-88357619D02*
X141916666Y-88310000D01*
X141916666Y-88310000D02*
X141964285Y-88262380D01*
X141964285Y-88262380D02*
X142011904Y-88167142D01*
X142011904Y-88167142D02*
X142011904Y-88071904D01*
X142011904Y-88071904D02*
X141964285Y-87976666D01*
X141964285Y-87976666D02*
X141916666Y-87929047D01*
X141916666Y-87929047D02*
X141821428Y-87881428D01*
X141821428Y-87881428D02*
X141630952Y-87833809D01*
X141630952Y-87833809D02*
X141535714Y-87786190D01*
X141535714Y-87786190D02*
X141488095Y-87738571D01*
X141488095Y-87738571D02*
X141440476Y-87643333D01*
X141440476Y-87643333D02*
X141440476Y-87548095D01*
X141440476Y-87548095D02*
X141488095Y-87452857D01*
X141488095Y-87452857D02*
X141535714Y-87405238D01*
X141535714Y-87405238D02*
X141630952Y-87357619D01*
X141630952Y-87357619D02*
X141869047Y-87357619D01*
X141869047Y-87357619D02*
X142011904Y-87405238D01*
X142345238Y-87357619D02*
X142583333Y-88357619D01*
X142583333Y-88357619D02*
X142773809Y-87643333D01*
X142773809Y-87643333D02*
X142964285Y-88357619D01*
X142964285Y-88357619D02*
X143202381Y-87357619D01*
X144107142Y-88357619D02*
X143535714Y-88357619D01*
X143821428Y-88357619D02*
X143821428Y-87357619D01*
X143821428Y-87357619D02*
X143726190Y-87500476D01*
X143726190Y-87500476D02*
X143630952Y-87595714D01*
X143630952Y-87595714D02*
X143535714Y-87643333D01*
X145011904Y-87357619D02*
X144535714Y-87357619D01*
X144535714Y-87357619D02*
X144488095Y-87833809D01*
X144488095Y-87833809D02*
X144535714Y-87786190D01*
X144535714Y-87786190D02*
X144630952Y-87738571D01*
X144630952Y-87738571D02*
X144869047Y-87738571D01*
X144869047Y-87738571D02*
X144964285Y-87786190D01*
X144964285Y-87786190D02*
X145011904Y-87833809D01*
X145011904Y-87833809D02*
X145059523Y-87929047D01*
X145059523Y-87929047D02*
X145059523Y-88167142D01*
X145059523Y-88167142D02*
X145011904Y-88262380D01*
X145011904Y-88262380D02*
X144964285Y-88310000D01*
X144964285Y-88310000D02*
X144869047Y-88357619D01*
X144869047Y-88357619D02*
X144630952Y-88357619D01*
X144630952Y-88357619D02*
X144535714Y-88310000D01*
X144535714Y-88310000D02*
X144488095Y-88262380D01*
%TO.C,SW16*%
X168050476Y-77200000D02*
X168193333Y-77247619D01*
X168193333Y-77247619D02*
X168431428Y-77247619D01*
X168431428Y-77247619D02*
X168526666Y-77200000D01*
X168526666Y-77200000D02*
X168574285Y-77152380D01*
X168574285Y-77152380D02*
X168621904Y-77057142D01*
X168621904Y-77057142D02*
X168621904Y-76961904D01*
X168621904Y-76961904D02*
X168574285Y-76866666D01*
X168574285Y-76866666D02*
X168526666Y-76819047D01*
X168526666Y-76819047D02*
X168431428Y-76771428D01*
X168431428Y-76771428D02*
X168240952Y-76723809D01*
X168240952Y-76723809D02*
X168145714Y-76676190D01*
X168145714Y-76676190D02*
X168098095Y-76628571D01*
X168098095Y-76628571D02*
X168050476Y-76533333D01*
X168050476Y-76533333D02*
X168050476Y-76438095D01*
X168050476Y-76438095D02*
X168098095Y-76342857D01*
X168098095Y-76342857D02*
X168145714Y-76295238D01*
X168145714Y-76295238D02*
X168240952Y-76247619D01*
X168240952Y-76247619D02*
X168479047Y-76247619D01*
X168479047Y-76247619D02*
X168621904Y-76295238D01*
X168955238Y-76247619D02*
X169193333Y-77247619D01*
X169193333Y-77247619D02*
X169383809Y-76533333D01*
X169383809Y-76533333D02*
X169574285Y-77247619D01*
X169574285Y-77247619D02*
X169812381Y-76247619D01*
X170717142Y-77247619D02*
X170145714Y-77247619D01*
X170431428Y-77247619D02*
X170431428Y-76247619D01*
X170431428Y-76247619D02*
X170336190Y-76390476D01*
X170336190Y-76390476D02*
X170240952Y-76485714D01*
X170240952Y-76485714D02*
X170145714Y-76533333D01*
X171574285Y-76247619D02*
X171383809Y-76247619D01*
X171383809Y-76247619D02*
X171288571Y-76295238D01*
X171288571Y-76295238D02*
X171240952Y-76342857D01*
X171240952Y-76342857D02*
X171145714Y-76485714D01*
X171145714Y-76485714D02*
X171098095Y-76676190D01*
X171098095Y-76676190D02*
X171098095Y-77057142D01*
X171098095Y-77057142D02*
X171145714Y-77152380D01*
X171145714Y-77152380D02*
X171193333Y-77200000D01*
X171193333Y-77200000D02*
X171288571Y-77247619D01*
X171288571Y-77247619D02*
X171479047Y-77247619D01*
X171479047Y-77247619D02*
X171574285Y-77200000D01*
X171574285Y-77200000D02*
X171621904Y-77152380D01*
X171621904Y-77152380D02*
X171669523Y-77057142D01*
X171669523Y-77057142D02*
X171669523Y-76819047D01*
X171669523Y-76819047D02*
X171621904Y-76723809D01*
X171621904Y-76723809D02*
X171574285Y-76676190D01*
X171574285Y-76676190D02*
X171479047Y-76628571D01*
X171479047Y-76628571D02*
X171288571Y-76628571D01*
X171288571Y-76628571D02*
X171193333Y-76676190D01*
X171193333Y-76676190D02*
X171145714Y-76723809D01*
X171145714Y-76723809D02*
X171098095Y-76819047D01*
%TO.C,SW17*%
X196900476Y-77200000D02*
X197043333Y-77247619D01*
X197043333Y-77247619D02*
X197281428Y-77247619D01*
X197281428Y-77247619D02*
X197376666Y-77200000D01*
X197376666Y-77200000D02*
X197424285Y-77152380D01*
X197424285Y-77152380D02*
X197471904Y-77057142D01*
X197471904Y-77057142D02*
X197471904Y-76961904D01*
X197471904Y-76961904D02*
X197424285Y-76866666D01*
X197424285Y-76866666D02*
X197376666Y-76819047D01*
X197376666Y-76819047D02*
X197281428Y-76771428D01*
X197281428Y-76771428D02*
X197090952Y-76723809D01*
X197090952Y-76723809D02*
X196995714Y-76676190D01*
X196995714Y-76676190D02*
X196948095Y-76628571D01*
X196948095Y-76628571D02*
X196900476Y-76533333D01*
X196900476Y-76533333D02*
X196900476Y-76438095D01*
X196900476Y-76438095D02*
X196948095Y-76342857D01*
X196948095Y-76342857D02*
X196995714Y-76295238D01*
X196995714Y-76295238D02*
X197090952Y-76247619D01*
X197090952Y-76247619D02*
X197329047Y-76247619D01*
X197329047Y-76247619D02*
X197471904Y-76295238D01*
X197805238Y-76247619D02*
X198043333Y-77247619D01*
X198043333Y-77247619D02*
X198233809Y-76533333D01*
X198233809Y-76533333D02*
X198424285Y-77247619D01*
X198424285Y-77247619D02*
X198662381Y-76247619D01*
X199567142Y-77247619D02*
X198995714Y-77247619D01*
X199281428Y-77247619D02*
X199281428Y-76247619D01*
X199281428Y-76247619D02*
X199186190Y-76390476D01*
X199186190Y-76390476D02*
X199090952Y-76485714D01*
X199090952Y-76485714D02*
X198995714Y-76533333D01*
X199900476Y-76247619D02*
X200567142Y-76247619D01*
X200567142Y-76247619D02*
X200138571Y-77247619D01*
%TO.C,SW18*%
X226110476Y-77200000D02*
X226253333Y-77247619D01*
X226253333Y-77247619D02*
X226491428Y-77247619D01*
X226491428Y-77247619D02*
X226586666Y-77200000D01*
X226586666Y-77200000D02*
X226634285Y-77152380D01*
X226634285Y-77152380D02*
X226681904Y-77057142D01*
X226681904Y-77057142D02*
X226681904Y-76961904D01*
X226681904Y-76961904D02*
X226634285Y-76866666D01*
X226634285Y-76866666D02*
X226586666Y-76819047D01*
X226586666Y-76819047D02*
X226491428Y-76771428D01*
X226491428Y-76771428D02*
X226300952Y-76723809D01*
X226300952Y-76723809D02*
X226205714Y-76676190D01*
X226205714Y-76676190D02*
X226158095Y-76628571D01*
X226158095Y-76628571D02*
X226110476Y-76533333D01*
X226110476Y-76533333D02*
X226110476Y-76438095D01*
X226110476Y-76438095D02*
X226158095Y-76342857D01*
X226158095Y-76342857D02*
X226205714Y-76295238D01*
X226205714Y-76295238D02*
X226300952Y-76247619D01*
X226300952Y-76247619D02*
X226539047Y-76247619D01*
X226539047Y-76247619D02*
X226681904Y-76295238D01*
X227015238Y-76247619D02*
X227253333Y-77247619D01*
X227253333Y-77247619D02*
X227443809Y-76533333D01*
X227443809Y-76533333D02*
X227634285Y-77247619D01*
X227634285Y-77247619D02*
X227872381Y-76247619D01*
X228777142Y-77247619D02*
X228205714Y-77247619D01*
X228491428Y-77247619D02*
X228491428Y-76247619D01*
X228491428Y-76247619D02*
X228396190Y-76390476D01*
X228396190Y-76390476D02*
X228300952Y-76485714D01*
X228300952Y-76485714D02*
X228205714Y-76533333D01*
X229348571Y-76676190D02*
X229253333Y-76628571D01*
X229253333Y-76628571D02*
X229205714Y-76580952D01*
X229205714Y-76580952D02*
X229158095Y-76485714D01*
X229158095Y-76485714D02*
X229158095Y-76438095D01*
X229158095Y-76438095D02*
X229205714Y-76342857D01*
X229205714Y-76342857D02*
X229253333Y-76295238D01*
X229253333Y-76295238D02*
X229348571Y-76247619D01*
X229348571Y-76247619D02*
X229539047Y-76247619D01*
X229539047Y-76247619D02*
X229634285Y-76295238D01*
X229634285Y-76295238D02*
X229681904Y-76342857D01*
X229681904Y-76342857D02*
X229729523Y-76438095D01*
X229729523Y-76438095D02*
X229729523Y-76485714D01*
X229729523Y-76485714D02*
X229681904Y-76580952D01*
X229681904Y-76580952D02*
X229634285Y-76628571D01*
X229634285Y-76628571D02*
X229539047Y-76676190D01*
X229539047Y-76676190D02*
X229348571Y-76676190D01*
X229348571Y-76676190D02*
X229253333Y-76723809D01*
X229253333Y-76723809D02*
X229205714Y-76771428D01*
X229205714Y-76771428D02*
X229158095Y-76866666D01*
X229158095Y-76866666D02*
X229158095Y-77057142D01*
X229158095Y-77057142D02*
X229205714Y-77152380D01*
X229205714Y-77152380D02*
X229253333Y-77200000D01*
X229253333Y-77200000D02*
X229348571Y-77247619D01*
X229348571Y-77247619D02*
X229539047Y-77247619D01*
X229539047Y-77247619D02*
X229634285Y-77200000D01*
X229634285Y-77200000D02*
X229681904Y-77152380D01*
X229681904Y-77152380D02*
X229729523Y-77057142D01*
X229729523Y-77057142D02*
X229729523Y-76866666D01*
X229729523Y-76866666D02*
X229681904Y-76771428D01*
X229681904Y-76771428D02*
X229634285Y-76723809D01*
X229634285Y-76723809D02*
X229539047Y-76676190D01*
%TO.C,SW7*%
X56891667Y-57210000D02*
X57034524Y-57257619D01*
X57034524Y-57257619D02*
X57272619Y-57257619D01*
X57272619Y-57257619D02*
X57367857Y-57210000D01*
X57367857Y-57210000D02*
X57415476Y-57162380D01*
X57415476Y-57162380D02*
X57463095Y-57067142D01*
X57463095Y-57067142D02*
X57463095Y-56971904D01*
X57463095Y-56971904D02*
X57415476Y-56876666D01*
X57415476Y-56876666D02*
X57367857Y-56829047D01*
X57367857Y-56829047D02*
X57272619Y-56781428D01*
X57272619Y-56781428D02*
X57082143Y-56733809D01*
X57082143Y-56733809D02*
X56986905Y-56686190D01*
X56986905Y-56686190D02*
X56939286Y-56638571D01*
X56939286Y-56638571D02*
X56891667Y-56543333D01*
X56891667Y-56543333D02*
X56891667Y-56448095D01*
X56891667Y-56448095D02*
X56939286Y-56352857D01*
X56939286Y-56352857D02*
X56986905Y-56305238D01*
X56986905Y-56305238D02*
X57082143Y-56257619D01*
X57082143Y-56257619D02*
X57320238Y-56257619D01*
X57320238Y-56257619D02*
X57463095Y-56305238D01*
X57796429Y-56257619D02*
X58034524Y-57257619D01*
X58034524Y-57257619D02*
X58225000Y-56543333D01*
X58225000Y-56543333D02*
X58415476Y-57257619D01*
X58415476Y-57257619D02*
X58653572Y-56257619D01*
X58939286Y-56257619D02*
X59605952Y-56257619D01*
X59605952Y-56257619D02*
X59177381Y-57257619D01*
%TO.C,R7*%
X147866667Y-35120095D02*
X147600000Y-34739142D01*
X147409524Y-35120095D02*
X147409524Y-34320095D01*
X147409524Y-34320095D02*
X147714286Y-34320095D01*
X147714286Y-34320095D02*
X147790476Y-34358190D01*
X147790476Y-34358190D02*
X147828571Y-34396285D01*
X147828571Y-34396285D02*
X147866667Y-34472476D01*
X147866667Y-34472476D02*
X147866667Y-34586761D01*
X147866667Y-34586761D02*
X147828571Y-34662952D01*
X147828571Y-34662952D02*
X147790476Y-34701047D01*
X147790476Y-34701047D02*
X147714286Y-34739142D01*
X147714286Y-34739142D02*
X147409524Y-34739142D01*
X148133333Y-34320095D02*
X148666667Y-34320095D01*
X148666667Y-34320095D02*
X148323809Y-35120095D01*
%TO.C,USB1*%
X135711905Y-30912619D02*
X135711905Y-31722142D01*
X135711905Y-31722142D02*
X135759524Y-31817380D01*
X135759524Y-31817380D02*
X135807143Y-31865000D01*
X135807143Y-31865000D02*
X135902381Y-31912619D01*
X135902381Y-31912619D02*
X136092857Y-31912619D01*
X136092857Y-31912619D02*
X136188095Y-31865000D01*
X136188095Y-31865000D02*
X136235714Y-31817380D01*
X136235714Y-31817380D02*
X136283333Y-31722142D01*
X136283333Y-31722142D02*
X136283333Y-30912619D01*
X136711905Y-31865000D02*
X136854762Y-31912619D01*
X136854762Y-31912619D02*
X137092857Y-31912619D01*
X137092857Y-31912619D02*
X137188095Y-31865000D01*
X137188095Y-31865000D02*
X137235714Y-31817380D01*
X137235714Y-31817380D02*
X137283333Y-31722142D01*
X137283333Y-31722142D02*
X137283333Y-31626904D01*
X137283333Y-31626904D02*
X137235714Y-31531666D01*
X137235714Y-31531666D02*
X137188095Y-31484047D01*
X137188095Y-31484047D02*
X137092857Y-31436428D01*
X137092857Y-31436428D02*
X136902381Y-31388809D01*
X136902381Y-31388809D02*
X136807143Y-31341190D01*
X136807143Y-31341190D02*
X136759524Y-31293571D01*
X136759524Y-31293571D02*
X136711905Y-31198333D01*
X136711905Y-31198333D02*
X136711905Y-31103095D01*
X136711905Y-31103095D02*
X136759524Y-31007857D01*
X136759524Y-31007857D02*
X136807143Y-30960238D01*
X136807143Y-30960238D02*
X136902381Y-30912619D01*
X136902381Y-30912619D02*
X137140476Y-30912619D01*
X137140476Y-30912619D02*
X137283333Y-30960238D01*
X138045238Y-31388809D02*
X138188095Y-31436428D01*
X138188095Y-31436428D02*
X138235714Y-31484047D01*
X138235714Y-31484047D02*
X138283333Y-31579285D01*
X138283333Y-31579285D02*
X138283333Y-31722142D01*
X138283333Y-31722142D02*
X138235714Y-31817380D01*
X138235714Y-31817380D02*
X138188095Y-31865000D01*
X138188095Y-31865000D02*
X138092857Y-31912619D01*
X138092857Y-31912619D02*
X137711905Y-31912619D01*
X137711905Y-31912619D02*
X137711905Y-30912619D01*
X137711905Y-30912619D02*
X138045238Y-30912619D01*
X138045238Y-30912619D02*
X138140476Y-30960238D01*
X138140476Y-30960238D02*
X138188095Y-31007857D01*
X138188095Y-31007857D02*
X138235714Y-31103095D01*
X138235714Y-31103095D02*
X138235714Y-31198333D01*
X138235714Y-31198333D02*
X138188095Y-31293571D01*
X138188095Y-31293571D02*
X138140476Y-31341190D01*
X138140476Y-31341190D02*
X138045238Y-31388809D01*
X138045238Y-31388809D02*
X137711905Y-31388809D01*
X139235714Y-31912619D02*
X138664286Y-31912619D01*
X138950000Y-31912619D02*
X138950000Y-30912619D01*
X138950000Y-30912619D02*
X138854762Y-31055476D01*
X138854762Y-31055476D02*
X138759524Y-31150714D01*
X138759524Y-31150714D02*
X138664286Y-31198333D01*
%TO.C,R6*%
X142016667Y-35590095D02*
X141750000Y-35209142D01*
X141559524Y-35590095D02*
X141559524Y-34790095D01*
X141559524Y-34790095D02*
X141864286Y-34790095D01*
X141864286Y-34790095D02*
X141940476Y-34828190D01*
X141940476Y-34828190D02*
X141978571Y-34866285D01*
X141978571Y-34866285D02*
X142016667Y-34942476D01*
X142016667Y-34942476D02*
X142016667Y-35056761D01*
X142016667Y-35056761D02*
X141978571Y-35132952D01*
X141978571Y-35132952D02*
X141940476Y-35171047D01*
X141940476Y-35171047D02*
X141864286Y-35209142D01*
X141864286Y-35209142D02*
X141559524Y-35209142D01*
X142702381Y-34790095D02*
X142550000Y-34790095D01*
X142550000Y-34790095D02*
X142473809Y-34828190D01*
X142473809Y-34828190D02*
X142435714Y-34866285D01*
X142435714Y-34866285D02*
X142359524Y-34980571D01*
X142359524Y-34980571D02*
X142321428Y-35132952D01*
X142321428Y-35132952D02*
X142321428Y-35437714D01*
X142321428Y-35437714D02*
X142359524Y-35513904D01*
X142359524Y-35513904D02*
X142397619Y-35552000D01*
X142397619Y-35552000D02*
X142473809Y-35590095D01*
X142473809Y-35590095D02*
X142626190Y-35590095D01*
X142626190Y-35590095D02*
X142702381Y-35552000D01*
X142702381Y-35552000D02*
X142740476Y-35513904D01*
X142740476Y-35513904D02*
X142778571Y-35437714D01*
X142778571Y-35437714D02*
X142778571Y-35247238D01*
X142778571Y-35247238D02*
X142740476Y-35171047D01*
X142740476Y-35171047D02*
X142702381Y-35132952D01*
X142702381Y-35132952D02*
X142626190Y-35094857D01*
X142626190Y-35094857D02*
X142473809Y-35094857D01*
X142473809Y-35094857D02*
X142397619Y-35132952D01*
X142397619Y-35132952D02*
X142359524Y-35171047D01*
X142359524Y-35171047D02*
X142321428Y-35247238D01*
%TO.C,C1*%
X146139667Y-44593904D02*
X146101571Y-44632000D01*
X146101571Y-44632000D02*
X145987286Y-44670095D01*
X145987286Y-44670095D02*
X145911095Y-44670095D01*
X145911095Y-44670095D02*
X145796809Y-44632000D01*
X145796809Y-44632000D02*
X145720619Y-44555809D01*
X145720619Y-44555809D02*
X145682524Y-44479619D01*
X145682524Y-44479619D02*
X145644428Y-44327238D01*
X145644428Y-44327238D02*
X145644428Y-44212952D01*
X145644428Y-44212952D02*
X145682524Y-44060571D01*
X145682524Y-44060571D02*
X145720619Y-43984380D01*
X145720619Y-43984380D02*
X145796809Y-43908190D01*
X145796809Y-43908190D02*
X145911095Y-43870095D01*
X145911095Y-43870095D02*
X145987286Y-43870095D01*
X145987286Y-43870095D02*
X146101571Y-43908190D01*
X146101571Y-43908190D02*
X146139667Y-43946285D01*
X146901571Y-44670095D02*
X146444428Y-44670095D01*
X146673000Y-44670095D02*
X146673000Y-43870095D01*
X146673000Y-43870095D02*
X146596809Y-43984380D01*
X146596809Y-43984380D02*
X146520619Y-44060571D01*
X146520619Y-44060571D02*
X146444428Y-44098666D01*
%TO.C,C2*%
X127916667Y-54893904D02*
X127878571Y-54932000D01*
X127878571Y-54932000D02*
X127764286Y-54970095D01*
X127764286Y-54970095D02*
X127688095Y-54970095D01*
X127688095Y-54970095D02*
X127573809Y-54932000D01*
X127573809Y-54932000D02*
X127497619Y-54855809D01*
X127497619Y-54855809D02*
X127459524Y-54779619D01*
X127459524Y-54779619D02*
X127421428Y-54627238D01*
X127421428Y-54627238D02*
X127421428Y-54512952D01*
X127421428Y-54512952D02*
X127459524Y-54360571D01*
X127459524Y-54360571D02*
X127497619Y-54284380D01*
X127497619Y-54284380D02*
X127573809Y-54208190D01*
X127573809Y-54208190D02*
X127688095Y-54170095D01*
X127688095Y-54170095D02*
X127764286Y-54170095D01*
X127764286Y-54170095D02*
X127878571Y-54208190D01*
X127878571Y-54208190D02*
X127916667Y-54246285D01*
X128221428Y-54246285D02*
X128259524Y-54208190D01*
X128259524Y-54208190D02*
X128335714Y-54170095D01*
X128335714Y-54170095D02*
X128526190Y-54170095D01*
X128526190Y-54170095D02*
X128602381Y-54208190D01*
X128602381Y-54208190D02*
X128640476Y-54246285D01*
X128640476Y-54246285D02*
X128678571Y-54322476D01*
X128678571Y-54322476D02*
X128678571Y-54398666D01*
X128678571Y-54398666D02*
X128640476Y-54512952D01*
X128640476Y-54512952D02*
X128183333Y-54970095D01*
X128183333Y-54970095D02*
X128678571Y-54970095D01*
%TO.C,C4*%
X140409667Y-44593904D02*
X140371571Y-44632000D01*
X140371571Y-44632000D02*
X140257286Y-44670095D01*
X140257286Y-44670095D02*
X140181095Y-44670095D01*
X140181095Y-44670095D02*
X140066809Y-44632000D01*
X140066809Y-44632000D02*
X139990619Y-44555809D01*
X139990619Y-44555809D02*
X139952524Y-44479619D01*
X139952524Y-44479619D02*
X139914428Y-44327238D01*
X139914428Y-44327238D02*
X139914428Y-44212952D01*
X139914428Y-44212952D02*
X139952524Y-44060571D01*
X139952524Y-44060571D02*
X139990619Y-43984380D01*
X139990619Y-43984380D02*
X140066809Y-43908190D01*
X140066809Y-43908190D02*
X140181095Y-43870095D01*
X140181095Y-43870095D02*
X140257286Y-43870095D01*
X140257286Y-43870095D02*
X140371571Y-43908190D01*
X140371571Y-43908190D02*
X140409667Y-43946285D01*
X141095381Y-44136761D02*
X141095381Y-44670095D01*
X140904905Y-43832000D02*
X140714428Y-44403428D01*
X140714428Y-44403428D02*
X141209667Y-44403428D01*
%TO.C,C5*%
X127616667Y-33933904D02*
X127578571Y-33972000D01*
X127578571Y-33972000D02*
X127464286Y-34010095D01*
X127464286Y-34010095D02*
X127388095Y-34010095D01*
X127388095Y-34010095D02*
X127273809Y-33972000D01*
X127273809Y-33972000D02*
X127197619Y-33895809D01*
X127197619Y-33895809D02*
X127159524Y-33819619D01*
X127159524Y-33819619D02*
X127121428Y-33667238D01*
X127121428Y-33667238D02*
X127121428Y-33552952D01*
X127121428Y-33552952D02*
X127159524Y-33400571D01*
X127159524Y-33400571D02*
X127197619Y-33324380D01*
X127197619Y-33324380D02*
X127273809Y-33248190D01*
X127273809Y-33248190D02*
X127388095Y-33210095D01*
X127388095Y-33210095D02*
X127464286Y-33210095D01*
X127464286Y-33210095D02*
X127578571Y-33248190D01*
X127578571Y-33248190D02*
X127616667Y-33286285D01*
X128340476Y-33210095D02*
X127959524Y-33210095D01*
X127959524Y-33210095D02*
X127921428Y-33591047D01*
X127921428Y-33591047D02*
X127959524Y-33552952D01*
X127959524Y-33552952D02*
X128035714Y-33514857D01*
X128035714Y-33514857D02*
X128226190Y-33514857D01*
X128226190Y-33514857D02*
X128302381Y-33552952D01*
X128302381Y-33552952D02*
X128340476Y-33591047D01*
X128340476Y-33591047D02*
X128378571Y-33667238D01*
X128378571Y-33667238D02*
X128378571Y-33857714D01*
X128378571Y-33857714D02*
X128340476Y-33933904D01*
X128340476Y-33933904D02*
X128302381Y-33972000D01*
X128302381Y-33972000D02*
X128226190Y-34010095D01*
X128226190Y-34010095D02*
X128035714Y-34010095D01*
X128035714Y-34010095D02*
X127959524Y-33972000D01*
X127959524Y-33972000D02*
X127921428Y-33933904D01*
%TO.C,C6*%
X130893904Y-37483332D02*
X130932000Y-37521428D01*
X130932000Y-37521428D02*
X130970095Y-37635713D01*
X130970095Y-37635713D02*
X130970095Y-37711904D01*
X130970095Y-37711904D02*
X130932000Y-37826190D01*
X130932000Y-37826190D02*
X130855809Y-37902380D01*
X130855809Y-37902380D02*
X130779619Y-37940475D01*
X130779619Y-37940475D02*
X130627238Y-37978571D01*
X130627238Y-37978571D02*
X130512952Y-37978571D01*
X130512952Y-37978571D02*
X130360571Y-37940475D01*
X130360571Y-37940475D02*
X130284380Y-37902380D01*
X130284380Y-37902380D02*
X130208190Y-37826190D01*
X130208190Y-37826190D02*
X130170095Y-37711904D01*
X130170095Y-37711904D02*
X130170095Y-37635713D01*
X130170095Y-37635713D02*
X130208190Y-37521428D01*
X130208190Y-37521428D02*
X130246285Y-37483332D01*
X130170095Y-36797618D02*
X130170095Y-36949999D01*
X130170095Y-36949999D02*
X130208190Y-37026190D01*
X130208190Y-37026190D02*
X130246285Y-37064285D01*
X130246285Y-37064285D02*
X130360571Y-37140475D01*
X130360571Y-37140475D02*
X130512952Y-37178571D01*
X130512952Y-37178571D02*
X130817714Y-37178571D01*
X130817714Y-37178571D02*
X130893904Y-37140475D01*
X130893904Y-37140475D02*
X130932000Y-37102380D01*
X130932000Y-37102380D02*
X130970095Y-37026190D01*
X130970095Y-37026190D02*
X130970095Y-36873809D01*
X130970095Y-36873809D02*
X130932000Y-36797618D01*
X130932000Y-36797618D02*
X130893904Y-36759523D01*
X130893904Y-36759523D02*
X130817714Y-36721428D01*
X130817714Y-36721428D02*
X130627238Y-36721428D01*
X130627238Y-36721428D02*
X130551047Y-36759523D01*
X130551047Y-36759523D02*
X130512952Y-36797618D01*
X130512952Y-36797618D02*
X130474857Y-36873809D01*
X130474857Y-36873809D02*
X130474857Y-37026190D01*
X130474857Y-37026190D02*
X130512952Y-37102380D01*
X130512952Y-37102380D02*
X130551047Y-37140475D01*
X130551047Y-37140475D02*
X130627238Y-37178571D01*
%TO.C,C7*%
X134566667Y-53293904D02*
X134528571Y-53332000D01*
X134528571Y-53332000D02*
X134414286Y-53370095D01*
X134414286Y-53370095D02*
X134338095Y-53370095D01*
X134338095Y-53370095D02*
X134223809Y-53332000D01*
X134223809Y-53332000D02*
X134147619Y-53255809D01*
X134147619Y-53255809D02*
X134109524Y-53179619D01*
X134109524Y-53179619D02*
X134071428Y-53027238D01*
X134071428Y-53027238D02*
X134071428Y-52912952D01*
X134071428Y-52912952D02*
X134109524Y-52760571D01*
X134109524Y-52760571D02*
X134147619Y-52684380D01*
X134147619Y-52684380D02*
X134223809Y-52608190D01*
X134223809Y-52608190D02*
X134338095Y-52570095D01*
X134338095Y-52570095D02*
X134414286Y-52570095D01*
X134414286Y-52570095D02*
X134528571Y-52608190D01*
X134528571Y-52608190D02*
X134566667Y-52646285D01*
X134833333Y-52570095D02*
X135366667Y-52570095D01*
X135366667Y-52570095D02*
X135023809Y-53370095D01*
%TO.C,C8*%
X135143904Y-37483332D02*
X135182000Y-37521428D01*
X135182000Y-37521428D02*
X135220095Y-37635713D01*
X135220095Y-37635713D02*
X135220095Y-37711904D01*
X135220095Y-37711904D02*
X135182000Y-37826190D01*
X135182000Y-37826190D02*
X135105809Y-37902380D01*
X135105809Y-37902380D02*
X135029619Y-37940475D01*
X135029619Y-37940475D02*
X134877238Y-37978571D01*
X134877238Y-37978571D02*
X134762952Y-37978571D01*
X134762952Y-37978571D02*
X134610571Y-37940475D01*
X134610571Y-37940475D02*
X134534380Y-37902380D01*
X134534380Y-37902380D02*
X134458190Y-37826190D01*
X134458190Y-37826190D02*
X134420095Y-37711904D01*
X134420095Y-37711904D02*
X134420095Y-37635713D01*
X134420095Y-37635713D02*
X134458190Y-37521428D01*
X134458190Y-37521428D02*
X134496285Y-37483332D01*
X134762952Y-37026190D02*
X134724857Y-37102380D01*
X134724857Y-37102380D02*
X134686761Y-37140475D01*
X134686761Y-37140475D02*
X134610571Y-37178571D01*
X134610571Y-37178571D02*
X134572476Y-37178571D01*
X134572476Y-37178571D02*
X134496285Y-37140475D01*
X134496285Y-37140475D02*
X134458190Y-37102380D01*
X134458190Y-37102380D02*
X134420095Y-37026190D01*
X134420095Y-37026190D02*
X134420095Y-36873809D01*
X134420095Y-36873809D02*
X134458190Y-36797618D01*
X134458190Y-36797618D02*
X134496285Y-36759523D01*
X134496285Y-36759523D02*
X134572476Y-36721428D01*
X134572476Y-36721428D02*
X134610571Y-36721428D01*
X134610571Y-36721428D02*
X134686761Y-36759523D01*
X134686761Y-36759523D02*
X134724857Y-36797618D01*
X134724857Y-36797618D02*
X134762952Y-36873809D01*
X134762952Y-36873809D02*
X134762952Y-37026190D01*
X134762952Y-37026190D02*
X134801047Y-37102380D01*
X134801047Y-37102380D02*
X134839142Y-37140475D01*
X134839142Y-37140475D02*
X134915333Y-37178571D01*
X134915333Y-37178571D02*
X135067714Y-37178571D01*
X135067714Y-37178571D02*
X135143904Y-37140475D01*
X135143904Y-37140475D02*
X135182000Y-37102380D01*
X135182000Y-37102380D02*
X135220095Y-37026190D01*
X135220095Y-37026190D02*
X135220095Y-36873809D01*
X135220095Y-36873809D02*
X135182000Y-36797618D01*
X135182000Y-36797618D02*
X135143904Y-36759523D01*
X135143904Y-36759523D02*
X135067714Y-36721428D01*
X135067714Y-36721428D02*
X134915333Y-36721428D01*
X134915333Y-36721428D02*
X134839142Y-36759523D01*
X134839142Y-36759523D02*
X134801047Y-36797618D01*
X134801047Y-36797618D02*
X134762952Y-36873809D01*
%TO.C,C9*%
X131943904Y-37483332D02*
X131982000Y-37521428D01*
X131982000Y-37521428D02*
X132020095Y-37635713D01*
X132020095Y-37635713D02*
X132020095Y-37711904D01*
X132020095Y-37711904D02*
X131982000Y-37826190D01*
X131982000Y-37826190D02*
X131905809Y-37902380D01*
X131905809Y-37902380D02*
X131829619Y-37940475D01*
X131829619Y-37940475D02*
X131677238Y-37978571D01*
X131677238Y-37978571D02*
X131562952Y-37978571D01*
X131562952Y-37978571D02*
X131410571Y-37940475D01*
X131410571Y-37940475D02*
X131334380Y-37902380D01*
X131334380Y-37902380D02*
X131258190Y-37826190D01*
X131258190Y-37826190D02*
X131220095Y-37711904D01*
X131220095Y-37711904D02*
X131220095Y-37635713D01*
X131220095Y-37635713D02*
X131258190Y-37521428D01*
X131258190Y-37521428D02*
X131296285Y-37483332D01*
X132020095Y-37102380D02*
X132020095Y-36949999D01*
X132020095Y-36949999D02*
X131982000Y-36873809D01*
X131982000Y-36873809D02*
X131943904Y-36835713D01*
X131943904Y-36835713D02*
X131829619Y-36759523D01*
X131829619Y-36759523D02*
X131677238Y-36721428D01*
X131677238Y-36721428D02*
X131372476Y-36721428D01*
X131372476Y-36721428D02*
X131296285Y-36759523D01*
X131296285Y-36759523D02*
X131258190Y-36797618D01*
X131258190Y-36797618D02*
X131220095Y-36873809D01*
X131220095Y-36873809D02*
X131220095Y-37026190D01*
X131220095Y-37026190D02*
X131258190Y-37102380D01*
X131258190Y-37102380D02*
X131296285Y-37140475D01*
X131296285Y-37140475D02*
X131372476Y-37178571D01*
X131372476Y-37178571D02*
X131562952Y-37178571D01*
X131562952Y-37178571D02*
X131639142Y-37140475D01*
X131639142Y-37140475D02*
X131677238Y-37102380D01*
X131677238Y-37102380D02*
X131715333Y-37026190D01*
X131715333Y-37026190D02*
X131715333Y-36873809D01*
X131715333Y-36873809D02*
X131677238Y-36797618D01*
X131677238Y-36797618D02*
X131639142Y-36759523D01*
X131639142Y-36759523D02*
X131562952Y-36721428D01*
%TO.C,C10*%
X136193904Y-37464285D02*
X136232000Y-37502381D01*
X136232000Y-37502381D02*
X136270095Y-37616666D01*
X136270095Y-37616666D02*
X136270095Y-37692857D01*
X136270095Y-37692857D02*
X136232000Y-37807143D01*
X136232000Y-37807143D02*
X136155809Y-37883333D01*
X136155809Y-37883333D02*
X136079619Y-37921428D01*
X136079619Y-37921428D02*
X135927238Y-37959524D01*
X135927238Y-37959524D02*
X135812952Y-37959524D01*
X135812952Y-37959524D02*
X135660571Y-37921428D01*
X135660571Y-37921428D02*
X135584380Y-37883333D01*
X135584380Y-37883333D02*
X135508190Y-37807143D01*
X135508190Y-37807143D02*
X135470095Y-37692857D01*
X135470095Y-37692857D02*
X135470095Y-37616666D01*
X135470095Y-37616666D02*
X135508190Y-37502381D01*
X135508190Y-37502381D02*
X135546285Y-37464285D01*
X136270095Y-36702381D02*
X136270095Y-37159524D01*
X136270095Y-36930952D02*
X135470095Y-36930952D01*
X135470095Y-36930952D02*
X135584380Y-37007143D01*
X135584380Y-37007143D02*
X135660571Y-37083333D01*
X135660571Y-37083333D02*
X135698666Y-37159524D01*
X135470095Y-36207142D02*
X135470095Y-36130952D01*
X135470095Y-36130952D02*
X135508190Y-36054761D01*
X135508190Y-36054761D02*
X135546285Y-36016666D01*
X135546285Y-36016666D02*
X135622476Y-35978571D01*
X135622476Y-35978571D02*
X135774857Y-35940476D01*
X135774857Y-35940476D02*
X135965333Y-35940476D01*
X135965333Y-35940476D02*
X136117714Y-35978571D01*
X136117714Y-35978571D02*
X136193904Y-36016666D01*
X136193904Y-36016666D02*
X136232000Y-36054761D01*
X136232000Y-36054761D02*
X136270095Y-36130952D01*
X136270095Y-36130952D02*
X136270095Y-36207142D01*
X136270095Y-36207142D02*
X136232000Y-36283333D01*
X136232000Y-36283333D02*
X136193904Y-36321428D01*
X136193904Y-36321428D02*
X136117714Y-36359523D01*
X136117714Y-36359523D02*
X135965333Y-36397619D01*
X135965333Y-36397619D02*
X135774857Y-36397619D01*
X135774857Y-36397619D02*
X135622476Y-36359523D01*
X135622476Y-36359523D02*
X135546285Y-36321428D01*
X135546285Y-36321428D02*
X135508190Y-36283333D01*
X135508190Y-36283333D02*
X135470095Y-36207142D01*
%TO.C,C15*%
X136735714Y-45843904D02*
X136697618Y-45882000D01*
X136697618Y-45882000D02*
X136583333Y-45920095D01*
X136583333Y-45920095D02*
X136507142Y-45920095D01*
X136507142Y-45920095D02*
X136392856Y-45882000D01*
X136392856Y-45882000D02*
X136316666Y-45805809D01*
X136316666Y-45805809D02*
X136278571Y-45729619D01*
X136278571Y-45729619D02*
X136240475Y-45577238D01*
X136240475Y-45577238D02*
X136240475Y-45462952D01*
X136240475Y-45462952D02*
X136278571Y-45310571D01*
X136278571Y-45310571D02*
X136316666Y-45234380D01*
X136316666Y-45234380D02*
X136392856Y-45158190D01*
X136392856Y-45158190D02*
X136507142Y-45120095D01*
X136507142Y-45120095D02*
X136583333Y-45120095D01*
X136583333Y-45120095D02*
X136697618Y-45158190D01*
X136697618Y-45158190D02*
X136735714Y-45196285D01*
X137497618Y-45920095D02*
X137040475Y-45920095D01*
X137269047Y-45920095D02*
X137269047Y-45120095D01*
X137269047Y-45120095D02*
X137192856Y-45234380D01*
X137192856Y-45234380D02*
X137116666Y-45310571D01*
X137116666Y-45310571D02*
X137040475Y-45348666D01*
X138221428Y-45120095D02*
X137840476Y-45120095D01*
X137840476Y-45120095D02*
X137802380Y-45501047D01*
X137802380Y-45501047D02*
X137840476Y-45462952D01*
X137840476Y-45462952D02*
X137916666Y-45424857D01*
X137916666Y-45424857D02*
X138107142Y-45424857D01*
X138107142Y-45424857D02*
X138183333Y-45462952D01*
X138183333Y-45462952D02*
X138221428Y-45501047D01*
X138221428Y-45501047D02*
X138259523Y-45577238D01*
X138259523Y-45577238D02*
X138259523Y-45767714D01*
X138259523Y-45767714D02*
X138221428Y-45843904D01*
X138221428Y-45843904D02*
X138183333Y-45882000D01*
X138183333Y-45882000D02*
X138107142Y-45920095D01*
X138107142Y-45920095D02*
X137916666Y-45920095D01*
X137916666Y-45920095D02*
X137840476Y-45882000D01*
X137840476Y-45882000D02*
X137802380Y-45843904D01*
%TO.C,C16*%
X137235714Y-42693904D02*
X137197618Y-42732000D01*
X137197618Y-42732000D02*
X137083333Y-42770095D01*
X137083333Y-42770095D02*
X137007142Y-42770095D01*
X137007142Y-42770095D02*
X136892856Y-42732000D01*
X136892856Y-42732000D02*
X136816666Y-42655809D01*
X136816666Y-42655809D02*
X136778571Y-42579619D01*
X136778571Y-42579619D02*
X136740475Y-42427238D01*
X136740475Y-42427238D02*
X136740475Y-42312952D01*
X136740475Y-42312952D02*
X136778571Y-42160571D01*
X136778571Y-42160571D02*
X136816666Y-42084380D01*
X136816666Y-42084380D02*
X136892856Y-42008190D01*
X136892856Y-42008190D02*
X137007142Y-41970095D01*
X137007142Y-41970095D02*
X137083333Y-41970095D01*
X137083333Y-41970095D02*
X137197618Y-42008190D01*
X137197618Y-42008190D02*
X137235714Y-42046285D01*
X137997618Y-42770095D02*
X137540475Y-42770095D01*
X137769047Y-42770095D02*
X137769047Y-41970095D01*
X137769047Y-41970095D02*
X137692856Y-42084380D01*
X137692856Y-42084380D02*
X137616666Y-42160571D01*
X137616666Y-42160571D02*
X137540475Y-42198666D01*
X138683333Y-41970095D02*
X138530952Y-41970095D01*
X138530952Y-41970095D02*
X138454761Y-42008190D01*
X138454761Y-42008190D02*
X138416666Y-42046285D01*
X138416666Y-42046285D02*
X138340476Y-42160571D01*
X138340476Y-42160571D02*
X138302380Y-42312952D01*
X138302380Y-42312952D02*
X138302380Y-42617714D01*
X138302380Y-42617714D02*
X138340476Y-42693904D01*
X138340476Y-42693904D02*
X138378571Y-42732000D01*
X138378571Y-42732000D02*
X138454761Y-42770095D01*
X138454761Y-42770095D02*
X138607142Y-42770095D01*
X138607142Y-42770095D02*
X138683333Y-42732000D01*
X138683333Y-42732000D02*
X138721428Y-42693904D01*
X138721428Y-42693904D02*
X138759523Y-42617714D01*
X138759523Y-42617714D02*
X138759523Y-42427238D01*
X138759523Y-42427238D02*
X138721428Y-42351047D01*
X138721428Y-42351047D02*
X138683333Y-42312952D01*
X138683333Y-42312952D02*
X138607142Y-42274857D01*
X138607142Y-42274857D02*
X138454761Y-42274857D01*
X138454761Y-42274857D02*
X138378571Y-42312952D01*
X138378571Y-42312952D02*
X138340476Y-42351047D01*
X138340476Y-42351047D02*
X138302380Y-42427238D01*
%TO.C,R1*%
X122866667Y-44170095D02*
X122600000Y-43789142D01*
X122409524Y-44170095D02*
X122409524Y-43370095D01*
X122409524Y-43370095D02*
X122714286Y-43370095D01*
X122714286Y-43370095D02*
X122790476Y-43408190D01*
X122790476Y-43408190D02*
X122828571Y-43446285D01*
X122828571Y-43446285D02*
X122866667Y-43522476D01*
X122866667Y-43522476D02*
X122866667Y-43636761D01*
X122866667Y-43636761D02*
X122828571Y-43712952D01*
X122828571Y-43712952D02*
X122790476Y-43751047D01*
X122790476Y-43751047D02*
X122714286Y-43789142D01*
X122714286Y-43789142D02*
X122409524Y-43789142D01*
X123628571Y-44170095D02*
X123171428Y-44170095D01*
X123400000Y-44170095D02*
X123400000Y-43370095D01*
X123400000Y-43370095D02*
X123323809Y-43484380D01*
X123323809Y-43484380D02*
X123247619Y-43560571D01*
X123247619Y-43560571D02*
X123171428Y-43598666D01*
%TO.C,R2*%
X117866667Y-35600095D02*
X117600000Y-35219142D01*
X117409524Y-35600095D02*
X117409524Y-34800095D01*
X117409524Y-34800095D02*
X117714286Y-34800095D01*
X117714286Y-34800095D02*
X117790476Y-34838190D01*
X117790476Y-34838190D02*
X117828571Y-34876285D01*
X117828571Y-34876285D02*
X117866667Y-34952476D01*
X117866667Y-34952476D02*
X117866667Y-35066761D01*
X117866667Y-35066761D02*
X117828571Y-35142952D01*
X117828571Y-35142952D02*
X117790476Y-35181047D01*
X117790476Y-35181047D02*
X117714286Y-35219142D01*
X117714286Y-35219142D02*
X117409524Y-35219142D01*
X118171428Y-34876285D02*
X118209524Y-34838190D01*
X118209524Y-34838190D02*
X118285714Y-34800095D01*
X118285714Y-34800095D02*
X118476190Y-34800095D01*
X118476190Y-34800095D02*
X118552381Y-34838190D01*
X118552381Y-34838190D02*
X118590476Y-34876285D01*
X118590476Y-34876285D02*
X118628571Y-34952476D01*
X118628571Y-34952476D02*
X118628571Y-35028666D01*
X118628571Y-35028666D02*
X118590476Y-35142952D01*
X118590476Y-35142952D02*
X118133333Y-35600095D01*
X118133333Y-35600095D02*
X118628571Y-35600095D01*
%TO.C,R4*%
X134120095Y-37483332D02*
X133739142Y-37749999D01*
X134120095Y-37940475D02*
X133320095Y-37940475D01*
X133320095Y-37940475D02*
X133320095Y-37635713D01*
X133320095Y-37635713D02*
X133358190Y-37559523D01*
X133358190Y-37559523D02*
X133396285Y-37521428D01*
X133396285Y-37521428D02*
X133472476Y-37483332D01*
X133472476Y-37483332D02*
X133586761Y-37483332D01*
X133586761Y-37483332D02*
X133662952Y-37521428D01*
X133662952Y-37521428D02*
X133701047Y-37559523D01*
X133701047Y-37559523D02*
X133739142Y-37635713D01*
X133739142Y-37635713D02*
X133739142Y-37940475D01*
X133586761Y-36797618D02*
X134120095Y-36797618D01*
X133282000Y-36988094D02*
X133853428Y-37178571D01*
X133853428Y-37178571D02*
X133853428Y-36683332D01*
%TO.C,U1*%
X142688095Y-39162619D02*
X142688095Y-39972142D01*
X142688095Y-39972142D02*
X142735714Y-40067380D01*
X142735714Y-40067380D02*
X142783333Y-40115000D01*
X142783333Y-40115000D02*
X142878571Y-40162619D01*
X142878571Y-40162619D02*
X143069047Y-40162619D01*
X143069047Y-40162619D02*
X143164285Y-40115000D01*
X143164285Y-40115000D02*
X143211904Y-40067380D01*
X143211904Y-40067380D02*
X143259523Y-39972142D01*
X143259523Y-39972142D02*
X143259523Y-39162619D01*
X144259523Y-40162619D02*
X143688095Y-40162619D01*
X143973809Y-40162619D02*
X143973809Y-39162619D01*
X143973809Y-39162619D02*
X143878571Y-39305476D01*
X143878571Y-39305476D02*
X143783333Y-39400714D01*
X143783333Y-39400714D02*
X143688095Y-39448333D01*
%TO.C,U2*%
X123288095Y-34202619D02*
X123288095Y-35012142D01*
X123288095Y-35012142D02*
X123335714Y-35107380D01*
X123335714Y-35107380D02*
X123383333Y-35155000D01*
X123383333Y-35155000D02*
X123478571Y-35202619D01*
X123478571Y-35202619D02*
X123669047Y-35202619D01*
X123669047Y-35202619D02*
X123764285Y-35155000D01*
X123764285Y-35155000D02*
X123811904Y-35107380D01*
X123811904Y-35107380D02*
X123859523Y-35012142D01*
X123859523Y-35012142D02*
X123859523Y-34202619D01*
X124288095Y-34297857D02*
X124335714Y-34250238D01*
X124335714Y-34250238D02*
X124430952Y-34202619D01*
X124430952Y-34202619D02*
X124669047Y-34202619D01*
X124669047Y-34202619D02*
X124764285Y-34250238D01*
X124764285Y-34250238D02*
X124811904Y-34297857D01*
X124811904Y-34297857D02*
X124859523Y-34393095D01*
X124859523Y-34393095D02*
X124859523Y-34488333D01*
X124859523Y-34488333D02*
X124811904Y-34631190D01*
X124811904Y-34631190D02*
X124240476Y-35202619D01*
X124240476Y-35202619D02*
X124859523Y-35202619D01*
%TO.C,U3*%
X129388095Y-42042619D02*
X129388095Y-42852142D01*
X129388095Y-42852142D02*
X129435714Y-42947380D01*
X129435714Y-42947380D02*
X129483333Y-42995000D01*
X129483333Y-42995000D02*
X129578571Y-43042619D01*
X129578571Y-43042619D02*
X129769047Y-43042619D01*
X129769047Y-43042619D02*
X129864285Y-42995000D01*
X129864285Y-42995000D02*
X129911904Y-42947380D01*
X129911904Y-42947380D02*
X129959523Y-42852142D01*
X129959523Y-42852142D02*
X129959523Y-42042619D01*
X130340476Y-42042619D02*
X130959523Y-42042619D01*
X130959523Y-42042619D02*
X130626190Y-42423571D01*
X130626190Y-42423571D02*
X130769047Y-42423571D01*
X130769047Y-42423571D02*
X130864285Y-42471190D01*
X130864285Y-42471190D02*
X130911904Y-42518809D01*
X130911904Y-42518809D02*
X130959523Y-42614047D01*
X130959523Y-42614047D02*
X130959523Y-42852142D01*
X130959523Y-42852142D02*
X130911904Y-42947380D01*
X130911904Y-42947380D02*
X130864285Y-42995000D01*
X130864285Y-42995000D02*
X130769047Y-43042619D01*
X130769047Y-43042619D02*
X130483333Y-43042619D01*
X130483333Y-43042619D02*
X130388095Y-42995000D01*
X130388095Y-42995000D02*
X130340476Y-42947380D01*
%TO.C,Y1*%
X130173809Y-60086428D02*
X130173809Y-60562619D01*
X129840476Y-59562619D02*
X130173809Y-60086428D01*
X130173809Y-60086428D02*
X130507142Y-59562619D01*
X131364285Y-60562619D02*
X130792857Y-60562619D01*
X131078571Y-60562619D02*
X131078571Y-59562619D01*
X131078571Y-59562619D02*
X130983333Y-59705476D01*
X130983333Y-59705476D02*
X130888095Y-59800714D01*
X130888095Y-59800714D02*
X130792857Y-59848333D01*
%TO.C,R3*%
X133070095Y-37483332D02*
X132689142Y-37749999D01*
X133070095Y-37940475D02*
X132270095Y-37940475D01*
X132270095Y-37940475D02*
X132270095Y-37635713D01*
X132270095Y-37635713D02*
X132308190Y-37559523D01*
X132308190Y-37559523D02*
X132346285Y-37521428D01*
X132346285Y-37521428D02*
X132422476Y-37483332D01*
X132422476Y-37483332D02*
X132536761Y-37483332D01*
X132536761Y-37483332D02*
X132612952Y-37521428D01*
X132612952Y-37521428D02*
X132651047Y-37559523D01*
X132651047Y-37559523D02*
X132689142Y-37635713D01*
X132689142Y-37635713D02*
X132689142Y-37940475D01*
X132270095Y-37216666D02*
X132270095Y-36721428D01*
X132270095Y-36721428D02*
X132574857Y-36988094D01*
X132574857Y-36988094D02*
X132574857Y-36873809D01*
X132574857Y-36873809D02*
X132612952Y-36797618D01*
X132612952Y-36797618D02*
X132651047Y-36759523D01*
X132651047Y-36759523D02*
X132727238Y-36721428D01*
X132727238Y-36721428D02*
X132917714Y-36721428D01*
X132917714Y-36721428D02*
X132993904Y-36759523D01*
X132993904Y-36759523D02*
X133032000Y-36797618D01*
X133032000Y-36797618D02*
X133070095Y-36873809D01*
X133070095Y-36873809D02*
X133070095Y-37102380D01*
X133070095Y-37102380D02*
X133032000Y-37178571D01*
X133032000Y-37178571D02*
X132993904Y-37216666D01*
%TO.C,C3*%
X134416667Y-57543904D02*
X134378571Y-57582000D01*
X134378571Y-57582000D02*
X134264286Y-57620095D01*
X134264286Y-57620095D02*
X134188095Y-57620095D01*
X134188095Y-57620095D02*
X134073809Y-57582000D01*
X134073809Y-57582000D02*
X133997619Y-57505809D01*
X133997619Y-57505809D02*
X133959524Y-57429619D01*
X133959524Y-57429619D02*
X133921428Y-57277238D01*
X133921428Y-57277238D02*
X133921428Y-57162952D01*
X133921428Y-57162952D02*
X133959524Y-57010571D01*
X133959524Y-57010571D02*
X133997619Y-56934380D01*
X133997619Y-56934380D02*
X134073809Y-56858190D01*
X134073809Y-56858190D02*
X134188095Y-56820095D01*
X134188095Y-56820095D02*
X134264286Y-56820095D01*
X134264286Y-56820095D02*
X134378571Y-56858190D01*
X134378571Y-56858190D02*
X134416667Y-56896285D01*
X134683333Y-56820095D02*
X135178571Y-56820095D01*
X135178571Y-56820095D02*
X134911905Y-57124857D01*
X134911905Y-57124857D02*
X135026190Y-57124857D01*
X135026190Y-57124857D02*
X135102381Y-57162952D01*
X135102381Y-57162952D02*
X135140476Y-57201047D01*
X135140476Y-57201047D02*
X135178571Y-57277238D01*
X135178571Y-57277238D02*
X135178571Y-57467714D01*
X135178571Y-57467714D02*
X135140476Y-57543904D01*
X135140476Y-57543904D02*
X135102381Y-57582000D01*
X135102381Y-57582000D02*
X135026190Y-57620095D01*
X135026190Y-57620095D02*
X134797619Y-57620095D01*
X134797619Y-57620095D02*
X134721428Y-57582000D01*
X134721428Y-57582000D02*
X134683333Y-57543904D01*
%TO.C,C13*%
X125985714Y-47643904D02*
X125947618Y-47682000D01*
X125947618Y-47682000D02*
X125833333Y-47720095D01*
X125833333Y-47720095D02*
X125757142Y-47720095D01*
X125757142Y-47720095D02*
X125642856Y-47682000D01*
X125642856Y-47682000D02*
X125566666Y-47605809D01*
X125566666Y-47605809D02*
X125528571Y-47529619D01*
X125528571Y-47529619D02*
X125490475Y-47377238D01*
X125490475Y-47377238D02*
X125490475Y-47262952D01*
X125490475Y-47262952D02*
X125528571Y-47110571D01*
X125528571Y-47110571D02*
X125566666Y-47034380D01*
X125566666Y-47034380D02*
X125642856Y-46958190D01*
X125642856Y-46958190D02*
X125757142Y-46920095D01*
X125757142Y-46920095D02*
X125833333Y-46920095D01*
X125833333Y-46920095D02*
X125947618Y-46958190D01*
X125947618Y-46958190D02*
X125985714Y-46996285D01*
X126747618Y-47720095D02*
X126290475Y-47720095D01*
X126519047Y-47720095D02*
X126519047Y-46920095D01*
X126519047Y-46920095D02*
X126442856Y-47034380D01*
X126442856Y-47034380D02*
X126366666Y-47110571D01*
X126366666Y-47110571D02*
X126290475Y-47148666D01*
X127014285Y-46920095D02*
X127509523Y-46920095D01*
X127509523Y-46920095D02*
X127242857Y-47224857D01*
X127242857Y-47224857D02*
X127357142Y-47224857D01*
X127357142Y-47224857D02*
X127433333Y-47262952D01*
X127433333Y-47262952D02*
X127471428Y-47301047D01*
X127471428Y-47301047D02*
X127509523Y-47377238D01*
X127509523Y-47377238D02*
X127509523Y-47567714D01*
X127509523Y-47567714D02*
X127471428Y-47643904D01*
X127471428Y-47643904D02*
X127433333Y-47682000D01*
X127433333Y-47682000D02*
X127357142Y-47720095D01*
X127357142Y-47720095D02*
X127128571Y-47720095D01*
X127128571Y-47720095D02*
X127052380Y-47682000D01*
X127052380Y-47682000D02*
X127014285Y-47643904D01*
%TO.C,C12*%
X138827714Y-48265904D02*
X138789618Y-48304000D01*
X138789618Y-48304000D02*
X138675333Y-48342095D01*
X138675333Y-48342095D02*
X138599142Y-48342095D01*
X138599142Y-48342095D02*
X138484856Y-48304000D01*
X138484856Y-48304000D02*
X138408666Y-48227809D01*
X138408666Y-48227809D02*
X138370571Y-48151619D01*
X138370571Y-48151619D02*
X138332475Y-47999238D01*
X138332475Y-47999238D02*
X138332475Y-47884952D01*
X138332475Y-47884952D02*
X138370571Y-47732571D01*
X138370571Y-47732571D02*
X138408666Y-47656380D01*
X138408666Y-47656380D02*
X138484856Y-47580190D01*
X138484856Y-47580190D02*
X138599142Y-47542095D01*
X138599142Y-47542095D02*
X138675333Y-47542095D01*
X138675333Y-47542095D02*
X138789618Y-47580190D01*
X138789618Y-47580190D02*
X138827714Y-47618285D01*
X139589618Y-48342095D02*
X139132475Y-48342095D01*
X139361047Y-48342095D02*
X139361047Y-47542095D01*
X139361047Y-47542095D02*
X139284856Y-47656380D01*
X139284856Y-47656380D02*
X139208666Y-47732571D01*
X139208666Y-47732571D02*
X139132475Y-47770666D01*
X139894380Y-47618285D02*
X139932476Y-47580190D01*
X139932476Y-47580190D02*
X140008666Y-47542095D01*
X140008666Y-47542095D02*
X140199142Y-47542095D01*
X140199142Y-47542095D02*
X140275333Y-47580190D01*
X140275333Y-47580190D02*
X140313428Y-47618285D01*
X140313428Y-47618285D02*
X140351523Y-47694476D01*
X140351523Y-47694476D02*
X140351523Y-47770666D01*
X140351523Y-47770666D02*
X140313428Y-47884952D01*
X140313428Y-47884952D02*
X139856285Y-48342095D01*
X139856285Y-48342095D02*
X140351523Y-48342095D01*
%TO.C,R5*%
X130066667Y-53670095D02*
X129800000Y-53289142D01*
X129609524Y-53670095D02*
X129609524Y-52870095D01*
X129609524Y-52870095D02*
X129914286Y-52870095D01*
X129914286Y-52870095D02*
X129990476Y-52908190D01*
X129990476Y-52908190D02*
X130028571Y-52946285D01*
X130028571Y-52946285D02*
X130066667Y-53022476D01*
X130066667Y-53022476D02*
X130066667Y-53136761D01*
X130066667Y-53136761D02*
X130028571Y-53212952D01*
X130028571Y-53212952D02*
X129990476Y-53251047D01*
X129990476Y-53251047D02*
X129914286Y-53289142D01*
X129914286Y-53289142D02*
X129609524Y-53289142D01*
X130790476Y-52870095D02*
X130409524Y-52870095D01*
X130409524Y-52870095D02*
X130371428Y-53251047D01*
X130371428Y-53251047D02*
X130409524Y-53212952D01*
X130409524Y-53212952D02*
X130485714Y-53174857D01*
X130485714Y-53174857D02*
X130676190Y-53174857D01*
X130676190Y-53174857D02*
X130752381Y-53212952D01*
X130752381Y-53212952D02*
X130790476Y-53251047D01*
X130790476Y-53251047D02*
X130828571Y-53327238D01*
X130828571Y-53327238D02*
X130828571Y-53517714D01*
X130828571Y-53517714D02*
X130790476Y-53593904D01*
X130790476Y-53593904D02*
X130752381Y-53632000D01*
X130752381Y-53632000D02*
X130676190Y-53670095D01*
X130676190Y-53670095D02*
X130485714Y-53670095D01*
X130485714Y-53670095D02*
X130409524Y-53632000D01*
X130409524Y-53632000D02*
X130371428Y-53593904D01*
%TO.C,C14*%
X131135714Y-52293904D02*
X131097618Y-52332000D01*
X131097618Y-52332000D02*
X130983333Y-52370095D01*
X130983333Y-52370095D02*
X130907142Y-52370095D01*
X130907142Y-52370095D02*
X130792856Y-52332000D01*
X130792856Y-52332000D02*
X130716666Y-52255809D01*
X130716666Y-52255809D02*
X130678571Y-52179619D01*
X130678571Y-52179619D02*
X130640475Y-52027238D01*
X130640475Y-52027238D02*
X130640475Y-51912952D01*
X130640475Y-51912952D02*
X130678571Y-51760571D01*
X130678571Y-51760571D02*
X130716666Y-51684380D01*
X130716666Y-51684380D02*
X130792856Y-51608190D01*
X130792856Y-51608190D02*
X130907142Y-51570095D01*
X130907142Y-51570095D02*
X130983333Y-51570095D01*
X130983333Y-51570095D02*
X131097618Y-51608190D01*
X131097618Y-51608190D02*
X131135714Y-51646285D01*
X131897618Y-52370095D02*
X131440475Y-52370095D01*
X131669047Y-52370095D02*
X131669047Y-51570095D01*
X131669047Y-51570095D02*
X131592856Y-51684380D01*
X131592856Y-51684380D02*
X131516666Y-51760571D01*
X131516666Y-51760571D02*
X131440475Y-51798666D01*
X132583333Y-51836761D02*
X132583333Y-52370095D01*
X132392857Y-51532000D02*
X132202380Y-52103428D01*
X132202380Y-52103428D02*
X132697619Y-52103428D01*
%TO.C,C11*%
X126085714Y-43243904D02*
X126047618Y-43282000D01*
X126047618Y-43282000D02*
X125933333Y-43320095D01*
X125933333Y-43320095D02*
X125857142Y-43320095D01*
X125857142Y-43320095D02*
X125742856Y-43282000D01*
X125742856Y-43282000D02*
X125666666Y-43205809D01*
X125666666Y-43205809D02*
X125628571Y-43129619D01*
X125628571Y-43129619D02*
X125590475Y-42977238D01*
X125590475Y-42977238D02*
X125590475Y-42862952D01*
X125590475Y-42862952D02*
X125628571Y-42710571D01*
X125628571Y-42710571D02*
X125666666Y-42634380D01*
X125666666Y-42634380D02*
X125742856Y-42558190D01*
X125742856Y-42558190D02*
X125857142Y-42520095D01*
X125857142Y-42520095D02*
X125933333Y-42520095D01*
X125933333Y-42520095D02*
X126047618Y-42558190D01*
X126047618Y-42558190D02*
X126085714Y-42596285D01*
X126847618Y-43320095D02*
X126390475Y-43320095D01*
X126619047Y-43320095D02*
X126619047Y-42520095D01*
X126619047Y-42520095D02*
X126542856Y-42634380D01*
X126542856Y-42634380D02*
X126466666Y-42710571D01*
X126466666Y-42710571D02*
X126390475Y-42748666D01*
X127609523Y-43320095D02*
X127152380Y-43320095D01*
X127380952Y-43320095D02*
X127380952Y-42520095D01*
X127380952Y-42520095D02*
X127304761Y-42634380D01*
X127304761Y-42634380D02*
X127228571Y-42710571D01*
X127228571Y-42710571D02*
X127152380Y-42748666D01*
D14*
%TO.C,SW20*%
X123350000Y-51950000D02*
X123350000Y-52950000D01*
X122350000Y-51950000D02*
X123350000Y-51950000D01*
X121350000Y-53950000D02*
X118750000Y-53950000D01*
X123300000Y-59950000D02*
X123300000Y-54150000D01*
X116800000Y-60050000D02*
X116800000Y-54050000D01*
X121350000Y-60150000D02*
X118750000Y-60150000D01*
%TO.C,SWr1*%
X64853000Y-42416000D02*
X63853000Y-42416000D01*
X64853000Y-41416000D02*
X64853000Y-42416000D01*
X62853000Y-40416000D02*
X62853000Y-37816000D01*
X56853000Y-42366000D02*
X62653000Y-42366000D01*
X56753000Y-35866000D02*
X62753000Y-35866000D01*
X56653000Y-40416000D02*
X56653000Y-37816000D01*
%TO.C,SW19*%
X109600000Y-62150000D02*
X109600000Y-61150000D01*
X110600000Y-62150000D02*
X109600000Y-62150000D01*
X111600000Y-60150000D02*
X114200000Y-60150000D01*
X109650000Y-54150000D02*
X109650000Y-59950000D01*
X116150000Y-54050000D02*
X116150000Y-60050000D01*
X111600000Y-53950000D02*
X114200000Y-53950000D01*
%TO.C,SW6*%
X116225000Y-42416000D02*
X115225000Y-42416000D01*
X116225000Y-41416000D02*
X116225000Y-42416000D01*
X114225000Y-40416000D02*
X114225000Y-37816000D01*
X108225000Y-42366000D02*
X114025000Y-42366000D01*
X108125000Y-35866000D02*
X114125000Y-35866000D01*
X108025000Y-40416000D02*
X108025000Y-37816000D01*
%TO.C,SW5*%
X105938000Y-42416000D02*
X104938000Y-42416000D01*
X105938000Y-41416000D02*
X105938000Y-42416000D01*
X103938000Y-40416000D02*
X103938000Y-37816000D01*
X97938000Y-42366000D02*
X103738000Y-42366000D01*
X97838000Y-35866000D02*
X103838000Y-35866000D01*
X97738000Y-40416000D02*
X97738000Y-37816000D01*
%TO.C,SW4*%
X95651000Y-42416000D02*
X94651000Y-42416000D01*
X95651000Y-41416000D02*
X95651000Y-42416000D01*
X93651000Y-40416000D02*
X93651000Y-37816000D01*
X87651000Y-42366000D02*
X93451000Y-42366000D01*
X87551000Y-35866000D02*
X93551000Y-35866000D01*
X87451000Y-40416000D02*
X87451000Y-37816000D01*
%TO.C,SW3*%
X85237000Y-42416000D02*
X84237000Y-42416000D01*
X85237000Y-41416000D02*
X85237000Y-42416000D01*
X83237000Y-40416000D02*
X83237000Y-37816000D01*
X77237000Y-42366000D02*
X83037000Y-42366000D01*
X77137000Y-35866000D02*
X83137000Y-35866000D01*
X77037000Y-40416000D02*
X77037000Y-37816000D01*
%TO.C,SW2*%
X75110000Y-42416000D02*
X74110000Y-42416000D01*
X75110000Y-41416000D02*
X75110000Y-42416000D01*
X73110000Y-40416000D02*
X73110000Y-37816000D01*
X67110000Y-42366000D02*
X72910000Y-42366000D01*
X67010000Y-35866000D02*
X73010000Y-35866000D01*
X66910000Y-40416000D02*
X66910000Y-37816000D01*
D12*
%TO.C,SW8*%
X80320000Y-59170000D02*
X80320000Y-58170000D01*
X80320000Y-72170000D02*
X80320000Y-71170000D01*
X80320000Y-72170000D02*
X81320000Y-72170000D01*
X81320000Y-58170000D02*
X80320000Y-58170000D01*
X93320000Y-72170000D02*
X94320000Y-72170000D01*
X94320000Y-58170000D02*
X93320000Y-58170000D01*
X94320000Y-58170000D02*
X94320000Y-59170000D01*
X94320000Y-71170000D02*
X94320000Y-72170000D01*
%TO.C,SW9*%
X106920000Y-70520000D02*
X106920000Y-69520000D01*
X106920000Y-83520000D02*
X106920000Y-82520000D01*
X106920000Y-83520000D02*
X107920000Y-83520000D01*
X107920000Y-69520000D02*
X106920000Y-69520000D01*
X119920000Y-83520000D02*
X120920000Y-83520000D01*
X120920000Y-69520000D02*
X119920000Y-69520000D01*
X120920000Y-69520000D02*
X120920000Y-70520000D01*
X120920000Y-82520000D02*
X120920000Y-83520000D01*
%TO.C,SW10*%
X124420000Y-123620000D02*
X124420000Y-122620000D01*
X124420000Y-136620000D02*
X124420000Y-135620000D01*
X124420000Y-136620000D02*
X125420000Y-136620000D01*
X125420000Y-122620000D02*
X124420000Y-122620000D01*
X137420000Y-136620000D02*
X138420000Y-136620000D01*
X138420000Y-122620000D02*
X137420000Y-122620000D01*
X138420000Y-122620000D02*
X138420000Y-123620000D01*
X138420000Y-135620000D02*
X138420000Y-136620000D01*
%TO.C,SW11*%
X141860000Y-59110000D02*
X141860000Y-58110000D01*
X141860000Y-72110000D02*
X141860000Y-71110000D01*
X141860000Y-72110000D02*
X142860000Y-72110000D01*
X142860000Y-58110000D02*
X141860000Y-58110000D01*
X154860000Y-72110000D02*
X155860000Y-72110000D01*
X155860000Y-58110000D02*
X154860000Y-58110000D01*
X155860000Y-58110000D02*
X155860000Y-59110000D01*
X155860000Y-71110000D02*
X155860000Y-72110000D01*
%TO.C,SW12*%
X168420000Y-47580000D02*
X168420000Y-46580000D01*
X168420000Y-60580000D02*
X168420000Y-59580000D01*
X168420000Y-60580000D02*
X169420000Y-60580000D01*
X169420000Y-46580000D02*
X168420000Y-46580000D01*
X181420000Y-60580000D02*
X182420000Y-60580000D01*
X182420000Y-46580000D02*
X181420000Y-46580000D01*
X182420000Y-46580000D02*
X182420000Y-47580000D01*
X182420000Y-59580000D02*
X182420000Y-60580000D01*
%TO.C,SW13*%
X197390000Y-47460000D02*
X197390000Y-46460000D01*
X197390000Y-60460000D02*
X197390000Y-59460000D01*
X197390000Y-60460000D02*
X198390000Y-60460000D01*
X198390000Y-46460000D02*
X197390000Y-46460000D01*
X210390000Y-60460000D02*
X211390000Y-60460000D01*
X211390000Y-46460000D02*
X210390000Y-46460000D01*
X211390000Y-46460000D02*
X211390000Y-47460000D01*
X211390000Y-59460000D02*
X211390000Y-60460000D01*
%TO.C,SW14*%
X226360000Y-47700000D02*
X226360000Y-46700000D01*
X226360000Y-60700000D02*
X226360000Y-59700000D01*
X226360000Y-60700000D02*
X227360000Y-60700000D01*
X227360000Y-46700000D02*
X226360000Y-46700000D01*
X239360000Y-60700000D02*
X240360000Y-60700000D01*
X240360000Y-46700000D02*
X239360000Y-46700000D01*
X240360000Y-46700000D02*
X240360000Y-47700000D01*
X240360000Y-59700000D02*
X240360000Y-60700000D01*
%TO.C,SW15*%
X136250000Y-90150000D02*
X136250000Y-89150000D01*
X136250000Y-103150000D02*
X136250000Y-102150000D01*
X136250000Y-103150000D02*
X137250000Y-103150000D01*
X137250000Y-89150000D02*
X136250000Y-89150000D01*
X149250000Y-103150000D02*
X150250000Y-103150000D01*
X150250000Y-89150000D02*
X149250000Y-89150000D01*
X150250000Y-89150000D02*
X150250000Y-90150000D01*
X150250000Y-102150000D02*
X150250000Y-103150000D01*
%TO.C,SW16*%
X162860000Y-79040000D02*
X162860000Y-78040000D01*
X162860000Y-92040000D02*
X162860000Y-91040000D01*
X162860000Y-92040000D02*
X163860000Y-92040000D01*
X163860000Y-78040000D02*
X162860000Y-78040000D01*
X175860000Y-92040000D02*
X176860000Y-92040000D01*
X176860000Y-78040000D02*
X175860000Y-78040000D01*
X176860000Y-78040000D02*
X176860000Y-79040000D01*
X176860000Y-91040000D02*
X176860000Y-92040000D01*
%TO.C,SW17*%
X191710000Y-79040000D02*
X191710000Y-78040000D01*
X191710000Y-92040000D02*
X191710000Y-91040000D01*
X191710000Y-92040000D02*
X192710000Y-92040000D01*
X192710000Y-78040000D02*
X191710000Y-78040000D01*
X204710000Y-92040000D02*
X205710000Y-92040000D01*
X205710000Y-78040000D02*
X204710000Y-78040000D01*
X205710000Y-78040000D02*
X205710000Y-79040000D01*
X205710000Y-91040000D02*
X205710000Y-92040000D01*
%TO.C,SW18*%
X220920000Y-79040000D02*
X220920000Y-78040000D01*
X220920000Y-92040000D02*
X220920000Y-91040000D01*
X220920000Y-92040000D02*
X221920000Y-92040000D01*
X221920000Y-78040000D02*
X220920000Y-78040000D01*
X233920000Y-92040000D02*
X234920000Y-92040000D01*
X234920000Y-78040000D02*
X233920000Y-78040000D01*
X234920000Y-78040000D02*
X234920000Y-79040000D01*
X234920000Y-91040000D02*
X234920000Y-92040000D01*
%TO.C,SW7*%
X51225000Y-59050000D02*
X51225000Y-58050000D01*
X51225000Y-72050000D02*
X51225000Y-71050000D01*
X51225000Y-72050000D02*
X52225000Y-72050000D01*
X52225000Y-58050000D02*
X51225000Y-58050000D01*
X64225000Y-72050000D02*
X65225000Y-72050000D01*
X65225000Y-58050000D02*
X64225000Y-58050000D01*
X65225000Y-58050000D02*
X65225000Y-59050000D01*
X65225000Y-71050000D02*
X65225000Y-72050000D01*
D14*
%TO.C,R7*%
X146930000Y-34346359D02*
X146930000Y-34653641D01*
X146170000Y-34346359D02*
X146170000Y-34653641D01*
%TO.C,R6*%
X142303641Y-34430000D02*
X141996359Y-34430000D01*
X142303641Y-33670000D02*
X141996359Y-33670000D01*
%TO.C,C1*%
X145563000Y-42857836D02*
X145563000Y-42642164D01*
X146283000Y-42857836D02*
X146283000Y-42642164D01*
%TO.C,C2*%
X129792164Y-54240000D02*
X130007836Y-54240000D01*
X129792164Y-54960000D02*
X130007836Y-54960000D01*
%TO.C,C4*%
X140483000Y-42857836D02*
X140483000Y-42642164D01*
X141203000Y-42857836D02*
X141203000Y-42642164D01*
%TO.C,C5*%
X127642164Y-34440000D02*
X127857836Y-34440000D01*
X127642164Y-35160000D02*
X127857836Y-35160000D01*
%TO.C,C6*%
X130240000Y-40207836D02*
X130240000Y-39992164D01*
X130960000Y-40207836D02*
X130960000Y-39992164D01*
%TO.C,C7*%
X133810000Y-53192164D02*
X133810000Y-53407836D01*
X133090000Y-53192164D02*
X133090000Y-53407836D01*
%TO.C,C8*%
X134490000Y-40807836D02*
X134490000Y-40592164D01*
X135210000Y-40807836D02*
X135210000Y-40592164D01*
%TO.C,C9*%
X131290000Y-40807836D02*
X131290000Y-40592164D01*
X132010000Y-40807836D02*
X132010000Y-40592164D01*
%TO.C,C10*%
X135540000Y-41807836D02*
X135540000Y-41592164D01*
X136260000Y-41807836D02*
X136260000Y-41592164D01*
%TO.C,C15*%
X136992164Y-44090000D02*
X137207836Y-44090000D01*
X136992164Y-44810000D02*
X137207836Y-44810000D01*
%TO.C,C16*%
X136992164Y-43040000D02*
X137207836Y-43040000D01*
X136992164Y-43760000D02*
X137207836Y-43760000D01*
%TO.C,R1*%
X122030000Y-43446359D02*
X122030000Y-43753641D01*
X121270000Y-43446359D02*
X121270000Y-43753641D01*
%TO.C,R2*%
X117846359Y-36020000D02*
X118153641Y-36020000D01*
X117846359Y-36780000D02*
X118153641Y-36780000D01*
%TO.C,R4*%
X134160000Y-40546359D02*
X134160000Y-40853641D01*
X133400000Y-40546359D02*
X133400000Y-40853641D01*
%TO.C,U1*%
X143400000Y-43810000D02*
X145200000Y-43810000D01*
X143400000Y-43810000D02*
X142600000Y-43810000D01*
X143400000Y-40690000D02*
X144200000Y-40690000D01*
X143400000Y-40690000D02*
X142600000Y-40690000D01*
%TO.C,U2*%
X121325000Y-35575000D02*
X121325000Y-35835000D01*
X121325000Y-35835000D02*
X119650000Y-35835000D01*
X121325000Y-41025000D02*
X121325000Y-40765000D01*
X124050000Y-35575000D02*
X121325000Y-35575000D01*
X124050000Y-35575000D02*
X126775000Y-35575000D01*
X124050000Y-41025000D02*
X121325000Y-41025000D01*
X124050000Y-41025000D02*
X126775000Y-41025000D01*
X126775000Y-35575000D02*
X126775000Y-35835000D01*
X126775000Y-41025000D02*
X126775000Y-40765000D01*
%TO.C,U3*%
X128240000Y-51010000D02*
X128240000Y-50360000D01*
X128890000Y-43790000D02*
X128240000Y-43790000D01*
X128890000Y-51010000D02*
X128240000Y-51010000D01*
X134810000Y-43790000D02*
X135460000Y-43790000D01*
X134810000Y-51010000D02*
X135460000Y-51010000D01*
X135460000Y-43790000D02*
X135460000Y-44440000D01*
X135460000Y-51010000D02*
X135460000Y-50360000D01*
%TO.C,Y1*%
X132400000Y-55250000D02*
X129100000Y-55250000D01*
X129100000Y-55250000D02*
X129100000Y-59250000D01*
%TO.C,R3*%
X133080000Y-40546359D02*
X133080000Y-40853641D01*
X132320000Y-40546359D02*
X132320000Y-40853641D01*
%TO.C,C3*%
X133460000Y-57142164D02*
X133460000Y-57357836D01*
X132740000Y-57142164D02*
X132740000Y-57357836D01*
%TO.C,C13*%
X126607836Y-48760000D02*
X126392164Y-48760000D01*
X126607836Y-48040000D02*
X126392164Y-48040000D01*
%TO.C,C12*%
X139084164Y-48662000D02*
X139299836Y-48662000D01*
X139084164Y-49382000D02*
X139299836Y-49382000D01*
%TO.C,R5*%
X131020000Y-54303641D02*
X131020000Y-53996359D01*
X131780000Y-54303641D02*
X131780000Y-53996359D01*
%TO.C,C14*%
X132780000Y-53192164D02*
X132780000Y-53407836D01*
X132060000Y-53192164D02*
X132060000Y-53407836D01*
%TO.C,C11*%
X126707836Y-44360000D02*
X126492164Y-44360000D01*
X126707836Y-43640000D02*
X126492164Y-43640000D01*
D15*
%TO.C,F2*%
X183239736Y-140919712D02*
X171269031Y-108030470D01*
X183239736Y-140919712D02*
X191696969Y-137841530D01*
X185160579Y-135963871D02*
X175926035Y-110592170D01*
X185160579Y-135963871D02*
X187039965Y-135279830D01*
X182381234Y-126865781D02*
X184091335Y-131564244D01*
X184091335Y-131564244D02*
X185031028Y-131222224D01*
X183320927Y-126523760D02*
X182381234Y-126865781D01*
X185031028Y-131222224D02*
X183320927Y-126523760D01*
X177805421Y-109908129D02*
X175926035Y-110592170D01*
X177805421Y-109908129D02*
X187039965Y-135279830D01*
X179726264Y-104952288D02*
X171269031Y-108030470D01*
X179726264Y-104952288D02*
X191696969Y-137841530D01*
X177181688Y-108370764D02*
G75*
G03*
X177181688Y-108370764I-1000000J0D01*
G01*
X187784312Y-137501236D02*
G75*
G03*
X187784312Y-137501236I-1000000J0D01*
G01*
%TO.C,F4*%
X222703000Y-133578000D02*
X222703000Y-98578000D01*
X222703000Y-133578000D02*
X231703000Y-133578000D01*
X226203000Y-129578000D02*
X226203000Y-102578000D01*
X226203000Y-129578000D02*
X228203000Y-129578000D01*
X226703000Y-120078000D02*
X226703000Y-125078000D01*
X226703000Y-125078000D02*
X227703000Y-125078000D01*
X227703000Y-120078000D02*
X226703000Y-120078000D01*
X227703000Y-125078000D02*
X227703000Y-120078000D01*
X228203000Y-102578000D02*
X226203000Y-102578000D01*
X228203000Y-102578000D02*
X228203000Y-129578000D01*
X231703000Y-98578000D02*
X222703000Y-98578000D01*
X231703000Y-98578000D02*
X231703000Y-133578000D01*
X228203000Y-100578000D02*
G75*
G03*
X228203000Y-100578000I-1000000J0D01*
G01*
X228203000Y-131578000D02*
G75*
G03*
X228203000Y-131578000I-1000000J0D01*
G01*
%TO.C,F1*%
X169800403Y-148361255D02*
X149725228Y-119690933D01*
X169800403Y-148361255D02*
X177172772Y-143199067D01*
X170373130Y-143077129D02*
X154886566Y-120960024D01*
X170373130Y-143077129D02*
X172011434Y-141929976D01*
X165333730Y-135008396D02*
X168201612Y-139104157D01*
X168201612Y-139104157D02*
X169020764Y-138530580D01*
X166152882Y-134434820D02*
X165333730Y-135008396D01*
X169020764Y-138530580D02*
X166152882Y-134434820D01*
X156524870Y-119812871D02*
X154886566Y-120960024D01*
X156524870Y-119812871D02*
X172011434Y-141929976D01*
X157097597Y-114528745D02*
X149725228Y-119690933D01*
X157097597Y-114528745D02*
X177172772Y-143199067D01*
X155558565Y-118748143D02*
G75*
G03*
X155558565Y-118748143I-1000000J0D01*
G01*
X173339435Y-144141857D02*
G75*
G03*
X173339435Y-144141857I-1000000J0D01*
G01*
%TO.C,F3*%
X203452790Y-135655186D02*
X196175881Y-101420020D01*
X203452790Y-135655186D02*
X212256119Y-133783980D01*
X206044660Y-131014904D02*
X200431045Y-104604919D01*
X206044660Y-131014904D02*
X208000955Y-130599081D01*
X204558573Y-121618546D02*
X205598131Y-126509284D01*
X205598131Y-126509284D02*
X206576279Y-126301373D01*
X205536721Y-121410635D02*
X204558573Y-121618546D01*
X206576279Y-126301373D02*
X205536721Y-121410635D01*
X202387340Y-104189096D02*
X200431045Y-104604919D01*
X202387340Y-104189096D02*
X208000955Y-130599081D01*
X204979210Y-99548814D02*
X196175881Y-101420020D01*
X204979210Y-99548814D02*
X212256119Y-133783980D01*
X201993369Y-102440712D02*
G75*
G03*
X201993369Y-102440712I-1000000J0D01*
G01*
X208438631Y-132763288D02*
G75*
G03*
X208438631Y-132763288I-1000000J0D01*
G01*
%TD*%
D16*
%TO.C,F2*%
X185408803Y-137523000D03*
X183106556Y-138360949D03*
X174832089Y-109340858D03*
X179906429Y-107493950D03*
X190154250Y-135795798D03*
X187852004Y-136633748D03*
%TD*%
%TO.C,F4*%
X225903000Y-131128000D03*
X223453000Y-131128000D03*
X225603000Y-101028000D03*
X231003000Y-101028000D03*
X230953000Y-131128000D03*
X228503000Y-131128000D03*
%TD*%
%TO.C,F1*%
X171016428Y-144518888D03*
X169009505Y-145924150D03*
X153506031Y-120034484D03*
X157929452Y-116937171D03*
X175153146Y-141622327D03*
X173146223Y-143027589D03*
%TD*%
%TO.C,F3*%
X206073479Y-132593407D03*
X203677017Y-133102790D03*
X199521893Y-103213537D03*
X204803890Y-102090814D03*
X211013124Y-131543453D03*
X208616663Y-132052836D03*
%TD*%
%LPC*%
D17*
%TO.C,SW20*%
X122300000Y-53050000D03*
X122300000Y-61050000D03*
X117800000Y-53050000D03*
X117800000Y-61050000D03*
%TD*%
D18*
%TO.C,SWr1*%
X63753000Y-41366000D03*
X55753000Y-41366000D03*
X63753000Y-36866000D03*
X55753000Y-36866000D03*
%TD*%
D17*
%TO.C,SW19*%
X110650000Y-61050000D03*
X110650000Y-53050000D03*
X115150000Y-61050000D03*
X115150000Y-53050000D03*
%TD*%
D18*
%TO.C,SW6*%
X115125000Y-41366000D03*
X107125000Y-41366000D03*
X115125000Y-36866000D03*
X107125000Y-36866000D03*
%TD*%
%TO.C,SW5*%
X104838000Y-41366000D03*
X96838000Y-41366000D03*
X104838000Y-36866000D03*
X96838000Y-36866000D03*
%TD*%
%TO.C,SW4*%
X94551000Y-41366000D03*
X86551000Y-41366000D03*
X94551000Y-36866000D03*
X86551000Y-36866000D03*
%TD*%
%TO.C,SW3*%
X84137000Y-41366000D03*
X76137000Y-41366000D03*
X84137000Y-36866000D03*
X76137000Y-36866000D03*
%TD*%
%TO.C,SW2*%
X74010000Y-41366000D03*
X66010000Y-41366000D03*
X74010000Y-36866000D03*
X66010000Y-36866000D03*
%TD*%
D19*
%TO.C,SW8*%
X81820000Y-65170000D03*
D20*
X87320000Y-59220000D03*
D21*
X87320000Y-65170000D03*
D20*
X92320000Y-61420000D03*
D19*
X92820000Y-65170000D03*
D22*
X87320000Y-71070000D03*
X82320000Y-68970000D03*
%TD*%
D19*
%TO.C,SW9*%
X108420000Y-76520000D03*
D20*
X113920000Y-70570000D03*
D21*
X113920000Y-76520000D03*
D20*
X118920000Y-72770000D03*
D19*
X119420000Y-76520000D03*
D22*
X113920000Y-82420000D03*
X108920000Y-80320000D03*
%TD*%
D19*
%TO.C,SW10*%
X125920000Y-129620000D03*
D20*
X131420000Y-123670000D03*
D21*
X131420000Y-129620000D03*
D20*
X136420000Y-125870000D03*
D19*
X136920000Y-129620000D03*
D22*
X131420000Y-135520000D03*
X126420000Y-133420000D03*
%TD*%
D19*
%TO.C,SW11*%
X143360000Y-65110000D03*
D20*
X148860000Y-59160000D03*
D21*
X148860000Y-65110000D03*
D20*
X153860000Y-61360000D03*
D19*
X154360000Y-65110000D03*
D22*
X148860000Y-71010000D03*
X143860000Y-68910000D03*
%TD*%
D19*
%TO.C,SW12*%
X169920000Y-53580000D03*
D20*
X175420000Y-47630000D03*
D21*
X175420000Y-53580000D03*
D20*
X180420000Y-49830000D03*
D19*
X180920000Y-53580000D03*
D22*
X175420000Y-59480000D03*
X170420000Y-57380000D03*
%TD*%
D19*
%TO.C,SW13*%
X198890000Y-53460000D03*
D20*
X204390000Y-47510000D03*
D21*
X204390000Y-53460000D03*
D20*
X209390000Y-49710000D03*
D19*
X209890000Y-53460000D03*
D22*
X204390000Y-59360000D03*
X199390000Y-57260000D03*
%TD*%
D19*
%TO.C,SW14*%
X227860000Y-53700000D03*
D20*
X233360000Y-47750000D03*
D21*
X233360000Y-53700000D03*
D20*
X238360000Y-49950000D03*
D19*
X238860000Y-53700000D03*
D22*
X233360000Y-59600000D03*
X228360000Y-57500000D03*
%TD*%
D19*
%TO.C,SW15*%
X137750000Y-96150000D03*
D20*
X143250000Y-90200000D03*
D21*
X143250000Y-96150000D03*
D20*
X148250000Y-92400000D03*
D19*
X148750000Y-96150000D03*
D22*
X143250000Y-102050000D03*
X138250000Y-99950000D03*
%TD*%
D19*
%TO.C,SW16*%
X164360000Y-85040000D03*
D20*
X169860000Y-79090000D03*
D21*
X169860000Y-85040000D03*
D20*
X174860000Y-81290000D03*
D19*
X175360000Y-85040000D03*
D22*
X169860000Y-90940000D03*
X164860000Y-88840000D03*
%TD*%
D19*
%TO.C,SW17*%
X193210000Y-85040000D03*
D20*
X198710000Y-79090000D03*
D21*
X198710000Y-85040000D03*
D20*
X203710000Y-81290000D03*
D19*
X204210000Y-85040000D03*
D22*
X198710000Y-90940000D03*
X193710000Y-88840000D03*
%TD*%
D19*
%TO.C,SW18*%
X222420000Y-85040000D03*
D20*
X227920000Y-79090000D03*
D21*
X227920000Y-85040000D03*
D20*
X232920000Y-81290000D03*
D19*
X233420000Y-85040000D03*
D22*
X227920000Y-90940000D03*
X222920000Y-88840000D03*
%TD*%
D23*
%TO.C,REF\u002A\u002A*%
X47000000Y-37000000D03*
%TD*%
%TO.C,REF\u002A\u002A*%
X47000000Y-143000000D03*
%TD*%
%TO.C,REF\u002A\u002A*%
X243000000Y-143000000D03*
%TD*%
%TO.C,REF\u002A\u002A*%
X243000000Y-37000000D03*
%TD*%
D19*
%TO.C,SW7*%
X52725000Y-65050000D03*
D20*
X58225000Y-59100000D03*
D21*
X58225000Y-65050000D03*
D20*
X63225000Y-61300000D03*
D19*
X63725000Y-65050000D03*
D22*
X58225000Y-70950000D03*
X53225000Y-68850000D03*
%TD*%
D23*
%TO.C,REF\u002A\u002A*%
X156600000Y-37000000D03*
%TD*%
%TO.C,REF\u002A\u002A*%
X133500000Y-78000000D03*
%TD*%
%TO.C,REF\u002A\u002A*%
X150000000Y-143000000D03*
%TD*%
D24*
%TO.C,R7*%
X146550000Y-33990000D03*
X146550000Y-35010000D03*
%TD*%
D25*
%TO.C,USB1*%
X147890000Y-30750000D03*
X142110000Y-30750000D03*
D26*
X148250000Y-32195000D03*
X147450000Y-32195000D03*
D27*
X146750000Y-32195000D03*
X146250000Y-32195000D03*
X145750000Y-32195000D03*
X145250000Y-32195000D03*
X144750000Y-32195000D03*
X144250000Y-32195000D03*
X143750000Y-32195000D03*
X143250000Y-32195000D03*
D26*
X142550000Y-32195000D03*
X141750000Y-32195000D03*
D28*
X149320000Y-31280000D03*
D29*
X149320000Y-27100000D03*
D28*
X140680000Y-31280000D03*
D29*
X140680000Y-27100000D03*
%TD*%
D30*
%TO.C,R6*%
X142660000Y-34050000D03*
X141640000Y-34050000D03*
%TD*%
D31*
%TO.C,C1*%
X145923000Y-43230000D03*
X145923000Y-42270000D03*
%TD*%
D32*
%TO.C,C2*%
X129420000Y-54600000D03*
X130380000Y-54600000D03*
%TD*%
D31*
%TO.C,C4*%
X140843000Y-43230000D03*
X140843000Y-42270000D03*
%TD*%
D32*
%TO.C,C5*%
X127270000Y-34800000D03*
X128230000Y-34800000D03*
%TD*%
D31*
%TO.C,C6*%
X130600000Y-40580000D03*
X130600000Y-39620000D03*
%TD*%
D33*
%TO.C,C7*%
X133450000Y-52820000D03*
X133450000Y-53780000D03*
%TD*%
D31*
%TO.C,C8*%
X134850000Y-41180000D03*
X134850000Y-40220000D03*
%TD*%
%TO.C,C9*%
X131650000Y-41180000D03*
X131650000Y-40220000D03*
%TD*%
%TO.C,C10*%
X135900000Y-42180000D03*
X135900000Y-41220000D03*
%TD*%
D32*
%TO.C,C15*%
X136620000Y-44450000D03*
X137580000Y-44450000D03*
%TD*%
%TO.C,C16*%
X136620000Y-43400000D03*
X137580000Y-43400000D03*
%TD*%
D24*
%TO.C,R1*%
X121650000Y-43090000D03*
X121650000Y-44110000D03*
%TD*%
D34*
%TO.C,R2*%
X117490000Y-36400000D03*
X118510000Y-36400000D03*
%TD*%
D24*
%TO.C,R4*%
X133780000Y-40190000D03*
X133780000Y-41210000D03*
%TD*%
D35*
%TO.C,U1*%
X144537500Y-43200000D03*
X144537500Y-42250000D03*
X144537500Y-41300000D03*
X142262500Y-41300000D03*
X142262500Y-43200000D03*
%TD*%
D36*
%TO.C,U2*%
X120450000Y-36395000D03*
X120450000Y-37665000D03*
X120450000Y-38935000D03*
X120450000Y-40205000D03*
X127650000Y-40205000D03*
X127650000Y-38935000D03*
X127650000Y-37665000D03*
X127650000Y-36395000D03*
%TD*%
D37*
%TO.C,U3*%
X128412500Y-44800000D03*
X128412500Y-45200000D03*
X128412500Y-45600000D03*
X128412500Y-46000000D03*
X128412500Y-46400000D03*
X128412500Y-46800000D03*
X128412500Y-47200000D03*
X128412500Y-47600000D03*
X128412500Y-48000000D03*
X128412500Y-48400000D03*
X128412500Y-48800000D03*
X128412500Y-49200000D03*
X128412500Y-49600000D03*
X128412500Y-50000000D03*
D38*
X129250000Y-50837500D03*
X129650000Y-50837500D03*
X130050000Y-50837500D03*
X130450000Y-50837500D03*
X130850000Y-50837500D03*
X131250000Y-50837500D03*
X131650000Y-50837500D03*
X132050000Y-50837500D03*
X132450000Y-50837500D03*
X132850000Y-50837500D03*
X133250000Y-50837500D03*
X133650000Y-50837500D03*
X134050000Y-50837500D03*
X134450000Y-50837500D03*
D37*
X135287500Y-50000000D03*
X135287500Y-49600000D03*
X135287500Y-49200000D03*
X135287500Y-48800000D03*
X135287500Y-48400000D03*
X135287500Y-48000000D03*
X135287500Y-47600000D03*
X135287500Y-47200000D03*
X135287500Y-46800000D03*
X135287500Y-46400000D03*
X135287500Y-46000000D03*
X135287500Y-45600000D03*
X135287500Y-45200000D03*
X135287500Y-44800000D03*
D38*
X134450000Y-43962500D03*
X134050000Y-43962500D03*
X133650000Y-43962500D03*
X133250000Y-43962500D03*
X132850000Y-43962500D03*
X132450000Y-43962500D03*
X132050000Y-43962500D03*
X131650000Y-43962500D03*
X131250000Y-43962500D03*
X130850000Y-43962500D03*
X130450000Y-43962500D03*
X130050000Y-43962500D03*
X129650000Y-43962500D03*
X129250000Y-43962500D03*
D39*
X131850000Y-47400000D03*
%TD*%
D40*
%TO.C,Y1*%
X129900000Y-56150000D03*
X129900000Y-58350000D03*
X131600000Y-58350000D03*
X131600000Y-56150000D03*
%TD*%
D24*
%TO.C,R3*%
X132700000Y-40190000D03*
X132700000Y-41210000D03*
%TD*%
D33*
%TO.C,C3*%
X133100000Y-56770000D03*
X133100000Y-57730000D03*
%TD*%
D41*
%TO.C,C13*%
X126980000Y-48400000D03*
X126020000Y-48400000D03*
%TD*%
D32*
%TO.C,C12*%
X138712000Y-49022000D03*
X139672000Y-49022000D03*
%TD*%
D42*
%TO.C,R5*%
X131400000Y-54660000D03*
X131400000Y-53640000D03*
%TD*%
D33*
%TO.C,C14*%
X132420000Y-52820000D03*
X132420000Y-53780000D03*
%TD*%
D41*
%TO.C,C11*%
X127080000Y-44000000D03*
X126120000Y-44000000D03*
%TD*%
D16*
%TO.C,F2*%
X185408803Y-137523000D03*
X183106556Y-138360949D03*
X174832089Y-109340858D03*
X179906429Y-107493950D03*
X190154250Y-135795798D03*
X187852004Y-136633748D03*
%TD*%
%TO.C,F4*%
X225903000Y-131128000D03*
X223453000Y-131128000D03*
X225603000Y-101028000D03*
X231003000Y-101028000D03*
X230953000Y-131128000D03*
X228503000Y-131128000D03*
%TD*%
%TO.C,F1*%
X171016428Y-144518888D03*
X169009505Y-145924150D03*
X153506031Y-120034484D03*
X157929452Y-116937171D03*
X175153146Y-141622327D03*
X173146223Y-143027589D03*
%TD*%
%TO.C,F3*%
X206073479Y-132593407D03*
X203677017Y-133102790D03*
X199521893Y-103213537D03*
X204803890Y-102090814D03*
X211013124Y-131543453D03*
X208616663Y-132052836D03*
%TD*%
%LPD*%
M02*
