M48
; DRILL file {KiCad (6.0.4)} date Sun Apr 24 23:02:38 2022
; FORMAT={-:-/ absolute / inch / decimal}
; #@! TF.CreationDate,2022-04-24T23:02:38-04:00
; #@! TF.GenerationSoftware,Kicad,Pcbnew,(6.0.4)
; #@! TF.FileFunction,Plated,1,2,PTH
FMAT,2
INCH
; #@! TA.AperFunction,Plated,PTH,ViaDrill
T1C0.0138
; #@! TA.AperFunction,Plated,PTH,ComponentDrill
T2C0.0138
; #@! TA.AperFunction,Plated,PTH,ComponentDrill
T3C0.0236
; #@! TA.AperFunction,Plated,PTH,ComponentDrill
T4C0.0433
%
G90
G05
T1
X2.1643Y-2.0336
X2.26Y-3.2
X2.32Y-2.86
X2.42Y-5.72
X2.42Y-5.76
X2.44Y-2.74
X2.54Y-5.5
X2.58Y-5.76
X2.76Y-5.72
X2.76Y-5.76
X2.86Y-2.16
X2.92Y-5.76
X3.04Y-5.66
X3.1Y-5.72
X3.1Y-5.76
X3.26Y-5.76
X3.3Y-2.78
X3.3094Y-2.0582
X3.38Y-5.66
X3.4Y-3.22
X3.44Y-5.76
X3.46Y-2.86
X3.58Y-2.76
X3.6Y-5.76
X3.72Y-5.66
X3.98Y-2.12
X4.0Y-2.0
X4.1Y-2.6
X4.26Y-3.56
X4.34Y-3.24
X4.52Y-3.32
X4.5335Y-2.2335
X4.6378Y-2.2378
X4.64Y-3.22
X4.64Y-5.66
X4.752Y-1.7382
X4.752Y-1.998
X4.8146Y-1.5827
X4.9Y-4.44
X4.9217Y-1.7308
X4.98Y-2.66
X5.02Y-5.34
X5.0944Y-1.3704
X5.1426Y-1.512
X5.1831Y-1.6555
X5.1834Y-1.5339
X5.2Y-5.4
X5.2165Y-1.9491
X5.2224Y-1.7813
X5.2362Y-2.0472
X5.3087Y-1.5356
X5.34Y-5.3
X5.3495Y-1.5804
X5.4596Y-1.7085
X5.4599Y-1.7494
X5.4851Y-1.9048
X5.5Y-4.02
X5.5517Y-1.6203
X5.6Y-4.42
X5.66Y-3.08
X5.68Y-4.1
X5.7Y-2.0
X5.7Y-3.2
X5.72Y-2.78
X5.7695Y-1.4281
X5.82Y-3.98
X5.8379Y-1.3384
X5.88Y-2.86
X6.02Y-2.0
X6.02Y-2.76
X6.3711Y-1.7511
X6.38Y-1.8661
X6.52Y-2.76
X6.54Y-3.58
X6.66Y-3.98
X6.72Y-3.66
X6.74Y-1.62
X6.76Y-2.32
X6.86Y-3.54
X6.94Y-2.42
X7.08Y-2.3
X7.12Y-2.66
X7.5093Y-1.5236
X7.68Y-2.74
X7.68Y-3.58
X7.78Y-3.96
X7.86Y-3.66
X7.9Y-2.32
X7.92Y-1.58
X7.98Y-3.54
X8.08Y-2.4
X8.22Y-2.3
X8.24Y-2.64
X8.6236Y-1.52
X8.82Y-2.78
X8.94Y-3.96
X9.0Y-3.64
X9.02Y-2.62
X9.04Y-2.34
X9.06Y-1.6
X9.14Y-3.46
X9.14Y-3.54
X9.22Y-2.42
X9.36Y-2.32
T2
X5.1407Y-1.8159
X5.1407Y-1.8661
X5.1407Y-1.9163
X5.1909Y-1.8159
X5.1909Y-1.8661
X5.1909Y-1.9163
X5.2411Y-1.8159
X5.2411Y-1.8661
X5.2411Y-1.9163
T4
X2.185Y-1.437
X2.185Y-1.6929
X2.3622Y-1.437
X2.3622Y-1.6929
X2.5787Y-1.437
X2.5787Y-1.6929
X2.7559Y-1.437
X2.7559Y-1.6929
X2.9724Y-1.437
X2.9724Y-1.6929
X3.1496Y-1.437
X3.1496Y-1.6929
X3.4843Y-1.437
X3.4843Y-1.6929
X3.6614Y-1.437
X3.6614Y-1.6929
X3.878Y-1.437
X3.878Y-1.6929
X4.0551Y-1.437
X4.0551Y-1.6929
X4.2717Y-1.437
X4.2717Y-1.6929
X4.4488Y-1.437
X4.4488Y-1.6929
T3
G00X5.5386Y-1.0787
M15
G01X5.5386Y-1.0551
M16
G05
G00X5.5386Y-1.2531
M15
G01X5.5386Y-1.2098
M16
G05
G00X5.8787Y-1.0787
M15
G01X5.8787Y-1.0551
M16
G05
G00X5.8787Y-1.2531
M15
G01X5.8787Y-1.2098
M16
G05
T0
M30
