%TF.GenerationSoftware,KiCad,Pcbnew,(6.0.4)*%
%TF.CreationDate,2022-04-24T23:02:38-04:00*%
%TF.ProjectId,Flatbox-rev4-rgb-kicad-WS2812B-4020,466c6174-626f-4782-9d72-6576342d7267,rev?*%
%TF.SameCoordinates,Original*%
%TF.FileFunction,Copper,L1,Top*%
%TF.FilePolarity,Positive*%
%FSLAX46Y46*%
G04 Gerber Fmt 4.6, Leading zero omitted, Abs format (unit mm)*
G04 Created by KiCad (PCBNEW (6.0.4)) date 2022-04-24 23:02:38*
%MOMM*%
%LPD*%
G01*
G04 APERTURE LIST*
G04 Aperture macros list*
%AMRoundRect*
0 Rectangle with rounded corners*
0 $1 Rounding radius*
0 $2 $3 $4 $5 $6 $7 $8 $9 X,Y pos of 4 corners*
0 Add a 4 corners polygon primitive as box body*
4,1,4,$2,$3,$4,$5,$6,$7,$8,$9,$2,$3,0*
0 Add four circle primitives for the rounded corners*
1,1,$1+$1,$2,$3*
1,1,$1+$1,$4,$5*
1,1,$1+$1,$6,$7*
1,1,$1+$1,$8,$9*
0 Add four rect primitives between the rounded corners*
20,1,$1+$1,$2,$3,$4,$5,0*
20,1,$1+$1,$4,$5,$6,$7,0*
20,1,$1+$1,$6,$7,$8,$9,0*
20,1,$1+$1,$8,$9,$2,$3,0*%
G04 Aperture macros list end*
%TA.AperFunction,ComponentPad*%
%ADD10C,2.000000*%
%TD*%
%TA.AperFunction,SMDPad,CuDef*%
%ADD11RoundRect,0.135000X-0.185000X0.135000X-0.185000X-0.135000X0.185000X-0.135000X0.185000X0.135000X0*%
%TD*%
%TA.AperFunction,SMDPad,CuDef*%
%ADD12R,0.600000X1.450000*%
%TD*%
%TA.AperFunction,SMDPad,CuDef*%
%ADD13R,0.300000X1.450000*%
%TD*%
%TA.AperFunction,ComponentPad*%
%ADD14O,1.000000X1.600000*%
%TD*%
%TA.AperFunction,ComponentPad*%
%ADD15O,1.000000X2.100000*%
%TD*%
%TA.AperFunction,SMDPad,CuDef*%
%ADD16RoundRect,0.135000X0.135000X0.185000X-0.135000X0.185000X-0.135000X-0.185000X0.135000X-0.185000X0*%
%TD*%
%TA.AperFunction,SMDPad,CuDef*%
%ADD17RoundRect,0.140000X0.170000X-0.140000X0.170000X0.140000X-0.170000X0.140000X-0.170000X-0.140000X0*%
%TD*%
%TA.AperFunction,SMDPad,CuDef*%
%ADD18RoundRect,0.140000X-0.140000X-0.170000X0.140000X-0.170000X0.140000X0.170000X-0.140000X0.170000X0*%
%TD*%
%TA.AperFunction,SMDPad,CuDef*%
%ADD19RoundRect,0.140000X-0.170000X0.140000X-0.170000X-0.140000X0.170000X-0.140000X0.170000X0.140000X0*%
%TD*%
%TA.AperFunction,SMDPad,CuDef*%
%ADD20RoundRect,0.135000X-0.135000X-0.185000X0.135000X-0.185000X0.135000X0.185000X-0.135000X0.185000X0*%
%TD*%
%TA.AperFunction,SMDPad,CuDef*%
%ADD21R,1.400000X1.600000*%
%TD*%
%TA.AperFunction,SMDPad,CuDef*%
%ADD22R,1.060000X0.650000*%
%TD*%
%TA.AperFunction,SMDPad,CuDef*%
%ADD23RoundRect,0.150000X-0.650000X-0.150000X0.650000X-0.150000X0.650000X0.150000X-0.650000X0.150000X0*%
%TD*%
%TA.AperFunction,SMDPad,CuDef*%
%ADD24RoundRect,0.050000X-0.387500X-0.050000X0.387500X-0.050000X0.387500X0.050000X-0.387500X0.050000X0*%
%TD*%
%TA.AperFunction,SMDPad,CuDef*%
%ADD25RoundRect,0.050000X-0.050000X-0.387500X0.050000X-0.387500X0.050000X0.387500X-0.050000X0.387500X0*%
%TD*%
%TA.AperFunction,ComponentPad*%
%ADD26C,0.600000*%
%TD*%
%TA.AperFunction,SMDPad,CuDef*%
%ADD27RoundRect,0.144000X-1.456000X-1.456000X1.456000X-1.456000X1.456000X1.456000X-1.456000X1.456000X0*%
%TD*%
%TA.AperFunction,SMDPad,CuDef*%
%ADD28R,1.200000X1.400000*%
%TD*%
%TA.AperFunction,SMDPad,CuDef*%
%ADD29RoundRect,0.140000X0.140000X0.170000X-0.140000X0.170000X-0.140000X-0.170000X0.140000X-0.170000X0*%
%TD*%
%TA.AperFunction,SMDPad,CuDef*%
%ADD30RoundRect,0.135000X0.185000X-0.135000X0.185000X0.135000X-0.185000X0.135000X-0.185000X-0.135000X0*%
%TD*%
%TA.AperFunction,SMDPad,CuDef*%
%ADD31R,0.700000X0.700000*%
%TD*%
%TA.AperFunction,ViaPad*%
%ADD32C,0.600000*%
%TD*%
%TA.AperFunction,Conductor*%
%ADD33C,0.200000*%
%TD*%
%TA.AperFunction,Conductor*%
%ADD34C,0.400000*%
%TD*%
%TA.AperFunction,Conductor*%
%ADD35C,0.381000*%
%TD*%
G04 APERTURE END LIST*
D10*
%TO.P,SW4,1,1*%
%TO.N,OPT4*%
X88500000Y-43000000D03*
X88500000Y-36500000D03*
%TO.P,SW4,2,2*%
%TO.N,GND*%
X93000000Y-43000000D03*
X93000000Y-36500000D03*
%TD*%
%TO.P,SW2,1,1*%
%TO.N,OPT2*%
X65500000Y-43000000D03*
X65500000Y-36500000D03*
%TO.P,SW2,2,2*%
%TO.N,GND*%
X70000000Y-36500000D03*
X70000000Y-43000000D03*
%TD*%
%TO.P,SW5,1,1*%
%TO.N,OPT5*%
X98500000Y-36500000D03*
X98500000Y-43000000D03*
%TO.P,SW5,2,2*%
%TO.N,GND*%
X103000000Y-36500000D03*
X103000000Y-43000000D03*
%TD*%
%TO.P,SW1,1,1*%
%TO.N,OPT1*%
X55500000Y-36500000D03*
X55500000Y-43000000D03*
%TO.P,SW1,2,2*%
%TO.N,GND*%
X60000000Y-43000000D03*
X60000000Y-36500000D03*
%TD*%
%TO.P,SW3,1,1*%
%TO.N,OPT3*%
X75500000Y-43000000D03*
X75500000Y-36500000D03*
%TO.P,SW3,2,2*%
%TO.N,GND*%
X80000000Y-36500000D03*
X80000000Y-43000000D03*
%TD*%
%TO.P,SW6,1,1*%
%TO.N,OPT6*%
X108500000Y-36500000D03*
X108500000Y-43000000D03*
%TO.P,SW6,2,2*%
%TO.N,GND*%
X113000000Y-36500000D03*
X113000000Y-43000000D03*
%TD*%
D11*
%TO.P,R7,1*%
%TO.N,Net-(R7-Pad1)*%
X146550000Y-33990000D03*
%TO.P,R7,2*%
%TO.N,GND*%
X146550000Y-35010000D03*
%TD*%
D12*
%TO.P,USB1,1,GND*%
%TO.N,GND*%
X148250000Y-32195000D03*
%TO.P,USB1,2,VBUS*%
%TO.N,+5V*%
X147450000Y-32195000D03*
D13*
%TO.P,USB1,3,SBU2*%
%TO.N,unconnected-(USB1-Pad3)*%
X146750000Y-32195000D03*
%TO.P,USB1,4,CC1*%
%TO.N,Net-(R7-Pad1)*%
X146250000Y-32195000D03*
%TO.P,USB1,5,DN2*%
%TO.N,D-*%
X145750000Y-32195000D03*
%TO.P,USB1,6,DP1*%
%TO.N,D+*%
X145250000Y-32195000D03*
%TO.P,USB1,7,DN1*%
%TO.N,D-*%
X144750000Y-32195000D03*
%TO.P,USB1,8,DP2*%
%TO.N,D+*%
X144250000Y-32195000D03*
%TO.P,USB1,9,SBU1*%
%TO.N,unconnected-(USB1-Pad9)*%
X143750000Y-32195000D03*
%TO.P,USB1,10,CC2*%
%TO.N,Net-(R6-Pad1)*%
X143250000Y-32195000D03*
D12*
%TO.P,USB1,11,VBUS*%
%TO.N,+5V*%
X142550000Y-32195000D03*
%TO.P,USB1,12,GND*%
%TO.N,GND*%
X141750000Y-32195000D03*
D14*
%TO.P,USB1,13,SHIELD*%
X140680000Y-27100000D03*
X149320000Y-27100000D03*
D15*
X149320000Y-31280000D03*
X140680000Y-31280000D03*
%TD*%
D16*
%TO.P,R6,1*%
%TO.N,Net-(R6-Pad1)*%
X142660000Y-34050000D03*
%TO.P,R6,2*%
%TO.N,GND*%
X141640000Y-34050000D03*
%TD*%
D17*
%TO.P,C1,1*%
%TO.N,+5V*%
X145800000Y-43230000D03*
%TO.P,C1,2*%
%TO.N,GND*%
X145800000Y-42270000D03*
%TD*%
D18*
%TO.P,C2,1*%
%TO.N,GND*%
X129420000Y-54600000D03*
%TO.P,C2,2*%
%TO.N,XIN*%
X130380000Y-54600000D03*
%TD*%
D17*
%TO.P,C4,1*%
%TO.N,+3V3*%
X141000000Y-43230000D03*
%TO.P,C4,2*%
%TO.N,GND*%
X141000000Y-42270000D03*
%TD*%
D18*
%TO.P,C5,1*%
%TO.N,+3V3*%
X127270000Y-34800000D03*
%TO.P,C5,2*%
%TO.N,GND*%
X128230000Y-34800000D03*
%TD*%
D17*
%TO.P,C6,1*%
%TO.N,+1V1*%
X130600000Y-40580000D03*
%TO.P,C6,2*%
%TO.N,GND*%
X130600000Y-39620000D03*
%TD*%
D19*
%TO.P,C7,1*%
%TO.N,+1V1*%
X133450000Y-52820000D03*
%TO.P,C7,2*%
%TO.N,GND*%
X133450000Y-53780000D03*
%TD*%
D17*
%TO.P,C8,1*%
%TO.N,+1V1*%
X134850000Y-41180000D03*
%TO.P,C8,2*%
%TO.N,GND*%
X134850000Y-40220000D03*
%TD*%
%TO.P,C9,1*%
%TO.N,+3V3*%
X131650000Y-41180000D03*
%TO.P,C9,2*%
%TO.N,GND*%
X131650000Y-40220000D03*
%TD*%
%TO.P,C10,1*%
%TO.N,+3V3*%
X135900000Y-42180000D03*
%TO.P,C10,2*%
%TO.N,GND*%
X135900000Y-41220000D03*
%TD*%
D18*
%TO.P,C15,1*%
%TO.N,+3V3*%
X136620000Y-44450000D03*
%TO.P,C15,2*%
%TO.N,GND*%
X137580000Y-44450000D03*
%TD*%
%TO.P,C16,1*%
%TO.N,+3V3*%
X136620000Y-43400000D03*
%TO.P,C16,2*%
%TO.N,GND*%
X137580000Y-43400000D03*
%TD*%
D11*
%TO.P,R1,1*%
%TO.N,QSPI_SS*%
X121650000Y-43090000D03*
%TO.P,R1,2*%
%TO.N,Net-(R1-Pad2)*%
X121650000Y-44110000D03*
%TD*%
D20*
%TO.P,R2,1*%
%TO.N,+3V3*%
X117490000Y-36400000D03*
%TO.P,R2,2*%
%TO.N,QSPI_SS*%
X118510000Y-36400000D03*
%TD*%
D11*
%TO.P,R4,1*%
%TO.N,D-*%
X133780000Y-40190000D03*
%TO.P,R4,2*%
%TO.N,Net-(R4-Pad2)*%
X133780000Y-41210000D03*
%TD*%
D21*
%TO.P,SW19,1,1*%
%TO.N,GND*%
X115150000Y-53050000D03*
X115150000Y-61050000D03*
%TO.P,SW19,2,2*%
%TO.N,Net-(R1-Pad2)*%
X110650000Y-53050000D03*
X110650000Y-61050000D03*
%TD*%
D22*
%TO.P,U1,1,IN*%
%TO.N,+5V*%
X144500000Y-43200000D03*
%TO.P,U1,2,GND*%
%TO.N,GND*%
X144500000Y-42250000D03*
%TO.P,U1,3,EN*%
%TO.N,+5V*%
X144500000Y-41300000D03*
%TO.P,U1,4,NC*%
%TO.N,unconnected-(U1-Pad4)*%
X142300000Y-41300000D03*
%TO.P,U1,5,OUT*%
%TO.N,+3V3*%
X142300000Y-43200000D03*
%TD*%
D23*
%TO.P,U2,1,~{CS}*%
%TO.N,QSPI_SS*%
X120450000Y-36395000D03*
%TO.P,U2,2,DO(IO1)*%
%TO.N,QSPI_SD1*%
X120450000Y-37665000D03*
%TO.P,U2,3,IO2*%
%TO.N,QSPI_SD2*%
X120450000Y-38935000D03*
%TO.P,U2,4,GND*%
%TO.N,GND*%
X120450000Y-40205000D03*
%TO.P,U2,5,DI(IO0)*%
%TO.N,QSPI_SD0*%
X127650000Y-40205000D03*
%TO.P,U2,6,CLK*%
%TO.N,QSPI_SCLK*%
X127650000Y-38935000D03*
%TO.P,U2,7,IO3*%
%TO.N,QSPI_SD3*%
X127650000Y-37665000D03*
%TO.P,U2,8,VCC*%
%TO.N,+3V3*%
X127650000Y-36395000D03*
%TD*%
D24*
%TO.P,U3,1,IOVDD*%
%TO.N,+3V3*%
X128412500Y-44800000D03*
%TO.P,U3,2,GPIO0*%
%TO.N,unconnected-(U3-Pad2)*%
X128412500Y-45200000D03*
%TO.P,U3,3,GPIO1*%
%TO.N,OPT6*%
X128412500Y-45600000D03*
%TO.P,U3,4,GPIO2*%
%TO.N,OPT5*%
X128412500Y-46000000D03*
%TO.P,U3,5,GPIO3*%
%TO.N,OPT4*%
X128412500Y-46400000D03*
%TO.P,U3,6,GPIO4*%
%TO.N,OPT3*%
X128412500Y-46800000D03*
%TO.P,U3,7,GPIO5*%
%TO.N,OPT2*%
X128412500Y-47200000D03*
%TO.P,U3,8,GPIO6*%
%TO.N,OPT1*%
X128412500Y-47600000D03*
%TO.P,U3,9,GPIO7*%
%TO.N,RGB_DATA_LEFT*%
X128412500Y-48000000D03*
%TO.P,U3,10,IOVDD*%
%TO.N,+3V3*%
X128412500Y-48400000D03*
%TO.P,U3,11,GPIO8*%
%TO.N,unconnected-(U3-Pad11)*%
X128412500Y-48800000D03*
%TO.P,U3,12,GPIO9*%
%TO.N,LEFT*%
X128412500Y-49200000D03*
%TO.P,U3,13,GPIO10*%
%TO.N,DOWN*%
X128412500Y-49600000D03*
%TO.P,U3,14,GPIO11*%
%TO.N,RIGHT*%
X128412500Y-50000000D03*
D25*
%TO.P,U3,15,GPIO12*%
%TO.N,unconnected-(U3-Pad15)*%
X129250000Y-50837500D03*
%TO.P,U3,16,GPIO13*%
%TO.N,unconnected-(U3-Pad16)*%
X129650000Y-50837500D03*
%TO.P,U3,17,GPIO14*%
%TO.N,unconnected-(U3-Pad17)*%
X130050000Y-50837500D03*
%TO.P,U3,18,GPIO15*%
%TO.N,unconnected-(U3-Pad18)*%
X130450000Y-50837500D03*
%TO.P,U3,19,TESTEN*%
%TO.N,GND*%
X130850000Y-50837500D03*
%TO.P,U3,20,XIN*%
%TO.N,XIN*%
X131250000Y-50837500D03*
%TO.P,U3,21,XOUT*%
%TO.N,XOUT*%
X131650000Y-50837500D03*
%TO.P,U3,22,IOVDD*%
%TO.N,+3V3*%
X132050000Y-50837500D03*
%TO.P,U3,23,DVDD*%
%TO.N,+1V1*%
X132450000Y-50837500D03*
%TO.P,U3,24,SWCLK*%
%TO.N,unconnected-(U3-Pad24)*%
X132850000Y-50837500D03*
%TO.P,U3,25,SWD*%
%TO.N,unconnected-(U3-Pad25)*%
X133250000Y-50837500D03*
%TO.P,U3,26,RUN*%
%TO.N,Net-(SW20-Pad2)*%
X133650000Y-50837500D03*
%TO.P,U3,27,GPIO16*%
%TO.N,UP*%
X134050000Y-50837500D03*
%TO.P,U3,28,GPIO17*%
%TO.N,unconnected-(U3-Pad28)*%
X134450000Y-50837500D03*
D24*
%TO.P,U3,29,GPIO18*%
%TO.N,SQUARE*%
X135287500Y-50000000D03*
%TO.P,U3,30,GPIO19*%
%TO.N,CROSS*%
X135287500Y-49600000D03*
%TO.P,U3,31,GPIO20*%
%TO.N,unconnected-(U3-Pad31)*%
X135287500Y-49200000D03*
%TO.P,U3,32,GPIO21*%
%TO.N,unconnected-(U3-Pad32)*%
X135287500Y-48800000D03*
%TO.P,U3,33,IOVDD*%
%TO.N,+3V3*%
X135287500Y-48400000D03*
%TO.P,U3,34,GPIO22*%
%TO.N,unconnected-(U3-Pad34)*%
X135287500Y-48000000D03*
%TO.P,U3,35,GPIO23*%
%TO.N,unconnected-(U3-Pad35)*%
X135287500Y-47600000D03*
%TO.P,U3,36,GPIO24*%
%TO.N,CIRCLE*%
X135287500Y-47200000D03*
%TO.P,U3,37,GPIO25*%
%TO.N,TRIANGLE*%
X135287500Y-46800000D03*
%TO.P,U3,38,GPIO26_ADC0*%
%TO.N,R2*%
X135287500Y-46400000D03*
%TO.P,U3,39,GPIO27_ADC1*%
%TO.N,R1*%
X135287500Y-46000000D03*
%TO.P,U3,40,GPIO28_ADC2*%
%TO.N,L2*%
X135287500Y-45600000D03*
%TO.P,U3,41,GPIO29_ADC3*%
%TO.N,L1*%
X135287500Y-45200000D03*
%TO.P,U3,42,IOVDD*%
%TO.N,+3V3*%
X135287500Y-44800000D03*
D25*
%TO.P,U3,43,ADC_AVDD*%
X134450000Y-43962500D03*
%TO.P,U3,44,VREG_IN*%
X134050000Y-43962500D03*
%TO.P,U3,45,VREG_VOUT*%
%TO.N,+1V1*%
X133650000Y-43962500D03*
%TO.P,U3,46,USB_DM*%
%TO.N,Net-(R4-Pad2)*%
X133250000Y-43962500D03*
%TO.P,U3,47,USB_DP*%
%TO.N,Net-(R3-Pad2)*%
X132850000Y-43962500D03*
%TO.P,U3,48,USB_VDD*%
%TO.N,+3V3*%
X132450000Y-43962500D03*
%TO.P,U3,49,IOVDD*%
X132050000Y-43962500D03*
%TO.P,U3,50,DVDD*%
%TO.N,+1V1*%
X131650000Y-43962500D03*
%TO.P,U3,51,QSPI_SD3*%
%TO.N,QSPI_SD3*%
X131250000Y-43962500D03*
%TO.P,U3,52,QSPI_SCLK*%
%TO.N,QSPI_SCLK*%
X130850000Y-43962500D03*
%TO.P,U3,53,QSPI_SD0*%
%TO.N,QSPI_SD0*%
X130450000Y-43962500D03*
%TO.P,U3,54,QSPI_SD2*%
%TO.N,QSPI_SD2*%
X130050000Y-43962500D03*
%TO.P,U3,55,QSPI_SD1*%
%TO.N,QSPI_SD1*%
X129650000Y-43962500D03*
%TO.P,U3,56,QSPI_SS*%
%TO.N,QSPI_SS*%
X129250000Y-43962500D03*
D26*
%TO.P,U3,57,GND*%
%TO.N,GND*%
X131850000Y-46125000D03*
X130575000Y-47400000D03*
D27*
X131850000Y-47400000D03*
D26*
X133125000Y-47400000D03*
X131850000Y-48675000D03*
X133125000Y-48675000D03*
X133125000Y-46125000D03*
X130575000Y-48675000D03*
X130575000Y-46125000D03*
X131850000Y-47400000D03*
%TD*%
D28*
%TO.P,Y1,1,1*%
%TO.N,XIN*%
X129900000Y-56150000D03*
%TO.P,Y1,2,2*%
%TO.N,GND*%
X129900000Y-58350000D03*
%TO.P,Y1,3,3*%
%TO.N,Net-(C3-Pad1)*%
X131600000Y-58350000D03*
%TO.P,Y1,4,4*%
%TO.N,GND*%
X131600000Y-56150000D03*
%TD*%
D11*
%TO.P,R3,1*%
%TO.N,D+*%
X132700000Y-40190000D03*
%TO.P,R3,2*%
%TO.N,Net-(R3-Pad2)*%
X132700000Y-41210000D03*
%TD*%
D19*
%TO.P,C3,1*%
%TO.N,Net-(C3-Pad1)*%
X133100000Y-56770000D03*
%TO.P,C3,2*%
%TO.N,GND*%
X133100000Y-57730000D03*
%TD*%
D21*
%TO.P,SW20,1,1*%
%TO.N,GND*%
X117800000Y-61050000D03*
X117800000Y-53050000D03*
%TO.P,SW20,2,2*%
%TO.N,Net-(SW20-Pad2)*%
X122300000Y-61050000D03*
X122300000Y-53050000D03*
%TD*%
D29*
%TO.P,C13,1*%
%TO.N,+3V3*%
X104140000Y-50800000D03*
%TO.P,C13,2*%
%TO.N,GND*%
X103180000Y-50800000D03*
%TD*%
D18*
%TO.P,C12,1*%
%TO.N,+3V3*%
X137216000Y-48400000D03*
%TO.P,C12,2*%
%TO.N,GND*%
X138176000Y-48400000D03*
%TD*%
D30*
%TO.P,R5,1*%
%TO.N,Net-(C3-Pad1)*%
X131400000Y-54660000D03*
%TO.P,R5,2*%
%TO.N,XOUT*%
X131400000Y-53640000D03*
%TD*%
D19*
%TO.P,C14,1*%
%TO.N,+3V3*%
X132420000Y-52820000D03*
%TO.P,C14,2*%
%TO.N,GND*%
X132420000Y-53780000D03*
%TD*%
D29*
%TO.P,C11,1*%
%TO.N,+3V3*%
X127080000Y-44000000D03*
%TO.P,C11,2*%
%TO.N,GND*%
X126120000Y-44000000D03*
%TD*%
D31*
%TO.P,D10,1,DOUT*%
%TO.N,RGB_DATA_CROSS*%
X170777072Y-90184903D03*
%TO.P,D10,2,GND*%
%TO.N,GND*%
X170777072Y-89084903D03*
%TO.P,D10,3,DIN*%
%TO.N,RGB_DATA_CIRCLE*%
X168947072Y-89084903D03*
%TO.P,D10,4,VDD*%
%TO.N,+5V*%
X168947072Y-90184903D03*
%TD*%
D18*
%TO.P,C19,1*%
%TO.N,+5V*%
X178844000Y-67564000D03*
%TO.P,C19,2*%
%TO.N,GND*%
X179804000Y-67564000D03*
%TD*%
%TO.P,C31,1*%
%TO.N,+5V*%
X83848000Y-143764000D03*
%TO.P,C31,2*%
%TO.N,GND*%
X84808000Y-143764000D03*
%TD*%
D17*
%TO.P,C29,1*%
%TO.N,+5V*%
X64516000Y-141732000D03*
%TO.P,C29,2*%
%TO.N,GND*%
X64516000Y-140772000D03*
%TD*%
D18*
%TO.P,C30,1*%
%TO.N,+5V*%
X75212000Y-143764000D03*
%TO.P,C30,2*%
%TO.N,GND*%
X76172000Y-143764000D03*
%TD*%
D31*
%TO.P,D7,1,DOUT*%
%TO.N,RGB_DATA_L2*%
X234233331Y-58826441D03*
%TO.P,D7,2,GND*%
%TO.N,GND*%
X234233331Y-57726441D03*
%TO.P,D7,3,DIN*%
%TO.N,RGB_DATA_L1*%
X232403331Y-57726441D03*
%TO.P,D7,4,VDD*%
%TO.N,+5V*%
X232403331Y-58826441D03*
%TD*%
%TO.P,D12,1,DOUT*%
%TO.N,RGB_DATA_P1*%
X132418009Y-134819362D03*
%TO.P,D12,2,GND*%
%TO.N,GND*%
X132418009Y-133719362D03*
%TO.P,D12,3,DIN*%
%TO.N,RGB_DATA_UP*%
X130588009Y-133719362D03*
%TO.P,D12,4,VDD*%
%TO.N,+5V*%
X130588009Y-134819362D03*
%TD*%
D29*
%TO.P,C20,1*%
%TO.N,+5V*%
X231140000Y-66548000D03*
%TO.P,C20,2*%
%TO.N,GND*%
X230180000Y-66548000D03*
%TD*%
D19*
%TO.P,C26,1*%
%TO.N,+5V*%
X197612000Y-98580000D03*
%TO.P,C26,2*%
%TO.N,GND*%
X197612000Y-99540000D03*
%TD*%
%TO.P,C25,1*%
%TO.N,+5V*%
X227076000Y-98580000D03*
%TO.P,C25,2*%
%TO.N,GND*%
X227076000Y-99540000D03*
%TD*%
D18*
%TO.P,C18,1*%
%TO.N,+5V*%
X207292000Y-67056000D03*
%TO.P,C18,2*%
%TO.N,GND*%
X208252000Y-67056000D03*
%TD*%
D19*
%TO.P,C21,1*%
%TO.N,+5V*%
X86360000Y-79784000D03*
%TO.P,C21,2*%
%TO.N,GND*%
X86360000Y-80744000D03*
%TD*%
D18*
%TO.P,C32,1*%
%TO.N,+5V*%
X92484000Y-143764000D03*
%TO.P,C32,2*%
%TO.N,GND*%
X93444000Y-143764000D03*
%TD*%
D29*
%TO.P,C27,1*%
%TO.N,+5V*%
X110716000Y-90424000D03*
%TO.P,C27,2*%
%TO.N,GND*%
X109756000Y-90424000D03*
%TD*%
D31*
%TO.P,D6,1,DOUT*%
%TO.N,RGB_DATA_L1*%
X205318744Y-58611104D03*
%TO.P,D6,2,GND*%
%TO.N,GND*%
X205318744Y-57511104D03*
%TO.P,D6,3,DIN*%
%TO.N,RGB_DATA_R1*%
X203488744Y-57511104D03*
%TO.P,D6,4,VDD*%
%TO.N,+5V*%
X203488744Y-58611104D03*
%TD*%
D29*
%TO.P,C23,1*%
%TO.N,+5V*%
X145768000Y-78232000D03*
%TO.P,C23,2*%
%TO.N,GND*%
X144808000Y-78232000D03*
%TD*%
D31*
%TO.P,D15,1,DOUT*%
%TO.N,RGB_DATA_P4*%
X79857000Y-145246000D03*
%TO.P,D15,2,GND*%
%TO.N,GND*%
X79857000Y-146346000D03*
%TO.P,D15,3,DIN*%
%TO.N,RGB_DATA_P3*%
X81687000Y-146346000D03*
%TO.P,D15,4,VDD*%
%TO.N,+5V*%
X81687000Y-145246000D03*
%TD*%
%TO.P,D2,1,DOUT*%
%TO.N,RGB_DATA_RIGHT*%
X88220964Y-70363212D03*
%TO.P,D2,2,GND*%
%TO.N,GND*%
X88220964Y-69263212D03*
%TO.P,D2,3,DIN*%
%TO.N,RGB_DATA_DOWN*%
X86390964Y-69263212D03*
%TO.P,D2,4,VDD*%
%TO.N,+5V*%
X86390964Y-70363212D03*
%TD*%
%TO.P,D5,1,DOUT*%
%TO.N,RGB_DATA_R1*%
X176391910Y-58735343D03*
%TO.P,D5,2,GND*%
%TO.N,GND*%
X176391910Y-57635343D03*
%TO.P,D5,3,DIN*%
%TO.N,RGB_DATA_TRIANGLE*%
X174561910Y-57635343D03*
%TO.P,D5,4,VDD*%
%TO.N,+5V*%
X174561910Y-58735343D03*
%TD*%
%TO.P,D14,1,DOUT*%
%TO.N,RGB_DATA_P3*%
X71221000Y-145246000D03*
%TO.P,D14,2,GND*%
%TO.N,GND*%
X71221000Y-146346000D03*
%TO.P,D14,3,DIN*%
%TO.N,RGB_DATA_P2*%
X73051000Y-146346000D03*
%TO.P,D14,4,VDD*%
%TO.N,+5V*%
X73051000Y-145246000D03*
%TD*%
%TO.P,D8,1,DOUT*%
%TO.N,RGB_DATA_R2*%
X228823446Y-90195298D03*
%TO.P,D8,2,GND*%
%TO.N,GND*%
X228823446Y-89095298D03*
%TO.P,D8,3,DIN*%
%TO.N,RGB_DATA_L2*%
X226993446Y-89095298D03*
%TO.P,D8,4,VDD*%
%TO.N,+5V*%
X226993446Y-90195298D03*
%TD*%
%TO.P,D13,1,DOUT*%
%TO.N,RGB_DATA_P2*%
X62585000Y-145246000D03*
%TO.P,D13,2,GND*%
%TO.N,GND*%
X62585000Y-146346000D03*
%TO.P,D13,3,DIN*%
%TO.N,RGB_DATA_P1*%
X64415000Y-146346000D03*
%TO.P,D13,4,VDD*%
%TO.N,+5V*%
X64415000Y-145246000D03*
%TD*%
%TO.P,D4,1,DOUT*%
%TO.N,RGB_DATA_TRIANGLE*%
X149759000Y-70146000D03*
%TO.P,D4,2,GND*%
%TO.N,GND*%
X149759000Y-69046000D03*
%TO.P,D4,3,DIN*%
%TO.N,RGB_DATA_SQUARE*%
X147929000Y-69046000D03*
%TO.P,D4,4,VDD*%
%TO.N,+5V*%
X147929000Y-70146000D03*
%TD*%
%TO.P,D16,1,DOUT*%
%TO.N,unconnected-(D16-Pad1)*%
X88493000Y-145246000D03*
%TO.P,D16,2,GND*%
%TO.N,GND*%
X88493000Y-146346000D03*
%TO.P,D16,3,DIN*%
%TO.N,RGB_DATA_P4*%
X90323000Y-146346000D03*
%TO.P,D16,4,VDD*%
%TO.N,+5V*%
X90323000Y-145246000D03*
%TD*%
%TO.P,D11,1,DOUT*%
%TO.N,RGB_DATA_UP*%
X144152594Y-101338306D03*
%TO.P,D11,2,GND*%
%TO.N,GND*%
X144152594Y-100238306D03*
%TO.P,D11,3,DIN*%
%TO.N,RGB_DATA_CROSS*%
X142322594Y-100238306D03*
%TO.P,D11,4,VDD*%
%TO.N,+5V*%
X142322594Y-101338306D03*
%TD*%
%TO.P,D9,1,DOUT*%
%TO.N,RGB_DATA_CIRCLE*%
X199611100Y-90204207D03*
%TO.P,D9,2,GND*%
%TO.N,GND*%
X199611100Y-89104207D03*
%TO.P,D9,3,DIN*%
%TO.N,RGB_DATA_R2*%
X197781100Y-89104207D03*
%TO.P,D9,4,VDD*%
%TO.N,+5V*%
X197781100Y-90204207D03*
%TD*%
D19*
%TO.P,C17,1*%
%TO.N,+5V*%
X117884000Y-141760000D03*
%TO.P,C17,2*%
%TO.N,GND*%
X117884000Y-142720000D03*
%TD*%
%TO.P,C24,1*%
%TO.N,+5V*%
X57404000Y-79276000D03*
%TO.P,C24,2*%
%TO.N,GND*%
X57404000Y-80236000D03*
%TD*%
D31*
%TO.P,D3,1,DOUT*%
%TO.N,RGB_DATA_SQUARE*%
X114908238Y-81665572D03*
%TO.P,D3,2,GND*%
%TO.N,GND*%
X114908238Y-80565572D03*
%TO.P,D3,3,DIN*%
%TO.N,RGB_DATA_RIGHT*%
X113078238Y-80565572D03*
%TO.P,D3,4,VDD*%
%TO.N,+5V*%
X113078238Y-81665572D03*
%TD*%
%TO.P,D1,1,DOUT*%
%TO.N,RGB_DATA_DOWN*%
X59167962Y-70324084D03*
%TO.P,D1,2,GND*%
%TO.N,GND*%
X59167962Y-69224084D03*
%TO.P,D1,3,DIN*%
%TO.N,RGB_DATA_LEFT*%
X57337962Y-69224084D03*
%TO.P,D1,4,VDD*%
%TO.N,+5V*%
X57337962Y-70324084D03*
%TD*%
D19*
%TO.P,C28,1*%
%TO.N,+5V*%
X169164000Y-99060000D03*
%TO.P,C28,2*%
%TO.N,GND*%
X169164000Y-100020000D03*
%TD*%
%TO.P,C22,1*%
%TO.N,+5V*%
X142240000Y-110264000D03*
%TO.P,C22,2*%
%TO.N,GND*%
X142240000Y-111224000D03*
%TD*%
D32*
%TO.N,GND*%
X94488000Y-143764000D03*
X57404000Y-81280000D03*
X87376000Y-146304000D03*
X180848000Y-67564000D03*
X139322577Y-48380689D03*
X117800000Y-56840000D03*
X197612000Y-100584000D03*
X237744000Y-58928000D03*
X130621766Y-38405361D03*
X78740000Y-146304000D03*
X169164000Y-101092000D03*
X141012359Y-41155812D03*
X134841554Y-39004016D03*
X61976000Y-69596000D03*
X70104000Y-146304000D03*
X85852000Y-143764000D03*
X232156000Y-89916000D03*
X138681150Y-44435081D03*
X101600000Y-50800000D03*
X208788000Y-58420000D03*
X108204000Y-90424000D03*
X147828000Y-101092000D03*
X174244000Y-89916000D03*
X135636000Y-134620000D03*
X179832000Y-58420000D03*
X117856000Y-143764000D03*
X142240000Y-112268000D03*
X64516000Y-139700000D03*
X77216000Y-143764000D03*
X202692000Y-89916000D03*
X129397231Y-34807219D03*
X148282276Y-33996244D03*
X209296000Y-67056000D03*
X86360000Y-81788000D03*
X146544716Y-36274053D03*
X135878249Y-40142920D03*
X61468000Y-146304000D03*
X90932000Y-70104000D03*
X143764000Y-78232000D03*
X125010297Y-43961063D03*
X227076000Y-100584000D03*
X131658461Y-38960212D03*
X117856000Y-81788000D03*
X115150000Y-56730000D03*
X122291067Y-40200692D03*
X152908000Y-70104000D03*
X138674661Y-43396764D03*
X229108000Y-66548000D03*
%TO.N,+5V*%
X101092000Y-53848000D03*
X72644000Y-54864000D03*
X162052000Y-47399500D03*
X126492000Y-67564000D03*
X161825083Y-44477083D03*
X152908000Y-50800000D03*
X219039500Y-38608000D03*
X190734994Y-38699500D03*
%TO.N,LEFT*%
X54972686Y-51653155D03*
%TO.N,DOWN*%
X84059949Y-52279316D03*
%TO.N,RIGHT*%
X104140000Y-66040000D03*
%TO.N,UP*%
X124460000Y-112776000D03*
%TO.N,L1*%
X230124000Y-40640000D03*
%TO.N,R1*%
X201168000Y-40132000D03*
%TO.N,TRIANGLE*%
X171196000Y-41148000D03*
%TO.N,SQUARE*%
X144780000Y-50800000D03*
%TO.N,CIRCLE*%
X165608000Y-70104000D03*
%TO.N,CROSS*%
X144780000Y-81280000D03*
%TO.N,R2*%
X195072000Y-69596000D03*
%TO.N,L2*%
X224028000Y-70612000D03*
%TO.N,+1V1*%
X132499900Y-49507729D03*
X131650001Y-42050001D03*
X132650000Y-45245055D03*
X133000000Y-52000000D03*
%TO.N,Net-(R1-Pad2)*%
X120700000Y-50750000D03*
X120699974Y-44150000D03*
%TO.N,RGB_DATA_DOWN*%
X58928000Y-72644000D03*
X83820000Y-70612000D03*
%TO.N,RGB_DATA_SQUARE*%
X114808000Y-84328000D03*
X145288000Y-70612000D03*
%TO.N,RGB_DATA_RIGHT*%
X87884000Y-72644000D03*
X110236000Y-82296000D03*
%TO.N,RGB_DATA_TRIANGLE*%
X171704000Y-58928000D03*
X149352000Y-72644000D03*
%TO.N,RGB_DATA_R1*%
X200660000Y-58928000D03*
X176276000Y-61468000D03*
%TO.N,RGB_DATA_L1*%
X229616000Y-59436000D03*
X205232000Y-60960000D03*
%TO.N,RGB_DATA_L2*%
X232156000Y-87884000D03*
X234188000Y-61468000D03*
%TO.N,RGB_DATA_R2*%
X195072000Y-90932000D03*
X228600000Y-92456000D03*
%TO.N,RGB_DATA_CIRCLE*%
X199644000Y-92964000D03*
X166116000Y-90932000D03*
%TO.N,RGB_DATA_CROSS*%
X170688000Y-92964000D03*
X139700000Y-102108000D03*
%TO.N,RGB_DATA_UP*%
X144272000Y-104140000D03*
X127508000Y-135636000D03*
%TO.N,RGB_DATA_P1*%
X132080000Y-137160000D03*
X65532000Y-146304000D03*
%TO.N,RGB_DATA_P2*%
X74168000Y-146304000D03*
X61468000Y-145288000D03*
%TO.N,RGB_DATA_P3*%
X82804000Y-146304000D03*
X70104000Y-145288000D03*
%TO.N,RGB_DATA_P4*%
X91440000Y-146304000D03*
X78740000Y-145288000D03*
%TD*%
D33*
%TO.N,GND*%
X86360000Y-80744000D02*
X86360000Y-81788000D01*
X201880207Y-89104207D02*
X202692000Y-89916000D01*
X117800000Y-56840000D02*
X117800000Y-61050000D01*
X135900000Y-40164671D02*
X135878249Y-40142920D01*
X132420000Y-54270000D02*
X132900000Y-54750000D01*
D34*
X141000000Y-41168171D02*
X141000000Y-42270000D01*
D33*
X228823446Y-89095298D02*
X231335298Y-89095298D01*
X173412903Y-89084903D02*
X170777072Y-89084903D01*
X207879104Y-57511104D02*
X208788000Y-58420000D01*
D35*
X141595000Y-32195000D02*
X140680000Y-31280000D01*
D34*
X128230000Y-34800000D02*
X129390012Y-34800000D01*
D33*
X134380000Y-53780000D02*
X134400000Y-53800000D01*
D35*
X141775000Y-32195000D02*
X141595000Y-32195000D01*
D33*
X133450000Y-53780000D02*
X134380000Y-53780000D01*
D34*
X144500000Y-42250000D02*
X141020000Y-42250000D01*
X144520000Y-42270000D02*
X144500000Y-42250000D01*
D33*
X103180000Y-50800000D02*
X101600000Y-50800000D01*
X130100000Y-59450000D02*
X129900000Y-59250000D01*
X227076000Y-99540000D02*
X227076000Y-100584000D01*
X129900000Y-59250000D02*
X129900000Y-58350000D01*
X137580000Y-44450000D02*
X138666231Y-44450000D01*
X78782000Y-146346000D02*
X78740000Y-146304000D01*
X139303266Y-48400000D02*
X139322577Y-48380689D01*
D34*
X141012359Y-41155812D02*
X141000000Y-41168171D01*
D33*
X234233331Y-57726441D02*
X236542441Y-57726441D01*
X125049234Y-44000000D02*
X125010297Y-43961063D01*
X179047343Y-57635343D02*
X176391910Y-57635343D01*
X90091212Y-69263212D02*
X90932000Y-70104000D01*
X137580000Y-43400000D02*
X138671425Y-43400000D01*
X208252000Y-67056000D02*
X209296000Y-67056000D01*
X129900000Y-58350000D02*
X129900000Y-58250000D01*
X88220964Y-69263212D02*
X90091212Y-69263212D01*
X131600000Y-56550000D02*
X131600000Y-56150000D01*
X122286759Y-40205000D02*
X122291067Y-40200692D01*
X144808000Y-78232000D02*
X143764000Y-78232000D01*
X132418009Y-133719362D02*
X134735362Y-133719362D01*
X116633572Y-80565572D02*
X114908238Y-80565572D01*
X87418000Y-146346000D02*
X87376000Y-146304000D01*
X133100000Y-58690002D02*
X132340002Y-59450000D01*
X76172000Y-143764000D02*
X77216000Y-143764000D01*
X138671425Y-43400000D02*
X138674661Y-43396764D01*
X115150000Y-56730000D02*
X115150000Y-53050000D01*
X169164000Y-100020000D02*
X169164000Y-101092000D01*
X115150000Y-53050000D02*
X117800000Y-53050000D01*
X117884000Y-143736000D02*
X117856000Y-143764000D01*
X71221000Y-146346000D02*
X70146000Y-146346000D01*
X129900000Y-58250000D02*
X131600000Y-56550000D01*
X149759000Y-69046000D02*
X151850000Y-69046000D01*
X84808000Y-143764000D02*
X85852000Y-143764000D01*
X128850000Y-55170000D02*
X128850000Y-57300000D01*
X151850000Y-69046000D02*
X152908000Y-70104000D01*
X130850000Y-52584994D02*
X129420000Y-54014994D01*
X199611100Y-89104207D02*
X201880207Y-89104207D01*
X144152594Y-100238306D02*
X146974306Y-100238306D01*
X61976000Y-69596000D02*
X61604084Y-69224084D01*
X132420000Y-53780000D02*
X132420000Y-54270000D01*
X148250000Y-33963968D02*
X148282276Y-33996244D01*
X130600000Y-38427127D02*
X130621766Y-38405361D01*
X130600000Y-39620000D02*
X130600000Y-38427127D01*
X109756000Y-90424000D02*
X108204000Y-90424000D01*
X131650000Y-38968673D02*
X131658461Y-38960212D01*
X231335298Y-89095298D02*
X232156000Y-89916000D01*
X133100000Y-57730000D02*
X133100000Y-58690002D01*
X57404000Y-80236000D02*
X57404000Y-81280000D01*
X62585000Y-146346000D02*
X61510000Y-146346000D01*
X146550000Y-36268769D02*
X146544716Y-36274053D01*
X126120000Y-44000000D02*
X125049234Y-44000000D01*
X135900000Y-41220000D02*
X135900000Y-40164671D01*
X138176000Y-48400000D02*
X139303266Y-48400000D01*
X129390012Y-34800000D02*
X129397231Y-34807219D01*
X131650000Y-40220000D02*
X131650000Y-38968673D01*
X142240000Y-111224000D02*
X142240000Y-112268000D01*
X88493000Y-146346000D02*
X87418000Y-146346000D01*
D35*
X149320000Y-31280000D02*
X148405000Y-32195000D01*
D33*
X134850000Y-39012462D02*
X134841554Y-39004016D01*
D35*
X148405000Y-32195000D02*
X148350000Y-32195000D01*
D33*
X205318744Y-57511104D02*
X207879104Y-57511104D01*
X129420000Y-54600000D02*
X128850000Y-55170000D01*
D34*
X145800000Y-42270000D02*
X144520000Y-42270000D01*
D33*
X129420000Y-54014994D02*
X129420000Y-54600000D01*
X146974306Y-100238306D02*
X147828000Y-101092000D01*
X61510000Y-146346000D02*
X61468000Y-146304000D01*
X141750000Y-33940000D02*
X141640000Y-34050000D01*
X132340002Y-59450000D02*
X130100000Y-59450000D01*
X236542441Y-57726441D02*
X237744000Y-58928000D01*
X229108000Y-66548000D02*
X230180000Y-66548000D01*
X117856000Y-81788000D02*
X116633572Y-80565572D01*
X117884000Y-142720000D02*
X117884000Y-143736000D01*
X146550000Y-35010000D02*
X146550000Y-36268769D01*
X141750000Y-32195000D02*
X141750000Y-33940000D01*
X64516000Y-140772000D02*
X64516000Y-139700000D01*
X134850000Y-40220000D02*
X134850000Y-39012462D01*
X148250000Y-32195000D02*
X148250000Y-33963968D01*
X138666231Y-44450000D02*
X138681150Y-44435081D01*
X120450000Y-40205000D02*
X122286759Y-40205000D01*
X134735362Y-133719362D02*
X135636000Y-134620000D01*
X130850000Y-50837500D02*
X130850000Y-52584994D01*
X117800000Y-53050000D02*
X117800000Y-56840000D01*
X61604084Y-69224084D02*
X59167962Y-69224084D01*
X179804000Y-67564000D02*
X180848000Y-67564000D01*
X197612000Y-99540000D02*
X197612000Y-100584000D01*
D34*
X141020000Y-42250000D02*
X141000000Y-42270000D01*
D33*
X79857000Y-146346000D02*
X78782000Y-146346000D01*
X174244000Y-89916000D02*
X173412903Y-89084903D01*
X128850000Y-57300000D02*
X129900000Y-58350000D01*
X115150000Y-61050000D02*
X115150000Y-56730000D01*
X93444000Y-143764000D02*
X94488000Y-143764000D01*
X70146000Y-146346000D02*
X70104000Y-146304000D01*
X179832000Y-58420000D02*
X179047343Y-57635343D01*
D34*
%TO.N,+5V*%
X148276002Y-44700000D02*
X146806002Y-43230000D01*
X124959520Y-96528480D02*
X124959520Y-103623520D01*
X183896000Y-76652000D02*
X183896000Y-96012000D01*
X141732000Y-79756000D02*
X124959520Y-96528480D01*
X138684000Y-109220000D02*
X142240000Y-105664000D01*
D33*
X147913998Y-42586002D02*
X147450000Y-42586002D01*
X144530000Y-43230000D02*
X144500000Y-43200000D01*
D34*
X203722000Y-67042000D02*
X203200000Y-66520000D01*
X242824000Y-77724000D02*
X233680000Y-68580000D01*
X179860000Y-100048000D02*
X172748000Y-100048000D01*
X161602166Y-44700000D02*
X148276002Y-44700000D01*
X207292000Y-67056000D02*
X203736000Y-67056000D01*
X226993446Y-90195298D02*
X227076000Y-90277852D01*
X197612000Y-98580000D02*
X197612000Y-95504000D01*
X146616999Y-30550001D02*
X147450000Y-31383002D01*
X106736000Y-142240000D02*
X91440000Y-142240000D01*
X230604000Y-100048000D02*
X238788000Y-100048000D01*
X64415000Y-143357000D02*
X64415000Y-145246000D01*
X174808000Y-67564000D02*
X174780000Y-67536000D01*
X162960995Y-53034569D02*
X162960995Y-66750567D01*
X164691214Y-68480786D02*
X175724786Y-68480786D01*
X86390964Y-70363212D02*
X86360000Y-70394176D01*
X203200000Y-58899848D02*
X203488744Y-58611104D01*
X147450000Y-40510000D02*
X147450000Y-41100000D01*
X190635014Y-64452586D02*
X194762428Y-68580000D01*
X93472000Y-80264000D02*
X100584000Y-73152000D01*
X90323000Y-143865000D02*
X90323000Y-143357000D01*
X57337962Y-70324084D02*
X57404000Y-70390122D01*
X147450000Y-42586002D02*
X147450000Y-41100000D01*
X74168000Y-142240000D02*
X65532000Y-142240000D01*
X147828000Y-70247000D02*
X147929000Y-70146000D01*
X124959520Y-103623520D02*
X130556000Y-109220000D01*
X162960995Y-66750567D02*
X164691214Y-68480786D01*
X57404000Y-76708000D02*
X60960000Y-80264000D01*
X86360000Y-79784000D02*
X86360000Y-76200000D01*
X153611560Y-79756000D02*
X141732000Y-79756000D01*
X175796000Y-68552000D02*
X183896000Y-76652000D01*
X242824000Y-96012000D02*
X242824000Y-77724000D01*
X81687000Y-143663000D02*
X81687000Y-143357000D01*
X65532000Y-142240000D02*
X64415000Y-143357000D01*
X122456000Y-91412000D02*
X126492000Y-87376000D01*
X169164000Y-90401831D02*
X168947072Y-90184903D01*
X213868000Y-94996000D02*
X213868000Y-77188000D01*
X205260000Y-68580000D02*
X203722000Y-67042000D01*
X57404000Y-79276000D02*
X57404000Y-76708000D01*
X218948000Y-64825572D02*
X222702428Y-68580000D01*
X161543999Y-71823561D02*
X153611560Y-79756000D01*
X232156000Y-59073772D02*
X232403331Y-58826441D01*
X147450000Y-41100000D02*
X147250000Y-41300000D01*
X142240000Y-105664000D02*
X142240000Y-101420900D01*
X147250000Y-41300000D02*
X144500000Y-41300000D01*
X117884000Y-141760000D02*
X118364000Y-141280000D01*
X110744000Y-90396000D02*
X110716000Y-90424000D01*
X152908000Y-50800000D02*
X158748566Y-50800000D01*
X233680000Y-68580000D02*
X233680000Y-68552000D01*
X73051000Y-143357000D02*
X74168000Y-142240000D01*
X112832000Y-136144000D02*
X106736000Y-142240000D01*
X129032000Y-138684000D02*
X130588009Y-137127991D01*
X142550000Y-31383002D02*
X143383001Y-30550001D01*
X73152000Y-143764000D02*
X73051000Y-143865000D01*
X112832000Y-92880000D02*
X112832000Y-136144000D01*
X90323000Y-143357000D02*
X91440000Y-142240000D01*
X113284000Y-81871334D02*
X113078238Y-81665572D01*
X232156000Y-67056000D02*
X232156000Y-66548000D01*
X147450000Y-32195000D02*
X147450000Y-40510000D01*
X201648000Y-100048000D02*
X208816000Y-100048000D01*
X203200000Y-66520000D02*
X203200000Y-58899848D01*
X227076000Y-90277852D02*
X227076000Y-96012000D01*
X218948000Y-38699500D02*
X218948000Y-64825572D01*
X90323000Y-145246000D02*
X90323000Y-143865000D01*
X145768000Y-78232000D02*
X147320000Y-78232000D01*
X222702428Y-68580000D02*
X222730428Y-68552000D01*
X147450000Y-31383002D02*
X147450000Y-32195000D01*
X81687000Y-143357000D02*
X82804000Y-142240000D01*
X142550000Y-32195000D02*
X142550000Y-31383002D01*
X67564000Y-80264000D02*
X72644000Y-75184000D01*
X75212000Y-143764000D02*
X73152000Y-143764000D01*
X118364000Y-141280000D02*
X118364000Y-138684000D01*
X113284000Y-90396000D02*
X110744000Y-90396000D01*
X227076000Y-98580000D02*
X227076000Y-96012000D01*
X142240000Y-110264000D02*
X142240000Y-105664000D01*
X113284000Y-90396000D02*
X113284000Y-81871334D01*
X73051000Y-143865000D02*
X73051000Y-143357000D01*
X86360000Y-70394176D02*
X86360000Y-76200000D01*
X126492000Y-87376000D02*
X126492000Y-67564000D01*
X197612000Y-96012000D02*
X201648000Y-100048000D01*
X147828000Y-79756000D02*
X147828000Y-70247000D01*
X194762428Y-68580000D02*
X205260000Y-68580000D01*
X233680000Y-68580000D02*
X232156000Y-67056000D01*
X175796000Y-68552000D02*
X174780000Y-67536000D01*
X130588009Y-137127991D02*
X130588009Y-134819362D01*
X146806002Y-43230000D02*
X147450000Y-42586002D01*
X227076000Y-96012000D02*
X227076000Y-96520000D01*
X169164000Y-99060000D02*
X169164000Y-96464000D01*
X158748566Y-50800000D02*
X161543999Y-53595433D01*
X130556000Y-109220000D02*
X138684000Y-109220000D01*
X60960000Y-80264000D02*
X67564000Y-80264000D01*
X161825083Y-44477083D02*
X161602166Y-44700000D01*
X172748000Y-100048000D02*
X169164000Y-96464000D01*
X91440000Y-142240000D02*
X74168000Y-142240000D01*
X197612000Y-90373307D02*
X197612000Y-95504000D01*
X197612000Y-95504000D02*
X197612000Y-96012000D01*
X72644000Y-75184000D02*
X72644000Y-54864000D01*
X161543999Y-53595433D02*
X161543999Y-71823561D01*
X73051000Y-145246000D02*
X73051000Y-143865000D01*
X222730428Y-68552000D02*
X233680000Y-68552000D01*
X178844000Y-67564000D02*
X174808000Y-67564000D01*
X90424000Y-143764000D02*
X90323000Y-143865000D01*
X92484000Y-143764000D02*
X90424000Y-143764000D01*
X147320000Y-78232000D02*
X147828000Y-78740000D01*
X231140000Y-66548000D02*
X232156000Y-66548000D01*
X145800000Y-43230000D02*
X146806002Y-43230000D01*
X114300000Y-91412000D02*
X112832000Y-92880000D01*
X100584000Y-54356000D02*
X101092000Y-53848000D01*
X57404000Y-70390122D02*
X57404000Y-76708000D01*
X122456000Y-91412000D02*
X114300000Y-91412000D01*
X203736000Y-67056000D02*
X203722000Y-67042000D01*
X190734994Y-38699500D02*
X190635014Y-38799480D01*
X86360000Y-76200000D02*
X90424000Y-80264000D01*
X175724786Y-68480786D02*
X175796000Y-68552000D01*
X81687000Y-145246000D02*
X81687000Y-143663000D01*
X174244000Y-67000000D02*
X174244000Y-59053253D01*
X213868000Y-77188000D02*
X205260000Y-68580000D01*
X208816000Y-100048000D02*
X213868000Y-94996000D01*
X183896000Y-96012000D02*
X179860000Y-100048000D01*
X142240000Y-101420900D02*
X142322594Y-101338306D01*
X145800000Y-43230000D02*
X144530000Y-43230000D01*
X162052000Y-47399500D02*
X162052000Y-52125572D01*
X118364000Y-138684000D02*
X129032000Y-138684000D01*
X64516000Y-141732000D02*
X65024000Y-142240000D01*
X238788000Y-100048000D02*
X242824000Y-96012000D01*
X232156000Y-66548000D02*
X232156000Y-59073772D01*
X174780000Y-67536000D02*
X174244000Y-67000000D01*
X112832000Y-136144000D02*
X115372000Y-138684000D01*
X81788000Y-143764000D02*
X81687000Y-143663000D01*
X227076000Y-96520000D02*
X230604000Y-100048000D01*
X90424000Y-80264000D02*
X93472000Y-80264000D01*
X197781100Y-90204207D02*
X197612000Y-90373307D01*
X114300000Y-91412000D02*
X113284000Y-90396000D01*
X115372000Y-138684000D02*
X118364000Y-138684000D01*
X83848000Y-143764000D02*
X81788000Y-143764000D01*
X174244000Y-59053253D02*
X174561910Y-58735343D01*
X169164000Y-96464000D02*
X169164000Y-90401831D01*
X65024000Y-142240000D02*
X65532000Y-142240000D01*
X162052000Y-52125572D02*
X162960995Y-53034569D01*
X143383001Y-30550001D02*
X146616999Y-30550001D01*
X219039500Y-38608000D02*
X218948000Y-38699500D01*
X100584000Y-73152000D02*
X100584000Y-54356000D01*
X190635014Y-38799480D02*
X190635014Y-64452586D01*
D33*
%TO.N,D-*%
X145225000Y-36225000D02*
X145225000Y-33625000D01*
X133450000Y-38900000D02*
X134800000Y-37550000D01*
X134800000Y-37550000D02*
X143900000Y-37550000D01*
X133780000Y-40190000D02*
X133450000Y-39860000D01*
X145260002Y-33600000D02*
X145750000Y-33110002D01*
X143900000Y-37550000D02*
X145225000Y-36225000D01*
X145225000Y-33625000D02*
X145200000Y-33600000D01*
X133450000Y-39860000D02*
X133450000Y-38900000D01*
X144750000Y-32195000D02*
X144750000Y-33150000D01*
X145750000Y-33110002D02*
X145750000Y-32195000D01*
X145200000Y-33600000D02*
X145260002Y-33600000D01*
X144750000Y-33150000D02*
X145200000Y-33600000D01*
%TO.N,D+*%
X132700000Y-40190000D02*
X133050000Y-39840000D01*
X144800000Y-36084300D02*
X144800000Y-33800000D01*
X144250000Y-31270000D02*
X144469989Y-31050011D01*
X145030011Y-31050011D02*
X145250000Y-31270000D01*
X145250000Y-31270000D02*
X145250000Y-32195000D01*
X143734311Y-37149989D02*
X144800000Y-36084300D01*
X144250000Y-32195000D02*
X144250000Y-31270000D01*
X134634311Y-37149989D02*
X143734311Y-37149989D01*
X144250000Y-33250000D02*
X144250000Y-32195000D01*
X144800000Y-33800000D02*
X144250000Y-33250000D01*
X133050000Y-38734300D02*
X134634311Y-37149989D01*
X144469989Y-31050011D02*
X145030011Y-31050011D01*
X133050000Y-39840000D02*
X133050000Y-38734300D01*
%TO.N,LEFT*%
X107210119Y-49200480D02*
X128485826Y-49200480D01*
X54972686Y-51653155D02*
X54999347Y-51679816D01*
X54999347Y-51679816D02*
X104730783Y-51679816D01*
X104730783Y-51679816D02*
X107210119Y-49200480D01*
%TO.N,DOWN*%
X84059949Y-52279316D02*
X84259929Y-52079336D01*
X107457655Y-49600000D02*
X128412500Y-49600000D01*
X104978319Y-52079336D02*
X107457655Y-49600000D01*
X84259929Y-52079336D02*
X104978319Y-52079336D01*
%TO.N,RIGHT*%
X104140000Y-53569371D02*
X104140000Y-66040000D01*
X107707253Y-50002118D02*
X104140000Y-53569371D01*
X128410382Y-50002118D02*
X107707253Y-50002118D01*
X128412500Y-50000000D02*
X128410382Y-50002118D01*
%TO.N,UP*%
X136652000Y-54086994D02*
X134050000Y-51484994D01*
X135010555Y-68970555D02*
X135010555Y-61254451D01*
X140716000Y-74676000D02*
X135010555Y-68970555D01*
X136652000Y-59613006D02*
X136652000Y-54086994D01*
X124460001Y-96321571D02*
X140716000Y-80065572D01*
X124460000Y-112776000D02*
X124460001Y-96321571D01*
X134050000Y-51484994D02*
X134050000Y-50837500D01*
X135010555Y-61254451D02*
X136652000Y-59613006D01*
X140716000Y-80065572D02*
X140716000Y-74676000D01*
%TO.N,L1*%
X226568000Y-37084000D02*
X170065988Y-37084000D01*
X135287980Y-45199520D02*
X135287500Y-45200000D01*
X170065988Y-37084000D02*
X161950468Y-45199520D01*
X161950468Y-45199520D02*
X135287980Y-45199520D01*
X230124000Y-40640000D02*
X226568000Y-37084000D01*
%TO.N,R1*%
X199136000Y-38100000D02*
X170180000Y-38100000D01*
X201168000Y-40132000D02*
X199136000Y-38100000D01*
X170180000Y-38100000D02*
X162280000Y-46000000D01*
X162280000Y-46000000D02*
X135287500Y-46000000D01*
%TO.N,TRIANGLE*%
X168262012Y-41148000D02*
X162610012Y-46800000D01*
X171196000Y-41148000D02*
X168262012Y-41148000D01*
X162610012Y-46800000D02*
X135287500Y-46800000D01*
%TO.N,SQUARE*%
X143981159Y-50001159D02*
X135288659Y-50001159D01*
X144780000Y-50800000D02*
X143981159Y-50001159D01*
X135288659Y-50001159D02*
X135287500Y-50000000D01*
%TO.N,CIRCLE*%
X162461475Y-53241476D02*
X156419999Y-47200000D01*
X162461475Y-66957475D02*
X162461475Y-53241476D01*
X156419999Y-47200000D02*
X135287500Y-47200000D01*
X165608000Y-70104000D02*
X162461475Y-66957475D01*
%TO.N,CROSS*%
X162043519Y-53388526D02*
X162043519Y-72030469D01*
X135287500Y-49600000D02*
X158254993Y-49600000D01*
X152793988Y-81280000D02*
X144780000Y-81280000D01*
X162043519Y-72030469D02*
X152793988Y-81280000D01*
X158254993Y-49600000D02*
X162043519Y-53388526D01*
%TO.N,R2*%
X162445487Y-46399519D02*
X135287981Y-46399519D01*
X195072000Y-69596000D02*
X190135494Y-64659494D01*
X135287981Y-46399519D02*
X135287500Y-46400000D01*
X189571100Y-38499520D02*
X170345486Y-38499520D01*
X190135494Y-39063914D02*
X189571100Y-38499520D01*
X170345486Y-38499520D02*
X162445487Y-46399519D01*
X190135494Y-64659494D02*
X190135494Y-39063914D01*
%TO.N,L2*%
X218440000Y-38100000D02*
X217932000Y-37592000D01*
X162114994Y-45600000D02*
X135287500Y-45600000D01*
X170122994Y-37592000D02*
X162114994Y-45600000D01*
X224028000Y-70612000D02*
X218440000Y-65024000D01*
X217932000Y-37592000D02*
X170122994Y-37592000D01*
X218440000Y-65024000D02*
X218440000Y-38100000D01*
%TO.N,Net-(C3-Pad1)*%
X133100000Y-55809998D02*
X133100000Y-56770000D01*
X131950002Y-54660000D02*
X133100000Y-55809998D01*
X131400000Y-54660000D02*
X131950002Y-54660000D01*
X131600000Y-58350000D02*
X131600000Y-58200000D01*
X131600000Y-58200000D02*
X133030000Y-56770000D01*
X133030000Y-56770000D02*
X133100000Y-56770000D01*
D34*
%TO.N,+3V3*%
X127300000Y-36045000D02*
X127650000Y-36395000D01*
D33*
X132050000Y-50837500D02*
X132050000Y-50100000D01*
D34*
X117490000Y-36400000D02*
X117350000Y-36400000D01*
D33*
X134650000Y-43350000D02*
X136570000Y-43350000D01*
X131718004Y-41180000D02*
X131650000Y-41180000D01*
X132050000Y-43962500D02*
X132050000Y-43000000D01*
X135287500Y-44800000D02*
X134500000Y-44800000D01*
X132450000Y-42900000D02*
X132300000Y-42750000D01*
D34*
X120000000Y-45000000D02*
X126300000Y-45000000D01*
D33*
X132050000Y-43962500D02*
X132050000Y-44700000D01*
X134450000Y-44750000D02*
X134450000Y-43962500D01*
X134050000Y-43962500D02*
X134050000Y-44600000D01*
X132450000Y-52300000D02*
X132450000Y-52790000D01*
X134450000Y-43550000D02*
X134650000Y-43350000D01*
X132050000Y-51900000D02*
X132450000Y-52300000D01*
D34*
X141000000Y-43230000D02*
X140970000Y-43200000D01*
D33*
X141030000Y-43200000D02*
X141000000Y-43230000D01*
X132450000Y-43962500D02*
X132450000Y-42900000D01*
D34*
X117490000Y-36400000D02*
X117490000Y-36210000D01*
D33*
X128412500Y-44800000D02*
X129200000Y-44800000D01*
X135900000Y-42180000D02*
X134920000Y-42180000D01*
X132050000Y-43000000D02*
X132300000Y-42750000D01*
X106540000Y-48400000D02*
X128412500Y-48400000D01*
X134450000Y-43962500D02*
X134450000Y-43550000D01*
D34*
X128412500Y-44412500D02*
X128412500Y-44699990D01*
D33*
X134050000Y-44600000D02*
X134250000Y-44800000D01*
D34*
X117350000Y-36400000D02*
X116600000Y-37150000D01*
D33*
X104140000Y-50800000D02*
X106540000Y-48400000D01*
X132450000Y-44600000D02*
X132400000Y-44650000D01*
D34*
X127270000Y-34800000D02*
X127300000Y-34830000D01*
X138980000Y-42180000D02*
X135900000Y-42180000D01*
D33*
X132450000Y-52790000D02*
X132420000Y-52820000D01*
D34*
X127080000Y-44000000D02*
X128000000Y-44000000D01*
D33*
X134050000Y-43050000D02*
X134050000Y-43962500D01*
X128412500Y-48400000D02*
X129100000Y-48400000D01*
D34*
X117490000Y-36210000D02*
X118900000Y-34800000D01*
X126300000Y-45000000D02*
X127080000Y-44220000D01*
D33*
X132050000Y-50837500D02*
X132050000Y-51900000D01*
X132300000Y-42750000D02*
X132300000Y-41761996D01*
D34*
X128000000Y-44000000D02*
X128412500Y-44412500D01*
X127300000Y-34830000D02*
X127300000Y-36045000D01*
D33*
X142300000Y-43200000D02*
X141030000Y-43200000D01*
D34*
X140970000Y-43200000D02*
X140000000Y-43200000D01*
X116600000Y-41600000D02*
X120000000Y-45000000D01*
D33*
X135287500Y-44800000D02*
X136270000Y-44800000D01*
X132300000Y-41761996D02*
X131718004Y-41180000D01*
D34*
X118900000Y-34800000D02*
X127270000Y-34800000D01*
D33*
X134920000Y-42180000D02*
X134050000Y-43050000D01*
D34*
X140000000Y-43200000D02*
X138980000Y-42180000D01*
D33*
X134500000Y-44800000D02*
X134450000Y-44750000D01*
X132450000Y-43962500D02*
X132450000Y-44600000D01*
X135287500Y-48400000D02*
X137216000Y-48400000D01*
X136570000Y-43350000D02*
X136620000Y-43400000D01*
D34*
X127080000Y-44220000D02*
X127080000Y-44000000D01*
D33*
X136270000Y-44800000D02*
X136620000Y-44450000D01*
D34*
X116600000Y-41600000D02*
X116600000Y-37150000D01*
D33*
%TO.N,+1V1*%
X131650000Y-43962500D02*
X131650000Y-42050002D01*
X133650000Y-44650000D02*
X133450000Y-44850000D01*
X132450000Y-50837500D02*
X132450000Y-51450000D01*
X130600000Y-40580000D02*
X130600000Y-41150000D01*
X133650000Y-42850000D02*
X134850000Y-41650000D01*
X130600000Y-41150000D02*
X131500001Y-42050001D01*
X132450000Y-51450000D02*
X133000000Y-52000000D01*
X131500001Y-42050001D02*
X131650001Y-42050001D01*
X133650000Y-43962500D02*
X133650000Y-42850000D01*
X134850000Y-41650000D02*
X134850000Y-41180000D01*
X133000000Y-52000000D02*
X133450000Y-52450000D01*
X133650000Y-43962500D02*
X133650000Y-44650000D01*
X133450000Y-52450000D02*
X133450000Y-52820000D01*
X131650000Y-42050002D02*
X131650001Y-42050001D01*
%TO.N,Net-(R3-Pad2)*%
X132850000Y-41360000D02*
X132700000Y-41210000D01*
X132850000Y-43962500D02*
X132850000Y-41360000D01*
%TO.N,Net-(R4-Pad2)*%
X133780000Y-41815000D02*
X133780000Y-41210000D01*
X133250000Y-42345000D02*
X133780000Y-41815000D01*
X133250000Y-43962500D02*
X133250000Y-42345000D01*
%TO.N,Net-(R6-Pad1)*%
X143250000Y-32195000D02*
X143250000Y-33460000D01*
X143250000Y-33460000D02*
X142660000Y-34050000D01*
%TO.N,Net-(R7-Pad1)*%
X146250000Y-33690000D02*
X146550000Y-33990000D01*
X146250000Y-32195000D02*
X146250000Y-33690000D01*
%TO.N,XIN*%
X130350000Y-55700000D02*
X130350000Y-54630000D01*
X130350000Y-54630000D02*
X130380000Y-54600000D01*
X130380000Y-53620000D02*
X131250000Y-52750000D01*
X130380000Y-54600000D02*
X130380000Y-53620000D01*
X129900000Y-56150000D02*
X130350000Y-55700000D01*
X131250000Y-52750000D02*
X131250000Y-50837500D01*
%TO.N,XOUT*%
X131650000Y-50837500D02*
X131650000Y-53390000D01*
X131650000Y-53390000D02*
X131400000Y-53640000D01*
%TO.N,OPT1*%
X128412500Y-47600000D02*
X60100000Y-47600000D01*
X60100000Y-47600000D02*
X55500000Y-43000000D01*
D35*
X55500000Y-43000000D02*
X55500000Y-36500000D01*
%TO.N,OPT2*%
X65500000Y-43000000D02*
X65500000Y-36500000D01*
D33*
X128412500Y-47200000D02*
X69700000Y-47200000D01*
X69700000Y-47200000D02*
X65500000Y-43000000D01*
D35*
%TO.N,OPT3*%
X75500000Y-43000000D02*
X75500000Y-36500000D01*
D33*
X79300000Y-46800000D02*
X75500000Y-43000000D01*
X128412500Y-46800000D02*
X79300000Y-46800000D01*
D35*
%TO.N,OPT4*%
X88500000Y-43000000D02*
X88500000Y-36500000D01*
D33*
X91900000Y-46400000D02*
X88500000Y-43000000D01*
X128412500Y-46400000D02*
X91900000Y-46400000D01*
D35*
%TO.N,OPT5*%
X98500000Y-43000000D02*
X98500000Y-36500000D01*
D33*
X101500000Y-46000000D02*
X98500000Y-43000000D01*
X128412500Y-46000000D02*
X101500000Y-46000000D01*
D35*
%TO.N,OPT6*%
X108500000Y-43000000D02*
X108500000Y-36500000D01*
D33*
X128412500Y-45600000D02*
X111100000Y-45600000D01*
X111100000Y-45600000D02*
X108500000Y-43000000D01*
%TO.N,Net-(R1-Pad2)*%
X120739974Y-44110000D02*
X120699974Y-44150000D01*
X110650000Y-53050000D02*
X110650000Y-61050000D01*
X112950000Y-50750000D02*
X110650000Y-53050000D01*
X120700000Y-50750000D02*
X112950000Y-50750000D01*
X121650000Y-44110000D02*
X120739974Y-44110000D01*
%TO.N,QSPI_SS*%
X129250000Y-43962500D02*
X129250000Y-43550000D01*
X129250000Y-43550000D02*
X128790000Y-43090000D01*
X117400000Y-41100000D02*
X117400000Y-37510000D01*
X117400000Y-37510000D02*
X118510000Y-36400000D01*
X121650000Y-43090000D02*
X119390000Y-43090000D01*
X120445000Y-36400000D02*
X120450000Y-36395000D01*
X118510000Y-36400000D02*
X120445000Y-36400000D01*
X119390000Y-43090000D02*
X117400000Y-41100000D01*
X128790000Y-43090000D02*
X121650000Y-43090000D01*
%TO.N,Net-(SW20-Pad2)*%
X136250000Y-59450000D02*
X134650000Y-61050000D01*
X122300000Y-53050000D02*
X122300000Y-61050000D01*
X133650000Y-50837500D02*
X133650000Y-51650000D01*
X136250000Y-54250000D02*
X136250000Y-59450000D01*
X134650000Y-61050000D02*
X122300000Y-61050000D01*
X133650000Y-51650000D02*
X136250000Y-54250000D01*
%TO.N,QSPI_SD3*%
X129900010Y-41165710D02*
X131250000Y-42515700D01*
X128715000Y-37665000D02*
X129900010Y-38850010D01*
X129900010Y-38850010D02*
X129900010Y-41165710D01*
X131250000Y-42515700D02*
X131250000Y-43962500D01*
X127650000Y-37665000D02*
X128715000Y-37665000D01*
%TO.N,QSPI_SCLK*%
X129500000Y-39750000D02*
X128685000Y-38935000D01*
X128685000Y-38935000D02*
X127650000Y-38935000D01*
X130850000Y-42700000D02*
X129500000Y-41350000D01*
X130850000Y-43962500D02*
X130850000Y-42700000D01*
X129500000Y-41350000D02*
X129500000Y-39750000D01*
%TO.N,QSPI_SD0*%
X130450000Y-43962500D02*
X130450000Y-42900000D01*
X129099992Y-40600008D02*
X129100000Y-40600000D01*
X128705000Y-40205000D02*
X127650000Y-40205000D01*
X130450000Y-42900000D02*
X129099992Y-41549992D01*
X129099992Y-41549992D02*
X129099992Y-40600008D01*
X129100000Y-40600000D02*
X128705000Y-40205000D01*
%TO.N,QSPI_SD2*%
X130050000Y-43150000D02*
X128700000Y-41800000D01*
X128700000Y-41800000D02*
X119750000Y-41800000D01*
X119750000Y-41800000D02*
X118900000Y-40950000D01*
X118900000Y-40950000D02*
X118900000Y-39350000D01*
X119315000Y-38935000D02*
X120450000Y-38935000D01*
X118900000Y-39350000D02*
X119315000Y-38935000D01*
X130050000Y-43962500D02*
X130050000Y-43150000D01*
%TO.N,QSPI_SD1*%
X129650000Y-43962500D02*
X129650000Y-43350000D01*
X129650000Y-43350000D02*
X128650000Y-42350000D01*
X118200000Y-41100000D02*
X118200000Y-38800000D01*
X128650000Y-42350000D02*
X119450000Y-42350000D01*
X118200000Y-38800000D02*
X119335000Y-37665000D01*
X119335000Y-37665000D02*
X120450000Y-37665000D01*
X119450000Y-42350000D02*
X118200000Y-41100000D01*
%TO.N,RGB_DATA_LEFT*%
X48768000Y-62992000D02*
X52940480Y-67164480D01*
X128412500Y-48000000D02*
X54614000Y-48000000D01*
X55278358Y-67164480D02*
X57337962Y-69224084D01*
X52940480Y-67164480D02*
X55278358Y-67164480D01*
X54614000Y-48000000D02*
X48768000Y-53846000D01*
X48768000Y-53846000D02*
X48768000Y-62992000D01*
%TO.N,RGB_DATA_DOWN*%
X85168788Y-69263212D02*
X86390964Y-69263212D01*
X83820000Y-70612000D02*
X85168788Y-69263212D01*
X58928000Y-72644000D02*
X58928000Y-70564046D01*
X58928000Y-70564046D02*
X59167962Y-70324084D01*
%TO.N,RGB_DATA_SQUARE*%
X114908238Y-81665572D02*
X114808000Y-81765810D01*
X146854000Y-69046000D02*
X145288000Y-70612000D01*
X114808000Y-81765810D02*
X114808000Y-84328000D01*
X147929000Y-69046000D02*
X146854000Y-69046000D01*
%TO.N,RGB_DATA_RIGHT*%
X87884000Y-70700176D02*
X87884000Y-72644000D01*
X88220964Y-70363212D02*
X87884000Y-70700176D01*
X111966428Y-80565572D02*
X110236000Y-82296000D01*
X113078238Y-80565572D02*
X111966428Y-80565572D01*
%TO.N,RGB_DATA_TRIANGLE*%
X149419000Y-69971000D02*
X149419000Y-72577000D01*
X149419000Y-72577000D02*
X149352000Y-72644000D01*
X172996657Y-57635343D02*
X174561910Y-57635343D01*
X171704000Y-58928000D02*
X172996657Y-57635343D01*
%TO.N,RGB_DATA_R1*%
X176391910Y-58735343D02*
X176276000Y-58851253D01*
X202076896Y-57511104D02*
X203488744Y-57511104D01*
X176276000Y-58851253D02*
X176276000Y-61468000D01*
X200660000Y-58928000D02*
X202076896Y-57511104D01*
%TO.N,RGB_DATA_L1*%
X205232000Y-60960000D02*
X205318744Y-60873256D01*
X205318744Y-60873256D02*
X205318744Y-58611104D01*
X231325559Y-57726441D02*
X229616000Y-59436000D01*
X232403331Y-57726441D02*
X231325559Y-57726441D01*
%TO.N,RGB_DATA_L2*%
X234188000Y-58871772D02*
X234188000Y-61468000D01*
X232156000Y-87884000D02*
X228204744Y-87884000D01*
X234233331Y-58826441D02*
X234188000Y-58871772D01*
X228204744Y-87884000D02*
X226993446Y-89095298D01*
%TO.N,RGB_DATA_R2*%
X195072000Y-90932000D02*
X196899793Y-89104207D01*
X196899793Y-89104207D02*
X197781100Y-89104207D01*
X228600000Y-90418744D02*
X228823446Y-90195298D01*
X228600000Y-92456000D02*
X228600000Y-90418744D01*
%TO.N,RGB_DATA_CIRCLE*%
X167455097Y-89084903D02*
X166116000Y-90424000D01*
X199644000Y-92964000D02*
X199611100Y-92931100D01*
X199611100Y-92931100D02*
X199611100Y-90204207D01*
X166116000Y-90424000D02*
X166116000Y-90932000D01*
X168947072Y-89084903D02*
X167455097Y-89084903D01*
%TO.N,RGB_DATA_CROSS*%
X142322594Y-100238306D02*
X141569694Y-100238306D01*
X141569694Y-100238306D02*
X139700000Y-102108000D01*
X170688000Y-90273975D02*
X170688000Y-92964000D01*
X170777072Y-90184903D02*
X170688000Y-90273975D01*
%TO.N,RGB_DATA_UP*%
X144152594Y-101338306D02*
X144272000Y-101457712D01*
X130588009Y-133719362D02*
X129424638Y-133719362D01*
X144272000Y-101457712D02*
X144272000Y-104140000D01*
X129424638Y-133719362D02*
X127508000Y-135636000D01*
%TO.N,RGB_DATA_P1*%
X132418009Y-134819362D02*
X132588000Y-134989353D01*
X64415000Y-146346000D02*
X65490000Y-146346000D01*
X132588000Y-134989353D02*
X132588000Y-136652000D01*
X132588000Y-136652000D02*
X132080000Y-137160000D01*
X65490000Y-146346000D02*
X65532000Y-146304000D01*
%TO.N,RGB_DATA_P2*%
X73051000Y-146346000D02*
X74126000Y-146346000D01*
X61510000Y-145246000D02*
X61468000Y-145288000D01*
X74126000Y-146346000D02*
X74168000Y-146304000D01*
X62585000Y-145246000D02*
X61510000Y-145246000D01*
%TO.N,RGB_DATA_P3*%
X70146000Y-145246000D02*
X70104000Y-145288000D01*
X81687000Y-146346000D02*
X82762000Y-146346000D01*
X71221000Y-145246000D02*
X70146000Y-145246000D01*
X82762000Y-146346000D02*
X82804000Y-146304000D01*
%TO.N,RGB_DATA_P4*%
X79857000Y-145246000D02*
X78782000Y-145246000D01*
X90323000Y-146346000D02*
X91398000Y-146346000D01*
X78782000Y-145246000D02*
X78740000Y-145288000D01*
X91398000Y-146346000D02*
X91440000Y-146304000D01*
%TD*%
%TA.AperFunction,Conductor*%
%TO.N,+1V1*%
G36*
X133173652Y-44600167D02*
G01*
X133175326Y-44600500D01*
X133324674Y-44600500D01*
X133326348Y-44600167D01*
X133329750Y-44600000D01*
X133733862Y-44600000D01*
X133781428Y-44617313D01*
X133806440Y-44659563D01*
X133814034Y-44697741D01*
X133817054Y-44702260D01*
X133818083Y-44703801D01*
X133818084Y-44703802D01*
X133837529Y-44732905D01*
X133850000Y-44774016D01*
X133850000Y-45576000D01*
X133832687Y-45623566D01*
X133788850Y-45648876D01*
X133776000Y-45650000D01*
X133358338Y-45650000D01*
X133354036Y-45649748D01*
X133354029Y-45649873D01*
X133351877Y-45649748D01*
X133349750Y-45649500D01*
X130350250Y-45649500D01*
X130346047Y-45650000D01*
X130330082Y-45651899D01*
X130330081Y-45651899D01*
X130324568Y-45652555D01*
X130319497Y-45654807D01*
X130319495Y-45654808D01*
X130230549Y-45694317D01*
X130224304Y-45697091D01*
X130219475Y-45701928D01*
X130219474Y-45701929D01*
X130151623Y-45769898D01*
X130151622Y-45769900D01*
X130146795Y-45774735D01*
X130102435Y-45875077D01*
X130099500Y-45900250D01*
X130099500Y-48899750D01*
X130102555Y-48925432D01*
X130147091Y-49025696D01*
X130151928Y-49030525D01*
X130151929Y-49030526D01*
X130219898Y-49098377D01*
X130219900Y-49098378D01*
X130224735Y-49103205D01*
X130325077Y-49147565D01*
X130341403Y-49149469D01*
X130348122Y-49150252D01*
X130348124Y-49150252D01*
X130350250Y-49150500D01*
X132776000Y-49150500D01*
X132823566Y-49167813D01*
X132848876Y-49211650D01*
X132850000Y-49224500D01*
X132850000Y-49726000D01*
X132832687Y-49773566D01*
X132788850Y-49798876D01*
X132776000Y-49800000D01*
X132224000Y-49800000D01*
X132176434Y-49782687D01*
X132151124Y-49738850D01*
X132150000Y-49726000D01*
X132150000Y-49650000D01*
X129674000Y-49650000D01*
X129626434Y-49632687D01*
X129601124Y-49588850D01*
X129600000Y-49576000D01*
X129600000Y-45274000D01*
X129617313Y-45226434D01*
X129661150Y-45201124D01*
X129674000Y-45200000D01*
X132400000Y-45200000D01*
X132400000Y-45024000D01*
X132417313Y-44976434D01*
X132461150Y-44951124D01*
X132474000Y-44950000D01*
X132850000Y-44950000D01*
X132850000Y-44674500D01*
X132867313Y-44626934D01*
X132911150Y-44601624D01*
X132917441Y-44601074D01*
X132917420Y-44600856D01*
X132921034Y-44600500D01*
X132924674Y-44600500D01*
X132926348Y-44600167D01*
X132929750Y-44600000D01*
X133170250Y-44600000D01*
X133173652Y-44600167D01*
G37*
%TD.AperFunction*%
%TD*%
%TA.AperFunction,Conductor*%
%TO.N,+3V3*%
G36*
X143009191Y-40018907D02*
G01*
X143045155Y-40068407D01*
X143050000Y-40099000D01*
X143050000Y-40698751D01*
X143031093Y-40756942D01*
X142981593Y-40792906D01*
X142920407Y-40792906D01*
X142915851Y-40791225D01*
X142908231Y-40786133D01*
X142849748Y-40774500D01*
X141750252Y-40774500D01*
X141724005Y-40779721D01*
X141701334Y-40784230D01*
X141701332Y-40784231D01*
X141691769Y-40786133D01*
X141625448Y-40830448D01*
X141620029Y-40838558D01*
X141596072Y-40874412D01*
X141548022Y-40912291D01*
X141486884Y-40914693D01*
X141439078Y-40882750D01*
X141438343Y-40883384D01*
X141436058Y-40880732D01*
X141374642Y-40809456D01*
X141349364Y-40780119D01*
X141349363Y-40780118D01*
X141344759Y-40774775D01*
X141224454Y-40696797D01*
X141087098Y-40655719D01*
X141003856Y-40655210D01*
X140950786Y-40654886D01*
X140950785Y-40654886D01*
X140943735Y-40654843D01*
X140936958Y-40656780D01*
X140936957Y-40656780D01*
X140812668Y-40692302D01*
X140812666Y-40692303D01*
X140805888Y-40694240D01*
X140684639Y-40770742D01*
X140679972Y-40776026D01*
X140679970Y-40776028D01*
X140594403Y-40872915D01*
X140594401Y-40872917D01*
X140589736Y-40878200D01*
X140586740Y-40884582D01*
X140586739Y-40884583D01*
X140581018Y-40896769D01*
X140528806Y-41007975D01*
X140527721Y-41014944D01*
X140527720Y-41014947D01*
X140524305Y-41036883D01*
X140506750Y-41149635D01*
X140525339Y-41291791D01*
X140528180Y-41298247D01*
X140528180Y-41298248D01*
X140580240Y-41416563D01*
X140583079Y-41423015D01*
X140585102Y-41425421D01*
X140599500Y-41475799D01*
X140599500Y-41837952D01*
X140580593Y-41896143D01*
X140570504Y-41907956D01*
X140546776Y-41931684D01*
X140543116Y-41939532D01*
X140543115Y-41939534D01*
X140502852Y-42025878D01*
X140496028Y-42040513D01*
X140489500Y-42090099D01*
X140489501Y-42449900D01*
X140496028Y-42499487D01*
X140499231Y-42506355D01*
X140542449Y-42599036D01*
X140546776Y-42608316D01*
X140552898Y-42614438D01*
X140557870Y-42621539D01*
X140555171Y-42623429D01*
X140575970Y-42664250D01*
X140566399Y-42724682D01*
X140537006Y-42759371D01*
X140521314Y-42770961D01*
X140510959Y-42781316D01*
X140441147Y-42875833D01*
X140434300Y-42888766D01*
X140394912Y-43000927D01*
X140392344Y-43012629D01*
X140390218Y-43035114D01*
X140390000Y-43039750D01*
X140390000Y-43064320D01*
X140394122Y-43077005D01*
X140398243Y-43080000D01*
X141414320Y-43080000D01*
X141444560Y-43070174D01*
X141465661Y-43054845D01*
X141496251Y-43050000D01*
X142351000Y-43050000D01*
X142409191Y-43068907D01*
X142445155Y-43118407D01*
X142450000Y-43149000D01*
X142450000Y-43809320D01*
X142454122Y-43822005D01*
X142458243Y-43825000D01*
X142871639Y-43825000D01*
X142877485Y-43824654D01*
X142893353Y-43822766D01*
X142907519Y-43818872D01*
X142910810Y-43817410D01*
X142914077Y-43817069D01*
X142914679Y-43816904D01*
X142914706Y-43817004D01*
X142971665Y-43811066D01*
X143024627Y-43841703D01*
X143049466Y-43897620D01*
X143050000Y-43907885D01*
X143050000Y-44800020D01*
X143031093Y-44858211D01*
X142981593Y-44894175D01*
X142951000Y-44899020D01*
X139159493Y-44899020D01*
X139101302Y-44880113D01*
X139065338Y-44830613D01*
X139065338Y-44769427D01*
X139086095Y-44733584D01*
X139095618Y-44723063D01*
X139100350Y-44717835D01*
X139141499Y-44632904D01*
X139159784Y-44595163D01*
X139162860Y-44588814D01*
X139177384Y-44502491D01*
X139186012Y-44451205D01*
X139186012Y-44451201D01*
X139186646Y-44447435D01*
X139186797Y-44435081D01*
X139166473Y-44293163D01*
X139107134Y-44162653D01*
X139013550Y-44054044D01*
X138924961Y-43996623D01*
X138886417Y-43949109D01*
X138883161Y-43888011D01*
X138916440Y-43836667D01*
X138927009Y-43829184D01*
X138991639Y-43789501D01*
X138997652Y-43785809D01*
X139005064Y-43777621D01*
X139089129Y-43684746D01*
X139093861Y-43679518D01*
X139156371Y-43550497D01*
X139158433Y-43538246D01*
X139178285Y-43420247D01*
X140390001Y-43420247D01*
X140390220Y-43424890D01*
X140392345Y-43447374D01*
X140394910Y-43459070D01*
X140434300Y-43571234D01*
X140441147Y-43584167D01*
X140510959Y-43678684D01*
X140521316Y-43689041D01*
X140615833Y-43758853D01*
X140628766Y-43765700D01*
X140740927Y-43805088D01*
X140752629Y-43807656D01*
X140775114Y-43809782D01*
X140779750Y-43810000D01*
X140834320Y-43810000D01*
X140847005Y-43805878D01*
X140850000Y-43801757D01*
X140850000Y-43794319D01*
X141150000Y-43794319D01*
X141154122Y-43807004D01*
X141158243Y-43809999D01*
X141220247Y-43809999D01*
X141224890Y-43809780D01*
X141247374Y-43807655D01*
X141259070Y-43805090D01*
X141371234Y-43765700D01*
X141384167Y-43758853D01*
X141427980Y-43726492D01*
X141486020Y-43707128D01*
X141544358Y-43725578D01*
X141556740Y-43736060D01*
X141591107Y-43770367D01*
X141605931Y-43780517D01*
X141692980Y-43819000D01*
X141707185Y-43822873D01*
X141722580Y-43824668D01*
X141728292Y-43825000D01*
X142134320Y-43825000D01*
X142147005Y-43820878D01*
X142150000Y-43816757D01*
X142150000Y-43365680D01*
X142145878Y-43352995D01*
X142141757Y-43350000D01*
X141665680Y-43350000D01*
X141635440Y-43359826D01*
X141614339Y-43375155D01*
X141583749Y-43380000D01*
X141165680Y-43380000D01*
X141152995Y-43384122D01*
X141150000Y-43388243D01*
X141150000Y-43794319D01*
X140850000Y-43794319D01*
X140850000Y-43395680D01*
X140845878Y-43382995D01*
X140841757Y-43380000D01*
X140405681Y-43380000D01*
X140392996Y-43384122D01*
X140390001Y-43388243D01*
X140390001Y-43420247D01*
X139178285Y-43420247D01*
X139179523Y-43412888D01*
X139179523Y-43412884D01*
X139180157Y-43409118D01*
X139180308Y-43396764D01*
X139159984Y-43254846D01*
X139138204Y-43206944D01*
X139103566Y-43130760D01*
X139103565Y-43130759D01*
X139100645Y-43124336D01*
X139007061Y-43015727D01*
X138886756Y-42937749D01*
X138749400Y-42896671D01*
X138666158Y-42896162D01*
X138613088Y-42895838D01*
X138613087Y-42895838D01*
X138606037Y-42895795D01*
X138599260Y-42897732D01*
X138599259Y-42897732D01*
X138474970Y-42933254D01*
X138474968Y-42933255D01*
X138468190Y-42935192D01*
X138346941Y-43011694D01*
X138342274Y-43016978D01*
X138342272Y-43016980D01*
X138308832Y-43054845D01*
X138299415Y-43065508D01*
X138298950Y-43066034D01*
X138246258Y-43097134D01*
X138224746Y-43099500D01*
X138097917Y-43099500D01*
X138039726Y-43080593D01*
X138008191Y-43042336D01*
X138006884Y-43039533D01*
X138003224Y-43031684D01*
X137918316Y-42946776D01*
X137910468Y-42943116D01*
X137910466Y-42943115D01*
X137816356Y-42899231D01*
X137809487Y-42896028D01*
X137759901Y-42889500D01*
X137580028Y-42889500D01*
X137400100Y-42889501D01*
X137396890Y-42889924D01*
X137396883Y-42889924D01*
X137358025Y-42895039D01*
X137358024Y-42895039D01*
X137350513Y-42896028D01*
X137303787Y-42917817D01*
X137249534Y-42943115D01*
X137249532Y-42943116D01*
X137241684Y-42946776D01*
X137235562Y-42952898D01*
X137228461Y-42957870D01*
X137226571Y-42955171D01*
X137185750Y-42975970D01*
X137125318Y-42966399D01*
X137090629Y-42937006D01*
X137079039Y-42921314D01*
X137068684Y-42910959D01*
X136974167Y-42841147D01*
X136961234Y-42834300D01*
X136849073Y-42794912D01*
X136837371Y-42792344D01*
X136814886Y-42790218D01*
X136810250Y-42790000D01*
X136785680Y-42790000D01*
X136772995Y-42794122D01*
X136770000Y-42798243D01*
X136770000Y-44501000D01*
X136751093Y-44559191D01*
X136701593Y-44595155D01*
X136671000Y-44600000D01*
X136052973Y-44600000D01*
X135994782Y-44581093D01*
X135973759Y-44556101D01*
X135971891Y-44557438D01*
X135957730Y-44537658D01*
X135886848Y-44466899D01*
X135873706Y-44457526D01*
X135783278Y-44413324D01*
X135768769Y-44408839D01*
X135711722Y-44400517D01*
X135704595Y-44400000D01*
X135403180Y-44400000D01*
X135390495Y-44404122D01*
X135387500Y-44408243D01*
X135387500Y-44799682D01*
X135368593Y-44857873D01*
X135319093Y-44893837D01*
X135292218Y-44898612D01*
X135287545Y-44898788D01*
X135283214Y-44898950D01*
X135279506Y-44899020D01*
X135260032Y-44899020D01*
X135258315Y-44899340D01*
X135254834Y-44899500D01*
X134875326Y-44899500D01*
X134873654Y-44899833D01*
X134870249Y-44900000D01*
X134568157Y-44900000D01*
X134555472Y-44904122D01*
X134554655Y-44905246D01*
X134554143Y-44911320D01*
X134559006Y-44944355D01*
X134563517Y-44958873D01*
X134583709Y-45000000D01*
X134055500Y-45000000D01*
X134055500Y-44796927D01*
X134074407Y-44738736D01*
X134123907Y-44702772D01*
X134140084Y-44698982D01*
X134194356Y-44690994D01*
X134216221Y-44684200D01*
X134216835Y-44686177D01*
X134267048Y-44678988D01*
X134284331Y-44684588D01*
X134284386Y-44684409D01*
X134306228Y-44691160D01*
X134334483Y-44695282D01*
X134347632Y-44693035D01*
X134348626Y-44692016D01*
X134350000Y-44686136D01*
X134350000Y-44681843D01*
X134550000Y-44681843D01*
X134554495Y-44695677D01*
X134557936Y-44698580D01*
X134557984Y-44698626D01*
X134563864Y-44700000D01*
X135171820Y-44700000D01*
X135184505Y-44695878D01*
X135187500Y-44691757D01*
X135187500Y-44415681D01*
X135183378Y-44402996D01*
X135179257Y-44400001D01*
X134949000Y-44400001D01*
X134890809Y-44381094D01*
X134854845Y-44331594D01*
X134850000Y-44301001D01*
X134850000Y-44284320D01*
X136040000Y-44284320D01*
X136044122Y-44297005D01*
X136048243Y-44300000D01*
X136454320Y-44300000D01*
X136467005Y-44295878D01*
X136470000Y-44291757D01*
X136470000Y-43565680D01*
X136465878Y-43552995D01*
X136461757Y-43550000D01*
X136055681Y-43550000D01*
X136042996Y-43554122D01*
X136040001Y-43558243D01*
X136040001Y-43620247D01*
X136040220Y-43624890D01*
X136042345Y-43647374D01*
X136044910Y-43659070D01*
X136084300Y-43771234D01*
X136091147Y-43784167D01*
X136151725Y-43866182D01*
X136171089Y-43924222D01*
X136151725Y-43983818D01*
X136091147Y-44065833D01*
X136084300Y-44078766D01*
X136044912Y-44190927D01*
X136042344Y-44202629D01*
X136040218Y-44225114D01*
X136040000Y-44229750D01*
X136040000Y-44284320D01*
X134850000Y-44284320D01*
X134850000Y-44078180D01*
X134845878Y-44065495D01*
X134841757Y-44062500D01*
X134565680Y-44062500D01*
X134552995Y-44066622D01*
X134550000Y-44070743D01*
X134550000Y-44681843D01*
X134350000Y-44681843D01*
X134350000Y-44078180D01*
X134345878Y-44065495D01*
X134341757Y-44062500D01*
X134049500Y-44062500D01*
X133991309Y-44043593D01*
X133955345Y-43994093D01*
X133950500Y-43963500D01*
X133950500Y-43846820D01*
X134150000Y-43846820D01*
X134154122Y-43859505D01*
X134158243Y-43862500D01*
X134334320Y-43862500D01*
X134347005Y-43858378D01*
X134350000Y-43854257D01*
X134350000Y-43846820D01*
X134550000Y-43846820D01*
X134554122Y-43859505D01*
X134558243Y-43862500D01*
X134834319Y-43862500D01*
X134847004Y-43858378D01*
X134849999Y-43854257D01*
X134849999Y-43545443D01*
X134849472Y-43538246D01*
X134840994Y-43480645D01*
X134836483Y-43466127D01*
X134792127Y-43375784D01*
X134782730Y-43362658D01*
X134711848Y-43291899D01*
X134698706Y-43282526D01*
X134608274Y-43238322D01*
X134595327Y-43234320D01*
X136040000Y-43234320D01*
X136044122Y-43247005D01*
X136048243Y-43250000D01*
X136454320Y-43250000D01*
X136467005Y-43245878D01*
X136470000Y-43241757D01*
X136470000Y-42805681D01*
X136465878Y-42792996D01*
X136461630Y-42789909D01*
X136454514Y-42788782D01*
X136454897Y-42786364D01*
X136407899Y-42771094D01*
X136371935Y-42721594D01*
X136371935Y-42660408D01*
X136386457Y-42632183D01*
X136458853Y-42534167D01*
X136465700Y-42521234D01*
X136505088Y-42409073D01*
X136507656Y-42397371D01*
X136509782Y-42374886D01*
X136510000Y-42370250D01*
X136510000Y-42345680D01*
X136505878Y-42332995D01*
X136501757Y-42330000D01*
X136065680Y-42330000D01*
X136052995Y-42334122D01*
X136050000Y-42338243D01*
X136050000Y-42744319D01*
X136054122Y-42757004D01*
X136058243Y-42759999D01*
X136083910Y-42759999D01*
X136142101Y-42778906D01*
X136178065Y-42828406D01*
X136178065Y-42889592D01*
X136163543Y-42917817D01*
X136091147Y-43015833D01*
X136084300Y-43028766D01*
X136044912Y-43140927D01*
X136042344Y-43152629D01*
X136040218Y-43175114D01*
X136040000Y-43179750D01*
X136040000Y-43234320D01*
X134595327Y-43234320D01*
X134593774Y-43233840D01*
X134565517Y-43229718D01*
X134552368Y-43231965D01*
X134551374Y-43232984D01*
X134550000Y-43238864D01*
X134550000Y-43846820D01*
X134350000Y-43846820D01*
X134350000Y-43243157D01*
X134345878Y-43230472D01*
X134344754Y-43229655D01*
X134338680Y-43229143D01*
X134305645Y-43234006D01*
X134283779Y-43240800D01*
X134283165Y-43238823D01*
X134232952Y-43246012D01*
X134215669Y-43240412D01*
X134215614Y-43240591D01*
X134193772Y-43233840D01*
X134165517Y-43229718D01*
X134152368Y-43231965D01*
X134151374Y-43232984D01*
X134150000Y-43238864D01*
X134150000Y-43846820D01*
X133950500Y-43846820D01*
X133950500Y-43065508D01*
X133969407Y-43007317D01*
X133979496Y-42995504D01*
X134604753Y-42370247D01*
X135290001Y-42370247D01*
X135290220Y-42374890D01*
X135292345Y-42397374D01*
X135294910Y-42409070D01*
X135334300Y-42521234D01*
X135341147Y-42534167D01*
X135410959Y-42628684D01*
X135421316Y-42639041D01*
X135515833Y-42708853D01*
X135528766Y-42715700D01*
X135640927Y-42755088D01*
X135652629Y-42757656D01*
X135675114Y-42759782D01*
X135679750Y-42760000D01*
X135734320Y-42760000D01*
X135747005Y-42755878D01*
X135750000Y-42751757D01*
X135750000Y-42345680D01*
X135745878Y-42332995D01*
X135741757Y-42330000D01*
X135305681Y-42330000D01*
X135292996Y-42334122D01*
X135290001Y-42338243D01*
X135290001Y-42370247D01*
X134604753Y-42370247D01*
X135134000Y-41841000D01*
X135188517Y-41813223D01*
X135248949Y-41822794D01*
X135292214Y-41866059D01*
X135301785Y-41926491D01*
X135297412Y-41943804D01*
X135294913Y-41950920D01*
X135292344Y-41962629D01*
X135290218Y-41985114D01*
X135290000Y-41989750D01*
X135290000Y-42014320D01*
X135294122Y-42027005D01*
X135298243Y-42030000D01*
X136494319Y-42030000D01*
X136507004Y-42025878D01*
X136509999Y-42021757D01*
X136509999Y-41989753D01*
X136509780Y-41985110D01*
X136507655Y-41962626D01*
X136505090Y-41950930D01*
X136465700Y-41838766D01*
X136458853Y-41825833D01*
X136389041Y-41731316D01*
X136378686Y-41720961D01*
X136362994Y-41709371D01*
X136327419Y-41659591D01*
X136327899Y-41598407D01*
X136343790Y-41572701D01*
X136342130Y-41571539D01*
X136347102Y-41564438D01*
X136353224Y-41558316D01*
X136371877Y-41518316D01*
X136400769Y-41456356D01*
X136403972Y-41449487D01*
X136410500Y-41399901D01*
X136410499Y-41040100D01*
X136406271Y-41007975D01*
X136404961Y-40998025D01*
X136404961Y-40998024D01*
X136403972Y-40990513D01*
X136380980Y-40941208D01*
X136356885Y-40889534D01*
X136356884Y-40889532D01*
X136353224Y-40881684D01*
X136268316Y-40796776D01*
X136257664Y-40791809D01*
X136254840Y-40789176D01*
X136253372Y-40788148D01*
X136253516Y-40787942D01*
X136212915Y-40750083D01*
X136200500Y-40702083D01*
X136200500Y-40570934D01*
X136219407Y-40512743D01*
X136226102Y-40504498D01*
X136292717Y-40430902D01*
X136297449Y-40425674D01*
X136359959Y-40296653D01*
X136383745Y-40155274D01*
X136383896Y-40142920D01*
X136379616Y-40113034D01*
X136390083Y-40052752D01*
X136433984Y-40010133D01*
X136477616Y-40000000D01*
X142951000Y-40000000D01*
X143009191Y-40018907D01*
G37*
%TD.AperFunction*%
%TD*%
%TA.AperFunction,Conductor*%
%TO.N,+5V*%
G36*
X147700000Y-33404320D02*
G01*
X147704122Y-33417005D01*
X147708243Y-33420000D01*
X147794657Y-33420000D01*
X147799994Y-33419711D01*
X147839809Y-33415386D01*
X147899701Y-33427899D01*
X147940800Y-33473225D01*
X147949500Y-33513807D01*
X147949500Y-33579441D01*
X147930593Y-33637632D01*
X147924704Y-33644975D01*
X147864320Y-33713347D01*
X147864318Y-33713349D01*
X147859653Y-33718632D01*
X147798723Y-33848407D01*
X147797638Y-33855376D01*
X147797637Y-33855379D01*
X147791414Y-33895348D01*
X147776667Y-33990067D01*
X147795256Y-34132223D01*
X147798097Y-34138679D01*
X147798097Y-34138680D01*
X147833895Y-34220036D01*
X147852996Y-34263447D01*
X147866068Y-34278998D01*
X147940707Y-34367793D01*
X147940710Y-34367795D01*
X147945246Y-34373192D01*
X148064589Y-34452634D01*
X148155020Y-34480886D01*
X148194701Y-34493283D01*
X148194702Y-34493283D01*
X148201433Y-34495386D01*
X148273104Y-34496700D01*
X148337721Y-34497885D01*
X148337723Y-34497885D01*
X148344775Y-34498014D01*
X148351578Y-34496159D01*
X148351580Y-34496159D01*
X148426779Y-34475657D01*
X148483093Y-34460304D01*
X148549199Y-34419715D01*
X148608682Y-34405379D01*
X148665230Y-34428745D01*
X148697244Y-34480886D01*
X148700000Y-34504081D01*
X148700000Y-43706746D01*
X148681093Y-43764937D01*
X148668261Y-43779388D01*
X147487525Y-44872662D01*
X147431982Y-44898324D01*
X147420264Y-44899020D01*
X143899000Y-44899020D01*
X143840809Y-44880113D01*
X143804845Y-44830613D01*
X143800000Y-44800020D01*
X143800000Y-44122011D01*
X143818907Y-44063820D01*
X143868407Y-44027856D01*
X143909695Y-44023590D01*
X143920016Y-44024712D01*
X143925343Y-44025000D01*
X144234320Y-44025000D01*
X144247005Y-44020878D01*
X144250000Y-44016757D01*
X144250000Y-44009320D01*
X144750000Y-44009320D01*
X144754122Y-44022005D01*
X144758243Y-44025000D01*
X145074657Y-44025000D01*
X145079991Y-44024711D01*
X145132298Y-44019029D01*
X145144287Y-44016178D01*
X145265977Y-43970559D01*
X145280698Y-43962499D01*
X145340820Y-43951138D01*
X145367558Y-43958478D01*
X145379787Y-43963770D01*
X145524227Y-44005733D01*
X145534129Y-44007542D01*
X145534369Y-44007561D01*
X145547338Y-44004447D01*
X145549406Y-44002027D01*
X145550000Y-43999039D01*
X145550000Y-43993110D01*
X146050000Y-43993110D01*
X146054122Y-44005795D01*
X146056699Y-44007668D01*
X146059721Y-44008025D01*
X146065865Y-44007542D01*
X146075778Y-44005732D01*
X146220213Y-43963770D01*
X146231558Y-43958860D01*
X146360013Y-43882892D01*
X146369782Y-43875315D01*
X146475315Y-43769782D01*
X146482892Y-43760013D01*
X146558860Y-43631558D01*
X146563770Y-43620213D01*
X146600130Y-43495058D01*
X146599755Y-43483117D01*
X146589623Y-43480000D01*
X146065680Y-43480000D01*
X146052995Y-43484122D01*
X146050000Y-43488243D01*
X146050000Y-43993110D01*
X145550000Y-43993110D01*
X145550000Y-43495680D01*
X145545878Y-43482995D01*
X145541757Y-43480000D01*
X145015216Y-43480000D01*
X144957025Y-43461093D01*
X144941757Y-43450000D01*
X144765680Y-43450000D01*
X144752995Y-43454122D01*
X144750000Y-43458243D01*
X144750000Y-44009320D01*
X144250000Y-44009320D01*
X144250000Y-43049000D01*
X144268907Y-42990809D01*
X144318407Y-42954845D01*
X144349000Y-42950000D01*
X145504784Y-42950000D01*
X145562975Y-42968907D01*
X145578243Y-42980000D01*
X146588825Y-42980000D01*
X146600186Y-42976309D01*
X146600352Y-42965706D01*
X146563770Y-42839787D01*
X146558860Y-42828442D01*
X146482892Y-42699987D01*
X146475315Y-42690218D01*
X146369782Y-42584685D01*
X146360013Y-42577108D01*
X146354832Y-42574044D01*
X146314370Y-42528148D01*
X146307076Y-42475910D01*
X146310077Y-42453115D01*
X146310077Y-42453113D01*
X146310500Y-42449901D01*
X146310499Y-42090100D01*
X146303972Y-42040513D01*
X146253224Y-41931684D01*
X146168316Y-41846776D01*
X146160468Y-41843116D01*
X146160466Y-41843115D01*
X146066356Y-41799231D01*
X146059487Y-41796028D01*
X146009901Y-41789500D01*
X145976513Y-41789500D01*
X145627609Y-41789501D01*
X145569418Y-41770594D01*
X145533454Y-41721094D01*
X145529188Y-41679812D01*
X145529711Y-41674999D01*
X145530000Y-41669657D01*
X145530000Y-41565680D01*
X145525878Y-41552995D01*
X145521757Y-41550000D01*
X144349000Y-41550000D01*
X144290809Y-41531093D01*
X144254845Y-41481593D01*
X144250000Y-41451000D01*
X144250000Y-41034320D01*
X144750000Y-41034320D01*
X144754122Y-41047005D01*
X144758243Y-41050000D01*
X145514320Y-41050000D01*
X145527005Y-41045878D01*
X145530000Y-41041757D01*
X145530000Y-40930343D01*
X145529711Y-40925009D01*
X145524029Y-40872702D01*
X145521178Y-40860713D01*
X145475557Y-40739018D01*
X145468857Y-40726781D01*
X145391419Y-40623455D01*
X145381545Y-40613581D01*
X145278219Y-40536143D01*
X145265982Y-40529443D01*
X145144287Y-40483822D01*
X145132298Y-40480971D01*
X145079991Y-40475289D01*
X145074657Y-40475000D01*
X144765680Y-40475000D01*
X144752995Y-40479122D01*
X144750000Y-40483243D01*
X144750000Y-41034320D01*
X144250000Y-41034320D01*
X144250000Y-40490680D01*
X144245878Y-40477995D01*
X144241757Y-40475000D01*
X143925343Y-40475000D01*
X143920016Y-40475288D01*
X143909695Y-40476410D01*
X143849802Y-40463899D01*
X143808701Y-40418574D01*
X143800000Y-40377989D01*
X143800000Y-40016008D01*
X143818907Y-39957817D01*
X143828996Y-39946004D01*
X147050000Y-36725000D01*
X147050000Y-36289902D01*
X147050136Y-36286856D01*
X147050212Y-36286407D01*
X147050363Y-36274053D01*
X147050072Y-36272023D01*
X147050000Y-36269798D01*
X147050000Y-35285291D01*
X147059275Y-35243453D01*
X147060868Y-35240036D01*
X147060868Y-35240034D01*
X147064068Y-35233173D01*
X147070500Y-35184316D01*
X147070500Y-34835684D01*
X147064068Y-34786827D01*
X147060868Y-34779964D01*
X147059275Y-34776547D01*
X147050000Y-34734709D01*
X147050000Y-34265291D01*
X147059275Y-34223453D01*
X147060868Y-34220036D01*
X147060868Y-34220034D01*
X147064068Y-34213173D01*
X147070500Y-34164316D01*
X147070500Y-33815684D01*
X147064068Y-33766827D01*
X147059583Y-33757208D01*
X147059275Y-33756547D01*
X147050000Y-33714709D01*
X147050000Y-33519000D01*
X147068907Y-33460809D01*
X147118407Y-33424845D01*
X147149000Y-33420000D01*
X147184320Y-33420000D01*
X147197005Y-33415878D01*
X147200000Y-33411757D01*
X147200000Y-32900000D01*
X147700000Y-32900000D01*
X147700000Y-33404320D01*
G37*
%TD.AperFunction*%
%TD*%
%TA.AperFunction,Conductor*%
%TO.N,GND*%
G36*
X130891621Y-52170002D02*
G01*
X130938114Y-52223658D01*
X130949500Y-52276000D01*
X130949500Y-52573339D01*
X130929498Y-52641460D01*
X130912595Y-52662434D01*
X130204548Y-53370481D01*
X130202514Y-53372237D01*
X130197731Y-53374575D01*
X130189819Y-53383104D01*
X130189818Y-53383105D01*
X130164427Y-53410477D01*
X130161147Y-53413882D01*
X130147752Y-53427277D01*
X130145028Y-53431247D01*
X130142703Y-53433895D01*
X130129508Y-53448119D01*
X130129506Y-53448122D01*
X130121599Y-53456646D01*
X130117289Y-53467450D01*
X130114767Y-53471439D01*
X130109006Y-53482227D01*
X130107089Y-53486552D01*
X130100508Y-53496146D01*
X130097822Y-53507465D01*
X130097821Y-53507467D01*
X130094817Y-53520127D01*
X130089252Y-53537724D01*
X130083412Y-53552362D01*
X130080117Y-53560622D01*
X130079500Y-53566915D01*
X130079500Y-53569994D01*
X130079350Y-53573067D01*
X130079134Y-53573056D01*
X130077802Y-53584431D01*
X130077346Y-53593746D01*
X130074660Y-53605066D01*
X130076229Y-53616595D01*
X130076229Y-53616596D01*
X130078349Y-53632173D01*
X130079500Y-53649164D01*
X130079500Y-53763491D01*
X130059498Y-53831612D01*
X130005842Y-53878105D01*
X129935568Y-53888209D01*
X129889361Y-53871945D01*
X129826220Y-53834604D01*
X129811784Y-53828357D01*
X129691395Y-53793381D01*
X129677295Y-53793421D01*
X129674000Y-53800691D01*
X129674000Y-54728000D01*
X129653998Y-54796121D01*
X129600342Y-54842614D01*
X129548000Y-54854000D01*
X128651576Y-54854000D01*
X128636781Y-54858344D01*
X128634937Y-54868775D01*
X128636688Y-54878359D01*
X128678357Y-55021784D01*
X128684604Y-55036220D01*
X128759876Y-55163499D01*
X128769516Y-55175926D01*
X128874074Y-55280484D01*
X128886501Y-55290124D01*
X129013784Y-55365398D01*
X129023540Y-55369620D01*
X129078115Y-55415030D01*
X129099500Y-55485257D01*
X129099500Y-56869748D01*
X129111133Y-56928231D01*
X129118026Y-56938547D01*
X129155448Y-56994552D01*
X129152036Y-56996832D01*
X129175099Y-57039067D01*
X129170034Y-57109882D01*
X129127487Y-57166718D01*
X129096207Y-57183832D01*
X129061948Y-57196675D01*
X129046351Y-57205214D01*
X128944276Y-57281715D01*
X128931715Y-57294276D01*
X128855214Y-57396351D01*
X128846676Y-57411946D01*
X128801522Y-57532394D01*
X128797895Y-57547649D01*
X128792369Y-57598514D01*
X128792000Y-57605328D01*
X128792000Y-58077885D01*
X128796475Y-58093124D01*
X128797865Y-58094329D01*
X128805548Y-58096000D01*
X130028000Y-58096000D01*
X130096121Y-58116002D01*
X130142614Y-58169658D01*
X130154000Y-58222000D01*
X130154000Y-59539884D01*
X130158475Y-59555123D01*
X130159865Y-59556328D01*
X130167548Y-59557999D01*
X130544669Y-59557999D01*
X130551490Y-59557629D01*
X130602352Y-59552105D01*
X130617604Y-59548479D01*
X130738054Y-59503324D01*
X130753649Y-59494786D01*
X130855724Y-59418285D01*
X130868285Y-59405724D01*
X130946820Y-59300935D01*
X131003679Y-59258420D01*
X131047646Y-59250500D01*
X132219748Y-59250500D01*
X132225816Y-59249293D01*
X132266061Y-59241288D01*
X132266062Y-59241288D01*
X132278231Y-59238867D01*
X132344552Y-59194552D01*
X132388867Y-59128231D01*
X132400500Y-59069748D01*
X132400500Y-58530595D01*
X132420502Y-58462474D01*
X132474158Y-58415981D01*
X132544432Y-58405877D01*
X132590639Y-58422141D01*
X132663780Y-58465396D01*
X132678216Y-58471643D01*
X132821641Y-58513312D01*
X132829609Y-58514768D01*
X132843031Y-58511948D01*
X132846000Y-58500487D01*
X132846000Y-58498424D01*
X133354000Y-58498424D01*
X133358344Y-58513219D01*
X133368775Y-58515063D01*
X133378359Y-58513312D01*
X133521784Y-58471643D01*
X133536220Y-58465396D01*
X133663499Y-58390124D01*
X133675926Y-58380484D01*
X133780484Y-58275926D01*
X133790124Y-58263499D01*
X133865396Y-58136220D01*
X133871643Y-58121784D01*
X133906619Y-58001395D01*
X133906579Y-57987295D01*
X133899309Y-57984000D01*
X133372115Y-57984000D01*
X133356876Y-57988475D01*
X133355671Y-57989865D01*
X133354000Y-57997548D01*
X133354000Y-58498424D01*
X132846000Y-58498424D01*
X132846000Y-57602000D01*
X132866002Y-57533879D01*
X132919658Y-57487386D01*
X132972000Y-57476000D01*
X133893558Y-57476000D01*
X133907089Y-57472027D01*
X133908224Y-57464129D01*
X133871643Y-57338216D01*
X133865396Y-57323780D01*
X133790124Y-57196501D01*
X133780484Y-57184074D01*
X133675929Y-57079519D01*
X133658204Y-57065770D01*
X133616638Y-57008214D01*
X133609701Y-56957970D01*
X133609962Y-56953987D01*
X133610500Y-56949901D01*
X133610499Y-56590100D01*
X133603972Y-56540513D01*
X133553224Y-56431684D01*
X133468316Y-56346776D01*
X133458323Y-56342116D01*
X133454227Y-56339248D01*
X133409900Y-56283790D01*
X133400500Y-56236036D01*
X133400500Y-55862364D01*
X133400696Y-55859691D01*
X133402425Y-55854656D01*
X133400589Y-55805743D01*
X133400500Y-55801017D01*
X133400500Y-55782050D01*
X133399618Y-55777315D01*
X133399390Y-55773789D01*
X133398662Y-55754413D01*
X133398226Y-55742790D01*
X133393636Y-55732105D01*
X133392599Y-55727505D01*
X133389038Y-55715784D01*
X133387339Y-55711381D01*
X133385209Y-55699945D01*
X133372272Y-55678957D01*
X133363769Y-55662587D01*
X133357548Y-55648107D01*
X133357545Y-55648102D01*
X133354036Y-55639935D01*
X133350023Y-55635049D01*
X133347840Y-55632866D01*
X133345776Y-55630590D01*
X133345937Y-55630444D01*
X133338835Y-55621459D01*
X133332572Y-55614552D01*
X133326468Y-55604650D01*
X133304693Y-55588092D01*
X133291873Y-55576899D01*
X132498066Y-54783093D01*
X132464043Y-54720783D01*
X132469107Y-54649968D01*
X132511654Y-54593132D01*
X132578174Y-54568321D01*
X132587163Y-54568000D01*
X132652969Y-54568000D01*
X132657898Y-54567807D01*
X132685756Y-54565614D01*
X132698359Y-54563312D01*
X132841784Y-54521643D01*
X132856222Y-54515395D01*
X132870860Y-54506738D01*
X132939676Y-54489278D01*
X132999140Y-54506738D01*
X133013778Y-54515395D01*
X133028216Y-54521643D01*
X133171641Y-54563312D01*
X133179609Y-54564768D01*
X133193031Y-54561948D01*
X133196000Y-54550487D01*
X133196000Y-54548424D01*
X133704000Y-54548424D01*
X133708344Y-54563219D01*
X133718775Y-54565063D01*
X133728359Y-54563312D01*
X133871784Y-54521643D01*
X133886220Y-54515396D01*
X134013499Y-54440124D01*
X134025926Y-54430484D01*
X134130484Y-54325926D01*
X134140124Y-54313499D01*
X134215396Y-54186220D01*
X134221643Y-54171784D01*
X134256619Y-54051395D01*
X134256579Y-54037295D01*
X134249309Y-54034000D01*
X133722115Y-54034000D01*
X133706876Y-54038475D01*
X133705671Y-54039865D01*
X133704000Y-54047548D01*
X133704000Y-54548424D01*
X133196000Y-54548424D01*
X133196000Y-54052115D01*
X133191525Y-54036876D01*
X133190135Y-54035671D01*
X133182452Y-54034000D01*
X132292000Y-54034000D01*
X132223879Y-54013998D01*
X132177386Y-53960342D01*
X132166000Y-53908000D01*
X132166000Y-53652000D01*
X132186002Y-53583879D01*
X132239658Y-53537386D01*
X132292000Y-53526000D01*
X134243558Y-53526000D01*
X134257089Y-53522027D01*
X134258224Y-53514129D01*
X134221643Y-53388216D01*
X134215396Y-53373780D01*
X134140124Y-53246501D01*
X134130484Y-53234074D01*
X134025929Y-53129519D01*
X134008204Y-53115770D01*
X133966638Y-53058214D01*
X133959701Y-53007970D01*
X133959962Y-53003987D01*
X133960500Y-52999901D01*
X133960499Y-52689660D01*
X133980501Y-52621540D01*
X134034156Y-52575047D01*
X134104430Y-52564942D01*
X134169011Y-52594435D01*
X134175590Y-52600561D01*
X135046467Y-53471439D01*
X135912595Y-54337567D01*
X135946621Y-54399879D01*
X135949500Y-54426662D01*
X135949500Y-59273338D01*
X135929498Y-59341459D01*
X135912595Y-59362433D01*
X134562434Y-60712595D01*
X134500122Y-60746620D01*
X134473339Y-60749500D01*
X126226000Y-60749500D01*
X126157879Y-60729498D01*
X126111386Y-60675842D01*
X126100000Y-60623500D01*
X126100000Y-59094669D01*
X128792001Y-59094669D01*
X128792371Y-59101490D01*
X128797895Y-59152352D01*
X128801521Y-59167604D01*
X128846676Y-59288054D01*
X128855214Y-59303649D01*
X128931715Y-59405724D01*
X128944276Y-59418285D01*
X129046351Y-59494786D01*
X129061946Y-59503324D01*
X129182394Y-59548478D01*
X129197649Y-59552105D01*
X129248514Y-59557631D01*
X129255328Y-59558000D01*
X129627885Y-59558000D01*
X129643124Y-59553525D01*
X129644329Y-59552135D01*
X129646000Y-59544452D01*
X129646000Y-58622115D01*
X129641525Y-58606876D01*
X129640135Y-58605671D01*
X129632452Y-58604000D01*
X128810116Y-58604000D01*
X128794877Y-58608475D01*
X128793672Y-58609865D01*
X128792001Y-58617548D01*
X128792001Y-59094669D01*
X126100000Y-59094669D01*
X126100000Y-54329609D01*
X128635232Y-54329609D01*
X128638052Y-54343031D01*
X128649513Y-54346000D01*
X129147885Y-54346000D01*
X129163124Y-54341525D01*
X129164329Y-54340135D01*
X129166000Y-54332452D01*
X129166000Y-53806442D01*
X129162027Y-53792911D01*
X129154129Y-53791776D01*
X129028216Y-53828357D01*
X129013780Y-53834604D01*
X128886501Y-53909876D01*
X128874074Y-53919516D01*
X128769516Y-54024074D01*
X128759876Y-54036501D01*
X128684604Y-54163780D01*
X128678357Y-54178216D01*
X128636688Y-54321641D01*
X128635232Y-54329609D01*
X126100000Y-54329609D01*
X126100000Y-52276000D01*
X126120002Y-52207879D01*
X126173658Y-52161386D01*
X126226000Y-52150000D01*
X130823500Y-52150000D01*
X130891621Y-52170002D01*
G37*
%TD.AperFunction*%
%TD*%
%TA.AperFunction,Conductor*%
%TO.N,+3V3*%
G36*
X129173652Y-44600167D02*
G01*
X129175326Y-44600500D01*
X129324674Y-44600500D01*
X129326348Y-44600167D01*
X129329750Y-44600000D01*
X129570250Y-44600000D01*
X129573652Y-44600167D01*
X129575326Y-44600500D01*
X129724674Y-44600500D01*
X129726348Y-44600167D01*
X129729750Y-44600000D01*
X129970250Y-44600000D01*
X129973652Y-44600167D01*
X129975326Y-44600500D01*
X130124674Y-44600500D01*
X130126348Y-44600167D01*
X130129750Y-44600000D01*
X130370250Y-44600000D01*
X130373652Y-44600167D01*
X130375326Y-44600500D01*
X130524674Y-44600500D01*
X130526348Y-44600167D01*
X130529750Y-44600000D01*
X130770250Y-44600000D01*
X130773652Y-44600167D01*
X130775326Y-44600500D01*
X130924674Y-44600500D01*
X130926348Y-44600167D01*
X130929750Y-44600000D01*
X131170250Y-44600000D01*
X131173652Y-44600167D01*
X131175326Y-44600500D01*
X131324674Y-44600500D01*
X131326348Y-44600167D01*
X131329750Y-44600000D01*
X132620544Y-44600000D01*
X132668110Y-44617313D01*
X132693420Y-44661150D01*
X132693999Y-44674500D01*
X132694500Y-44674500D01*
X132694500Y-44720328D01*
X132677187Y-44767894D01*
X132633350Y-44793204D01*
X132620049Y-44794327D01*
X132605312Y-44794237D01*
X132588231Y-44794133D01*
X132587240Y-44794416D01*
X132586011Y-44794500D01*
X132474000Y-44794500D01*
X132466935Y-44794808D01*
X132461243Y-44795056D01*
X132461224Y-44795057D01*
X132460450Y-44795091D01*
X132447600Y-44796215D01*
X132443747Y-44797430D01*
X132443746Y-44797430D01*
X132410258Y-44807989D01*
X132383398Y-44816458D01*
X132339561Y-44841768D01*
X132338252Y-44842684D01*
X132338245Y-44842689D01*
X132326066Y-44851217D01*
X132317360Y-44857313D01*
X132271191Y-44923249D01*
X132253878Y-44970815D01*
X132253318Y-44973992D01*
X132253317Y-44973995D01*
X132251668Y-44983349D01*
X132226359Y-45027186D01*
X132178792Y-45044500D01*
X129674000Y-45044500D01*
X129666935Y-45044808D01*
X129661243Y-45045056D01*
X129661224Y-45045057D01*
X129660450Y-45045091D01*
X129647600Y-45046215D01*
X129643747Y-45047430D01*
X129643746Y-45047430D01*
X129628428Y-45052260D01*
X129583398Y-45066458D01*
X129539561Y-45091768D01*
X129538252Y-45092684D01*
X129538245Y-45092689D01*
X129526066Y-45101217D01*
X129517360Y-45107313D01*
X129471191Y-45173249D01*
X129453878Y-45220815D01*
X129444500Y-45274000D01*
X129444500Y-49576000D01*
X129445091Y-49589550D01*
X129446215Y-49602400D01*
X129466458Y-49666602D01*
X129491768Y-49710439D01*
X129507313Y-49732640D01*
X129573249Y-49778809D01*
X129620815Y-49796122D01*
X129623989Y-49796682D01*
X129623994Y-49796683D01*
X129649003Y-49801092D01*
X129674000Y-49805500D01*
X131967325Y-49805500D01*
X132014891Y-49822813D01*
X132031410Y-49842499D01*
X132041768Y-49860439D01*
X132057313Y-49882640D01*
X132062617Y-49886354D01*
X132118275Y-49925326D01*
X132123249Y-49928809D01*
X132170815Y-49946122D01*
X132173989Y-49946682D01*
X132173994Y-49946683D01*
X132199003Y-49951092D01*
X132224000Y-49955500D01*
X132416546Y-49955500D01*
X132424309Y-49956125D01*
X132427133Y-49957007D01*
X132432396Y-49957103D01*
X132432399Y-49957104D01*
X132492814Y-49958211D01*
X132556155Y-49959372D01*
X132561240Y-49957986D01*
X132566471Y-49957334D01*
X132566472Y-49957346D01*
X132580264Y-49955500D01*
X132776000Y-49955500D01*
X132783065Y-49955192D01*
X132788757Y-49954944D01*
X132788776Y-49954943D01*
X132789550Y-49954909D01*
X132802400Y-49953785D01*
X132806253Y-49952570D01*
X132806254Y-49952570D01*
X132862745Y-49934758D01*
X132862744Y-49934758D01*
X132866602Y-49933542D01*
X132910439Y-49908232D01*
X132911748Y-49907316D01*
X132911755Y-49907311D01*
X132927337Y-49896400D01*
X132932640Y-49892687D01*
X132937075Y-49886354D01*
X132976025Y-49830727D01*
X132978809Y-49826751D01*
X132996122Y-49779185D01*
X133005500Y-49726000D01*
X133005500Y-49224500D01*
X133022813Y-49176934D01*
X133066650Y-49151624D01*
X133079500Y-49150500D01*
X133349750Y-49150500D01*
X133362023Y-49149040D01*
X133369918Y-49148101D01*
X133369919Y-49148101D01*
X133375432Y-49147445D01*
X133380503Y-49145193D01*
X133380505Y-49145192D01*
X133469451Y-49105683D01*
X133475696Y-49102909D01*
X133526257Y-49052260D01*
X133548377Y-49030102D01*
X133548378Y-49030100D01*
X133553205Y-49025265D01*
X133597565Y-48924923D01*
X133600500Y-48899750D01*
X133600500Y-45900250D01*
X133599072Y-45888242D01*
X133610642Y-45838965D01*
X133651182Y-45808653D01*
X133672553Y-45805500D01*
X133776000Y-45805500D01*
X133783065Y-45805192D01*
X133788757Y-45804944D01*
X133788776Y-45804943D01*
X133789550Y-45804909D01*
X133802400Y-45803785D01*
X133806253Y-45802570D01*
X133806254Y-45802570D01*
X133862745Y-45784758D01*
X133862744Y-45784758D01*
X133866602Y-45783542D01*
X133910439Y-45758232D01*
X133911748Y-45757316D01*
X133911755Y-45757311D01*
X133927337Y-45746400D01*
X133932640Y-45742687D01*
X133978809Y-45676751D01*
X133996122Y-45629185D01*
X134005500Y-45576000D01*
X134005500Y-44774016D01*
X133998804Y-44728876D01*
X133986333Y-44687765D01*
X133985176Y-44685318D01*
X133985173Y-44685311D01*
X133967989Y-44648979D01*
X133966825Y-44646517D01*
X133965312Y-44644253D01*
X133964921Y-44643562D01*
X133959006Y-44629500D01*
X133958952Y-44629227D01*
X133954394Y-44617313D01*
X133947770Y-44600000D01*
X134650000Y-44600000D01*
X134650000Y-45120250D01*
X134649833Y-45123652D01*
X134649500Y-45125326D01*
X134649500Y-45274674D01*
X134649833Y-45276348D01*
X134650000Y-45279750D01*
X134650000Y-45520250D01*
X134649833Y-45523652D01*
X134649500Y-45525326D01*
X134649500Y-45674674D01*
X134649833Y-45676348D01*
X134650000Y-45679750D01*
X134650000Y-45920250D01*
X134649833Y-45923652D01*
X134649500Y-45925326D01*
X134649500Y-46074674D01*
X134649833Y-46076348D01*
X134650000Y-46079750D01*
X134650000Y-46320250D01*
X134649833Y-46323652D01*
X134649500Y-46325326D01*
X134649500Y-46474674D01*
X134649833Y-46476348D01*
X134650000Y-46479750D01*
X134650000Y-46720250D01*
X134649833Y-46723652D01*
X134649500Y-46725326D01*
X134649500Y-46874674D01*
X134649833Y-46876348D01*
X134650000Y-46879750D01*
X134650000Y-47120250D01*
X134649833Y-47123652D01*
X134649500Y-47125326D01*
X134649500Y-47274674D01*
X134649833Y-47276348D01*
X134650000Y-47279750D01*
X134650000Y-47520250D01*
X134649833Y-47523652D01*
X134649500Y-47525326D01*
X134649500Y-47674674D01*
X134649833Y-47676348D01*
X134650000Y-47679750D01*
X134650000Y-47920250D01*
X134649833Y-47923652D01*
X134649500Y-47925326D01*
X134649500Y-48074674D01*
X134649833Y-48076348D01*
X134650000Y-48079750D01*
X134650000Y-48720250D01*
X134649833Y-48723652D01*
X134649500Y-48725326D01*
X134649500Y-48874674D01*
X134649833Y-48876348D01*
X134650000Y-48879750D01*
X134650000Y-49120250D01*
X134649833Y-49123652D01*
X134649500Y-49125326D01*
X134649500Y-49274674D01*
X134649833Y-49276348D01*
X134650000Y-49279750D01*
X134650000Y-49520250D01*
X134649833Y-49523652D01*
X134649500Y-49525326D01*
X134649500Y-49674674D01*
X134649833Y-49676348D01*
X134650000Y-49679750D01*
X134650000Y-49920250D01*
X134649833Y-49923652D01*
X134649500Y-49925326D01*
X134649500Y-50074674D01*
X134649833Y-50076348D01*
X134650000Y-50079750D01*
X134650000Y-50126000D01*
X134632687Y-50173566D01*
X134588850Y-50198876D01*
X134576000Y-50200000D01*
X134529750Y-50200000D01*
X134526348Y-50199833D01*
X134524674Y-50199500D01*
X134375326Y-50199500D01*
X134373652Y-50199833D01*
X134370250Y-50200000D01*
X134129750Y-50200000D01*
X134126348Y-50199833D01*
X134124674Y-50199500D01*
X133975326Y-50199500D01*
X133973652Y-50199833D01*
X133970250Y-50200000D01*
X133729750Y-50200000D01*
X133726348Y-50199833D01*
X133724674Y-50199500D01*
X133575326Y-50199500D01*
X133573652Y-50199833D01*
X133570250Y-50200000D01*
X133329750Y-50200000D01*
X133326348Y-50199833D01*
X133324674Y-50199500D01*
X133175326Y-50199500D01*
X133173652Y-50199833D01*
X133170250Y-50200000D01*
X132929750Y-50200000D01*
X132926348Y-50199833D01*
X132924674Y-50199500D01*
X132775326Y-50199500D01*
X132773652Y-50199833D01*
X132770250Y-50200000D01*
X131729750Y-50200000D01*
X131726348Y-50199833D01*
X131724674Y-50199500D01*
X131575326Y-50199500D01*
X131573652Y-50199833D01*
X131570250Y-50200000D01*
X131329750Y-50200000D01*
X131326348Y-50199833D01*
X131324674Y-50199500D01*
X131175326Y-50199500D01*
X131173652Y-50199833D01*
X131170250Y-50200000D01*
X130529750Y-50200000D01*
X130526348Y-50199833D01*
X130524674Y-50199500D01*
X130375326Y-50199500D01*
X130373652Y-50199833D01*
X130370250Y-50200000D01*
X130129750Y-50200000D01*
X130126348Y-50199833D01*
X130124674Y-50199500D01*
X129975326Y-50199500D01*
X129973652Y-50199833D01*
X129970250Y-50200000D01*
X129729750Y-50200000D01*
X129726348Y-50199833D01*
X129724674Y-50199500D01*
X129575326Y-50199500D01*
X129573652Y-50199833D01*
X129570250Y-50200000D01*
X129329750Y-50200000D01*
X129326348Y-50199833D01*
X129324674Y-50199500D01*
X129175326Y-50199500D01*
X129173652Y-50199833D01*
X129170250Y-50200000D01*
X129124000Y-50200000D01*
X129076434Y-50182687D01*
X129051124Y-50138850D01*
X129050000Y-50126000D01*
X129050000Y-50079750D01*
X129050167Y-50076348D01*
X129050500Y-50074674D01*
X129050500Y-49925326D01*
X129050167Y-49923652D01*
X129050000Y-49920250D01*
X129050000Y-49679750D01*
X129050167Y-49676348D01*
X129050500Y-49674674D01*
X129050500Y-49525326D01*
X129050167Y-49523652D01*
X129050000Y-49520250D01*
X129050000Y-49279750D01*
X129050167Y-49276348D01*
X129050500Y-49274674D01*
X129050500Y-49125326D01*
X129050167Y-49123652D01*
X129050000Y-49120250D01*
X129050000Y-48879750D01*
X129050167Y-48876348D01*
X129050500Y-48874674D01*
X129050500Y-48725326D01*
X129050167Y-48723652D01*
X129050000Y-48720250D01*
X129050000Y-48079750D01*
X129050167Y-48076348D01*
X129050500Y-48074674D01*
X129050500Y-47925326D01*
X129050167Y-47923652D01*
X129050000Y-47920250D01*
X129050000Y-47679750D01*
X129050167Y-47676348D01*
X129050500Y-47674674D01*
X129050500Y-47525326D01*
X129050167Y-47523652D01*
X129050000Y-47520250D01*
X129050000Y-47279750D01*
X129050167Y-47276348D01*
X129050500Y-47274674D01*
X129050500Y-47125326D01*
X129050167Y-47123652D01*
X129050000Y-47120250D01*
X129050000Y-46879750D01*
X129050167Y-46876348D01*
X129050500Y-46874674D01*
X129050500Y-46725326D01*
X129050167Y-46723652D01*
X129050000Y-46720250D01*
X129050000Y-46479750D01*
X129050167Y-46476348D01*
X129050500Y-46474674D01*
X129050500Y-46325326D01*
X129050167Y-46323652D01*
X129050000Y-46320250D01*
X129050000Y-46079750D01*
X129050167Y-46076348D01*
X129050500Y-46074674D01*
X129050500Y-45925326D01*
X129050167Y-45923652D01*
X129050000Y-45920250D01*
X129050000Y-45679750D01*
X129050167Y-45676348D01*
X129050500Y-45674674D01*
X129050500Y-45525326D01*
X129050167Y-45523652D01*
X129050000Y-45520250D01*
X129050000Y-45279750D01*
X129050167Y-45276348D01*
X129050500Y-45274674D01*
X129050500Y-45125326D01*
X129050167Y-45123652D01*
X129050000Y-45120250D01*
X129050000Y-44674000D01*
X129067313Y-44626434D01*
X129111150Y-44601124D01*
X129124000Y-44600000D01*
X129170250Y-44600000D01*
X129173652Y-44600167D01*
G37*
%TD.AperFunction*%
%TD*%
%TA.AperFunction,Conductor*%
%TO.N,GND*%
G36*
X150258691Y-25719407D02*
G01*
X150294655Y-25768907D01*
X150299500Y-25799500D01*
X150299500Y-26597669D01*
X150280593Y-26655860D01*
X150231093Y-26691824D01*
X150169907Y-26691824D01*
X150120407Y-26655860D01*
X150103960Y-26619603D01*
X150103234Y-26616409D01*
X150047851Y-26457371D01*
X150043099Y-26447452D01*
X149953854Y-26304630D01*
X149947024Y-26296013D01*
X149828355Y-26176512D01*
X149819779Y-26169618D01*
X149677590Y-26079381D01*
X149667704Y-26074559D01*
X149509048Y-26018064D01*
X149498346Y-26015554D01*
X149485569Y-26014031D01*
X149472484Y-26016621D01*
X149471046Y-26018175D01*
X149470000Y-26022931D01*
X149470000Y-28173006D01*
X149474122Y-28185691D01*
X149476137Y-28187156D01*
X149480348Y-28187598D01*
X149487373Y-28186860D01*
X149498114Y-28184498D01*
X149657536Y-28130227D01*
X149667496Y-28125540D01*
X149810931Y-28037299D01*
X149819599Y-28030527D01*
X149939925Y-27912694D01*
X149946876Y-27904171D01*
X150038108Y-27762609D01*
X150042995Y-27752763D01*
X150100596Y-27594504D01*
X150104275Y-27579296D01*
X150136334Y-27527182D01*
X150192902Y-27503864D01*
X150252372Y-27518249D01*
X150292029Y-27564843D01*
X150299500Y-27602572D01*
X150299500Y-28965983D01*
X150296982Y-28988169D01*
X150294344Y-28999641D01*
X150296515Y-29009234D01*
X150296801Y-29012867D01*
X150296798Y-29014527D01*
X150297075Y-29016351D01*
X150308064Y-29155975D01*
X150310614Y-29188380D01*
X150354726Y-29372122D01*
X150356213Y-29375712D01*
X150425551Y-29543110D01*
X150425554Y-29543116D01*
X150427039Y-29546701D01*
X150429068Y-29550012D01*
X150429070Y-29550016D01*
X150485411Y-29641955D01*
X150500000Y-29693683D01*
X150500000Y-32101000D01*
X150481093Y-32159191D01*
X150431593Y-32195155D01*
X150401000Y-32200000D01*
X150178108Y-32200000D01*
X150119917Y-32181093D01*
X150083953Y-32131593D01*
X150085079Y-32067140D01*
X150100594Y-32024512D01*
X150103183Y-32013810D01*
X150119610Y-31883775D01*
X150120000Y-31877587D01*
X150120000Y-31445680D01*
X150115878Y-31432995D01*
X150111757Y-31430000D01*
X149269000Y-31430000D01*
X149210809Y-31411093D01*
X149174845Y-31361593D01*
X149170000Y-31331000D01*
X149170000Y-31114320D01*
X149470000Y-31114320D01*
X149474122Y-31127005D01*
X149478243Y-31130000D01*
X150104320Y-31130000D01*
X150117005Y-31125878D01*
X150120000Y-31121757D01*
X150120000Y-30687644D01*
X150119691Y-30682115D01*
X150105673Y-30557145D01*
X150103234Y-30546408D01*
X150047851Y-30387371D01*
X150043099Y-30377452D01*
X149953854Y-30234630D01*
X149947024Y-30226013D01*
X149828355Y-30106512D01*
X149819779Y-30099618D01*
X149677590Y-30009381D01*
X149667704Y-30004559D01*
X149509048Y-29948064D01*
X149498346Y-29945554D01*
X149485569Y-29944031D01*
X149472484Y-29946621D01*
X149471046Y-29948175D01*
X149470000Y-29952931D01*
X149470000Y-31114320D01*
X149170000Y-31114320D01*
X149170000Y-29956994D01*
X149165878Y-29944309D01*
X149163863Y-29942844D01*
X149159652Y-29942402D01*
X149152627Y-29943140D01*
X149141886Y-29945502D01*
X148982464Y-29999773D01*
X148972504Y-30004460D01*
X148829069Y-30092701D01*
X148820401Y-30099473D01*
X148700075Y-30217306D01*
X148693124Y-30225829D01*
X148601892Y-30367391D01*
X148597005Y-30377237D01*
X148571819Y-30446435D01*
X148534149Y-30494650D01*
X148475334Y-30511515D01*
X148417839Y-30490588D01*
X148394201Y-30463396D01*
X148392698Y-30459767D01*
X148300451Y-30339549D01*
X148295302Y-30335598D01*
X148185379Y-30251250D01*
X148185375Y-30251248D01*
X148180233Y-30247302D01*
X148174244Y-30244821D01*
X148174240Y-30244819D01*
X148046233Y-30191797D01*
X148040236Y-30189313D01*
X147927720Y-30174500D01*
X147852280Y-30174500D01*
X147739764Y-30189313D01*
X147733767Y-30191797D01*
X147605760Y-30244819D01*
X147605756Y-30244821D01*
X147599767Y-30247302D01*
X147594625Y-30251248D01*
X147594621Y-30251250D01*
X147484698Y-30335598D01*
X147479549Y-30339549D01*
X147475598Y-30344698D01*
X147391250Y-30454621D01*
X147391248Y-30454625D01*
X147387302Y-30459767D01*
X147365867Y-30511515D01*
X147357849Y-30530873D01*
X147318112Y-30577398D01*
X147258618Y-30591682D01*
X147202090Y-30568267D01*
X147196381Y-30562991D01*
X147099150Y-30465760D01*
X146877908Y-30244517D01*
X146877904Y-30244514D01*
X146855341Y-30221951D01*
X146833845Y-30210999D01*
X146820604Y-30202884D01*
X146807394Y-30193286D01*
X146801089Y-30188705D01*
X146793678Y-30186297D01*
X146778142Y-30181249D01*
X146763793Y-30175305D01*
X146742303Y-30164355D01*
X146734610Y-30163137D01*
X146734608Y-30163136D01*
X146718480Y-30160582D01*
X146703379Y-30156957D01*
X146680432Y-30149501D01*
X143351482Y-30149501D01*
X143351478Y-30149502D01*
X143319568Y-30149502D01*
X143312161Y-30151908D01*
X143312158Y-30151909D01*
X143296628Y-30156955D01*
X143281526Y-30160581D01*
X143257697Y-30164355D01*
X143236211Y-30175303D01*
X143236207Y-30175305D01*
X143221857Y-30181250D01*
X143198911Y-30188705D01*
X143179387Y-30202890D01*
X143166157Y-30210997D01*
X143144659Y-30221951D01*
X142803619Y-30562991D01*
X142749102Y-30590768D01*
X142688670Y-30581197D01*
X142645405Y-30537932D01*
X142642151Y-30530873D01*
X142634133Y-30511515D01*
X142612698Y-30459767D01*
X142608752Y-30454625D01*
X142608750Y-30454621D01*
X142524402Y-30344698D01*
X142520451Y-30339549D01*
X142515302Y-30335598D01*
X142405379Y-30251250D01*
X142405375Y-30251248D01*
X142400233Y-30247302D01*
X142394244Y-30244821D01*
X142394240Y-30244819D01*
X142266233Y-30191797D01*
X142260236Y-30189313D01*
X142147720Y-30174500D01*
X142072280Y-30174500D01*
X141959764Y-30189313D01*
X141953767Y-30191797D01*
X141825760Y-30244819D01*
X141825756Y-30244821D01*
X141819767Y-30247302D01*
X141814625Y-30251248D01*
X141814621Y-30251250D01*
X141704698Y-30335598D01*
X141699549Y-30339549D01*
X141607302Y-30459767D01*
X141606074Y-30462731D01*
X141561637Y-30502746D01*
X141500787Y-30509144D01*
X141447797Y-30478554D01*
X141427873Y-30444865D01*
X141407851Y-30387371D01*
X141403099Y-30377452D01*
X141313854Y-30234630D01*
X141307024Y-30226013D01*
X141188355Y-30106512D01*
X141179779Y-30099618D01*
X141037590Y-30009381D01*
X141027704Y-30004559D01*
X140869048Y-29948064D01*
X140858346Y-29945554D01*
X140845569Y-29944031D01*
X140832484Y-29946621D01*
X140831046Y-29948175D01*
X140830000Y-29952931D01*
X140830000Y-31331000D01*
X140811093Y-31389191D01*
X140761593Y-31425155D01*
X140731000Y-31430000D01*
X139895680Y-31430000D01*
X139882995Y-31434122D01*
X139880000Y-31438243D01*
X139880000Y-31872356D01*
X139880309Y-31877885D01*
X139894327Y-32002855D01*
X139896766Y-32013592D01*
X139915867Y-32068442D01*
X139917149Y-32129614D01*
X139882230Y-32179856D01*
X139822374Y-32200000D01*
X139599000Y-32200000D01*
X139540809Y-32181093D01*
X139504845Y-32131593D01*
X139500000Y-32101000D01*
X139500000Y-31114320D01*
X139880000Y-31114320D01*
X139884122Y-31127005D01*
X139888243Y-31130000D01*
X140514320Y-31130000D01*
X140527005Y-31125878D01*
X140530000Y-31121757D01*
X140530000Y-29956994D01*
X140525878Y-29944309D01*
X140523863Y-29942844D01*
X140519652Y-29942402D01*
X140512627Y-29943140D01*
X140501886Y-29945502D01*
X140342464Y-29999773D01*
X140332504Y-30004460D01*
X140189069Y-30092701D01*
X140180401Y-30099473D01*
X140060075Y-30217306D01*
X140053124Y-30225829D01*
X139961892Y-30367391D01*
X139957005Y-30377237D01*
X139899404Y-30535496D01*
X139896817Y-30546190D01*
X139880390Y-30676225D01*
X139880000Y-30682413D01*
X139880000Y-31114320D01*
X139500000Y-31114320D01*
X139500000Y-29693683D01*
X139514589Y-29641955D01*
X139570930Y-29550016D01*
X139570932Y-29550012D01*
X139572961Y-29546701D01*
X139574446Y-29543116D01*
X139574449Y-29543110D01*
X139643787Y-29375712D01*
X139645274Y-29372122D01*
X139689386Y-29188380D01*
X139691937Y-29155975D01*
X139702805Y-29017887D01*
X139703752Y-29011752D01*
X139703748Y-29011752D01*
X139704389Y-29006180D01*
X139705655Y-29000718D01*
X139705656Y-29000000D01*
X139704412Y-28994545D01*
X139702980Y-28988266D01*
X139700500Y-28966248D01*
X139700500Y-27602331D01*
X139719407Y-27544140D01*
X139768907Y-27508176D01*
X139830093Y-27508176D01*
X139879593Y-27544140D01*
X139896040Y-27580397D01*
X139896766Y-27583591D01*
X139952149Y-27742629D01*
X139956901Y-27752548D01*
X140046146Y-27895370D01*
X140052976Y-27903987D01*
X140171645Y-28023488D01*
X140180221Y-28030382D01*
X140322410Y-28120619D01*
X140332296Y-28125441D01*
X140490952Y-28181936D01*
X140501654Y-28184446D01*
X140514431Y-28185969D01*
X140527516Y-28183379D01*
X140528954Y-28181825D01*
X140530000Y-28177069D01*
X140530000Y-28173006D01*
X140830000Y-28173006D01*
X140834122Y-28185691D01*
X140836137Y-28187156D01*
X140840348Y-28187598D01*
X140847373Y-28186860D01*
X140858114Y-28184498D01*
X141017536Y-28130227D01*
X141027496Y-28125540D01*
X141170931Y-28037299D01*
X141179599Y-28030527D01*
X141299925Y-27912694D01*
X141306876Y-27904171D01*
X141398108Y-27762609D01*
X141402995Y-27752763D01*
X141460596Y-27594504D01*
X141463183Y-27583810D01*
X141479610Y-27453775D01*
X141480000Y-27447587D01*
X141480000Y-27442356D01*
X148520000Y-27442356D01*
X148520309Y-27447885D01*
X148534327Y-27572855D01*
X148536766Y-27583592D01*
X148592149Y-27742629D01*
X148596901Y-27752548D01*
X148686146Y-27895370D01*
X148692976Y-27903987D01*
X148811645Y-28023488D01*
X148820221Y-28030382D01*
X148962410Y-28120619D01*
X148972296Y-28125441D01*
X149130952Y-28181936D01*
X149141654Y-28184446D01*
X149154431Y-28185969D01*
X149167516Y-28183379D01*
X149168954Y-28181825D01*
X149170000Y-28177069D01*
X149170000Y-27265680D01*
X149165878Y-27252995D01*
X149161757Y-27250000D01*
X148535680Y-27250000D01*
X148522995Y-27254122D01*
X148520000Y-27258243D01*
X148520000Y-27442356D01*
X141480000Y-27442356D01*
X141480000Y-27265680D01*
X141475878Y-27252995D01*
X141471757Y-27250000D01*
X140845680Y-27250000D01*
X140832995Y-27254122D01*
X140830000Y-27258243D01*
X140830000Y-28173006D01*
X140530000Y-28173006D01*
X140530000Y-26934320D01*
X140830000Y-26934320D01*
X140834122Y-26947005D01*
X140838243Y-26950000D01*
X141464320Y-26950000D01*
X141477005Y-26945878D01*
X141480000Y-26941757D01*
X141480000Y-26934320D01*
X148520000Y-26934320D01*
X148524122Y-26947005D01*
X148528243Y-26950000D01*
X149154320Y-26950000D01*
X149167005Y-26945878D01*
X149170000Y-26941757D01*
X149170000Y-26026994D01*
X149165878Y-26014309D01*
X149163863Y-26012844D01*
X149159652Y-26012402D01*
X149152627Y-26013140D01*
X149141886Y-26015502D01*
X148982464Y-26069773D01*
X148972504Y-26074460D01*
X148829069Y-26162701D01*
X148820401Y-26169473D01*
X148700075Y-26287306D01*
X148693124Y-26295829D01*
X148601892Y-26437391D01*
X148597005Y-26447237D01*
X148539404Y-26605496D01*
X148536817Y-26616190D01*
X148520390Y-26746225D01*
X148520000Y-26752413D01*
X148520000Y-26934320D01*
X141480000Y-26934320D01*
X141480000Y-26757644D01*
X141479691Y-26752115D01*
X141465673Y-26627145D01*
X141463234Y-26616408D01*
X141407851Y-26457371D01*
X141403099Y-26447452D01*
X141313854Y-26304630D01*
X141307024Y-26296013D01*
X141188355Y-26176512D01*
X141179779Y-26169618D01*
X141037590Y-26079381D01*
X141027704Y-26074559D01*
X140869048Y-26018064D01*
X140858346Y-26015554D01*
X140845569Y-26014031D01*
X140832484Y-26016621D01*
X140831046Y-26018175D01*
X140830000Y-26022931D01*
X140830000Y-26934320D01*
X140530000Y-26934320D01*
X140530000Y-26026994D01*
X140525878Y-26014309D01*
X140523863Y-26012844D01*
X140519652Y-26012402D01*
X140512627Y-26013140D01*
X140501886Y-26015502D01*
X140342464Y-26069773D01*
X140332504Y-26074460D01*
X140189069Y-26162701D01*
X140180401Y-26169473D01*
X140060075Y-26287306D01*
X140053124Y-26295829D01*
X139961892Y-26437391D01*
X139957005Y-26447237D01*
X139899404Y-26605496D01*
X139895725Y-26620704D01*
X139863666Y-26672818D01*
X139807098Y-26696136D01*
X139747628Y-26681751D01*
X139707971Y-26635157D01*
X139700500Y-26597428D01*
X139700500Y-25799500D01*
X139719407Y-25741309D01*
X139768907Y-25705345D01*
X139799500Y-25700500D01*
X150200500Y-25700500D01*
X150258691Y-25719407D01*
G37*
%TD.AperFunction*%
%TD*%
M02*
