%TF.GenerationSoftware,KiCad,Pcbnew,(6.0.4)*%
%TF.CreationDate,2022-04-24T23:02:38-04:00*%
%TF.ProjectId,Flatbox-rev4-rgb-kicad-WS2812B-4020,466c6174-626f-4782-9d72-6576342d7267,rev?*%
%TF.SameCoordinates,Original*%
%TF.FileFunction,Soldermask,Bot*%
%TF.FilePolarity,Negative*%
%FSLAX46Y46*%
G04 Gerber Fmt 4.6, Leading zero omitted, Abs format (unit mm)*
G04 Created by KiCad (PCBNEW (6.0.4)) date 2022-04-24 23:02:38*
%MOMM*%
%LPD*%
G01*
G04 APERTURE LIST*
%ADD10C,3.429000*%
%ADD11C,1.701800*%
%ADD12C,3.000000*%
%ADD13C,0.990600*%
%ADD14R,2.600000X2.600000*%
%ADD15C,2.000000*%
%ADD16C,0.650000*%
%ADD17O,1.000000X1.600000*%
%ADD18O,1.000000X2.100000*%
%ADD19C,6.400000*%
G04 APERTURE END LIST*
D10*
%TO.C,SW8*%
X87320000Y-65170000D03*
D11*
X81820000Y-65170000D03*
X92820000Y-65170000D03*
D12*
X92320000Y-61420000D03*
D13*
X82100000Y-69370000D03*
D12*
X87320000Y-59220000D03*
D14*
X84045000Y-59220000D03*
X95595000Y-61420000D03*
%TD*%
D12*
%TO.C,SW9*%
X113920000Y-70570000D03*
D10*
X113920000Y-76520000D03*
D11*
X108420000Y-76520000D03*
D12*
X118920000Y-72770000D03*
D11*
X119420000Y-76520000D03*
D13*
X108700000Y-80720000D03*
D14*
X110645000Y-70570000D03*
X122195000Y-72770000D03*
%TD*%
D13*
%TO.C,SW18*%
X126200000Y-133820000D03*
D11*
X125920000Y-129620000D03*
D12*
X131420000Y-123670000D03*
X136420000Y-125870000D03*
D11*
X136920000Y-129620000D03*
D10*
X131420000Y-129620000D03*
D14*
X128145000Y-123670000D03*
X139695000Y-125870000D03*
%TD*%
D10*
%TO.C,SW10*%
X148860000Y-65110000D03*
D12*
X148860000Y-59160000D03*
D13*
X143640000Y-69310000D03*
D11*
X154360000Y-65110000D03*
X143360000Y-65110000D03*
D12*
X153860000Y-61360000D03*
D14*
X145585000Y-59160000D03*
X157135000Y-61360000D03*
%TD*%
D10*
%TO.C,SW11*%
X175420000Y-53580000D03*
D12*
X180420000Y-49830000D03*
X175420000Y-47630000D03*
D13*
X170200000Y-57780000D03*
D11*
X180920000Y-53580000D03*
X169920000Y-53580000D03*
D14*
X172145000Y-47630000D03*
X183695000Y-49830000D03*
%TD*%
D10*
%TO.C,SW12*%
X204390000Y-53460000D03*
D12*
X209390000Y-49710000D03*
D13*
X199170000Y-57660000D03*
D11*
X209890000Y-53460000D03*
D12*
X204390000Y-47510000D03*
D11*
X198890000Y-53460000D03*
D14*
X201115000Y-47510000D03*
X212665000Y-49710000D03*
%TD*%
D11*
%TO.C,SW13*%
X227860000Y-53700000D03*
D12*
X233360000Y-47750000D03*
D13*
X228140000Y-57900000D03*
D11*
X238860000Y-53700000D03*
D10*
X233360000Y-53700000D03*
D12*
X238360000Y-49950000D03*
D14*
X230085000Y-47750000D03*
X241635000Y-49950000D03*
%TD*%
D10*
%TO.C,SW14*%
X143250000Y-96150000D03*
D12*
X143250000Y-90200000D03*
D11*
X137750000Y-96150000D03*
X148750000Y-96150000D03*
D12*
X148250000Y-92400000D03*
D13*
X138030000Y-100350000D03*
D14*
X139975000Y-90200000D03*
X151525000Y-92400000D03*
%TD*%
D11*
%TO.C,SW15*%
X164360000Y-85040000D03*
D12*
X174860000Y-81290000D03*
D10*
X169860000Y-85040000D03*
D13*
X164640000Y-89240000D03*
D12*
X169860000Y-79090000D03*
D11*
X175360000Y-85040000D03*
D14*
X166585000Y-79090000D03*
X178135000Y-81290000D03*
%TD*%
D12*
%TO.C,SW16*%
X203710000Y-81290000D03*
D13*
X193490000Y-89240000D03*
D12*
X198710000Y-79090000D03*
D11*
X204210000Y-85040000D03*
D10*
X198710000Y-85040000D03*
D11*
X193210000Y-85040000D03*
D14*
X195435000Y-79090000D03*
X206985000Y-81290000D03*
%TD*%
D11*
%TO.C,SW17*%
X222420000Y-85040000D03*
X233420000Y-85040000D03*
D12*
X227920000Y-79090000D03*
X232920000Y-81290000D03*
D13*
X222700000Y-89240000D03*
D10*
X227920000Y-85040000D03*
D14*
X224645000Y-79090000D03*
X236195000Y-81290000D03*
%TD*%
D11*
%TO.C,SW7*%
X52725000Y-65050000D03*
D10*
X58225000Y-65050000D03*
D11*
X63725000Y-65050000D03*
D12*
X58225000Y-59100000D03*
D13*
X53005000Y-69250000D03*
D12*
X63225000Y-61300000D03*
D14*
X54950000Y-59100000D03*
X66500000Y-61300000D03*
%TD*%
D15*
%TO.C,SW4*%
X88500000Y-43000000D03*
X88500000Y-36500000D03*
X93000000Y-43000000D03*
X93000000Y-36500000D03*
%TD*%
%TO.C,SW2*%
X65500000Y-43000000D03*
X65500000Y-36500000D03*
X70000000Y-36500000D03*
X70000000Y-43000000D03*
%TD*%
%TO.C,SW5*%
X98500000Y-36500000D03*
X98500000Y-43000000D03*
X103000000Y-36500000D03*
X103000000Y-43000000D03*
%TD*%
%TO.C,SW1*%
X55500000Y-36500000D03*
X55500000Y-43000000D03*
X60000000Y-43000000D03*
X60000000Y-36500000D03*
%TD*%
%TO.C,SW3*%
X75500000Y-43000000D03*
X75500000Y-36500000D03*
X80000000Y-36500000D03*
X80000000Y-43000000D03*
%TD*%
%TO.C,SW6*%
X108500000Y-36500000D03*
X108500000Y-43000000D03*
X113000000Y-36500000D03*
X113000000Y-43000000D03*
%TD*%
D16*
%TO.C,USB1*%
X147890000Y-30750000D03*
X142110000Y-30750000D03*
D17*
X140680000Y-27100000D03*
X149320000Y-27100000D03*
D18*
X149320000Y-31280000D03*
X140680000Y-31280000D03*
%TD*%
D19*
%TO.C,H5*%
X47000000Y-143000000D03*
%TD*%
%TO.C,H7*%
X243000000Y-143000000D03*
%TD*%
%TO.C,H4*%
X133500000Y-78000000D03*
%TD*%
%TO.C,H2*%
X156600000Y-37000000D03*
%TD*%
%TO.C,H1*%
X47000000Y-37000000D03*
%TD*%
%TO.C,H6*%
X150000000Y-143000000D03*
%TD*%
%TO.C,H3*%
X243000000Y-37000000D03*
%TD*%
M02*
