%TF.GenerationSoftware,KiCad,Pcbnew,(6.0.4)*%
%TF.CreationDate,2022-04-24T23:02:38-04:00*%
%TF.ProjectId,Flatbox-rev4-rgb-kicad-WS2812B-4020,466c6174-626f-4782-9d72-6576342d7267,rev?*%
%TF.SameCoordinates,Original*%
%TF.FileFunction,Legend,Top*%
%TF.FilePolarity,Positive*%
%FSLAX46Y46*%
G04 Gerber Fmt 4.6, Leading zero omitted, Abs format (unit mm)*
G04 Created by KiCad (PCBNEW (6.0.4)) date 2022-04-24 23:02:38*
%MOMM*%
%LPD*%
G01*
G04 APERTURE LIST*
%ADD10C,0.200000*%
%ADD11C,1.000000*%
%ADD12C,0.150000*%
%ADD13C,0.300000*%
%ADD14C,0.800000*%
%ADD15C,0.120000*%
G04 APERTURE END LIST*
D10*
X192714192Y-95453303D02*
X192370469Y-95246592D01*
X192035254Y-95029480D01*
X191708704Y-94802239D01*
X191390976Y-94565143D01*
X191082229Y-94318467D01*
X190782620Y-94062485D01*
X190492307Y-93797469D01*
X190211447Y-93523694D01*
X189940198Y-93241434D01*
X189678718Y-92950963D01*
X189427164Y-92652554D01*
X189185695Y-92346481D01*
X188954468Y-92033019D01*
X188733640Y-91712441D01*
X188523369Y-91385021D01*
X188323813Y-91051033D01*
X188135130Y-90710750D01*
X187957477Y-90364447D01*
X187791012Y-90012397D01*
X187635893Y-89654875D01*
X187492277Y-89292154D01*
X187360322Y-88924507D01*
X187240186Y-88552210D01*
X187132026Y-88175535D01*
X187036001Y-87794757D01*
X186952267Y-87410150D01*
X186880983Y-87021987D01*
X186822305Y-86630542D01*
X186776393Y-86236089D01*
X186743403Y-85838902D01*
X186723494Y-85439254D01*
X186716823Y-85037421D01*
X137252477Y-106569308D02*
X136908754Y-106362597D01*
X136573539Y-106145485D01*
X136246989Y-105918244D01*
X135929261Y-105681149D01*
X135620514Y-105434473D01*
X135320905Y-105178490D01*
X135030592Y-104913474D01*
X134749732Y-104639700D01*
X134478483Y-104357440D01*
X134217003Y-104066968D01*
X133965449Y-103768559D01*
X133723980Y-103462487D01*
X133492753Y-103149025D01*
X133271925Y-102828447D01*
X133061654Y-102501027D01*
X132862098Y-102167038D01*
X132673415Y-101826756D01*
X132495762Y-101480453D01*
X132329297Y-101128403D01*
X132174178Y-100770881D01*
X132030562Y-100408159D01*
X131898607Y-100040513D01*
X131778471Y-99668216D01*
X131670311Y-99291541D01*
X131574286Y-98910763D01*
X131490552Y-98526155D01*
X131419268Y-98137992D01*
X131360590Y-97746547D01*
X131314678Y-97352094D01*
X131281688Y-96954907D01*
X131261779Y-96555259D01*
X131255108Y-96153426D01*
X81317714Y-75586412D02*
X80973991Y-75379701D01*
X80638776Y-75162589D01*
X80312226Y-74935348D01*
X79994498Y-74698253D01*
X79685751Y-74451577D01*
X79386142Y-74195594D01*
X79095828Y-73930578D01*
X78814968Y-73656803D01*
X78543720Y-73374543D01*
X78282240Y-73084072D01*
X78030686Y-72785663D01*
X77789217Y-72479591D01*
X77557989Y-72166128D01*
X77337161Y-71845550D01*
X77126890Y-71518130D01*
X76927335Y-71184142D01*
X76738651Y-70843859D01*
X76560999Y-70497556D01*
X76394534Y-70145507D01*
X76239414Y-69787984D01*
X76095799Y-69425263D01*
X75963844Y-69057617D01*
X75843708Y-68685320D01*
X75735548Y-68308645D01*
X75639522Y-67927867D01*
X75555789Y-67543259D01*
X75484504Y-67155096D01*
X75425827Y-66763651D01*
X75379915Y-66369198D01*
X75346925Y-65972011D01*
X75327016Y-65572363D01*
X75320345Y-65170530D01*
X221923290Y-95453303D02*
X221579567Y-95246592D01*
X221244352Y-95029480D01*
X220917802Y-94802239D01*
X220600074Y-94565143D01*
X220291327Y-94318467D01*
X219991718Y-94062485D01*
X219701404Y-93797469D01*
X219420544Y-93523694D01*
X219149296Y-93241434D01*
X218887816Y-92950963D01*
X218636262Y-92652554D01*
X218394793Y-92346481D01*
X218163565Y-92033019D01*
X217942737Y-91712441D01*
X217732466Y-91385021D01*
X217532911Y-91051033D01*
X217344227Y-90710750D01*
X217166575Y-90364447D01*
X217000110Y-90012397D01*
X216844990Y-89654875D01*
X216701375Y-89292154D01*
X216569420Y-88924507D01*
X216449284Y-88552210D01*
X216341124Y-88175535D01*
X216245098Y-87794757D01*
X216161365Y-87410150D01*
X216090080Y-87021987D01*
X216031403Y-86630542D01*
X215985491Y-86236089D01*
X215952501Y-85838902D01*
X215932592Y-85439254D01*
X215925921Y-85037421D01*
X52226909Y-75468162D02*
X51883186Y-75261451D01*
X51547971Y-75044339D01*
X51221421Y-74817098D01*
X50903693Y-74580002D01*
X50594946Y-74333326D01*
X50295337Y-74077344D01*
X50005023Y-73812328D01*
X49724163Y-73538553D01*
X49452915Y-73256293D01*
X49191435Y-72965822D01*
X48939881Y-72667413D01*
X48698412Y-72361340D01*
X48467184Y-72047878D01*
X48246356Y-71727300D01*
X48036085Y-71399880D01*
X47836530Y-71065892D01*
X47647846Y-70725609D01*
X47470194Y-70379306D01*
X47303729Y-70027256D01*
X47148609Y-69669734D01*
X47004994Y-69307013D01*
X46873039Y-68939366D01*
X46752903Y-68567069D01*
X46644743Y-68190394D01*
X46548717Y-67809616D01*
X46464984Y-67425009D01*
X46393699Y-67036846D01*
X46335022Y-66645401D01*
X46289110Y-66250948D01*
X46256120Y-65853761D01*
X46236211Y-65454113D01*
X46229540Y-65052280D01*
X99309821Y-65170530D02*
X99309821Y-65170530D01*
X215925921Y-85037421D02*
X215932592Y-84635587D01*
X215952501Y-84235939D01*
X215985491Y-83838752D01*
X216031403Y-83444299D01*
X216090080Y-83052854D01*
X216161365Y-82664691D01*
X216245098Y-82280083D01*
X216341124Y-81899305D01*
X216449284Y-81522630D01*
X216569420Y-81150333D01*
X216701375Y-80782687D01*
X216844990Y-80419966D01*
X217000110Y-80062443D01*
X217166575Y-79710394D01*
X217344227Y-79364091D01*
X217532911Y-79023808D01*
X217732466Y-78689820D01*
X217942737Y-78362400D01*
X218163565Y-78041822D01*
X218394793Y-77728359D01*
X218636262Y-77422287D01*
X218887816Y-77123878D01*
X219149296Y-76833407D01*
X219420544Y-76551147D01*
X219701404Y-76277372D01*
X219991718Y-76012356D01*
X220291327Y-75756373D01*
X220600074Y-75509697D01*
X220917802Y-75272602D01*
X221244352Y-75045361D01*
X221579567Y-74828249D01*
X221923290Y-74621539D01*
X149247215Y-85737546D02*
X149590937Y-85944256D01*
X149926152Y-86161368D01*
X150252702Y-86388609D01*
X150570430Y-86625704D01*
X150879177Y-86872380D01*
X151178786Y-87128362D01*
X151469100Y-87393378D01*
X151749960Y-87667153D01*
X152021208Y-87949413D01*
X152282688Y-88239884D01*
X152534242Y-88538293D01*
X152775711Y-88844365D01*
X153006939Y-89157827D01*
X153227767Y-89478405D01*
X153438038Y-89805825D01*
X153637593Y-90139814D01*
X153826277Y-90480096D01*
X154003929Y-90826399D01*
X154170394Y-91178449D01*
X154325514Y-91535971D01*
X154469129Y-91898692D01*
X154601084Y-92266339D01*
X154721220Y-92638636D01*
X154829380Y-93015311D01*
X154925406Y-93396089D01*
X155009139Y-93780696D01*
X155080424Y-94168859D01*
X155139101Y-94560304D01*
X155185013Y-94954757D01*
X155218003Y-95351944D01*
X155237912Y-95751592D01*
X155244584Y-96153426D01*
X210385198Y-63879139D02*
X210034803Y-64074262D01*
X209679679Y-64256797D01*
X209320139Y-64426743D01*
X208956499Y-64584101D01*
X208589075Y-64728870D01*
X208218182Y-64861050D01*
X207844134Y-64980642D01*
X207467249Y-65087646D01*
X207087840Y-65182060D01*
X206706224Y-65263886D01*
X206322716Y-65333124D01*
X205937631Y-65389772D01*
X205551284Y-65433832D01*
X205163991Y-65465304D01*
X204776067Y-65484187D01*
X204387829Y-65490481D01*
X203999590Y-65484187D01*
X203611666Y-65465304D01*
X203224373Y-65433832D01*
X202838026Y-65389772D01*
X202452941Y-65333124D01*
X202069433Y-65263886D01*
X201687817Y-65182060D01*
X201308408Y-65087646D01*
X200931523Y-64980642D01*
X200557475Y-64861050D01*
X200186582Y-64728870D01*
X199819158Y-64584101D01*
X199455518Y-64426743D01*
X199095978Y-64256797D01*
X198740854Y-64074262D01*
X198390460Y-63879139D01*
X107925166Y-86938924D02*
X107581443Y-86732213D01*
X107246228Y-86515101D01*
X106919678Y-86287860D01*
X106601950Y-86050764D01*
X106293203Y-85804088D01*
X105993594Y-85548106D01*
X105703281Y-85283090D01*
X105422421Y-85009315D01*
X105151172Y-84727055D01*
X104889692Y-84436584D01*
X104638139Y-84138175D01*
X104396669Y-83832102D01*
X104165442Y-83518640D01*
X103944614Y-83198062D01*
X103734343Y-82870642D01*
X103534788Y-82536654D01*
X103346104Y-82196371D01*
X103168451Y-81850068D01*
X103001987Y-81498018D01*
X102846867Y-81140496D01*
X102703252Y-80777775D01*
X102571297Y-80410128D01*
X102451161Y-80037831D01*
X102343001Y-79661156D01*
X102246975Y-79280378D01*
X102163242Y-78895771D01*
X102091957Y-78507608D01*
X102033280Y-78116163D01*
X101987368Y-77721710D01*
X101954378Y-77324523D01*
X101934469Y-76924875D01*
X101927798Y-76523042D01*
X81317714Y-54754648D02*
X81668108Y-54559524D01*
X82023232Y-54376989D01*
X82382772Y-54207043D01*
X82746412Y-54049685D01*
X83113836Y-53904916D01*
X83484729Y-53772736D01*
X83858777Y-53653144D01*
X84235662Y-53546141D01*
X84615071Y-53451726D01*
X84996687Y-53369900D01*
X85380195Y-53300663D01*
X85765280Y-53244014D01*
X86151627Y-53199954D01*
X86538920Y-53168483D01*
X86926844Y-53149600D01*
X87315083Y-53143306D01*
X87703321Y-53149600D01*
X88091245Y-53168483D01*
X88478538Y-53199954D01*
X88864885Y-53244014D01*
X89249970Y-53300663D01*
X89633478Y-53369900D01*
X90015094Y-53451726D01*
X90394503Y-53546141D01*
X90771388Y-53653144D01*
X91145436Y-53772736D01*
X91516329Y-53904916D01*
X91883753Y-54049685D01*
X92247393Y-54207043D01*
X92606933Y-54376989D01*
X92962057Y-54559524D01*
X93312452Y-54754648D01*
X239915397Y-85037421D02*
X239908725Y-85439254D01*
X239888816Y-85838902D01*
X239855826Y-86236089D01*
X239809914Y-86630542D01*
X239751237Y-87021987D01*
X239679952Y-87410150D01*
X239596219Y-87794757D01*
X239500193Y-88175535D01*
X239392033Y-88552210D01*
X239271897Y-88924507D01*
X239139942Y-89292154D01*
X238996327Y-89654875D01*
X238841207Y-90012397D01*
X238674742Y-90364447D01*
X238497090Y-90710750D01*
X238308406Y-91051033D01*
X238108851Y-91385021D01*
X237898580Y-91712441D01*
X237677752Y-92033019D01*
X237446524Y-92346481D01*
X237205055Y-92652554D01*
X236953501Y-92950963D01*
X236692021Y-93241434D01*
X236420773Y-93523694D01*
X236139913Y-93797469D01*
X235849599Y-94062485D01*
X235549990Y-94318467D01*
X235241243Y-94565143D01*
X234923515Y-94802239D01*
X234596965Y-95029480D01*
X234261750Y-95246592D01*
X233918028Y-95453303D01*
X119919904Y-66107160D02*
X120263626Y-66313870D01*
X120598841Y-66530982D01*
X120925391Y-66758223D01*
X121243119Y-66995318D01*
X121551866Y-67241994D01*
X121851475Y-67497977D01*
X122141789Y-67762993D01*
X122422649Y-68036768D01*
X122693897Y-68319028D01*
X122955377Y-68609499D01*
X123206931Y-68907908D01*
X123448400Y-69213980D01*
X123679628Y-69527443D01*
X123900456Y-69848021D01*
X124110727Y-70175441D01*
X124310282Y-70509429D01*
X124498966Y-70849712D01*
X124676618Y-71196015D01*
X124843083Y-71548064D01*
X124998203Y-71905587D01*
X125141818Y-72268308D01*
X125273773Y-72635954D01*
X125393909Y-73008251D01*
X125502069Y-73384926D01*
X125598095Y-73765704D01*
X125681828Y-74150312D01*
X125753113Y-74538475D01*
X125811790Y-74929920D01*
X125857702Y-75324373D01*
X125890692Y-75721560D01*
X125910601Y-76121208D01*
X125917273Y-76523042D01*
X70219015Y-65052280D02*
X70219015Y-65052280D01*
X155244584Y-96153426D02*
X155244584Y-96153426D01*
X204708930Y-74621539D02*
X205052652Y-74828249D01*
X205387867Y-75045361D01*
X205714417Y-75272602D01*
X206032145Y-75509697D01*
X206340892Y-75756373D01*
X206640501Y-76012356D01*
X206930815Y-76277372D01*
X207211675Y-76551147D01*
X207482923Y-76833407D01*
X207744403Y-77123878D01*
X207995957Y-77422287D01*
X208237426Y-77728359D01*
X208468654Y-78041822D01*
X208689482Y-78362400D01*
X208899753Y-78689820D01*
X209099308Y-79023808D01*
X209287992Y-79364091D01*
X209465644Y-79710394D01*
X209632109Y-80062443D01*
X209787229Y-80419966D01*
X209930844Y-80782687D01*
X210062799Y-81150333D01*
X210182935Y-81522630D01*
X210291095Y-81899305D01*
X210387121Y-82280083D01*
X210470854Y-82664691D01*
X210542139Y-83052854D01*
X210600816Y-83444299D01*
X210646728Y-83838752D01*
X210679718Y-84235939D01*
X210699627Y-84635587D01*
X210706299Y-85037421D01*
X155244584Y-96153426D02*
X155237912Y-96555259D01*
X155218003Y-96954907D01*
X155185013Y-97352094D01*
X155139101Y-97746547D01*
X155080424Y-98137992D01*
X155009139Y-98526155D01*
X154925406Y-98910763D01*
X154829380Y-99291541D01*
X154721220Y-99668216D01*
X154601084Y-100040513D01*
X154469129Y-100408159D01*
X154325514Y-100770881D01*
X154170394Y-101128403D01*
X154003929Y-101480453D01*
X153826277Y-101826756D01*
X153637593Y-102167038D01*
X153438038Y-102501027D01*
X153227767Y-102828447D01*
X153006939Y-103149025D01*
X152775711Y-103462487D01*
X152534242Y-103768559D01*
X152282688Y-104066968D01*
X152021208Y-104357440D01*
X151749960Y-104639700D01*
X151469100Y-104913474D01*
X151178786Y-105178490D01*
X150879177Y-105434473D01*
X150570430Y-105681149D01*
X150252702Y-105918244D01*
X149926152Y-106145485D01*
X149590937Y-106362597D01*
X149247215Y-106569308D01*
X64221646Y-54636398D02*
X64565368Y-54843108D01*
X64900583Y-55060220D01*
X65227133Y-55287461D01*
X65544861Y-55524557D01*
X65853608Y-55771233D01*
X66153217Y-56027215D01*
X66443531Y-56292231D01*
X66724391Y-56566006D01*
X66995639Y-56848266D01*
X67257119Y-57138737D01*
X67508673Y-57437146D01*
X67750142Y-57743219D01*
X67981370Y-58056681D01*
X68202198Y-58377259D01*
X68412469Y-58704679D01*
X68612024Y-59038668D01*
X68800708Y-59378950D01*
X68978360Y-59725253D01*
X69144825Y-60077303D01*
X69299945Y-60434825D01*
X69443560Y-60797546D01*
X69575515Y-61165193D01*
X69695651Y-61537490D01*
X69803811Y-61914165D01*
X69899837Y-62294943D01*
X69983570Y-62679550D01*
X70054855Y-63067713D01*
X70113532Y-63459158D01*
X70159444Y-63853611D01*
X70192434Y-64250798D01*
X70212343Y-64650446D01*
X70219015Y-65052280D01*
X245355098Y-53699766D02*
X245339490Y-54318685D01*
X245293170Y-54929479D01*
X245216891Y-55531393D01*
X245111407Y-56123671D01*
X244977471Y-56705556D01*
X244815837Y-57276294D01*
X244627259Y-57835128D01*
X244412491Y-58381304D01*
X244172286Y-58914064D01*
X243907397Y-59432654D01*
X243618578Y-59936318D01*
X243306584Y-60424301D01*
X242972167Y-60895845D01*
X242616082Y-61350197D01*
X242239081Y-61786599D01*
X241841919Y-62204297D01*
X241425350Y-62602535D01*
X240990126Y-62980556D01*
X240537002Y-63337606D01*
X240066731Y-63672928D01*
X239580067Y-63985768D01*
X239077763Y-64275368D01*
X238560574Y-64540975D01*
X238029252Y-64781831D01*
X237484552Y-64997181D01*
X236927227Y-65186269D01*
X236358031Y-65348341D01*
X235777717Y-65482639D01*
X235187040Y-65588409D01*
X234586752Y-65664894D01*
X233977607Y-65711340D01*
X233360360Y-65726990D01*
X198390460Y-63879139D02*
X198046737Y-63672428D01*
X197711522Y-63455316D01*
X197384972Y-63228075D01*
X197067244Y-62990980D01*
X196758497Y-62744304D01*
X196458888Y-62488321D01*
X196168574Y-62223305D01*
X195887714Y-61949531D01*
X195616466Y-61667271D01*
X195354986Y-61376799D01*
X195103432Y-61078390D01*
X194861963Y-60772318D01*
X194630735Y-60458856D01*
X194409907Y-60138278D01*
X194199636Y-59810858D01*
X194000081Y-59476869D01*
X193811397Y-59136587D01*
X193633745Y-58790284D01*
X193467280Y-58438234D01*
X193312160Y-58080712D01*
X193168545Y-57717991D01*
X193036590Y-57350344D01*
X192916454Y-56978047D01*
X192808294Y-56601372D01*
X192712268Y-56220594D01*
X192628535Y-55835987D01*
X192557250Y-55447824D01*
X192498573Y-55056379D01*
X192452661Y-54661926D01*
X192419671Y-54264739D01*
X192399762Y-53865091D01*
X192393091Y-53463258D01*
X138918561Y-142649412D02*
X138480235Y-142893501D01*
X138035992Y-143121843D01*
X137586226Y-143334438D01*
X137131331Y-143531284D01*
X136671701Y-143712383D01*
X136207732Y-143877734D01*
X135739818Y-144027338D01*
X135268353Y-144161193D01*
X134793732Y-144279301D01*
X134316350Y-144381661D01*
X133836600Y-144468274D01*
X133354877Y-144539139D01*
X132871577Y-144594256D01*
X132387093Y-144633625D01*
X131901820Y-144657247D01*
X131416153Y-144665121D01*
X130930485Y-144657247D01*
X130445212Y-144633625D01*
X129960728Y-144594256D01*
X129477428Y-144539139D01*
X128995705Y-144468274D01*
X128515955Y-144381661D01*
X128038573Y-144279301D01*
X127563952Y-144161193D01*
X127092487Y-144027338D01*
X126624573Y-143877734D01*
X126160604Y-143712383D01*
X125700974Y-143531284D01*
X125246079Y-143334438D01*
X124796313Y-143121843D01*
X124352070Y-142893501D01*
X123913745Y-142649412D01*
X204708930Y-95453303D02*
X204358535Y-95648426D01*
X204003411Y-95830961D01*
X203643871Y-96000907D01*
X203280231Y-96158265D01*
X202912807Y-96303034D01*
X202541914Y-96435214D01*
X202167866Y-96554806D01*
X201790981Y-96661809D01*
X201411572Y-96756224D01*
X201029956Y-96838050D01*
X200646448Y-96907287D01*
X200261363Y-96963936D01*
X199875016Y-97007996D01*
X199487723Y-97039467D01*
X199099799Y-97058350D01*
X198711561Y-97064645D01*
X198323322Y-97058350D01*
X197935398Y-97039467D01*
X197548105Y-97007996D01*
X197161758Y-96963936D01*
X196776673Y-96907287D01*
X196393165Y-96838050D01*
X196011549Y-96756224D01*
X195632140Y-96661809D01*
X195255255Y-96554806D01*
X194881207Y-96435214D01*
X194510314Y-96303034D01*
X194142890Y-96158265D01*
X193779250Y-96000907D01*
X193419710Y-95830961D01*
X193064586Y-95648426D01*
X192714192Y-95453303D01*
X131255108Y-96153426D02*
X131261779Y-95751592D01*
X131281688Y-95351944D01*
X131314678Y-94954757D01*
X131360590Y-94560304D01*
X131419268Y-94168859D01*
X131490552Y-93780696D01*
X131574286Y-93396089D01*
X131670311Y-93015311D01*
X131778471Y-92638636D01*
X131898607Y-92266339D01*
X132030562Y-91898692D01*
X132174178Y-91535971D01*
X132329297Y-91178449D01*
X132495762Y-90826399D01*
X132673415Y-90480096D01*
X132862098Y-90139814D01*
X133061654Y-89805825D01*
X133271925Y-89478405D01*
X133492753Y-89157827D01*
X133723980Y-88844365D01*
X133965449Y-88538293D01*
X134217003Y-88239884D01*
X134478483Y-87949413D01*
X134749732Y-87667153D01*
X135030592Y-87393378D01*
X135320905Y-87128362D01*
X135620514Y-86872380D01*
X135929261Y-86625704D01*
X136246989Y-86388609D01*
X136573539Y-86161368D01*
X136908754Y-85944256D01*
X137252477Y-85737546D01*
X239915397Y-85037421D02*
X239915397Y-85037421D01*
X138918561Y-116589918D02*
X139348540Y-116848502D01*
X139767877Y-117120098D01*
X140176375Y-117404365D01*
X140573837Y-117700960D01*
X140960064Y-118009539D01*
X141334860Y-118329761D01*
X141698027Y-118661282D01*
X142049369Y-119003760D01*
X142388688Y-119356854D01*
X142715786Y-119720219D01*
X143030467Y-120093513D01*
X143332533Y-120476395D01*
X143621787Y-120868520D01*
X143898032Y-121269547D01*
X144161070Y-121679133D01*
X144410704Y-122096936D01*
X144646737Y-122522613D01*
X144868972Y-122955820D01*
X145077212Y-123396217D01*
X145271258Y-123843460D01*
X145450914Y-124297206D01*
X145615983Y-124757113D01*
X145766267Y-125222838D01*
X145901570Y-125694039D01*
X146021693Y-126170373D01*
X146126440Y-126651498D01*
X146215613Y-127137071D01*
X146289015Y-127626749D01*
X146346449Y-128120190D01*
X146387717Y-128617052D01*
X146412623Y-129116991D01*
X146420969Y-129619665D01*
X169417923Y-43165636D02*
X169768317Y-42970512D01*
X170123441Y-42787977D01*
X170482981Y-42618031D01*
X170846621Y-42460673D01*
X171214045Y-42315904D01*
X171584938Y-42183724D01*
X171958986Y-42064132D01*
X172335871Y-41957129D01*
X172715280Y-41862714D01*
X173096896Y-41780888D01*
X173480404Y-41711651D01*
X173865489Y-41655002D01*
X174251836Y-41610942D01*
X174639129Y-41579471D01*
X175027053Y-41560588D01*
X175415292Y-41554294D01*
X175803530Y-41560588D01*
X176191454Y-41579471D01*
X176578747Y-41610942D01*
X176965094Y-41655002D01*
X177350179Y-41711651D01*
X177733687Y-41780888D01*
X178115303Y-41862714D01*
X178494712Y-41957129D01*
X178871597Y-42064132D01*
X179245645Y-42183724D01*
X179616538Y-42315904D01*
X179983962Y-42460673D01*
X180347602Y-42618031D01*
X180707142Y-42787977D01*
X181062266Y-42970512D01*
X181412661Y-43165636D01*
X233918028Y-95453303D02*
X233567633Y-95648426D01*
X233212509Y-95830961D01*
X232852969Y-96000907D01*
X232489329Y-96158265D01*
X232121905Y-96303034D01*
X231751012Y-96435214D01*
X231376964Y-96554806D01*
X231000079Y-96661809D01*
X230620670Y-96756224D01*
X230239054Y-96838050D01*
X229855546Y-96907287D01*
X229470461Y-96963936D01*
X229084114Y-97007996D01*
X228696821Y-97039467D01*
X228308897Y-97058350D01*
X227920659Y-97064645D01*
X227532420Y-97058350D01*
X227144496Y-97039467D01*
X226757203Y-97007996D01*
X226370856Y-96963936D01*
X225985771Y-96907287D01*
X225602263Y-96838050D01*
X225220647Y-96756224D01*
X224841238Y-96661809D01*
X224464353Y-96554806D01*
X224090305Y-96435214D01*
X223719412Y-96303034D01*
X223351988Y-96158265D01*
X222988348Y-96000907D01*
X222628808Y-95830961D01*
X222273684Y-95648426D01*
X221923290Y-95453303D01*
X154860422Y-54699104D02*
X155204144Y-54905814D01*
X155539359Y-55122926D01*
X155865909Y-55350167D01*
X156183637Y-55587263D01*
X156492384Y-55833939D01*
X156791993Y-56089921D01*
X157082307Y-56354937D01*
X157363167Y-56628712D01*
X157634415Y-56910972D01*
X157895895Y-57201443D01*
X158147449Y-57499852D01*
X158388918Y-57805925D01*
X158620146Y-58119387D01*
X158840974Y-58439965D01*
X159051245Y-58767385D01*
X159250800Y-59101374D01*
X159439484Y-59441656D01*
X159617136Y-59787959D01*
X159783601Y-60140009D01*
X159938721Y-60497531D01*
X160082336Y-60860252D01*
X160214291Y-61227899D01*
X160334427Y-61600196D01*
X160442587Y-61976871D01*
X160538613Y-62357649D01*
X160622346Y-62742256D01*
X160693631Y-63130419D01*
X160752308Y-63521864D01*
X160798220Y-63916317D01*
X160831210Y-64313504D01*
X160851119Y-64713152D01*
X160857791Y-65114986D01*
X186716823Y-85037421D02*
X186723494Y-84635587D01*
X186743403Y-84235939D01*
X186776393Y-83838752D01*
X186822305Y-83444299D01*
X186880983Y-83052854D01*
X186952267Y-82664691D01*
X187036001Y-82280083D01*
X187132026Y-81899305D01*
X187240186Y-81522630D01*
X187360322Y-81150333D01*
X187492277Y-80782687D01*
X187635893Y-80419966D01*
X187791012Y-80062443D01*
X187957477Y-79710394D01*
X188135130Y-79364091D01*
X188323813Y-79023808D01*
X188523369Y-78689820D01*
X188733640Y-78362400D01*
X188954468Y-78041822D01*
X189185695Y-77728359D01*
X189427164Y-77422287D01*
X189678718Y-77123878D01*
X189940198Y-76833407D01*
X190211447Y-76551147D01*
X190492307Y-76277372D01*
X190782620Y-76012356D01*
X191082229Y-75756373D01*
X191390976Y-75509697D01*
X191708704Y-75272602D01*
X192035254Y-75045361D01*
X192370469Y-74828249D01*
X192714192Y-74621539D01*
X239357729Y-43283884D02*
X239701451Y-43490594D01*
X240036666Y-43707706D01*
X240363216Y-43934947D01*
X240680944Y-44172043D01*
X240989691Y-44418719D01*
X241289300Y-44674701D01*
X241579614Y-44939717D01*
X241860474Y-45213492D01*
X242131722Y-45495752D01*
X242393202Y-45786223D01*
X242644756Y-46084632D01*
X242886225Y-46390705D01*
X243117453Y-46704167D01*
X243338281Y-47024745D01*
X243548552Y-47352165D01*
X243748107Y-47686154D01*
X243936791Y-48026436D01*
X244114443Y-48372739D01*
X244280908Y-48724789D01*
X244436028Y-49082311D01*
X244579643Y-49445032D01*
X244711598Y-49812679D01*
X244831734Y-50184976D01*
X244939894Y-50561651D01*
X245035920Y-50942429D01*
X245119653Y-51327036D01*
X245190938Y-51715199D01*
X245249615Y-52106644D01*
X245295527Y-52501097D01*
X245328517Y-52898284D01*
X245348426Y-53297932D01*
X245355098Y-53699766D01*
X52226909Y-54636398D02*
X52577302Y-54441274D01*
X52932427Y-54258739D01*
X53291967Y-54088793D01*
X53655607Y-53931435D01*
X54023031Y-53786666D01*
X54393924Y-53654486D01*
X54767971Y-53534894D01*
X55144857Y-53427890D01*
X55524265Y-53333476D01*
X55905881Y-53251650D01*
X56289390Y-53182412D01*
X56674475Y-53125764D01*
X57060822Y-53081704D01*
X57448114Y-53050232D01*
X57836038Y-53031349D01*
X58224277Y-53025055D01*
X58612516Y-53031349D01*
X59000440Y-53050232D01*
X59387732Y-53081704D01*
X59774079Y-53125764D01*
X60159164Y-53182412D01*
X60542673Y-53251650D01*
X60924289Y-53333476D01*
X61303697Y-53427890D01*
X61680583Y-53534894D01*
X62054630Y-53654486D01*
X62425523Y-53786666D01*
X62792947Y-53931435D01*
X63156587Y-54088793D01*
X63516127Y-54258739D01*
X63871252Y-54441274D01*
X64221646Y-54636398D01*
X160857791Y-65114986D02*
X160857791Y-65114986D01*
X154860422Y-75530868D02*
X154510027Y-75725991D01*
X154154903Y-75908526D01*
X153795363Y-76078472D01*
X153431723Y-76235830D01*
X153064299Y-76380599D01*
X152693406Y-76512779D01*
X152319358Y-76632371D01*
X151942473Y-76739375D01*
X151563064Y-76833789D01*
X151181448Y-76915615D01*
X150797940Y-76984853D01*
X150412855Y-77041501D01*
X150026508Y-77085561D01*
X149639215Y-77117033D01*
X149251291Y-77135916D01*
X148863053Y-77142210D01*
X148474814Y-77135916D01*
X148086890Y-77117033D01*
X147699597Y-77085561D01*
X147313250Y-77041501D01*
X146928165Y-76984853D01*
X146544657Y-76915615D01*
X146163041Y-76833789D01*
X145783632Y-76739375D01*
X145406747Y-76632371D01*
X145032699Y-76512779D01*
X144661806Y-76380599D01*
X144294382Y-76235830D01*
X143930742Y-76078472D01*
X143571202Y-75908526D01*
X143216078Y-75725991D01*
X142865684Y-75530868D01*
X221923290Y-74621539D02*
X222273684Y-74426415D01*
X222628808Y-74243880D01*
X222988348Y-74073934D01*
X223351988Y-73916576D01*
X223719412Y-73771807D01*
X224090305Y-73639627D01*
X224464353Y-73520035D01*
X224841238Y-73413031D01*
X225220647Y-73318617D01*
X225602263Y-73236791D01*
X225985771Y-73167553D01*
X226370856Y-73110905D01*
X226757203Y-73066845D01*
X227144496Y-73035373D01*
X227532420Y-73016490D01*
X227920659Y-73010196D01*
X228308897Y-73016490D01*
X228696821Y-73035373D01*
X229084114Y-73066845D01*
X229470461Y-73110905D01*
X229855546Y-73167553D01*
X230239054Y-73236791D01*
X230620670Y-73318617D01*
X231000079Y-73413031D01*
X231376964Y-73520035D01*
X231751012Y-73639627D01*
X232121905Y-73771807D01*
X232489329Y-73916576D01*
X232852969Y-74073934D01*
X233212509Y-74243880D01*
X233567633Y-74426415D01*
X233918028Y-74621539D01*
X181412661Y-63997400D02*
X181062266Y-64192523D01*
X180707142Y-64375058D01*
X180347602Y-64545004D01*
X179983962Y-64702362D01*
X179616538Y-64847131D01*
X179245645Y-64979311D01*
X178871597Y-65098903D01*
X178494712Y-65205907D01*
X178115303Y-65300321D01*
X177733687Y-65382147D01*
X177350179Y-65451385D01*
X176965094Y-65508033D01*
X176578747Y-65552093D01*
X176191454Y-65583565D01*
X175803530Y-65602448D01*
X175415292Y-65608742D01*
X175027053Y-65602448D01*
X174639129Y-65583565D01*
X174251836Y-65552093D01*
X173865489Y-65508033D01*
X173480404Y-65451385D01*
X173096896Y-65382147D01*
X172715280Y-65300321D01*
X172335871Y-65205907D01*
X171958986Y-65098903D01*
X171584938Y-64979311D01*
X171214045Y-64847131D01*
X170846621Y-64702362D01*
X170482981Y-64545004D01*
X170123441Y-64375058D01*
X169768317Y-64192523D01*
X169417923Y-63997400D01*
X163859914Y-95453303D02*
X163516191Y-95246592D01*
X163180976Y-95029480D01*
X162854426Y-94802239D01*
X162536698Y-94565143D01*
X162227951Y-94318467D01*
X161928342Y-94062485D01*
X161638028Y-93797469D01*
X161357168Y-93523694D01*
X161085920Y-93241434D01*
X160824440Y-92950963D01*
X160572886Y-92652554D01*
X160331417Y-92346481D01*
X160100189Y-92033019D01*
X159879361Y-91712441D01*
X159669090Y-91385021D01*
X159469535Y-91051033D01*
X159280851Y-90710750D01*
X159103199Y-90364447D01*
X158936734Y-90012397D01*
X158781614Y-89654875D01*
X158637999Y-89292154D01*
X158506044Y-88924507D01*
X158385908Y-88552210D01*
X158277748Y-88175535D01*
X158181722Y-87794757D01*
X158097989Y-87410150D01*
X158026704Y-87021987D01*
X157968027Y-86630542D01*
X157922115Y-86236089D01*
X157889125Y-85838902D01*
X157869216Y-85439254D01*
X157862545Y-85037421D01*
X93312452Y-54754648D02*
X93656174Y-54961358D01*
X93991389Y-55178470D01*
X94317939Y-55405711D01*
X94635667Y-55642807D01*
X94944414Y-55889483D01*
X95244023Y-56145465D01*
X95534336Y-56410481D01*
X95815196Y-56684256D01*
X96086445Y-56966516D01*
X96347925Y-57256987D01*
X96599479Y-57555396D01*
X96840948Y-57861469D01*
X97072175Y-58174931D01*
X97293003Y-58495509D01*
X97503274Y-58822929D01*
X97702830Y-59156918D01*
X97891513Y-59497200D01*
X98069166Y-59843503D01*
X98235631Y-60195553D01*
X98390750Y-60553075D01*
X98534366Y-60915796D01*
X98666321Y-61283443D01*
X98786457Y-61655740D01*
X98894617Y-62032415D01*
X98990642Y-62413193D01*
X99074376Y-62797800D01*
X99145660Y-63185963D01*
X99204338Y-63577408D01*
X99250250Y-63971861D01*
X99283240Y-64369048D01*
X99303149Y-64768696D01*
X99309821Y-65170530D01*
X137252477Y-85737546D02*
X137602871Y-85542422D01*
X137957995Y-85359887D01*
X138317535Y-85189940D01*
X138681175Y-85032583D01*
X139048599Y-84887814D01*
X139419492Y-84755633D01*
X139793540Y-84636041D01*
X140170425Y-84529038D01*
X140549834Y-84434623D01*
X140931450Y-84352797D01*
X141314958Y-84283560D01*
X141700043Y-84226911D01*
X142086390Y-84182851D01*
X142473683Y-84151379D01*
X142861607Y-84132496D01*
X143249846Y-84126202D01*
X143638084Y-84132496D01*
X144026008Y-84151379D01*
X144413301Y-84182851D01*
X144799648Y-84226911D01*
X145184733Y-84283560D01*
X145568241Y-84352797D01*
X145949857Y-84434623D01*
X146329266Y-84529038D01*
X146706151Y-84636041D01*
X147080199Y-84755633D01*
X147451092Y-84887814D01*
X147818516Y-85032583D01*
X148182156Y-85189940D01*
X148541696Y-85359887D01*
X148896820Y-85542422D01*
X149247215Y-85737546D01*
X125917273Y-76523042D02*
X125910601Y-76924875D01*
X125890692Y-77324523D01*
X125857702Y-77721710D01*
X125811790Y-78116163D01*
X125753113Y-78507608D01*
X125681828Y-78895771D01*
X125598095Y-79280378D01*
X125502069Y-79661156D01*
X125393909Y-80037831D01*
X125273773Y-80410128D01*
X125141818Y-80777775D01*
X124998203Y-81140496D01*
X124843083Y-81498018D01*
X124676618Y-81850068D01*
X124498966Y-82196371D01*
X124310282Y-82536654D01*
X124110727Y-82870642D01*
X123900456Y-83198062D01*
X123679628Y-83518640D01*
X123448400Y-83832102D01*
X123206931Y-84138175D01*
X122955377Y-84436584D01*
X122693897Y-84727055D01*
X122422649Y-85009315D01*
X122141789Y-85283090D01*
X121851475Y-85548106D01*
X121551866Y-85804088D01*
X121243119Y-86050764D01*
X120925391Y-86287860D01*
X120598841Y-86515101D01*
X120263626Y-86732213D01*
X119919904Y-86938924D01*
X142865684Y-54699104D02*
X143216078Y-54503980D01*
X143571202Y-54321445D01*
X143930742Y-54151499D01*
X144294382Y-53994141D01*
X144661806Y-53849372D01*
X145032699Y-53717192D01*
X145406747Y-53597600D01*
X145783632Y-53490597D01*
X146163041Y-53396182D01*
X146544657Y-53314356D01*
X146928165Y-53245119D01*
X147313250Y-53188470D01*
X147699597Y-53144410D01*
X148086890Y-53112939D01*
X148474814Y-53094056D01*
X148863053Y-53087762D01*
X149251291Y-53094056D01*
X149639215Y-53112939D01*
X150026508Y-53144410D01*
X150412855Y-53188470D01*
X150797940Y-53245119D01*
X151181448Y-53314356D01*
X151563064Y-53396182D01*
X151942473Y-53490597D01*
X152319358Y-53597600D01*
X152693406Y-53717192D01*
X153064299Y-53849372D01*
X153431723Y-53994141D01*
X153795363Y-54151499D01*
X154154903Y-54321445D01*
X154510027Y-54503980D01*
X154860422Y-54699104D01*
X163420555Y-53581518D02*
X163427226Y-53179684D01*
X163447135Y-52780036D01*
X163480125Y-52382849D01*
X163526037Y-51988396D01*
X163584714Y-51596951D01*
X163655999Y-51208788D01*
X163739732Y-50824181D01*
X163835758Y-50443403D01*
X163943918Y-50066728D01*
X164064054Y-49694431D01*
X164196009Y-49326784D01*
X164339624Y-48964063D01*
X164494744Y-48606541D01*
X164661208Y-48254491D01*
X164838861Y-47908188D01*
X165027545Y-47567906D01*
X165227100Y-47233917D01*
X165437371Y-46906497D01*
X165658199Y-46585919D01*
X165889426Y-46272457D01*
X166130896Y-45966384D01*
X166382449Y-45667975D01*
X166643929Y-45377504D01*
X166915178Y-45095244D01*
X167196038Y-44821469D01*
X167486351Y-44556453D01*
X167785960Y-44300471D01*
X168094707Y-44053795D01*
X168412435Y-43816699D01*
X168738985Y-43589458D01*
X169074200Y-43372346D01*
X169417923Y-43165636D01*
X187410030Y-53581518D02*
X187410030Y-53581518D01*
X233360360Y-65726990D02*
X232743112Y-65711340D01*
X232133967Y-65664894D01*
X231533679Y-65588409D01*
X230943002Y-65482639D01*
X230362688Y-65348341D01*
X229793492Y-65186269D01*
X229236167Y-64997181D01*
X228691467Y-64781831D01*
X228160145Y-64540975D01*
X227642956Y-64275368D01*
X227140652Y-63985768D01*
X226653988Y-63672928D01*
X226183717Y-63337606D01*
X225730593Y-62980556D01*
X225295369Y-62602535D01*
X224878800Y-62204297D01*
X224481638Y-61786599D01*
X224104637Y-61350197D01*
X223748552Y-60895845D01*
X223414135Y-60424301D01*
X223102141Y-59936318D01*
X222813322Y-59432654D01*
X222548433Y-58914064D01*
X222308228Y-58381304D01*
X222093460Y-57835128D01*
X221904882Y-57276294D01*
X221743248Y-56705556D01*
X221609312Y-56123671D01*
X221503828Y-55531393D01*
X221427549Y-54929479D01*
X221381229Y-54318685D01*
X221365622Y-53699766D01*
X119919904Y-86938924D02*
X119569509Y-87134047D01*
X119214385Y-87316582D01*
X118854845Y-87486528D01*
X118491205Y-87643886D01*
X118123781Y-87788655D01*
X117752888Y-87920835D01*
X117378840Y-88040427D01*
X117001955Y-88147430D01*
X116622546Y-88241845D01*
X116240930Y-88323671D01*
X115857422Y-88392908D01*
X115472337Y-88449557D01*
X115085990Y-88493617D01*
X114698697Y-88525088D01*
X114310773Y-88543971D01*
X113922535Y-88550266D01*
X113534296Y-88543971D01*
X113146372Y-88525088D01*
X112759079Y-88493617D01*
X112372732Y-88449557D01*
X111987647Y-88392908D01*
X111604139Y-88323671D01*
X111222523Y-88241845D01*
X110843114Y-88147430D01*
X110466229Y-88040427D01*
X110092181Y-87920835D01*
X109721288Y-87788655D01*
X109353864Y-87643886D01*
X108990224Y-87486528D01*
X108630684Y-87316582D01*
X108275560Y-87134047D01*
X107925166Y-86938924D01*
X187410030Y-53581518D02*
X187403358Y-53983351D01*
X187383449Y-54382999D01*
X187350459Y-54780186D01*
X187304547Y-55174639D01*
X187245870Y-55566084D01*
X187174585Y-55954247D01*
X187090852Y-56338855D01*
X186994826Y-56719633D01*
X186886666Y-57096308D01*
X186766530Y-57468605D01*
X186634575Y-57836251D01*
X186490960Y-58198972D01*
X186335840Y-58556495D01*
X186169375Y-58908544D01*
X185991723Y-59254847D01*
X185803039Y-59595130D01*
X185603484Y-59929118D01*
X185393213Y-60256538D01*
X185172385Y-60577116D01*
X184941157Y-60890579D01*
X184699688Y-61196651D01*
X184448134Y-61495060D01*
X184186654Y-61785531D01*
X183915406Y-62067791D01*
X183634546Y-62341566D01*
X183344232Y-62606582D01*
X183044623Y-62862565D01*
X182735876Y-63109241D01*
X182418148Y-63346336D01*
X182091598Y-63573577D01*
X181756383Y-63790689D01*
X181412661Y-63997400D01*
X157862545Y-85037421D02*
X157869216Y-84635587D01*
X157889125Y-84235939D01*
X157922115Y-83838752D01*
X157968027Y-83444299D01*
X158026704Y-83052854D01*
X158097989Y-82664691D01*
X158181722Y-82280083D01*
X158277748Y-81899305D01*
X158385908Y-81522630D01*
X158506044Y-81150333D01*
X158637999Y-80782687D01*
X158781614Y-80419966D01*
X158936734Y-80062443D01*
X159103199Y-79710394D01*
X159280851Y-79364091D01*
X159469535Y-79023808D01*
X159669090Y-78689820D01*
X159879361Y-78362400D01*
X160100189Y-78041822D01*
X160331417Y-77728359D01*
X160572886Y-77422287D01*
X160824440Y-77123878D01*
X161085920Y-76833407D01*
X161357168Y-76551147D01*
X161638028Y-76277372D01*
X161928342Y-76012356D01*
X162227951Y-75756373D01*
X162536698Y-75509697D01*
X162854426Y-75272602D01*
X163180976Y-75045361D01*
X163516191Y-74828249D01*
X163859914Y-74621539D01*
X116411337Y-129619665D02*
X116419682Y-129116991D01*
X116444588Y-128617052D01*
X116485856Y-128120190D01*
X116543290Y-127626749D01*
X116616692Y-127137071D01*
X116705865Y-126651498D01*
X116810612Y-126170373D01*
X116930735Y-125694039D01*
X117066037Y-125222838D01*
X117216322Y-124757113D01*
X117381391Y-124297206D01*
X117561047Y-123843460D01*
X117755093Y-123396217D01*
X117963332Y-122955820D01*
X118185567Y-122522613D01*
X118421600Y-122096936D01*
X118671235Y-121679133D01*
X118934273Y-121269547D01*
X119210517Y-120868520D01*
X119499772Y-120476395D01*
X119801838Y-120093513D01*
X120116518Y-119720219D01*
X120443617Y-119356854D01*
X120782936Y-119003760D01*
X121134277Y-118661282D01*
X121497445Y-118329761D01*
X121872241Y-118009539D01*
X122258468Y-117700960D01*
X122655929Y-117404365D01*
X123064427Y-117120098D01*
X123483765Y-116848502D01*
X123913745Y-116589918D01*
X210385198Y-43047376D02*
X210728920Y-43254086D01*
X211064135Y-43471198D01*
X211390685Y-43698439D01*
X211708413Y-43935534D01*
X212017160Y-44182210D01*
X212316769Y-44438193D01*
X212607083Y-44703209D01*
X212887943Y-44976983D01*
X213159191Y-45259243D01*
X213420671Y-45549715D01*
X213672225Y-45848124D01*
X213913694Y-46154196D01*
X214144922Y-46467658D01*
X214365750Y-46788236D01*
X214576021Y-47115656D01*
X214775576Y-47449645D01*
X214964260Y-47789927D01*
X215141912Y-48136230D01*
X215308377Y-48488280D01*
X215463497Y-48845802D01*
X215607112Y-49208524D01*
X215739067Y-49576170D01*
X215859203Y-49948467D01*
X215967363Y-50325142D01*
X216063389Y-50705920D01*
X216147122Y-51090528D01*
X216218407Y-51478691D01*
X216277084Y-51870136D01*
X216322996Y-52264589D01*
X216355986Y-52661776D01*
X216375895Y-53061424D01*
X216382567Y-53463258D01*
X245355098Y-53699766D02*
X245355098Y-53699766D01*
X175854652Y-74621539D02*
X176198374Y-74828249D01*
X176533589Y-75045361D01*
X176860139Y-75272602D01*
X177177867Y-75509697D01*
X177486614Y-75756373D01*
X177786223Y-76012356D01*
X178076537Y-76277372D01*
X178357397Y-76551147D01*
X178628645Y-76833407D01*
X178890125Y-77123878D01*
X179141679Y-77422287D01*
X179383148Y-77728359D01*
X179614376Y-78041822D01*
X179835204Y-78362400D01*
X180045475Y-78689820D01*
X180245030Y-79023808D01*
X180433714Y-79364091D01*
X180611366Y-79710394D01*
X180777831Y-80062443D01*
X180932951Y-80419966D01*
X181076566Y-80782687D01*
X181208521Y-81150333D01*
X181328657Y-81522630D01*
X181436817Y-81899305D01*
X181532843Y-82280083D01*
X181616576Y-82664691D01*
X181687861Y-83052854D01*
X181746538Y-83444299D01*
X181792450Y-83838752D01*
X181825440Y-84235939D01*
X181845349Y-84635587D01*
X181852021Y-85037421D01*
X125917273Y-76523042D02*
X125917273Y-76523042D01*
X64221646Y-75468162D02*
X63871252Y-75663285D01*
X63516127Y-75845820D01*
X63156587Y-76015766D01*
X62792947Y-76173124D01*
X62425523Y-76317893D01*
X62054630Y-76450073D01*
X61680583Y-76569665D01*
X61303697Y-76676669D01*
X60924289Y-76771083D01*
X60542673Y-76852909D01*
X60159164Y-76922147D01*
X59774079Y-76978795D01*
X59387732Y-77022855D01*
X59000440Y-77054327D01*
X58612516Y-77073210D01*
X58224277Y-77079504D01*
X57836038Y-77073210D01*
X57448114Y-77054327D01*
X57060822Y-77022855D01*
X56674475Y-76978795D01*
X56289390Y-76922147D01*
X55905881Y-76852909D01*
X55524265Y-76771083D01*
X55144857Y-76676669D01*
X54767971Y-76569665D01*
X54393924Y-76450073D01*
X54023031Y-76317893D01*
X53655607Y-76173124D01*
X53291967Y-76015766D01*
X52932427Y-75845820D01*
X52577302Y-75663285D01*
X52226909Y-75468162D01*
X93312452Y-75586412D02*
X92962057Y-75781535D01*
X92606933Y-75964070D01*
X92247393Y-76134016D01*
X91883753Y-76291374D01*
X91516329Y-76436143D01*
X91145436Y-76568323D01*
X90771388Y-76687915D01*
X90394503Y-76794919D01*
X90015094Y-76889333D01*
X89633478Y-76971159D01*
X89249970Y-77040397D01*
X88864885Y-77097045D01*
X88478538Y-77141105D01*
X88091245Y-77172577D01*
X87703321Y-77191460D01*
X87315083Y-77197754D01*
X86926844Y-77191460D01*
X86538920Y-77172577D01*
X86151627Y-77141105D01*
X85765280Y-77097045D01*
X85380195Y-77040397D01*
X84996687Y-76971159D01*
X84615071Y-76889333D01*
X84235662Y-76794919D01*
X83858777Y-76687915D01*
X83484729Y-76568323D01*
X83113836Y-76436143D01*
X82746412Y-76291374D01*
X82382772Y-76134016D01*
X82023232Y-75964070D01*
X81668108Y-75781535D01*
X81317714Y-75586412D01*
X75320345Y-65170530D02*
X75327016Y-64768696D01*
X75346925Y-64369048D01*
X75379915Y-63971861D01*
X75425827Y-63577408D01*
X75484504Y-63185963D01*
X75555789Y-62797800D01*
X75639522Y-62413193D01*
X75735548Y-62032415D01*
X75843708Y-61655740D01*
X75963844Y-61283443D01*
X76095799Y-60915796D01*
X76239414Y-60553075D01*
X76394534Y-60195553D01*
X76560999Y-59843503D01*
X76738651Y-59497200D01*
X76927335Y-59156918D01*
X77126890Y-58822929D01*
X77337161Y-58495509D01*
X77557989Y-58174931D01*
X77789217Y-57861469D01*
X78030686Y-57555396D01*
X78282240Y-57256987D01*
X78543720Y-56966516D01*
X78814968Y-56684256D01*
X79095828Y-56410481D01*
X79386142Y-56145465D01*
X79685751Y-55889483D01*
X79994498Y-55642807D01*
X80312226Y-55405711D01*
X80638776Y-55178470D01*
X80973991Y-54961358D01*
X81317714Y-54754648D01*
X216382567Y-53463258D02*
X216375895Y-53865091D01*
X216355986Y-54264739D01*
X216322996Y-54661926D01*
X216277084Y-55056379D01*
X216218407Y-55447824D01*
X216147122Y-55835987D01*
X216063389Y-56220594D01*
X215967363Y-56601372D01*
X215859203Y-56978047D01*
X215739067Y-57350344D01*
X215607112Y-57717991D01*
X215463497Y-58080712D01*
X215308377Y-58438234D01*
X215141912Y-58790284D01*
X214964260Y-59136587D01*
X214775576Y-59476869D01*
X214576021Y-59810858D01*
X214365750Y-60138278D01*
X214144922Y-60458856D01*
X213913694Y-60772318D01*
X213672225Y-61078390D01*
X213420671Y-61376799D01*
X213159191Y-61667271D01*
X212887943Y-61949531D01*
X212607083Y-62223305D01*
X212316769Y-62488321D01*
X212017160Y-62744304D01*
X211708413Y-62990980D01*
X211390685Y-63228075D01*
X211064135Y-63455316D01*
X210728920Y-63672428D01*
X210385198Y-63879139D01*
X123913745Y-142649412D02*
X123483765Y-142390827D01*
X123064427Y-142119230D01*
X122655929Y-141834964D01*
X122258468Y-141538369D01*
X121872241Y-141229790D01*
X121497445Y-140909568D01*
X121134277Y-140578047D01*
X120782936Y-140235568D01*
X120443617Y-139882475D01*
X120116518Y-139519110D01*
X119801838Y-139145815D01*
X119499772Y-138762934D01*
X119210517Y-138370808D01*
X118934273Y-137969781D01*
X118671235Y-137560195D01*
X118421600Y-137142393D01*
X118185567Y-136716716D01*
X117963332Y-136283508D01*
X117755093Y-135843112D01*
X117561047Y-135395869D01*
X117381391Y-134942123D01*
X117216322Y-134482216D01*
X117066037Y-134016491D01*
X116930735Y-133545290D01*
X116810612Y-133068955D01*
X116705865Y-132587831D01*
X116616692Y-132102258D01*
X116543290Y-131612580D01*
X116485856Y-131119139D01*
X116444588Y-130622277D01*
X116419682Y-130122338D01*
X116411337Y-129619665D01*
X142865684Y-75530868D02*
X142521961Y-75324157D01*
X142186746Y-75107045D01*
X141860196Y-74879804D01*
X141542468Y-74642709D01*
X141233721Y-74396033D01*
X140934112Y-74140050D01*
X140643798Y-73875034D01*
X140362938Y-73601259D01*
X140091690Y-73318999D01*
X139830210Y-73028528D01*
X139578656Y-72730119D01*
X139337187Y-72424047D01*
X139105959Y-72110584D01*
X138885131Y-71790006D01*
X138674860Y-71462586D01*
X138475305Y-71128598D01*
X138286621Y-70788315D01*
X138108969Y-70442012D01*
X137942504Y-70089963D01*
X137787384Y-69732440D01*
X137643769Y-69369719D01*
X137511814Y-69002073D01*
X137391678Y-68629776D01*
X137283518Y-68253101D01*
X137187492Y-67872323D01*
X137103759Y-67487715D01*
X137032474Y-67099552D01*
X136973797Y-66708107D01*
X136927885Y-66313654D01*
X136894895Y-65916467D01*
X136874986Y-65516819D01*
X136868315Y-65114986D01*
X149247215Y-106569308D02*
X148896820Y-106764431D01*
X148541696Y-106946966D01*
X148182156Y-107116912D01*
X147818516Y-107274270D01*
X147451092Y-107419039D01*
X147080199Y-107551219D01*
X146706151Y-107670811D01*
X146329266Y-107777815D01*
X145949857Y-107872229D01*
X145568241Y-107954055D01*
X145184733Y-108023293D01*
X144799648Y-108079941D01*
X144413301Y-108124001D01*
X144026008Y-108155473D01*
X143638084Y-108174356D01*
X143249846Y-108180650D01*
X142861607Y-108174356D01*
X142473683Y-108155473D01*
X142086390Y-108124001D01*
X141700043Y-108079941D01*
X141314958Y-108023293D01*
X140931450Y-107954055D01*
X140549834Y-107872229D01*
X140170425Y-107777815D01*
X139793540Y-107670811D01*
X139419492Y-107551219D01*
X139048599Y-107419039D01*
X138681175Y-107274270D01*
X138317535Y-107116912D01*
X137957995Y-106946966D01*
X137602871Y-106764431D01*
X137252477Y-106569308D01*
X192714192Y-74621539D02*
X193064586Y-74426415D01*
X193419710Y-74243880D01*
X193779250Y-74073934D01*
X194142890Y-73916576D01*
X194510314Y-73771807D01*
X194881207Y-73639627D01*
X195255255Y-73520035D01*
X195632140Y-73413031D01*
X196011549Y-73318617D01*
X196393165Y-73236791D01*
X196776673Y-73167553D01*
X197161758Y-73110905D01*
X197548105Y-73066845D01*
X197935398Y-73035373D01*
X198323322Y-73016490D01*
X198711561Y-73010196D01*
X199099799Y-73016490D01*
X199487723Y-73035373D01*
X199875016Y-73066845D01*
X200261363Y-73110905D01*
X200646448Y-73167553D01*
X201029956Y-73236791D01*
X201411572Y-73318617D01*
X201790981Y-73413031D01*
X202167866Y-73520035D01*
X202541914Y-73639627D01*
X202912807Y-73771807D01*
X203280231Y-73916576D01*
X203643871Y-74073934D01*
X204003411Y-74243880D01*
X204358535Y-74426415D01*
X204708930Y-74621539D01*
X99309821Y-65170530D02*
X99303149Y-65572363D01*
X99283240Y-65972011D01*
X99250250Y-66369198D01*
X99204338Y-66763651D01*
X99145660Y-67155096D01*
X99074376Y-67543259D01*
X98990642Y-67927867D01*
X98894617Y-68308645D01*
X98786457Y-68685320D01*
X98666321Y-69057617D01*
X98534366Y-69425263D01*
X98390750Y-69787984D01*
X98235631Y-70145507D01*
X98069166Y-70497556D01*
X97891513Y-70843859D01*
X97702830Y-71184142D01*
X97503274Y-71518130D01*
X97293003Y-71845550D01*
X97072175Y-72166128D01*
X96840948Y-72479591D01*
X96599479Y-72785663D01*
X96347925Y-73084072D01*
X96086445Y-73374543D01*
X95815196Y-73656803D01*
X95534336Y-73930578D01*
X95244023Y-74195594D01*
X94944414Y-74451577D01*
X94635667Y-74698253D01*
X94317939Y-74935348D01*
X93991389Y-75162589D01*
X93656174Y-75379701D01*
X93312452Y-75586412D01*
X160857791Y-65114986D02*
X160851119Y-65516819D01*
X160831210Y-65916467D01*
X160798220Y-66313654D01*
X160752308Y-66708107D01*
X160693631Y-67099552D01*
X160622346Y-67487715D01*
X160538613Y-67872323D01*
X160442587Y-68253101D01*
X160334427Y-68629776D01*
X160214291Y-69002073D01*
X160082336Y-69369719D01*
X159938721Y-69732440D01*
X159783601Y-70089963D01*
X159617136Y-70442012D01*
X159439484Y-70788315D01*
X159250800Y-71128598D01*
X159051245Y-71462586D01*
X158840974Y-71790006D01*
X158620146Y-72110584D01*
X158388918Y-72424047D01*
X158147449Y-72730119D01*
X157895895Y-73028528D01*
X157634415Y-73318999D01*
X157363167Y-73601259D01*
X157082307Y-73875034D01*
X156791993Y-74140050D01*
X156492384Y-74396033D01*
X156183637Y-74642709D01*
X155865909Y-74879804D01*
X155539359Y-75107045D01*
X155204144Y-75324157D01*
X154860422Y-75530868D01*
X210706299Y-85037421D02*
X210706299Y-85037421D01*
X146420969Y-129619665D02*
X146412623Y-130122338D01*
X146387717Y-130622277D01*
X146346449Y-131119139D01*
X146289015Y-131612580D01*
X146215613Y-132102258D01*
X146126440Y-132587831D01*
X146021693Y-133068955D01*
X145901570Y-133545290D01*
X145766267Y-134016491D01*
X145615983Y-134482216D01*
X145450914Y-134942123D01*
X145271258Y-135395869D01*
X145077212Y-135843112D01*
X144868972Y-136283508D01*
X144646737Y-136716716D01*
X144410704Y-137142393D01*
X144161070Y-137560195D01*
X143898032Y-137969781D01*
X143621787Y-138370808D01*
X143332533Y-138762934D01*
X143030467Y-139145815D01*
X142715786Y-139519110D01*
X142388688Y-139882475D01*
X142049369Y-140235568D01*
X141698027Y-140578047D01*
X141334860Y-140909568D01*
X140960064Y-141229790D01*
X140573837Y-141538369D01*
X140176375Y-141834964D01*
X139767877Y-142119230D01*
X139348540Y-142390827D01*
X138918561Y-142649412D01*
X136868315Y-65114986D02*
X136874986Y-64713152D01*
X136894895Y-64313504D01*
X136927885Y-63916317D01*
X136973797Y-63521864D01*
X137032474Y-63130419D01*
X137103759Y-62742256D01*
X137187492Y-62357649D01*
X137283518Y-61976871D01*
X137391678Y-61600196D01*
X137511814Y-61227899D01*
X137643769Y-60860252D01*
X137787384Y-60497531D01*
X137942504Y-60140009D01*
X138108969Y-59787959D01*
X138286621Y-59441656D01*
X138475305Y-59101374D01*
X138674860Y-58767385D01*
X138885131Y-58439965D01*
X139105959Y-58119387D01*
X139337187Y-57805925D01*
X139578656Y-57499852D01*
X139830210Y-57201443D01*
X140091690Y-56910972D01*
X140362938Y-56628712D01*
X140643798Y-56354937D01*
X140934112Y-56089921D01*
X141233721Y-55833939D01*
X141542468Y-55587263D01*
X141860196Y-55350167D01*
X142186746Y-55122926D01*
X142521961Y-54905814D01*
X142865684Y-54699104D01*
X46229540Y-65052280D02*
X46236211Y-64650446D01*
X46256120Y-64250798D01*
X46289110Y-63853611D01*
X46335022Y-63459158D01*
X46393699Y-63067713D01*
X46464984Y-62679550D01*
X46548717Y-62294943D01*
X46644743Y-61914165D01*
X46752903Y-61537490D01*
X46873039Y-61165193D01*
X47004994Y-60797546D01*
X47148609Y-60434825D01*
X47303729Y-60077303D01*
X47470194Y-59725253D01*
X47647846Y-59378950D01*
X47836530Y-59038668D01*
X48036085Y-58704679D01*
X48246356Y-58377259D01*
X48467184Y-58056681D01*
X48698412Y-57743219D01*
X48939881Y-57437146D01*
X49191435Y-57138737D01*
X49452915Y-56848266D01*
X49724163Y-56566006D01*
X50005023Y-56292231D01*
X50295337Y-56027215D01*
X50594946Y-55771233D01*
X50903693Y-55524557D01*
X51221421Y-55287461D01*
X51547971Y-55060220D01*
X51883186Y-54843108D01*
X52226909Y-54636398D01*
X175854652Y-95453303D02*
X175504257Y-95648426D01*
X175149133Y-95830961D01*
X174789593Y-96000907D01*
X174425953Y-96158265D01*
X174058529Y-96303034D01*
X173687636Y-96435214D01*
X173313588Y-96554806D01*
X172936703Y-96661809D01*
X172557294Y-96756224D01*
X172175678Y-96838050D01*
X171792170Y-96907287D01*
X171407085Y-96963936D01*
X171020738Y-97007996D01*
X170633445Y-97039467D01*
X170245521Y-97058350D01*
X169857283Y-97064645D01*
X169469044Y-97058350D01*
X169081120Y-97039467D01*
X168693827Y-97007996D01*
X168307480Y-96963936D01*
X167922395Y-96907287D01*
X167538887Y-96838050D01*
X167157271Y-96756224D01*
X166777862Y-96661809D01*
X166400977Y-96554806D01*
X166026929Y-96435214D01*
X165656036Y-96303034D01*
X165288612Y-96158265D01*
X164924972Y-96000907D01*
X164565432Y-95830961D01*
X164210308Y-95648426D01*
X163859914Y-95453303D01*
X101927798Y-76523042D02*
X101934469Y-76121208D01*
X101954378Y-75721560D01*
X101987368Y-75324373D01*
X102033280Y-74929920D01*
X102091957Y-74538475D01*
X102163242Y-74150312D01*
X102246975Y-73765704D01*
X102343001Y-73384926D01*
X102451161Y-73008251D01*
X102571297Y-72635954D01*
X102703252Y-72268308D01*
X102846867Y-71905587D01*
X103001987Y-71548064D01*
X103168451Y-71196015D01*
X103346104Y-70849712D01*
X103534788Y-70509429D01*
X103734343Y-70175441D01*
X103944614Y-69848021D01*
X104165442Y-69527443D01*
X104396669Y-69213980D01*
X104638139Y-68907908D01*
X104889692Y-68609499D01*
X105151172Y-68319028D01*
X105422421Y-68036768D01*
X105703281Y-67762993D01*
X105993594Y-67497977D01*
X106293203Y-67241994D01*
X106601950Y-66995318D01*
X106919678Y-66758223D01*
X107246228Y-66530982D01*
X107581443Y-66313870D01*
X107925166Y-66107160D01*
X192393091Y-53463258D02*
X192399762Y-53061424D01*
X192419671Y-52661776D01*
X192452661Y-52264589D01*
X192498573Y-51870136D01*
X192557250Y-51478691D01*
X192628535Y-51090528D01*
X192712268Y-50705920D01*
X192808294Y-50325142D01*
X192916454Y-49948467D01*
X193036590Y-49576170D01*
X193168545Y-49208524D01*
X193312160Y-48845802D01*
X193467280Y-48488280D01*
X193633745Y-48136230D01*
X193811397Y-47789927D01*
X194000081Y-47449645D01*
X194199636Y-47115656D01*
X194409907Y-46788236D01*
X194630735Y-46467658D01*
X194861963Y-46154196D01*
X195103432Y-45848124D01*
X195354986Y-45549715D01*
X195616466Y-45259243D01*
X195887714Y-44976983D01*
X196168574Y-44703209D01*
X196458888Y-44438193D01*
X196758497Y-44182210D01*
X197067244Y-43935534D01*
X197384972Y-43698439D01*
X197711522Y-43471198D01*
X198046737Y-43254086D01*
X198390460Y-43047376D01*
X181852021Y-85037421D02*
X181852021Y-85037421D01*
X169417923Y-63997400D02*
X169074200Y-63790689D01*
X168738985Y-63573577D01*
X168412435Y-63346336D01*
X168094707Y-63109241D01*
X167785960Y-62862565D01*
X167486351Y-62606582D01*
X167196038Y-62341566D01*
X166915178Y-62067791D01*
X166643929Y-61785531D01*
X166382449Y-61495060D01*
X166130896Y-61196651D01*
X165889426Y-60890579D01*
X165658199Y-60577116D01*
X165437371Y-60256538D01*
X165227100Y-59929118D01*
X165027545Y-59595130D01*
X164838861Y-59254847D01*
X164661208Y-58908544D01*
X164494744Y-58556495D01*
X164339624Y-58198972D01*
X164196009Y-57836251D01*
X164064054Y-57468605D01*
X163943918Y-57096308D01*
X163835758Y-56719633D01*
X163739732Y-56338855D01*
X163655999Y-55954247D01*
X163584714Y-55566084D01*
X163526037Y-55174639D01*
X163480125Y-54780186D01*
X163447135Y-54382999D01*
X163427226Y-53983351D01*
X163420555Y-53581518D01*
X210706299Y-85037421D02*
X210699627Y-85439254D01*
X210679718Y-85838902D01*
X210646728Y-86236089D01*
X210600816Y-86630542D01*
X210542139Y-87021987D01*
X210470854Y-87410150D01*
X210387121Y-87794757D01*
X210291095Y-88175535D01*
X210182935Y-88552210D01*
X210062799Y-88924507D01*
X209930844Y-89292154D01*
X209787229Y-89654875D01*
X209632109Y-90012397D01*
X209465644Y-90364447D01*
X209287992Y-90710750D01*
X209099308Y-91051033D01*
X208899753Y-91385021D01*
X208689482Y-91712441D01*
X208468654Y-92033019D01*
X208237426Y-92346481D01*
X207995957Y-92652554D01*
X207744403Y-92950963D01*
X207482923Y-93241434D01*
X207211675Y-93523694D01*
X206930815Y-93797469D01*
X206640501Y-94062485D01*
X206340892Y-94318467D01*
X206032145Y-94565143D01*
X205714417Y-94802239D01*
X205387867Y-95029480D01*
X205052652Y-95246592D01*
X204708930Y-95453303D01*
X107925166Y-66107160D02*
X108275560Y-65912036D01*
X108630684Y-65729501D01*
X108990224Y-65559555D01*
X109353864Y-65402197D01*
X109721288Y-65257428D01*
X110092181Y-65125248D01*
X110466229Y-65005656D01*
X110843114Y-64898652D01*
X111222523Y-64804238D01*
X111604139Y-64722412D01*
X111987647Y-64653174D01*
X112372732Y-64596526D01*
X112759079Y-64552466D01*
X113146372Y-64520994D01*
X113534296Y-64502111D01*
X113922535Y-64495817D01*
X114310773Y-64502111D01*
X114698697Y-64520994D01*
X115085990Y-64552466D01*
X115472337Y-64596526D01*
X115857422Y-64653174D01*
X116240930Y-64722412D01*
X116622546Y-64804238D01*
X117001955Y-64898652D01*
X117378840Y-65005656D01*
X117752888Y-65125248D01*
X118123781Y-65257428D01*
X118491205Y-65402197D01*
X118854845Y-65559555D01*
X119214385Y-65729501D01*
X119569509Y-65912036D01*
X119919904Y-66107160D01*
X227362991Y-43283884D02*
X227713385Y-43088760D01*
X228068509Y-42906225D01*
X228428049Y-42736279D01*
X228791689Y-42578921D01*
X229159113Y-42434152D01*
X229530006Y-42301972D01*
X229904054Y-42182380D01*
X230280939Y-42075376D01*
X230660348Y-41980962D01*
X231041964Y-41899136D01*
X231425472Y-41829898D01*
X231810557Y-41773250D01*
X232196904Y-41729190D01*
X232584197Y-41697718D01*
X232972121Y-41678835D01*
X233360360Y-41672541D01*
X233748598Y-41678835D01*
X234136522Y-41697718D01*
X234523815Y-41729190D01*
X234910162Y-41773250D01*
X235295247Y-41829898D01*
X235678755Y-41899136D01*
X236060371Y-41980962D01*
X236439780Y-42075376D01*
X236816665Y-42182380D01*
X237190713Y-42301972D01*
X237561606Y-42434152D01*
X237929030Y-42578921D01*
X238292670Y-42736279D01*
X238652210Y-42906225D01*
X239007334Y-43088760D01*
X239357729Y-43283884D01*
X181412661Y-43165636D02*
X181756383Y-43372346D01*
X182091598Y-43589458D01*
X182418148Y-43816699D01*
X182735876Y-44053795D01*
X183044623Y-44300471D01*
X183344232Y-44556453D01*
X183634546Y-44821469D01*
X183915406Y-45095244D01*
X184186654Y-45377504D01*
X184448134Y-45667975D01*
X184699688Y-45966384D01*
X184941157Y-46272457D01*
X185172385Y-46585919D01*
X185393213Y-46906497D01*
X185603484Y-47233917D01*
X185803039Y-47567906D01*
X185991723Y-47908188D01*
X186169375Y-48254491D01*
X186335840Y-48606541D01*
X186490960Y-48964063D01*
X186634575Y-49326784D01*
X186766530Y-49694431D01*
X186886666Y-50066728D01*
X186994826Y-50443403D01*
X187090852Y-50824181D01*
X187174585Y-51208788D01*
X187245870Y-51596951D01*
X187304547Y-51988396D01*
X187350459Y-52382849D01*
X187383449Y-52780036D01*
X187403358Y-53179684D01*
X187410030Y-53581518D01*
X181852021Y-85037421D02*
X181845349Y-85439254D01*
X181825440Y-85838902D01*
X181792450Y-86236089D01*
X181746538Y-86630542D01*
X181687861Y-87021987D01*
X181616576Y-87410150D01*
X181532843Y-87794757D01*
X181436817Y-88175535D01*
X181328657Y-88552210D01*
X181208521Y-88924507D01*
X181076566Y-89292154D01*
X180932951Y-89654875D01*
X180777831Y-90012397D01*
X180611366Y-90364447D01*
X180433714Y-90710750D01*
X180245030Y-91051033D01*
X180045475Y-91385021D01*
X179835204Y-91712441D01*
X179614376Y-92033019D01*
X179383148Y-92346481D01*
X179141679Y-92652554D01*
X178890125Y-92950963D01*
X178628645Y-93241434D01*
X178357397Y-93523694D01*
X178076537Y-93797469D01*
X177786223Y-94062485D01*
X177486614Y-94318467D01*
X177177867Y-94565143D01*
X176860139Y-94802239D01*
X176533589Y-95029480D01*
X176198374Y-95246592D01*
X175854652Y-95453303D01*
X198390460Y-43047376D02*
X198740854Y-42852252D01*
X199095978Y-42669717D01*
X199455518Y-42499771D01*
X199819158Y-42342413D01*
X200186582Y-42197644D01*
X200557475Y-42065464D01*
X200931523Y-41945872D01*
X201308408Y-41838868D01*
X201687817Y-41744454D01*
X202069433Y-41662628D01*
X202452941Y-41593390D01*
X202838026Y-41536742D01*
X203224373Y-41492682D01*
X203611666Y-41461210D01*
X203999590Y-41442327D01*
X204387829Y-41436033D01*
X204776067Y-41442327D01*
X205163991Y-41461210D01*
X205551284Y-41492682D01*
X205937631Y-41536742D01*
X206322716Y-41593390D01*
X206706224Y-41662628D01*
X207087840Y-41744454D01*
X207467249Y-41838868D01*
X207844134Y-41945872D01*
X208218182Y-42065464D01*
X208589075Y-42197644D01*
X208956499Y-42342413D01*
X209320139Y-42499771D01*
X209679679Y-42669717D01*
X210034803Y-42852252D01*
X210385198Y-43047376D01*
X221365622Y-53699766D02*
X221372293Y-53297932D01*
X221392202Y-52898284D01*
X221425192Y-52501097D01*
X221471104Y-52106644D01*
X221529781Y-51715199D01*
X221601066Y-51327036D01*
X221684799Y-50942429D01*
X221780825Y-50561651D01*
X221888985Y-50184976D01*
X222009121Y-49812679D01*
X222141076Y-49445032D01*
X222284691Y-49082311D01*
X222439811Y-48724789D01*
X222606276Y-48372739D01*
X222783928Y-48026436D01*
X222972612Y-47686154D01*
X223172167Y-47352165D01*
X223382438Y-47024745D01*
X223603266Y-46704167D01*
X223834494Y-46390705D01*
X224075963Y-46084632D01*
X224327517Y-45786223D01*
X224588997Y-45495752D01*
X224860245Y-45213492D01*
X225141105Y-44939717D01*
X225431419Y-44674701D01*
X225731028Y-44418719D01*
X226039775Y-44172043D01*
X226357503Y-43934947D01*
X226684053Y-43707706D01*
X227019268Y-43490594D01*
X227362991Y-43283884D01*
X70219015Y-65052280D02*
X70212343Y-65454113D01*
X70192434Y-65853761D01*
X70159444Y-66250948D01*
X70113532Y-66645401D01*
X70054855Y-67036846D01*
X69983570Y-67425009D01*
X69899837Y-67809616D01*
X69803811Y-68190394D01*
X69695651Y-68567069D01*
X69575515Y-68939366D01*
X69443560Y-69307013D01*
X69299945Y-69669734D01*
X69144825Y-70027256D01*
X68978360Y-70379306D01*
X68800708Y-70725609D01*
X68612024Y-71065892D01*
X68412469Y-71399880D01*
X68202198Y-71727300D01*
X67981370Y-72047878D01*
X67750142Y-72361340D01*
X67508673Y-72667413D01*
X67257119Y-72965822D01*
X66995639Y-73256293D01*
X66724391Y-73538553D01*
X66443531Y-73812328D01*
X66153217Y-74077344D01*
X65853608Y-74333326D01*
X65544861Y-74580002D01*
X65227133Y-74817098D01*
X64900583Y-75044339D01*
X64565368Y-75261451D01*
X64221646Y-75468162D01*
X163859914Y-74621539D02*
X164210308Y-74426415D01*
X164565432Y-74243880D01*
X164924972Y-74073934D01*
X165288612Y-73916576D01*
X165656036Y-73771807D01*
X166026929Y-73639627D01*
X166400977Y-73520035D01*
X166777862Y-73413031D01*
X167157271Y-73318617D01*
X167538887Y-73236791D01*
X167922395Y-73167553D01*
X168307480Y-73110905D01*
X168693827Y-73066845D01*
X169081120Y-73035373D01*
X169469044Y-73016490D01*
X169857283Y-73010196D01*
X170245521Y-73016490D01*
X170633445Y-73035373D01*
X171020738Y-73066845D01*
X171407085Y-73110905D01*
X171792170Y-73167553D01*
X172175678Y-73236791D01*
X172557294Y-73318617D01*
X172936703Y-73413031D01*
X173313588Y-73520035D01*
X173687636Y-73639627D01*
X174058529Y-73771807D01*
X174425953Y-73916576D01*
X174789593Y-74073934D01*
X175149133Y-74243880D01*
X175504257Y-74426415D01*
X175854652Y-74621539D01*
X233918028Y-74621539D02*
X234261750Y-74828249D01*
X234596965Y-75045361D01*
X234923515Y-75272602D01*
X235241243Y-75509697D01*
X235549990Y-75756373D01*
X235849599Y-76012356D01*
X236139913Y-76277372D01*
X236420773Y-76551147D01*
X236692021Y-76833407D01*
X236953501Y-77123878D01*
X237205055Y-77422287D01*
X237446524Y-77728359D01*
X237677752Y-78041822D01*
X237898580Y-78362400D01*
X238108851Y-78689820D01*
X238308406Y-79023808D01*
X238497090Y-79364091D01*
X238674742Y-79710394D01*
X238841207Y-80062443D01*
X238996327Y-80419966D01*
X239139942Y-80782687D01*
X239271897Y-81150333D01*
X239392033Y-81522630D01*
X239500193Y-81899305D01*
X239596219Y-82280083D01*
X239679952Y-82664691D01*
X239751237Y-83052854D01*
X239809914Y-83444299D01*
X239855826Y-83838752D01*
X239888816Y-84235939D01*
X239908725Y-84635587D01*
X239915397Y-85037421D01*
X123913745Y-116589918D02*
X124352070Y-116345828D01*
X124796313Y-116117486D01*
X125246079Y-115904891D01*
X125700974Y-115708045D01*
X126160604Y-115526946D01*
X126624573Y-115361595D01*
X127092487Y-115211991D01*
X127563952Y-115078136D01*
X128038573Y-114960028D01*
X128515955Y-114857668D01*
X128995705Y-114771055D01*
X129477428Y-114700190D01*
X129960728Y-114645073D01*
X130445212Y-114605704D01*
X130930485Y-114582082D01*
X131416153Y-114574209D01*
X131901820Y-114582082D01*
X132387093Y-114605704D01*
X132871577Y-114645073D01*
X133354877Y-114700190D01*
X133836600Y-114771055D01*
X134316350Y-114857668D01*
X134793732Y-114960028D01*
X135268353Y-115078136D01*
X135739818Y-115211991D01*
X136207732Y-115361595D01*
X136671701Y-115526946D01*
X137131331Y-115708045D01*
X137586226Y-115904891D01*
X138035992Y-116117486D01*
X138480235Y-116345828D01*
X138918561Y-116589918D01*
X216382567Y-53463258D02*
X216382567Y-53463258D01*
D11*
X64666666Y-107428571D02*
X62000000Y-107428571D01*
X62000000Y-111619047D02*
X62000000Y-103619047D01*
X65809523Y-103619047D01*
X70000000Y-111619047D02*
X69238095Y-111238095D01*
X68857142Y-110476190D01*
X68857142Y-103619047D01*
X76476190Y-111619047D02*
X76476190Y-107428571D01*
X76095238Y-106666666D01*
X75333333Y-106285714D01*
X73809523Y-106285714D01*
X73047619Y-106666666D01*
X76476190Y-111238095D02*
X75714285Y-111619047D01*
X73809523Y-111619047D01*
X73047619Y-111238095D01*
X72666666Y-110476190D01*
X72666666Y-109714285D01*
X73047619Y-108952380D01*
X73809523Y-108571428D01*
X75714285Y-108571428D01*
X76476190Y-108190476D01*
X79142857Y-106285714D02*
X82190476Y-106285714D01*
X80285714Y-103619047D02*
X80285714Y-110476190D01*
X80666666Y-111238095D01*
X81428571Y-111619047D01*
X82190476Y-111619047D01*
X84857142Y-111619047D02*
X84857142Y-103619047D01*
X84857142Y-106666666D02*
X85619047Y-106285714D01*
X87142857Y-106285714D01*
X87904761Y-106666666D01*
X88285714Y-107047619D01*
X88666666Y-107809523D01*
X88666666Y-110095238D01*
X88285714Y-110857142D01*
X87904761Y-111238095D01*
X87142857Y-111619047D01*
X85619047Y-111619047D01*
X84857142Y-111238095D01*
X93238095Y-111619047D02*
X92476190Y-111238095D01*
X92095238Y-110857142D01*
X91714285Y-110095238D01*
X91714285Y-107809523D01*
X92095238Y-107047619D01*
X92476190Y-106666666D01*
X93238095Y-106285714D01*
X94380952Y-106285714D01*
X95142857Y-106666666D01*
X95523809Y-107047619D01*
X95904761Y-107809523D01*
X95904761Y-110095238D01*
X95523809Y-110857142D01*
X95142857Y-111238095D01*
X94380952Y-111619047D01*
X93238095Y-111619047D01*
X98571428Y-111619047D02*
X102761904Y-106285714D01*
X98571428Y-106285714D02*
X102761904Y-111619047D01*
D12*
X111642857Y-62928571D02*
X111785714Y-62976190D01*
X111833333Y-63023809D01*
X111880952Y-63119047D01*
X111880952Y-63261904D01*
X111833333Y-63357142D01*
X111785714Y-63404761D01*
X111690476Y-63452380D01*
X111309523Y-63452380D01*
X111309523Y-62452380D01*
X111642857Y-62452380D01*
X111738095Y-62500000D01*
X111785714Y-62547619D01*
X111833333Y-62642857D01*
X111833333Y-62738095D01*
X111785714Y-62833333D01*
X111738095Y-62880952D01*
X111642857Y-62928571D01*
X111309523Y-62928571D01*
X112500000Y-62452380D02*
X112690476Y-62452380D01*
X112785714Y-62500000D01*
X112880952Y-62595238D01*
X112928571Y-62785714D01*
X112928571Y-63119047D01*
X112880952Y-63309523D01*
X112785714Y-63404761D01*
X112690476Y-63452380D01*
X112500000Y-63452380D01*
X112404761Y-63404761D01*
X112309523Y-63309523D01*
X112261904Y-63119047D01*
X112261904Y-62785714D01*
X112309523Y-62595238D01*
X112404761Y-62500000D01*
X112500000Y-62452380D01*
X113547619Y-62452380D02*
X113738095Y-62452380D01*
X113833333Y-62500000D01*
X113928571Y-62595238D01*
X113976190Y-62785714D01*
X113976190Y-63119047D01*
X113928571Y-63309523D01*
X113833333Y-63404761D01*
X113738095Y-63452380D01*
X113547619Y-63452380D01*
X113452380Y-63404761D01*
X113357142Y-63309523D01*
X113309523Y-63119047D01*
X113309523Y-62785714D01*
X113357142Y-62595238D01*
X113452380Y-62500000D01*
X113547619Y-62452380D01*
X114261904Y-62452380D02*
X114833333Y-62452380D01*
X114547619Y-63452380D02*
X114547619Y-62452380D01*
X118547619Y-63452380D02*
X118214285Y-62976190D01*
X117976190Y-63452380D02*
X117976190Y-62452380D01*
X118357142Y-62452380D01*
X118452380Y-62500000D01*
X118500000Y-62547619D01*
X118547619Y-62642857D01*
X118547619Y-62785714D01*
X118500000Y-62880952D01*
X118452380Y-62928571D01*
X118357142Y-62976190D01*
X117976190Y-62976190D01*
X118976190Y-62928571D02*
X119309523Y-62928571D01*
X119452380Y-63452380D02*
X118976190Y-63452380D01*
X118976190Y-62452380D01*
X119452380Y-62452380D01*
X119833333Y-63404761D02*
X119976190Y-63452380D01*
X120214285Y-63452380D01*
X120309523Y-63404761D01*
X120357142Y-63357142D01*
X120404761Y-63261904D01*
X120404761Y-63166666D01*
X120357142Y-63071428D01*
X120309523Y-63023809D01*
X120214285Y-62976190D01*
X120023809Y-62928571D01*
X119928571Y-62880952D01*
X119880952Y-62833333D01*
X119833333Y-62738095D01*
X119833333Y-62642857D01*
X119880952Y-62547619D01*
X119928571Y-62500000D01*
X120023809Y-62452380D01*
X120261904Y-62452380D01*
X120404761Y-62500000D01*
X120833333Y-62928571D02*
X121166666Y-62928571D01*
X121309523Y-63452380D02*
X120833333Y-63452380D01*
X120833333Y-62452380D01*
X121309523Y-62452380D01*
X121595238Y-62452380D02*
X122166666Y-62452380D01*
X121880952Y-63452380D02*
X121880952Y-62452380D01*
D13*
X171849904Y-139271428D02*
X171849904Y-140890476D01*
X171754666Y-141080952D01*
X171659428Y-141176190D01*
X171468952Y-141271428D01*
X171183238Y-141271428D01*
X170992761Y-141176190D01*
X171849904Y-140509523D02*
X171659428Y-140604761D01*
X171278476Y-140604761D01*
X171088000Y-140509523D01*
X170992761Y-140414285D01*
X170897523Y-140223809D01*
X170897523Y-139652380D01*
X170992761Y-139461904D01*
X171088000Y-139366666D01*
X171278476Y-139271428D01*
X171659428Y-139271428D01*
X171849904Y-139366666D01*
X172802285Y-140604761D02*
X172802285Y-139271428D01*
X172802285Y-138604761D02*
X172707047Y-138700000D01*
X172802285Y-138795238D01*
X172897523Y-138700000D01*
X172802285Y-138604761D01*
X172802285Y-138795238D01*
X173468952Y-139271428D02*
X174230857Y-139271428D01*
X173754666Y-138604761D02*
X173754666Y-140319047D01*
X173849904Y-140509523D01*
X174040380Y-140604761D01*
X174230857Y-140604761D01*
X174897523Y-140604761D02*
X174897523Y-138604761D01*
X175754666Y-140604761D02*
X175754666Y-139557142D01*
X175659428Y-139366666D01*
X175468952Y-139271428D01*
X175183238Y-139271428D01*
X174992761Y-139366666D01*
X174897523Y-139461904D01*
X177564190Y-139271428D02*
X177564190Y-140604761D01*
X176707047Y-139271428D02*
X176707047Y-140319047D01*
X176802285Y-140509523D01*
X176992761Y-140604761D01*
X177278476Y-140604761D01*
X177468952Y-140509523D01*
X177564190Y-140414285D01*
X178516571Y-140604761D02*
X178516571Y-138604761D01*
X178516571Y-139366666D02*
X178707047Y-139271428D01*
X179088000Y-139271428D01*
X179278476Y-139366666D01*
X179373714Y-139461904D01*
X179468952Y-139652380D01*
X179468952Y-140223809D01*
X179373714Y-140414285D01*
X179278476Y-140509523D01*
X179088000Y-140604761D01*
X178707047Y-140604761D01*
X178516571Y-140509523D01*
X180326095Y-140414285D02*
X180421333Y-140509523D01*
X180326095Y-140604761D01*
X180230857Y-140509523D01*
X180326095Y-140414285D01*
X180326095Y-140604761D01*
X182135619Y-140509523D02*
X181945142Y-140604761D01*
X181564190Y-140604761D01*
X181373714Y-140509523D01*
X181278476Y-140414285D01*
X181183238Y-140223809D01*
X181183238Y-139652380D01*
X181278476Y-139461904D01*
X181373714Y-139366666D01*
X181564190Y-139271428D01*
X181945142Y-139271428D01*
X182135619Y-139366666D01*
X183278476Y-140604761D02*
X183088000Y-140509523D01*
X182992761Y-140414285D01*
X182897523Y-140223809D01*
X182897523Y-139652380D01*
X182992761Y-139461904D01*
X183088000Y-139366666D01*
X183278476Y-139271428D01*
X183564190Y-139271428D01*
X183754666Y-139366666D01*
X183849904Y-139461904D01*
X183945142Y-139652380D01*
X183945142Y-140223809D01*
X183849904Y-140414285D01*
X183754666Y-140509523D01*
X183564190Y-140604761D01*
X183278476Y-140604761D01*
X184802285Y-140604761D02*
X184802285Y-139271428D01*
X184802285Y-139461904D02*
X184897523Y-139366666D01*
X185088000Y-139271428D01*
X185373714Y-139271428D01*
X185564190Y-139366666D01*
X185659428Y-139557142D01*
X185659428Y-140604761D01*
X185659428Y-139557142D02*
X185754666Y-139366666D01*
X185945142Y-139271428D01*
X186230857Y-139271428D01*
X186421333Y-139366666D01*
X186516571Y-139557142D01*
X186516571Y-140604761D01*
X188897523Y-138509523D02*
X187183238Y-141080952D01*
X189564190Y-140604761D02*
X189564190Y-139271428D01*
X189564190Y-139461904D02*
X189659428Y-139366666D01*
X189849904Y-139271428D01*
X190135619Y-139271428D01*
X190326095Y-139366666D01*
X190421333Y-139557142D01*
X190421333Y-140604761D01*
X190421333Y-139557142D02*
X190516571Y-139366666D01*
X190707047Y-139271428D01*
X190992761Y-139271428D01*
X191183238Y-139366666D01*
X191278476Y-139557142D01*
X191278476Y-140604761D01*
X192040380Y-140604761D02*
X193088000Y-139271428D01*
X192040380Y-139271428D02*
X193088000Y-140604761D01*
X194707047Y-140604761D02*
X194707047Y-138604761D01*
X194707047Y-140509523D02*
X194516571Y-140604761D01*
X194135619Y-140604761D01*
X193945142Y-140509523D01*
X193849904Y-140414285D01*
X193754666Y-140223809D01*
X193754666Y-139652380D01*
X193849904Y-139461904D01*
X193945142Y-139366666D01*
X194135619Y-139271428D01*
X194516571Y-139271428D01*
X194707047Y-139366666D01*
X196707047Y-140604761D02*
X195564190Y-140604761D01*
X196135619Y-140604761D02*
X196135619Y-138604761D01*
X195945142Y-138890476D01*
X195754666Y-139080952D01*
X195564190Y-139176190D01*
X197373714Y-138604761D02*
X198611809Y-138604761D01*
X197945142Y-139366666D01*
X198230857Y-139366666D01*
X198421333Y-139461904D01*
X198516571Y-139557142D01*
X198611809Y-139747619D01*
X198611809Y-140223809D01*
X198516571Y-140414285D01*
X198421333Y-140509523D01*
X198230857Y-140604761D01*
X197659428Y-140604761D01*
X197468952Y-140509523D01*
X197373714Y-140414285D01*
X200326095Y-138604761D02*
X199945142Y-138604761D01*
X199754666Y-138700000D01*
X199659428Y-138795238D01*
X199468952Y-139080952D01*
X199373714Y-139461904D01*
X199373714Y-140223809D01*
X199468952Y-140414285D01*
X199564190Y-140509523D01*
X199754666Y-140604761D01*
X200135619Y-140604761D01*
X200326095Y-140509523D01*
X200421333Y-140414285D01*
X200516571Y-140223809D01*
X200516571Y-139747619D01*
X200421333Y-139557142D01*
X200326095Y-139461904D01*
X200135619Y-139366666D01*
X199754666Y-139366666D01*
X199564190Y-139461904D01*
X199468952Y-139557142D01*
X199373714Y-139747619D01*
X202326095Y-138604761D02*
X201373714Y-138604761D01*
X201278476Y-139557142D01*
X201373714Y-139461904D01*
X201564190Y-139366666D01*
X202040380Y-139366666D01*
X202230857Y-139461904D01*
X202326095Y-139557142D01*
X202421333Y-139747619D01*
X202421333Y-140223809D01*
X202326095Y-140414285D01*
X202230857Y-140509523D01*
X202040380Y-140604761D01*
X201564190Y-140604761D01*
X201373714Y-140509523D01*
X201278476Y-140414285D01*
X204707047Y-138509523D02*
X202992761Y-141080952D01*
X205088000Y-139271428D02*
X205849904Y-139271428D01*
X205373714Y-140604761D02*
X205373714Y-138890476D01*
X205468952Y-138700000D01*
X205659428Y-138604761D01*
X205849904Y-138604761D01*
X206802285Y-140604761D02*
X206611809Y-140509523D01*
X206516571Y-140319047D01*
X206516571Y-138604761D01*
X208421333Y-140604761D02*
X208421333Y-139557142D01*
X208326095Y-139366666D01*
X208135619Y-139271428D01*
X207754666Y-139271428D01*
X207564190Y-139366666D01*
X208421333Y-140509523D02*
X208230857Y-140604761D01*
X207754666Y-140604761D01*
X207564190Y-140509523D01*
X207468952Y-140319047D01*
X207468952Y-140128571D01*
X207564190Y-139938095D01*
X207754666Y-139842857D01*
X208230857Y-139842857D01*
X208421333Y-139747619D01*
X209088000Y-139271428D02*
X209849904Y-139271428D01*
X209373714Y-138604761D02*
X209373714Y-140319047D01*
X209468952Y-140509523D01*
X209659428Y-140604761D01*
X209849904Y-140604761D01*
X210516571Y-140604761D02*
X210516571Y-138604761D01*
X210516571Y-139366666D02*
X210707047Y-139271428D01*
X211088000Y-139271428D01*
X211278476Y-139366666D01*
X211373714Y-139461904D01*
X211468952Y-139652380D01*
X211468952Y-140223809D01*
X211373714Y-140414285D01*
X211278476Y-140509523D01*
X211088000Y-140604761D01*
X210707047Y-140604761D01*
X210516571Y-140509523D01*
X212611809Y-140604761D02*
X212421333Y-140509523D01*
X212326095Y-140414285D01*
X212230857Y-140223809D01*
X212230857Y-139652380D01*
X212326095Y-139461904D01*
X212421333Y-139366666D01*
X212611809Y-139271428D01*
X212897523Y-139271428D01*
X213088000Y-139366666D01*
X213183238Y-139461904D01*
X213278476Y-139652380D01*
X213278476Y-140223809D01*
X213183238Y-140414285D01*
X213088000Y-140509523D01*
X212897523Y-140604761D01*
X212611809Y-140604761D01*
X213945142Y-140604761D02*
X214992761Y-139271428D01*
X213945142Y-139271428D02*
X214992761Y-140604761D01*
X215278476Y-140795238D02*
X216802285Y-140795238D01*
X217278476Y-140604761D02*
X217278476Y-139271428D01*
X217278476Y-139652380D02*
X217373714Y-139461904D01*
X217468952Y-139366666D01*
X217659428Y-139271428D01*
X217849904Y-139271428D01*
X219373714Y-139271428D02*
X219373714Y-140890476D01*
X219278476Y-141080952D01*
X219183238Y-141176190D01*
X218992761Y-141271428D01*
X218707047Y-141271428D01*
X218516571Y-141176190D01*
X219373714Y-140509523D02*
X219183238Y-140604761D01*
X218802285Y-140604761D01*
X218611809Y-140509523D01*
X218516571Y-140414285D01*
X218421333Y-140223809D01*
X218421333Y-139652380D01*
X218516571Y-139461904D01*
X218611809Y-139366666D01*
X218802285Y-139271428D01*
X219183238Y-139271428D01*
X219373714Y-139366666D01*
X220326095Y-140604761D02*
X220326095Y-138604761D01*
X220326095Y-139366666D02*
X220516571Y-139271428D01*
X220897523Y-139271428D01*
X221087999Y-139366666D01*
X221183238Y-139461904D01*
X221278476Y-139652380D01*
X221278476Y-140223809D01*
X221183238Y-140414285D01*
X221087999Y-140509523D01*
X220897523Y-140604761D01*
X220516571Y-140604761D01*
X220326095Y-140509523D01*
D12*
X195462857Y-142533714D02*
X195843809Y-142533714D01*
X195605714Y-143200380D02*
X195605714Y-142343238D01*
X195653333Y-142248000D01*
X195748571Y-142200380D01*
X195843809Y-142200380D01*
X196320000Y-143200380D02*
X196224761Y-143152761D01*
X196177142Y-143105142D01*
X196129523Y-143009904D01*
X196129523Y-142724190D01*
X196177142Y-142628952D01*
X196224761Y-142581333D01*
X196320000Y-142533714D01*
X196462857Y-142533714D01*
X196558095Y-142581333D01*
X196605714Y-142628952D01*
X196653333Y-142724190D01*
X196653333Y-143009904D01*
X196605714Y-143105142D01*
X196558095Y-143152761D01*
X196462857Y-143200380D01*
X196320000Y-143200380D01*
X197081904Y-143200380D02*
X197081904Y-142533714D01*
X197081904Y-142724190D02*
X197129523Y-142628952D01*
X197177142Y-142581333D01*
X197272380Y-142533714D01*
X197367619Y-142533714D01*
X197700952Y-143200380D02*
X197700952Y-142200380D01*
X197796190Y-142819428D02*
X198081904Y-143200380D01*
X198081904Y-142533714D02*
X197700952Y-142914666D01*
X198891428Y-143152761D02*
X198796190Y-143200380D01*
X198605714Y-143200380D01*
X198510476Y-143152761D01*
X198462857Y-143057523D01*
X198462857Y-142676571D01*
X198510476Y-142581333D01*
X198605714Y-142533714D01*
X198796190Y-142533714D01*
X198891428Y-142581333D01*
X198939047Y-142676571D01*
X198939047Y-142771809D01*
X198462857Y-142867047D01*
X199796190Y-143200380D02*
X199796190Y-142200380D01*
X199796190Y-143152761D02*
X199700952Y-143200380D01*
X199510476Y-143200380D01*
X199415238Y-143152761D01*
X199367619Y-143105142D01*
X199320000Y-143009904D01*
X199320000Y-142724190D01*
X199367619Y-142628952D01*
X199415238Y-142581333D01*
X199510476Y-142533714D01*
X199700952Y-142533714D01*
X199796190Y-142581333D01*
X200891428Y-142533714D02*
X201272380Y-142533714D01*
X201034285Y-143200380D02*
X201034285Y-142343238D01*
X201081904Y-142248000D01*
X201177142Y-142200380D01*
X201272380Y-142200380D01*
X201605714Y-143200380D02*
X201605714Y-142533714D01*
X201605714Y-142724190D02*
X201653333Y-142628952D01*
X201700952Y-142581333D01*
X201796190Y-142533714D01*
X201891428Y-142533714D01*
X202367619Y-143200380D02*
X202272380Y-143152761D01*
X202224761Y-143105142D01*
X202177142Y-143009904D01*
X202177142Y-142724190D01*
X202224761Y-142628952D01*
X202272380Y-142581333D01*
X202367619Y-142533714D01*
X202510476Y-142533714D01*
X202605714Y-142581333D01*
X202653333Y-142628952D01*
X202700952Y-142724190D01*
X202700952Y-143009904D01*
X202653333Y-143105142D01*
X202605714Y-143152761D01*
X202510476Y-143200380D01*
X202367619Y-143200380D01*
X203129523Y-143200380D02*
X203129523Y-142533714D01*
X203129523Y-142628952D02*
X203177142Y-142581333D01*
X203272380Y-142533714D01*
X203415238Y-142533714D01*
X203510476Y-142581333D01*
X203558095Y-142676571D01*
X203558095Y-143200380D01*
X203558095Y-142676571D02*
X203605714Y-142581333D01*
X203700952Y-142533714D01*
X203843809Y-142533714D01*
X203939047Y-142581333D01*
X203986666Y-142676571D01*
X203986666Y-143200380D01*
X204462857Y-143105142D02*
X204510476Y-143152761D01*
X204462857Y-143200380D01*
X204415238Y-143152761D01*
X204462857Y-143105142D01*
X204462857Y-143200380D01*
X204462857Y-142581333D02*
X204510476Y-142628952D01*
X204462857Y-142676571D01*
X204415238Y-142628952D01*
X204462857Y-142581333D01*
X204462857Y-142676571D01*
X206129523Y-142533714D02*
X206129523Y-143343238D01*
X206081904Y-143438476D01*
X206034285Y-143486095D01*
X205939047Y-143533714D01*
X205796190Y-143533714D01*
X205700952Y-143486095D01*
X206129523Y-143152761D02*
X206034285Y-143200380D01*
X205843809Y-143200380D01*
X205748571Y-143152761D01*
X205700952Y-143105142D01*
X205653333Y-143009904D01*
X205653333Y-142724190D01*
X205700952Y-142628952D01*
X205748571Y-142581333D01*
X205843809Y-142533714D01*
X206034285Y-142533714D01*
X206129523Y-142581333D01*
X206605714Y-143200380D02*
X206605714Y-142533714D01*
X206605714Y-142200380D02*
X206558095Y-142248000D01*
X206605714Y-142295619D01*
X206653333Y-142248000D01*
X206605714Y-142200380D01*
X206605714Y-142295619D01*
X206939047Y-142533714D02*
X207320000Y-142533714D01*
X207081904Y-142200380D02*
X207081904Y-143057523D01*
X207129523Y-143152761D01*
X207224761Y-143200380D01*
X207320000Y-143200380D01*
X207653333Y-143200380D02*
X207653333Y-142200380D01*
X208081904Y-143200380D02*
X208081904Y-142676571D01*
X208034285Y-142581333D01*
X207939047Y-142533714D01*
X207796190Y-142533714D01*
X207700952Y-142581333D01*
X207653333Y-142628952D01*
X208986666Y-142533714D02*
X208986666Y-143200380D01*
X208558095Y-142533714D02*
X208558095Y-143057523D01*
X208605714Y-143152761D01*
X208700952Y-143200380D01*
X208843809Y-143200380D01*
X208939047Y-143152761D01*
X208986666Y-143105142D01*
X209462857Y-143200380D02*
X209462857Y-142200380D01*
X209462857Y-142581333D02*
X209558095Y-142533714D01*
X209748571Y-142533714D01*
X209843809Y-142581333D01*
X209891428Y-142628952D01*
X209939047Y-142724190D01*
X209939047Y-143009904D01*
X209891428Y-143105142D01*
X209843809Y-143152761D01*
X209748571Y-143200380D01*
X209558095Y-143200380D01*
X209462857Y-143152761D01*
X210367619Y-143105142D02*
X210415238Y-143152761D01*
X210367619Y-143200380D01*
X210320000Y-143152761D01*
X210367619Y-143105142D01*
X210367619Y-143200380D01*
X211272380Y-143152761D02*
X211177142Y-143200380D01*
X210986666Y-143200380D01*
X210891428Y-143152761D01*
X210843809Y-143105142D01*
X210796190Y-143009904D01*
X210796190Y-142724190D01*
X210843809Y-142628952D01*
X210891428Y-142581333D01*
X210986666Y-142533714D01*
X211177142Y-142533714D01*
X211272380Y-142581333D01*
X211843809Y-143200380D02*
X211748571Y-143152761D01*
X211700952Y-143105142D01*
X211653333Y-143009904D01*
X211653333Y-142724190D01*
X211700952Y-142628952D01*
X211748571Y-142581333D01*
X211843809Y-142533714D01*
X211986666Y-142533714D01*
X212081904Y-142581333D01*
X212129523Y-142628952D01*
X212177142Y-142724190D01*
X212177142Y-143009904D01*
X212129523Y-143105142D01*
X212081904Y-143152761D01*
X211986666Y-143200380D01*
X211843809Y-143200380D01*
X212605714Y-143200380D02*
X212605714Y-142533714D01*
X212605714Y-142628952D02*
X212653333Y-142581333D01*
X212748571Y-142533714D01*
X212891428Y-142533714D01*
X212986666Y-142581333D01*
X213034285Y-142676571D01*
X213034285Y-143200380D01*
X213034285Y-142676571D02*
X213081904Y-142581333D01*
X213177142Y-142533714D01*
X213320000Y-142533714D01*
X213415238Y-142581333D01*
X213462857Y-142676571D01*
X213462857Y-143200380D01*
X214653333Y-142152761D02*
X213796190Y-143438476D01*
X214986666Y-142533714D02*
X214986666Y-143390857D01*
X214939047Y-143486095D01*
X214843809Y-143533714D01*
X214796190Y-143533714D01*
X214986666Y-142200380D02*
X214939047Y-142248000D01*
X214986666Y-142295619D01*
X215034285Y-142248000D01*
X214986666Y-142200380D01*
X214986666Y-142295619D01*
X215320000Y-142533714D02*
X215700952Y-142533714D01*
X215462857Y-143200380D02*
X215462857Y-142343238D01*
X215510476Y-142248000D01*
X215605714Y-142200380D01*
X215700952Y-142200380D01*
X216415238Y-143152761D02*
X216320000Y-143200380D01*
X216129523Y-143200380D01*
X216034285Y-143152761D01*
X215986666Y-143057523D01*
X215986666Y-142676571D01*
X216034285Y-142581333D01*
X216129523Y-142533714D01*
X216320000Y-142533714D01*
X216415238Y-142581333D01*
X216462857Y-142676571D01*
X216462857Y-142771809D01*
X215986666Y-142867047D01*
X217320000Y-143200380D02*
X217320000Y-142200380D01*
X217320000Y-143152761D02*
X217224761Y-143200380D01*
X217034285Y-143200380D01*
X216939047Y-143152761D01*
X216891428Y-143105142D01*
X216843809Y-143009904D01*
X216843809Y-142724190D01*
X216891428Y-142628952D01*
X216939047Y-142581333D01*
X217034285Y-142533714D01*
X217224761Y-142533714D01*
X217320000Y-142581333D01*
X217939047Y-143200380D02*
X217843809Y-143152761D01*
X217796190Y-143105142D01*
X217748571Y-143009904D01*
X217748571Y-142724190D01*
X217796190Y-142628952D01*
X217843809Y-142581333D01*
X217939047Y-142533714D01*
X218081904Y-142533714D01*
X218177142Y-142581333D01*
X218224761Y-142628952D01*
X218272380Y-142724190D01*
X218272380Y-143009904D01*
X218224761Y-143105142D01*
X218177142Y-143152761D01*
X218081904Y-143200380D01*
X217939047Y-143200380D01*
X218700952Y-143200380D02*
X218700952Y-142533714D01*
X218700952Y-142724190D02*
X218748571Y-142628952D01*
X218796190Y-142581333D01*
X218891428Y-142533714D01*
X218986666Y-142533714D01*
X219272380Y-142295619D02*
X219320000Y-142248000D01*
X219415238Y-142200380D01*
X219653333Y-142200380D01*
X219748571Y-142248000D01*
X219796190Y-142295619D01*
X219843809Y-142390857D01*
X219843809Y-142486095D01*
X219796190Y-142628952D01*
X219224761Y-143200380D01*
X219843809Y-143200380D01*
X220986666Y-142152761D02*
X220129523Y-143438476D01*
X221177142Y-142533714D02*
X221558095Y-142533714D01*
X221320000Y-143200380D02*
X221320000Y-142343238D01*
X221367619Y-142248000D01*
X221462857Y-142200380D01*
X221558095Y-142200380D01*
X222034285Y-143200380D02*
X221939047Y-143152761D01*
X221891428Y-143057523D01*
X221891428Y-142200380D01*
X222843809Y-143200380D02*
X222843809Y-142676571D01*
X222796190Y-142581333D01*
X222700952Y-142533714D01*
X222510476Y-142533714D01*
X222415238Y-142581333D01*
X222843809Y-143152761D02*
X222748571Y-143200380D01*
X222510476Y-143200380D01*
X222415238Y-143152761D01*
X222367619Y-143057523D01*
X222367619Y-142962285D01*
X222415238Y-142867047D01*
X222510476Y-142819428D01*
X222748571Y-142819428D01*
X222843809Y-142771809D01*
X223177142Y-142533714D02*
X223558095Y-142533714D01*
X223320000Y-142200380D02*
X223320000Y-143057523D01*
X223367619Y-143152761D01*
X223462857Y-143200380D01*
X223558095Y-143200380D01*
X223891428Y-143200380D02*
X223891428Y-142200380D01*
X223891428Y-142581333D02*
X223986666Y-142533714D01*
X224177142Y-142533714D01*
X224272380Y-142581333D01*
X224320000Y-142628952D01*
X224367619Y-142724190D01*
X224367619Y-143009904D01*
X224320000Y-143105142D01*
X224272380Y-143152761D01*
X224177142Y-143200380D01*
X223986666Y-143200380D01*
X223891428Y-143152761D01*
X224939047Y-143200380D02*
X224843809Y-143152761D01*
X224796190Y-143105142D01*
X224748571Y-143009904D01*
X224748571Y-142724190D01*
X224796190Y-142628952D01*
X224843809Y-142581333D01*
X224939047Y-142533714D01*
X225081904Y-142533714D01*
X225177142Y-142581333D01*
X225224761Y-142628952D01*
X225272380Y-142724190D01*
X225272380Y-143009904D01*
X225224761Y-143105142D01*
X225177142Y-143152761D01*
X225081904Y-143200380D01*
X224939047Y-143200380D01*
X225605714Y-143200380D02*
X226129523Y-142533714D01*
X225605714Y-142533714D02*
X226129523Y-143200380D01*
D14*
X94541142Y-117633523D02*
X92541142Y-115728761D01*
X91112571Y-117633523D02*
X91112571Y-113633523D01*
X93398285Y-113633523D01*
X93969714Y-113824000D01*
X94255428Y-114014476D01*
X94541142Y-114395428D01*
X94541142Y-114966857D01*
X94255428Y-115347809D01*
X93969714Y-115538285D01*
X93398285Y-115728761D01*
X91112571Y-115728761D01*
X100255428Y-113824000D02*
X99684000Y-113633523D01*
X98826857Y-113633523D01*
X97969714Y-113824000D01*
X97398285Y-114204952D01*
X97112571Y-114585904D01*
X96826857Y-115347809D01*
X96826857Y-115919238D01*
X97112571Y-116681142D01*
X97398285Y-117062095D01*
X97969714Y-117443047D01*
X98826857Y-117633523D01*
X99398285Y-117633523D01*
X100255428Y-117443047D01*
X100541142Y-117252571D01*
X100541142Y-115919238D01*
X99398285Y-115919238D01*
X105112571Y-115538285D02*
X105969714Y-115728761D01*
X106255428Y-115919238D01*
X106541142Y-116300190D01*
X106541142Y-116871619D01*
X106255428Y-117252571D01*
X105969714Y-117443047D01*
X105398285Y-117633523D01*
X103112571Y-117633523D01*
X103112571Y-113633523D01*
X105112571Y-113633523D01*
X105684000Y-113824000D01*
X105969714Y-114014476D01*
X106255428Y-114395428D01*
X106255428Y-114776380D01*
X105969714Y-115157333D01*
X105684000Y-115347809D01*
X105112571Y-115538285D01*
X103112571Y-115538285D01*
D13*
X102251428Y-147208761D02*
X102251428Y-145875428D01*
X102251428Y-146256380D02*
X102346666Y-146065904D01*
X102441904Y-145970666D01*
X102632380Y-145875428D01*
X102822857Y-145875428D01*
X104251428Y-147113523D02*
X104060952Y-147208761D01*
X103680000Y-147208761D01*
X103489523Y-147113523D01*
X103394285Y-146923047D01*
X103394285Y-146161142D01*
X103489523Y-145970666D01*
X103680000Y-145875428D01*
X104060952Y-145875428D01*
X104251428Y-145970666D01*
X104346666Y-146161142D01*
X104346666Y-146351619D01*
X103394285Y-146542095D01*
X105013333Y-145875428D02*
X105489523Y-147208761D01*
X105965714Y-145875428D01*
X107584761Y-145875428D02*
X107584761Y-147208761D01*
X107108571Y-145113523D02*
X106632380Y-146542095D01*
X107870476Y-146542095D01*
X108156190Y-147399238D02*
X109680000Y-147399238D01*
X111203809Y-147208761D02*
X110060952Y-147208761D01*
X110632380Y-147208761D02*
X110632380Y-145208761D01*
X110441904Y-145494476D01*
X110251428Y-145684952D01*
X110060952Y-145780190D01*
D12*
%TO.C,SW4*%
X86904761Y-41083333D02*
X86952380Y-40940476D01*
X86952380Y-40702380D01*
X86904761Y-40607142D01*
X86857142Y-40559523D01*
X86761904Y-40511904D01*
X86666666Y-40511904D01*
X86571428Y-40559523D01*
X86523809Y-40607142D01*
X86476190Y-40702380D01*
X86428571Y-40892857D01*
X86380952Y-40988095D01*
X86333333Y-41035714D01*
X86238095Y-41083333D01*
X86142857Y-41083333D01*
X86047619Y-41035714D01*
X86000000Y-40988095D01*
X85952380Y-40892857D01*
X85952380Y-40654761D01*
X86000000Y-40511904D01*
X85952380Y-40178571D02*
X86952380Y-39940476D01*
X86238095Y-39750000D01*
X86952380Y-39559523D01*
X85952380Y-39321428D01*
X86285714Y-38511904D02*
X86952380Y-38511904D01*
X85904761Y-38750000D02*
X86619047Y-38988095D01*
X86619047Y-38369047D01*
%TO.C,SW2*%
X63904761Y-41083333D02*
X63952380Y-40940476D01*
X63952380Y-40702380D01*
X63904761Y-40607142D01*
X63857142Y-40559523D01*
X63761904Y-40511904D01*
X63666666Y-40511904D01*
X63571428Y-40559523D01*
X63523809Y-40607142D01*
X63476190Y-40702380D01*
X63428571Y-40892857D01*
X63380952Y-40988095D01*
X63333333Y-41035714D01*
X63238095Y-41083333D01*
X63142857Y-41083333D01*
X63047619Y-41035714D01*
X63000000Y-40988095D01*
X62952380Y-40892857D01*
X62952380Y-40654761D01*
X63000000Y-40511904D01*
X62952380Y-40178571D02*
X63952380Y-39940476D01*
X63238095Y-39750000D01*
X63952380Y-39559523D01*
X62952380Y-39321428D01*
X63047619Y-38988095D02*
X63000000Y-38940476D01*
X62952380Y-38845238D01*
X62952380Y-38607142D01*
X63000000Y-38511904D01*
X63047619Y-38464285D01*
X63142857Y-38416666D01*
X63238095Y-38416666D01*
X63380952Y-38464285D01*
X63952380Y-39035714D01*
X63952380Y-38416666D01*
%TO.C,SW5*%
X96904761Y-41083333D02*
X96952380Y-40940476D01*
X96952380Y-40702380D01*
X96904761Y-40607142D01*
X96857142Y-40559523D01*
X96761904Y-40511904D01*
X96666666Y-40511904D01*
X96571428Y-40559523D01*
X96523809Y-40607142D01*
X96476190Y-40702380D01*
X96428571Y-40892857D01*
X96380952Y-40988095D01*
X96333333Y-41035714D01*
X96238095Y-41083333D01*
X96142857Y-41083333D01*
X96047619Y-41035714D01*
X96000000Y-40988095D01*
X95952380Y-40892857D01*
X95952380Y-40654761D01*
X96000000Y-40511904D01*
X95952380Y-40178571D02*
X96952380Y-39940476D01*
X96238095Y-39750000D01*
X96952380Y-39559523D01*
X95952380Y-39321428D01*
X95952380Y-38464285D02*
X95952380Y-38940476D01*
X96428571Y-38988095D01*
X96380952Y-38940476D01*
X96333333Y-38845238D01*
X96333333Y-38607142D01*
X96380952Y-38511904D01*
X96428571Y-38464285D01*
X96523809Y-38416666D01*
X96761904Y-38416666D01*
X96857142Y-38464285D01*
X96904761Y-38511904D01*
X96952380Y-38607142D01*
X96952380Y-38845238D01*
X96904761Y-38940476D01*
X96857142Y-38988095D01*
%TO.C,SW1*%
X53904761Y-41083333D02*
X53952380Y-40940476D01*
X53952380Y-40702380D01*
X53904761Y-40607142D01*
X53857142Y-40559523D01*
X53761904Y-40511904D01*
X53666666Y-40511904D01*
X53571428Y-40559523D01*
X53523809Y-40607142D01*
X53476190Y-40702380D01*
X53428571Y-40892857D01*
X53380952Y-40988095D01*
X53333333Y-41035714D01*
X53238095Y-41083333D01*
X53142857Y-41083333D01*
X53047619Y-41035714D01*
X53000000Y-40988095D01*
X52952380Y-40892857D01*
X52952380Y-40654761D01*
X53000000Y-40511904D01*
X52952380Y-40178571D02*
X53952380Y-39940476D01*
X53238095Y-39750000D01*
X53952380Y-39559523D01*
X52952380Y-39321428D01*
X53952380Y-38416666D02*
X53952380Y-38988095D01*
X53952380Y-38702380D02*
X52952380Y-38702380D01*
X53095238Y-38797619D01*
X53190476Y-38892857D01*
X53238095Y-38988095D01*
%TO.C,SW3*%
X73904761Y-41083333D02*
X73952380Y-40940476D01*
X73952380Y-40702380D01*
X73904761Y-40607142D01*
X73857142Y-40559523D01*
X73761904Y-40511904D01*
X73666666Y-40511904D01*
X73571428Y-40559523D01*
X73523809Y-40607142D01*
X73476190Y-40702380D01*
X73428571Y-40892857D01*
X73380952Y-40988095D01*
X73333333Y-41035714D01*
X73238095Y-41083333D01*
X73142857Y-41083333D01*
X73047619Y-41035714D01*
X73000000Y-40988095D01*
X72952380Y-40892857D01*
X72952380Y-40654761D01*
X73000000Y-40511904D01*
X72952380Y-40178571D02*
X73952380Y-39940476D01*
X73238095Y-39750000D01*
X73952380Y-39559523D01*
X72952380Y-39321428D01*
X72952380Y-39035714D02*
X72952380Y-38416666D01*
X73333333Y-38750000D01*
X73333333Y-38607142D01*
X73380952Y-38511904D01*
X73428571Y-38464285D01*
X73523809Y-38416666D01*
X73761904Y-38416666D01*
X73857142Y-38464285D01*
X73904761Y-38511904D01*
X73952380Y-38607142D01*
X73952380Y-38892857D01*
X73904761Y-38988095D01*
X73857142Y-39035714D01*
%TO.C,SW6*%
X106904761Y-41083333D02*
X106952380Y-40940476D01*
X106952380Y-40702380D01*
X106904761Y-40607142D01*
X106857142Y-40559523D01*
X106761904Y-40511904D01*
X106666666Y-40511904D01*
X106571428Y-40559523D01*
X106523809Y-40607142D01*
X106476190Y-40702380D01*
X106428571Y-40892857D01*
X106380952Y-40988095D01*
X106333333Y-41035714D01*
X106238095Y-41083333D01*
X106142857Y-41083333D01*
X106047619Y-41035714D01*
X106000000Y-40988095D01*
X105952380Y-40892857D01*
X105952380Y-40654761D01*
X106000000Y-40511904D01*
X105952380Y-40178571D02*
X106952380Y-39940476D01*
X106238095Y-39750000D01*
X106952380Y-39559523D01*
X105952380Y-39321428D01*
X105952380Y-38511904D02*
X105952380Y-38702380D01*
X106000000Y-38797619D01*
X106047619Y-38845238D01*
X106190476Y-38940476D01*
X106380952Y-38988095D01*
X106761904Y-38988095D01*
X106857142Y-38940476D01*
X106904761Y-38892857D01*
X106952380Y-38797619D01*
X106952380Y-38607142D01*
X106904761Y-38511904D01*
X106857142Y-38464285D01*
X106761904Y-38416666D01*
X106523809Y-38416666D01*
X106428571Y-38464285D01*
X106380952Y-38511904D01*
X106333333Y-38607142D01*
X106333333Y-38797619D01*
X106380952Y-38892857D01*
X106428571Y-38940476D01*
X106523809Y-38988095D01*
%TO.C,R7*%
X147866666Y-35111904D02*
X147600000Y-34730952D01*
X147409523Y-35111904D02*
X147409523Y-34311904D01*
X147714285Y-34311904D01*
X147790476Y-34350000D01*
X147828571Y-34388095D01*
X147866666Y-34464285D01*
X147866666Y-34578571D01*
X147828571Y-34654761D01*
X147790476Y-34692857D01*
X147714285Y-34730952D01*
X147409523Y-34730952D01*
X148133333Y-34311904D02*
X148666666Y-34311904D01*
X148323809Y-35111904D01*
%TO.C,USB1*%
X135711904Y-30902380D02*
X135711904Y-31711904D01*
X135759523Y-31807142D01*
X135807142Y-31854761D01*
X135902380Y-31902380D01*
X136092857Y-31902380D01*
X136188095Y-31854761D01*
X136235714Y-31807142D01*
X136283333Y-31711904D01*
X136283333Y-30902380D01*
X136711904Y-31854761D02*
X136854761Y-31902380D01*
X137092857Y-31902380D01*
X137188095Y-31854761D01*
X137235714Y-31807142D01*
X137283333Y-31711904D01*
X137283333Y-31616666D01*
X137235714Y-31521428D01*
X137188095Y-31473809D01*
X137092857Y-31426190D01*
X136902380Y-31378571D01*
X136807142Y-31330952D01*
X136759523Y-31283333D01*
X136711904Y-31188095D01*
X136711904Y-31092857D01*
X136759523Y-30997619D01*
X136807142Y-30950000D01*
X136902380Y-30902380D01*
X137140476Y-30902380D01*
X137283333Y-30950000D01*
X138045238Y-31378571D02*
X138188095Y-31426190D01*
X138235714Y-31473809D01*
X138283333Y-31569047D01*
X138283333Y-31711904D01*
X138235714Y-31807142D01*
X138188095Y-31854761D01*
X138092857Y-31902380D01*
X137711904Y-31902380D01*
X137711904Y-30902380D01*
X138045238Y-30902380D01*
X138140476Y-30950000D01*
X138188095Y-30997619D01*
X138235714Y-31092857D01*
X138235714Y-31188095D01*
X138188095Y-31283333D01*
X138140476Y-31330952D01*
X138045238Y-31378571D01*
X137711904Y-31378571D01*
X139235714Y-31902380D02*
X138664285Y-31902380D01*
X138950000Y-31902380D02*
X138950000Y-30902380D01*
X138854761Y-31045238D01*
X138759523Y-31140476D01*
X138664285Y-31188095D01*
%TO.C,R6*%
X142016666Y-35581904D02*
X141750000Y-35200952D01*
X141559523Y-35581904D02*
X141559523Y-34781904D01*
X141864285Y-34781904D01*
X141940476Y-34820000D01*
X141978571Y-34858095D01*
X142016666Y-34934285D01*
X142016666Y-35048571D01*
X141978571Y-35124761D01*
X141940476Y-35162857D01*
X141864285Y-35200952D01*
X141559523Y-35200952D01*
X142702380Y-34781904D02*
X142550000Y-34781904D01*
X142473809Y-34820000D01*
X142435714Y-34858095D01*
X142359523Y-34972380D01*
X142321428Y-35124761D01*
X142321428Y-35429523D01*
X142359523Y-35505714D01*
X142397619Y-35543809D01*
X142473809Y-35581904D01*
X142626190Y-35581904D01*
X142702380Y-35543809D01*
X142740476Y-35505714D01*
X142778571Y-35429523D01*
X142778571Y-35239047D01*
X142740476Y-35162857D01*
X142702380Y-35124761D01*
X142626190Y-35086666D01*
X142473809Y-35086666D01*
X142397619Y-35124761D01*
X142359523Y-35162857D01*
X142321428Y-35239047D01*
%TO.C,C1*%
X146016666Y-44585714D02*
X145978571Y-44623809D01*
X145864285Y-44661904D01*
X145788095Y-44661904D01*
X145673809Y-44623809D01*
X145597619Y-44547619D01*
X145559523Y-44471428D01*
X145521428Y-44319047D01*
X145521428Y-44204761D01*
X145559523Y-44052380D01*
X145597619Y-43976190D01*
X145673809Y-43900000D01*
X145788095Y-43861904D01*
X145864285Y-43861904D01*
X145978571Y-43900000D01*
X146016666Y-43938095D01*
X146778571Y-44661904D02*
X146321428Y-44661904D01*
X146550000Y-44661904D02*
X146550000Y-43861904D01*
X146473809Y-43976190D01*
X146397619Y-44052380D01*
X146321428Y-44090476D01*
%TO.C,C2*%
X127916666Y-54885714D02*
X127878571Y-54923809D01*
X127764285Y-54961904D01*
X127688095Y-54961904D01*
X127573809Y-54923809D01*
X127497619Y-54847619D01*
X127459523Y-54771428D01*
X127421428Y-54619047D01*
X127421428Y-54504761D01*
X127459523Y-54352380D01*
X127497619Y-54276190D01*
X127573809Y-54200000D01*
X127688095Y-54161904D01*
X127764285Y-54161904D01*
X127878571Y-54200000D01*
X127916666Y-54238095D01*
X128221428Y-54238095D02*
X128259523Y-54200000D01*
X128335714Y-54161904D01*
X128526190Y-54161904D01*
X128602380Y-54200000D01*
X128640476Y-54238095D01*
X128678571Y-54314285D01*
X128678571Y-54390476D01*
X128640476Y-54504761D01*
X128183333Y-54961904D01*
X128678571Y-54961904D01*
%TO.C,C4*%
X140566666Y-44585714D02*
X140528571Y-44623809D01*
X140414285Y-44661904D01*
X140338095Y-44661904D01*
X140223809Y-44623809D01*
X140147619Y-44547619D01*
X140109523Y-44471428D01*
X140071428Y-44319047D01*
X140071428Y-44204761D01*
X140109523Y-44052380D01*
X140147619Y-43976190D01*
X140223809Y-43900000D01*
X140338095Y-43861904D01*
X140414285Y-43861904D01*
X140528571Y-43900000D01*
X140566666Y-43938095D01*
X141252380Y-44128571D02*
X141252380Y-44661904D01*
X141061904Y-43823809D02*
X140871428Y-44395238D01*
X141366666Y-44395238D01*
%TO.C,C5*%
X127616666Y-33925714D02*
X127578571Y-33963809D01*
X127464285Y-34001904D01*
X127388095Y-34001904D01*
X127273809Y-33963809D01*
X127197619Y-33887619D01*
X127159523Y-33811428D01*
X127121428Y-33659047D01*
X127121428Y-33544761D01*
X127159523Y-33392380D01*
X127197619Y-33316190D01*
X127273809Y-33240000D01*
X127388095Y-33201904D01*
X127464285Y-33201904D01*
X127578571Y-33240000D01*
X127616666Y-33278095D01*
X128340476Y-33201904D02*
X127959523Y-33201904D01*
X127921428Y-33582857D01*
X127959523Y-33544761D01*
X128035714Y-33506666D01*
X128226190Y-33506666D01*
X128302380Y-33544761D01*
X128340476Y-33582857D01*
X128378571Y-33659047D01*
X128378571Y-33849523D01*
X128340476Y-33925714D01*
X128302380Y-33963809D01*
X128226190Y-34001904D01*
X128035714Y-34001904D01*
X127959523Y-33963809D01*
X127921428Y-33925714D01*
%TO.C,C6*%
X130885714Y-37483333D02*
X130923809Y-37521428D01*
X130961904Y-37635714D01*
X130961904Y-37711904D01*
X130923809Y-37826190D01*
X130847619Y-37902380D01*
X130771428Y-37940476D01*
X130619047Y-37978571D01*
X130504761Y-37978571D01*
X130352380Y-37940476D01*
X130276190Y-37902380D01*
X130200000Y-37826190D01*
X130161904Y-37711904D01*
X130161904Y-37635714D01*
X130200000Y-37521428D01*
X130238095Y-37483333D01*
X130161904Y-36797619D02*
X130161904Y-36950000D01*
X130200000Y-37026190D01*
X130238095Y-37064285D01*
X130352380Y-37140476D01*
X130504761Y-37178571D01*
X130809523Y-37178571D01*
X130885714Y-37140476D01*
X130923809Y-37102380D01*
X130961904Y-37026190D01*
X130961904Y-36873809D01*
X130923809Y-36797619D01*
X130885714Y-36759523D01*
X130809523Y-36721428D01*
X130619047Y-36721428D01*
X130542857Y-36759523D01*
X130504761Y-36797619D01*
X130466666Y-36873809D01*
X130466666Y-37026190D01*
X130504761Y-37102380D01*
X130542857Y-37140476D01*
X130619047Y-37178571D01*
%TO.C,C7*%
X134566666Y-53285714D02*
X134528571Y-53323809D01*
X134414285Y-53361904D01*
X134338095Y-53361904D01*
X134223809Y-53323809D01*
X134147619Y-53247619D01*
X134109523Y-53171428D01*
X134071428Y-53019047D01*
X134071428Y-52904761D01*
X134109523Y-52752380D01*
X134147619Y-52676190D01*
X134223809Y-52600000D01*
X134338095Y-52561904D01*
X134414285Y-52561904D01*
X134528571Y-52600000D01*
X134566666Y-52638095D01*
X134833333Y-52561904D02*
X135366666Y-52561904D01*
X135023809Y-53361904D01*
%TO.C,C8*%
X135135714Y-37483333D02*
X135173809Y-37521428D01*
X135211904Y-37635714D01*
X135211904Y-37711904D01*
X135173809Y-37826190D01*
X135097619Y-37902380D01*
X135021428Y-37940476D01*
X134869047Y-37978571D01*
X134754761Y-37978571D01*
X134602380Y-37940476D01*
X134526190Y-37902380D01*
X134450000Y-37826190D01*
X134411904Y-37711904D01*
X134411904Y-37635714D01*
X134450000Y-37521428D01*
X134488095Y-37483333D01*
X134754761Y-37026190D02*
X134716666Y-37102380D01*
X134678571Y-37140476D01*
X134602380Y-37178571D01*
X134564285Y-37178571D01*
X134488095Y-37140476D01*
X134450000Y-37102380D01*
X134411904Y-37026190D01*
X134411904Y-36873809D01*
X134450000Y-36797619D01*
X134488095Y-36759523D01*
X134564285Y-36721428D01*
X134602380Y-36721428D01*
X134678571Y-36759523D01*
X134716666Y-36797619D01*
X134754761Y-36873809D01*
X134754761Y-37026190D01*
X134792857Y-37102380D01*
X134830952Y-37140476D01*
X134907142Y-37178571D01*
X135059523Y-37178571D01*
X135135714Y-37140476D01*
X135173809Y-37102380D01*
X135211904Y-37026190D01*
X135211904Y-36873809D01*
X135173809Y-36797619D01*
X135135714Y-36759523D01*
X135059523Y-36721428D01*
X134907142Y-36721428D01*
X134830952Y-36759523D01*
X134792857Y-36797619D01*
X134754761Y-36873809D01*
%TO.C,C9*%
X131935714Y-37483333D02*
X131973809Y-37521428D01*
X132011904Y-37635714D01*
X132011904Y-37711904D01*
X131973809Y-37826190D01*
X131897619Y-37902380D01*
X131821428Y-37940476D01*
X131669047Y-37978571D01*
X131554761Y-37978571D01*
X131402380Y-37940476D01*
X131326190Y-37902380D01*
X131250000Y-37826190D01*
X131211904Y-37711904D01*
X131211904Y-37635714D01*
X131250000Y-37521428D01*
X131288095Y-37483333D01*
X132011904Y-37102380D02*
X132011904Y-36950000D01*
X131973809Y-36873809D01*
X131935714Y-36835714D01*
X131821428Y-36759523D01*
X131669047Y-36721428D01*
X131364285Y-36721428D01*
X131288095Y-36759523D01*
X131250000Y-36797619D01*
X131211904Y-36873809D01*
X131211904Y-37026190D01*
X131250000Y-37102380D01*
X131288095Y-37140476D01*
X131364285Y-37178571D01*
X131554761Y-37178571D01*
X131630952Y-37140476D01*
X131669047Y-37102380D01*
X131707142Y-37026190D01*
X131707142Y-36873809D01*
X131669047Y-36797619D01*
X131630952Y-36759523D01*
X131554761Y-36721428D01*
%TO.C,C10*%
X136185714Y-37464285D02*
X136223809Y-37502380D01*
X136261904Y-37616666D01*
X136261904Y-37692857D01*
X136223809Y-37807142D01*
X136147619Y-37883333D01*
X136071428Y-37921428D01*
X135919047Y-37959523D01*
X135804761Y-37959523D01*
X135652380Y-37921428D01*
X135576190Y-37883333D01*
X135500000Y-37807142D01*
X135461904Y-37692857D01*
X135461904Y-37616666D01*
X135500000Y-37502380D01*
X135538095Y-37464285D01*
X136261904Y-36702380D02*
X136261904Y-37159523D01*
X136261904Y-36930952D02*
X135461904Y-36930952D01*
X135576190Y-37007142D01*
X135652380Y-37083333D01*
X135690476Y-37159523D01*
X135461904Y-36207142D02*
X135461904Y-36130952D01*
X135500000Y-36054761D01*
X135538095Y-36016666D01*
X135614285Y-35978571D01*
X135766666Y-35940476D01*
X135957142Y-35940476D01*
X136109523Y-35978571D01*
X136185714Y-36016666D01*
X136223809Y-36054761D01*
X136261904Y-36130952D01*
X136261904Y-36207142D01*
X136223809Y-36283333D01*
X136185714Y-36321428D01*
X136109523Y-36359523D01*
X135957142Y-36397619D01*
X135766666Y-36397619D01*
X135614285Y-36359523D01*
X135538095Y-36321428D01*
X135500000Y-36283333D01*
X135461904Y-36207142D01*
%TO.C,C15*%
X136735714Y-45835714D02*
X136697619Y-45873809D01*
X136583333Y-45911904D01*
X136507142Y-45911904D01*
X136392857Y-45873809D01*
X136316666Y-45797619D01*
X136278571Y-45721428D01*
X136240476Y-45569047D01*
X136240476Y-45454761D01*
X136278571Y-45302380D01*
X136316666Y-45226190D01*
X136392857Y-45150000D01*
X136507142Y-45111904D01*
X136583333Y-45111904D01*
X136697619Y-45150000D01*
X136735714Y-45188095D01*
X137497619Y-45911904D02*
X137040476Y-45911904D01*
X137269047Y-45911904D02*
X137269047Y-45111904D01*
X137192857Y-45226190D01*
X137116666Y-45302380D01*
X137040476Y-45340476D01*
X138221428Y-45111904D02*
X137840476Y-45111904D01*
X137802380Y-45492857D01*
X137840476Y-45454761D01*
X137916666Y-45416666D01*
X138107142Y-45416666D01*
X138183333Y-45454761D01*
X138221428Y-45492857D01*
X138259523Y-45569047D01*
X138259523Y-45759523D01*
X138221428Y-45835714D01*
X138183333Y-45873809D01*
X138107142Y-45911904D01*
X137916666Y-45911904D01*
X137840476Y-45873809D01*
X137802380Y-45835714D01*
%TO.C,C16*%
X137235714Y-42685714D02*
X137197619Y-42723809D01*
X137083333Y-42761904D01*
X137007142Y-42761904D01*
X136892857Y-42723809D01*
X136816666Y-42647619D01*
X136778571Y-42571428D01*
X136740476Y-42419047D01*
X136740476Y-42304761D01*
X136778571Y-42152380D01*
X136816666Y-42076190D01*
X136892857Y-42000000D01*
X137007142Y-41961904D01*
X137083333Y-41961904D01*
X137197619Y-42000000D01*
X137235714Y-42038095D01*
X137997619Y-42761904D02*
X137540476Y-42761904D01*
X137769047Y-42761904D02*
X137769047Y-41961904D01*
X137692857Y-42076190D01*
X137616666Y-42152380D01*
X137540476Y-42190476D01*
X138683333Y-41961904D02*
X138530952Y-41961904D01*
X138454761Y-42000000D01*
X138416666Y-42038095D01*
X138340476Y-42152380D01*
X138302380Y-42304761D01*
X138302380Y-42609523D01*
X138340476Y-42685714D01*
X138378571Y-42723809D01*
X138454761Y-42761904D01*
X138607142Y-42761904D01*
X138683333Y-42723809D01*
X138721428Y-42685714D01*
X138759523Y-42609523D01*
X138759523Y-42419047D01*
X138721428Y-42342857D01*
X138683333Y-42304761D01*
X138607142Y-42266666D01*
X138454761Y-42266666D01*
X138378571Y-42304761D01*
X138340476Y-42342857D01*
X138302380Y-42419047D01*
%TO.C,R1*%
X122866666Y-44161904D02*
X122600000Y-43780952D01*
X122409523Y-44161904D02*
X122409523Y-43361904D01*
X122714285Y-43361904D01*
X122790476Y-43400000D01*
X122828571Y-43438095D01*
X122866666Y-43514285D01*
X122866666Y-43628571D01*
X122828571Y-43704761D01*
X122790476Y-43742857D01*
X122714285Y-43780952D01*
X122409523Y-43780952D01*
X123628571Y-44161904D02*
X123171428Y-44161904D01*
X123400000Y-44161904D02*
X123400000Y-43361904D01*
X123323809Y-43476190D01*
X123247619Y-43552380D01*
X123171428Y-43590476D01*
%TO.C,R2*%
X117866666Y-35591904D02*
X117600000Y-35210952D01*
X117409523Y-35591904D02*
X117409523Y-34791904D01*
X117714285Y-34791904D01*
X117790476Y-34830000D01*
X117828571Y-34868095D01*
X117866666Y-34944285D01*
X117866666Y-35058571D01*
X117828571Y-35134761D01*
X117790476Y-35172857D01*
X117714285Y-35210952D01*
X117409523Y-35210952D01*
X118171428Y-34868095D02*
X118209523Y-34830000D01*
X118285714Y-34791904D01*
X118476190Y-34791904D01*
X118552380Y-34830000D01*
X118590476Y-34868095D01*
X118628571Y-34944285D01*
X118628571Y-35020476D01*
X118590476Y-35134761D01*
X118133333Y-35591904D01*
X118628571Y-35591904D01*
%TO.C,R4*%
X134111904Y-37483333D02*
X133730952Y-37750000D01*
X134111904Y-37940476D02*
X133311904Y-37940476D01*
X133311904Y-37635714D01*
X133350000Y-37559523D01*
X133388095Y-37521428D01*
X133464285Y-37483333D01*
X133578571Y-37483333D01*
X133654761Y-37521428D01*
X133692857Y-37559523D01*
X133730952Y-37635714D01*
X133730952Y-37940476D01*
X133578571Y-36797619D02*
X134111904Y-36797619D01*
X133273809Y-36988095D02*
X133845238Y-37178571D01*
X133845238Y-36683333D01*
%TO.C,SW19*%
X109004761Y-58859523D02*
X109052380Y-58716666D01*
X109052380Y-58478571D01*
X109004761Y-58383333D01*
X108957142Y-58335714D01*
X108861904Y-58288095D01*
X108766666Y-58288095D01*
X108671428Y-58335714D01*
X108623809Y-58383333D01*
X108576190Y-58478571D01*
X108528571Y-58669047D01*
X108480952Y-58764285D01*
X108433333Y-58811904D01*
X108338095Y-58859523D01*
X108242857Y-58859523D01*
X108147619Y-58811904D01*
X108100000Y-58764285D01*
X108052380Y-58669047D01*
X108052380Y-58430952D01*
X108100000Y-58288095D01*
X108052380Y-57954761D02*
X109052380Y-57716666D01*
X108338095Y-57526190D01*
X109052380Y-57335714D01*
X108052380Y-57097619D01*
X109052380Y-56192857D02*
X109052380Y-56764285D01*
X109052380Y-56478571D02*
X108052380Y-56478571D01*
X108195238Y-56573809D01*
X108290476Y-56669047D01*
X108338095Y-56764285D01*
X109052380Y-55716666D02*
X109052380Y-55526190D01*
X109004761Y-55430952D01*
X108957142Y-55383333D01*
X108814285Y-55288095D01*
X108623809Y-55240476D01*
X108242857Y-55240476D01*
X108147619Y-55288095D01*
X108100000Y-55335714D01*
X108052380Y-55430952D01*
X108052380Y-55621428D01*
X108100000Y-55716666D01*
X108147619Y-55764285D01*
X108242857Y-55811904D01*
X108480952Y-55811904D01*
X108576190Y-55764285D01*
X108623809Y-55716666D01*
X108671428Y-55621428D01*
X108671428Y-55430952D01*
X108623809Y-55335714D01*
X108576190Y-55288095D01*
X108480952Y-55240476D01*
%TO.C,U1*%
X142688095Y-39152380D02*
X142688095Y-39961904D01*
X142735714Y-40057142D01*
X142783333Y-40104761D01*
X142878571Y-40152380D01*
X143069047Y-40152380D01*
X143164285Y-40104761D01*
X143211904Y-40057142D01*
X143259523Y-39961904D01*
X143259523Y-39152380D01*
X144259523Y-40152380D02*
X143688095Y-40152380D01*
X143973809Y-40152380D02*
X143973809Y-39152380D01*
X143878571Y-39295238D01*
X143783333Y-39390476D01*
X143688095Y-39438095D01*
%TO.C,U2*%
X123288095Y-34192380D02*
X123288095Y-35001904D01*
X123335714Y-35097142D01*
X123383333Y-35144761D01*
X123478571Y-35192380D01*
X123669047Y-35192380D01*
X123764285Y-35144761D01*
X123811904Y-35097142D01*
X123859523Y-35001904D01*
X123859523Y-34192380D01*
X124288095Y-34287619D02*
X124335714Y-34240000D01*
X124430952Y-34192380D01*
X124669047Y-34192380D01*
X124764285Y-34240000D01*
X124811904Y-34287619D01*
X124859523Y-34382857D01*
X124859523Y-34478095D01*
X124811904Y-34620952D01*
X124240476Y-35192380D01*
X124859523Y-35192380D01*
%TO.C,U3*%
X129388095Y-42032380D02*
X129388095Y-42841904D01*
X129435714Y-42937142D01*
X129483333Y-42984761D01*
X129578571Y-43032380D01*
X129769047Y-43032380D01*
X129864285Y-42984761D01*
X129911904Y-42937142D01*
X129959523Y-42841904D01*
X129959523Y-42032380D01*
X130340476Y-42032380D02*
X130959523Y-42032380D01*
X130626190Y-42413333D01*
X130769047Y-42413333D01*
X130864285Y-42460952D01*
X130911904Y-42508571D01*
X130959523Y-42603809D01*
X130959523Y-42841904D01*
X130911904Y-42937142D01*
X130864285Y-42984761D01*
X130769047Y-43032380D01*
X130483333Y-43032380D01*
X130388095Y-42984761D01*
X130340476Y-42937142D01*
%TO.C,Y1*%
X130173809Y-60076190D02*
X130173809Y-60552380D01*
X129840476Y-59552380D02*
X130173809Y-60076190D01*
X130507142Y-59552380D01*
X131364285Y-60552380D02*
X130792857Y-60552380D01*
X131078571Y-60552380D02*
X131078571Y-59552380D01*
X130983333Y-59695238D01*
X130888095Y-59790476D01*
X130792857Y-59838095D01*
%TO.C,R3*%
X133061904Y-37483333D02*
X132680952Y-37750000D01*
X133061904Y-37940476D02*
X132261904Y-37940476D01*
X132261904Y-37635714D01*
X132300000Y-37559523D01*
X132338095Y-37521428D01*
X132414285Y-37483333D01*
X132528571Y-37483333D01*
X132604761Y-37521428D01*
X132642857Y-37559523D01*
X132680952Y-37635714D01*
X132680952Y-37940476D01*
X132261904Y-37216666D02*
X132261904Y-36721428D01*
X132566666Y-36988095D01*
X132566666Y-36873809D01*
X132604761Y-36797619D01*
X132642857Y-36759523D01*
X132719047Y-36721428D01*
X132909523Y-36721428D01*
X132985714Y-36759523D01*
X133023809Y-36797619D01*
X133061904Y-36873809D01*
X133061904Y-37102380D01*
X133023809Y-37178571D01*
X132985714Y-37216666D01*
%TO.C,C3*%
X134416666Y-57535714D02*
X134378571Y-57573809D01*
X134264285Y-57611904D01*
X134188095Y-57611904D01*
X134073809Y-57573809D01*
X133997619Y-57497619D01*
X133959523Y-57421428D01*
X133921428Y-57269047D01*
X133921428Y-57154761D01*
X133959523Y-57002380D01*
X133997619Y-56926190D01*
X134073809Y-56850000D01*
X134188095Y-56811904D01*
X134264285Y-56811904D01*
X134378571Y-56850000D01*
X134416666Y-56888095D01*
X134683333Y-56811904D02*
X135178571Y-56811904D01*
X134911904Y-57116666D01*
X135026190Y-57116666D01*
X135102380Y-57154761D01*
X135140476Y-57192857D01*
X135178571Y-57269047D01*
X135178571Y-57459523D01*
X135140476Y-57535714D01*
X135102380Y-57573809D01*
X135026190Y-57611904D01*
X134797619Y-57611904D01*
X134721428Y-57573809D01*
X134683333Y-57535714D01*
%TO.C,SW20*%
X124754761Y-58859523D02*
X124802380Y-58716666D01*
X124802380Y-58478571D01*
X124754761Y-58383333D01*
X124707142Y-58335714D01*
X124611904Y-58288095D01*
X124516666Y-58288095D01*
X124421428Y-58335714D01*
X124373809Y-58383333D01*
X124326190Y-58478571D01*
X124278571Y-58669047D01*
X124230952Y-58764285D01*
X124183333Y-58811904D01*
X124088095Y-58859523D01*
X123992857Y-58859523D01*
X123897619Y-58811904D01*
X123850000Y-58764285D01*
X123802380Y-58669047D01*
X123802380Y-58430952D01*
X123850000Y-58288095D01*
X123802380Y-57954761D02*
X124802380Y-57716666D01*
X124088095Y-57526190D01*
X124802380Y-57335714D01*
X123802380Y-57097619D01*
X123897619Y-56764285D02*
X123850000Y-56716666D01*
X123802380Y-56621428D01*
X123802380Y-56383333D01*
X123850000Y-56288095D01*
X123897619Y-56240476D01*
X123992857Y-56192857D01*
X124088095Y-56192857D01*
X124230952Y-56240476D01*
X124802380Y-56811904D01*
X124802380Y-56192857D01*
X123802380Y-55573809D02*
X123802380Y-55478571D01*
X123850000Y-55383333D01*
X123897619Y-55335714D01*
X123992857Y-55288095D01*
X124183333Y-55240476D01*
X124421428Y-55240476D01*
X124611904Y-55288095D01*
X124707142Y-55335714D01*
X124754761Y-55383333D01*
X124802380Y-55478571D01*
X124802380Y-55573809D01*
X124754761Y-55669047D01*
X124707142Y-55716666D01*
X124611904Y-55764285D01*
X124421428Y-55811904D01*
X124183333Y-55811904D01*
X123992857Y-55764285D01*
X123897619Y-55716666D01*
X123850000Y-55669047D01*
X123802380Y-55573809D01*
%TO.C,C13*%
X103145714Y-50035714D02*
X103107619Y-50073809D01*
X102993333Y-50111904D01*
X102917142Y-50111904D01*
X102802857Y-50073809D01*
X102726666Y-49997619D01*
X102688571Y-49921428D01*
X102650476Y-49769047D01*
X102650476Y-49654761D01*
X102688571Y-49502380D01*
X102726666Y-49426190D01*
X102802857Y-49350000D01*
X102917142Y-49311904D01*
X102993333Y-49311904D01*
X103107619Y-49350000D01*
X103145714Y-49388095D01*
X103907619Y-50111904D02*
X103450476Y-50111904D01*
X103679047Y-50111904D02*
X103679047Y-49311904D01*
X103602857Y-49426190D01*
X103526666Y-49502380D01*
X103450476Y-49540476D01*
X104174285Y-49311904D02*
X104669523Y-49311904D01*
X104402857Y-49616666D01*
X104517142Y-49616666D01*
X104593333Y-49654761D01*
X104631428Y-49692857D01*
X104669523Y-49769047D01*
X104669523Y-49959523D01*
X104631428Y-50035714D01*
X104593333Y-50073809D01*
X104517142Y-50111904D01*
X104288571Y-50111904D01*
X104212380Y-50073809D01*
X104174285Y-50035714D01*
%TO.C,C12*%
X137331714Y-47635714D02*
X137293619Y-47673809D01*
X137179333Y-47711904D01*
X137103142Y-47711904D01*
X136988857Y-47673809D01*
X136912666Y-47597619D01*
X136874571Y-47521428D01*
X136836476Y-47369047D01*
X136836476Y-47254761D01*
X136874571Y-47102380D01*
X136912666Y-47026190D01*
X136988857Y-46950000D01*
X137103142Y-46911904D01*
X137179333Y-46911904D01*
X137293619Y-46950000D01*
X137331714Y-46988095D01*
X138093619Y-47711904D02*
X137636476Y-47711904D01*
X137865047Y-47711904D02*
X137865047Y-46911904D01*
X137788857Y-47026190D01*
X137712666Y-47102380D01*
X137636476Y-47140476D01*
X138398380Y-46988095D02*
X138436476Y-46950000D01*
X138512666Y-46911904D01*
X138703142Y-46911904D01*
X138779333Y-46950000D01*
X138817428Y-46988095D01*
X138855523Y-47064285D01*
X138855523Y-47140476D01*
X138817428Y-47254761D01*
X138360285Y-47711904D01*
X138855523Y-47711904D01*
%TO.C,R5*%
X133978666Y-55733904D02*
X133712000Y-55352952D01*
X133521523Y-55733904D02*
X133521523Y-54933904D01*
X133826285Y-54933904D01*
X133902476Y-54972000D01*
X133940571Y-55010095D01*
X133978666Y-55086285D01*
X133978666Y-55200571D01*
X133940571Y-55276761D01*
X133902476Y-55314857D01*
X133826285Y-55352952D01*
X133521523Y-55352952D01*
X134702476Y-54933904D02*
X134321523Y-54933904D01*
X134283428Y-55314857D01*
X134321523Y-55276761D01*
X134397714Y-55238666D01*
X134588190Y-55238666D01*
X134664380Y-55276761D01*
X134702476Y-55314857D01*
X134740571Y-55391047D01*
X134740571Y-55581523D01*
X134702476Y-55657714D01*
X134664380Y-55695809D01*
X134588190Y-55733904D01*
X134397714Y-55733904D01*
X134321523Y-55695809D01*
X134283428Y-55657714D01*
%TO.C,C14*%
X131135714Y-52285714D02*
X131097619Y-52323809D01*
X130983333Y-52361904D01*
X130907142Y-52361904D01*
X130792857Y-52323809D01*
X130716666Y-52247619D01*
X130678571Y-52171428D01*
X130640476Y-52019047D01*
X130640476Y-51904761D01*
X130678571Y-51752380D01*
X130716666Y-51676190D01*
X130792857Y-51600000D01*
X130907142Y-51561904D01*
X130983333Y-51561904D01*
X131097619Y-51600000D01*
X131135714Y-51638095D01*
X131897619Y-52361904D02*
X131440476Y-52361904D01*
X131669047Y-52361904D02*
X131669047Y-51561904D01*
X131592857Y-51676190D01*
X131516666Y-51752380D01*
X131440476Y-51790476D01*
X132583333Y-51828571D02*
X132583333Y-52361904D01*
X132392857Y-51523809D02*
X132202380Y-52095238D01*
X132697619Y-52095238D01*
%TO.C,C11*%
X126085714Y-43235714D02*
X126047619Y-43273809D01*
X125933333Y-43311904D01*
X125857142Y-43311904D01*
X125742857Y-43273809D01*
X125666666Y-43197619D01*
X125628571Y-43121428D01*
X125590476Y-42969047D01*
X125590476Y-42854761D01*
X125628571Y-42702380D01*
X125666666Y-42626190D01*
X125742857Y-42550000D01*
X125857142Y-42511904D01*
X125933333Y-42511904D01*
X126047619Y-42550000D01*
X126085714Y-42588095D01*
X126847619Y-43311904D02*
X126390476Y-43311904D01*
X126619047Y-43311904D02*
X126619047Y-42511904D01*
X126542857Y-42626190D01*
X126466666Y-42702380D01*
X126390476Y-42740476D01*
X127609523Y-43311904D02*
X127152380Y-43311904D01*
X127380952Y-43311904D02*
X127380952Y-42511904D01*
X127304761Y-42626190D01*
X127228571Y-42702380D01*
X127152380Y-42740476D01*
%TO.C,D10*%
X168647786Y-93887283D02*
X168647786Y-92887283D01*
X168885881Y-92887283D01*
X169028738Y-92934903D01*
X169123976Y-93030141D01*
X169171595Y-93125379D01*
X169219214Y-93315855D01*
X169219214Y-93458712D01*
X169171595Y-93649188D01*
X169123976Y-93744426D01*
X169028738Y-93839664D01*
X168885881Y-93887283D01*
X168647786Y-93887283D01*
X170171595Y-93887283D02*
X169600167Y-93887283D01*
X169885881Y-93887283D02*
X169885881Y-92887283D01*
X169790643Y-93030141D01*
X169695405Y-93125379D01*
X169600167Y-93172998D01*
X170790643Y-92887283D02*
X170885881Y-92887283D01*
X170981119Y-92934903D01*
X171028738Y-92982522D01*
X171076357Y-93077760D01*
X171123976Y-93268236D01*
X171123976Y-93506331D01*
X171076357Y-93696807D01*
X171028738Y-93792045D01*
X170981119Y-93839664D01*
X170885881Y-93887283D01*
X170790643Y-93887283D01*
X170695405Y-93839664D01*
X170647786Y-93792045D01*
X170600167Y-93696807D01*
X170552548Y-93506331D01*
X170552548Y-93268236D01*
X170600167Y-93077760D01*
X170647786Y-92982522D01*
X170695405Y-92934903D01*
X170790643Y-92887283D01*
%TO.C,C19*%
X178681142Y-66761142D02*
X178633523Y-66808761D01*
X178490666Y-66856380D01*
X178395428Y-66856380D01*
X178252571Y-66808761D01*
X178157333Y-66713523D01*
X178109714Y-66618285D01*
X178062095Y-66427809D01*
X178062095Y-66284952D01*
X178109714Y-66094476D01*
X178157333Y-65999238D01*
X178252571Y-65904000D01*
X178395428Y-65856380D01*
X178490666Y-65856380D01*
X178633523Y-65904000D01*
X178681142Y-65951619D01*
X179633523Y-66856380D02*
X179062095Y-66856380D01*
X179347809Y-66856380D02*
X179347809Y-65856380D01*
X179252571Y-65999238D01*
X179157333Y-66094476D01*
X179062095Y-66142095D01*
X180109714Y-66856380D02*
X180300190Y-66856380D01*
X180395428Y-66808761D01*
X180443047Y-66761142D01*
X180538285Y-66618285D01*
X180585904Y-66427809D01*
X180585904Y-66046857D01*
X180538285Y-65951619D01*
X180490666Y-65904000D01*
X180395428Y-65856380D01*
X180204952Y-65856380D01*
X180109714Y-65904000D01*
X180062095Y-65951619D01*
X180014476Y-66046857D01*
X180014476Y-66284952D01*
X180062095Y-66380190D01*
X180109714Y-66427809D01*
X180204952Y-66475428D01*
X180395428Y-66475428D01*
X180490666Y-66427809D01*
X180538285Y-66380190D01*
X180585904Y-66284952D01*
%TO.C,C31*%
X83685142Y-142961142D02*
X83637523Y-143008761D01*
X83494666Y-143056380D01*
X83399428Y-143056380D01*
X83256571Y-143008761D01*
X83161333Y-142913523D01*
X83113714Y-142818285D01*
X83066095Y-142627809D01*
X83066095Y-142484952D01*
X83113714Y-142294476D01*
X83161333Y-142199238D01*
X83256571Y-142104000D01*
X83399428Y-142056380D01*
X83494666Y-142056380D01*
X83637523Y-142104000D01*
X83685142Y-142151619D01*
X84018476Y-142056380D02*
X84637523Y-142056380D01*
X84304190Y-142437333D01*
X84447047Y-142437333D01*
X84542285Y-142484952D01*
X84589904Y-142532571D01*
X84637523Y-142627809D01*
X84637523Y-142865904D01*
X84589904Y-142961142D01*
X84542285Y-143008761D01*
X84447047Y-143056380D01*
X84161333Y-143056380D01*
X84066095Y-143008761D01*
X84018476Y-142961142D01*
X85589904Y-143056380D02*
X85018476Y-143056380D01*
X85304190Y-143056380D02*
X85304190Y-142056380D01*
X85208952Y-142199238D01*
X85113714Y-142294476D01*
X85018476Y-142342095D01*
%TO.C,C29*%
X63713142Y-141894857D02*
X63760761Y-141942476D01*
X63808380Y-142085333D01*
X63808380Y-142180571D01*
X63760761Y-142323428D01*
X63665523Y-142418666D01*
X63570285Y-142466285D01*
X63379809Y-142513904D01*
X63236952Y-142513904D01*
X63046476Y-142466285D01*
X62951238Y-142418666D01*
X62856000Y-142323428D01*
X62808380Y-142180571D01*
X62808380Y-142085333D01*
X62856000Y-141942476D01*
X62903619Y-141894857D01*
X62903619Y-141513904D02*
X62856000Y-141466285D01*
X62808380Y-141371047D01*
X62808380Y-141132952D01*
X62856000Y-141037714D01*
X62903619Y-140990095D01*
X62998857Y-140942476D01*
X63094095Y-140942476D01*
X63236952Y-140990095D01*
X63808380Y-141561523D01*
X63808380Y-140942476D01*
X63808380Y-140466285D02*
X63808380Y-140275809D01*
X63760761Y-140180571D01*
X63713142Y-140132952D01*
X63570285Y-140037714D01*
X63379809Y-139990095D01*
X62998857Y-139990095D01*
X62903619Y-140037714D01*
X62856000Y-140085333D01*
X62808380Y-140180571D01*
X62808380Y-140371047D01*
X62856000Y-140466285D01*
X62903619Y-140513904D01*
X62998857Y-140561523D01*
X63236952Y-140561523D01*
X63332190Y-140513904D01*
X63379809Y-140466285D01*
X63427428Y-140371047D01*
X63427428Y-140180571D01*
X63379809Y-140085333D01*
X63332190Y-140037714D01*
X63236952Y-139990095D01*
%TO.C,C30*%
X75049142Y-142961142D02*
X75001523Y-143008761D01*
X74858666Y-143056380D01*
X74763428Y-143056380D01*
X74620571Y-143008761D01*
X74525333Y-142913523D01*
X74477714Y-142818285D01*
X74430095Y-142627809D01*
X74430095Y-142484952D01*
X74477714Y-142294476D01*
X74525333Y-142199238D01*
X74620571Y-142104000D01*
X74763428Y-142056380D01*
X74858666Y-142056380D01*
X75001523Y-142104000D01*
X75049142Y-142151619D01*
X75382476Y-142056380D02*
X76001523Y-142056380D01*
X75668190Y-142437333D01*
X75811047Y-142437333D01*
X75906285Y-142484952D01*
X75953904Y-142532571D01*
X76001523Y-142627809D01*
X76001523Y-142865904D01*
X75953904Y-142961142D01*
X75906285Y-143008761D01*
X75811047Y-143056380D01*
X75525333Y-143056380D01*
X75430095Y-143008761D01*
X75382476Y-142961142D01*
X76620571Y-142056380D02*
X76715809Y-142056380D01*
X76811047Y-142104000D01*
X76858666Y-142151619D01*
X76906285Y-142246857D01*
X76953904Y-142437333D01*
X76953904Y-142675428D01*
X76906285Y-142865904D01*
X76858666Y-142961142D01*
X76811047Y-143008761D01*
X76715809Y-143056380D01*
X76620571Y-143056380D01*
X76525333Y-143008761D01*
X76477714Y-142961142D01*
X76430095Y-142865904D01*
X76382476Y-142675428D01*
X76382476Y-142437333D01*
X76430095Y-142246857D01*
X76477714Y-142151619D01*
X76525333Y-142104000D01*
X76620571Y-142056380D01*
%TO.C,D7*%
X232580235Y-62528821D02*
X232580235Y-61528821D01*
X232818331Y-61528821D01*
X232961188Y-61576441D01*
X233056426Y-61671679D01*
X233104045Y-61766917D01*
X233151664Y-61957393D01*
X233151664Y-62100250D01*
X233104045Y-62290726D01*
X233056426Y-62385964D01*
X232961188Y-62481202D01*
X232818331Y-62528821D01*
X232580235Y-62528821D01*
X233484997Y-61528821D02*
X234151664Y-61528821D01*
X233723092Y-62528821D01*
%TO.C,D12*%
X130288723Y-138521742D02*
X130288723Y-137521742D01*
X130526818Y-137521742D01*
X130669675Y-137569362D01*
X130764913Y-137664600D01*
X130812532Y-137759838D01*
X130860151Y-137950314D01*
X130860151Y-138093171D01*
X130812532Y-138283647D01*
X130764913Y-138378885D01*
X130669675Y-138474123D01*
X130526818Y-138521742D01*
X130288723Y-138521742D01*
X131812532Y-138521742D02*
X131241104Y-138521742D01*
X131526818Y-138521742D02*
X131526818Y-137521742D01*
X131431580Y-137664600D01*
X131336342Y-137759838D01*
X131241104Y-137807457D01*
X132193485Y-137616981D02*
X132241104Y-137569362D01*
X132336342Y-137521742D01*
X132574437Y-137521742D01*
X132669675Y-137569362D01*
X132717294Y-137616981D01*
X132764913Y-137712219D01*
X132764913Y-137807457D01*
X132717294Y-137950314D01*
X132145866Y-138521742D01*
X132764913Y-138521742D01*
%TO.C,C20*%
X230017142Y-68065142D02*
X229969523Y-68112761D01*
X229826666Y-68160380D01*
X229731428Y-68160380D01*
X229588571Y-68112761D01*
X229493333Y-68017523D01*
X229445714Y-67922285D01*
X229398095Y-67731809D01*
X229398095Y-67588952D01*
X229445714Y-67398476D01*
X229493333Y-67303238D01*
X229588571Y-67208000D01*
X229731428Y-67160380D01*
X229826666Y-67160380D01*
X229969523Y-67208000D01*
X230017142Y-67255619D01*
X230398095Y-67255619D02*
X230445714Y-67208000D01*
X230540952Y-67160380D01*
X230779047Y-67160380D01*
X230874285Y-67208000D01*
X230921904Y-67255619D01*
X230969523Y-67350857D01*
X230969523Y-67446095D01*
X230921904Y-67588952D01*
X230350476Y-68160380D01*
X230969523Y-68160380D01*
X231588571Y-67160380D02*
X231683809Y-67160380D01*
X231779047Y-67208000D01*
X231826666Y-67255619D01*
X231874285Y-67350857D01*
X231921904Y-67541333D01*
X231921904Y-67779428D01*
X231874285Y-67969904D01*
X231826666Y-68065142D01*
X231779047Y-68112761D01*
X231683809Y-68160380D01*
X231588571Y-68160380D01*
X231493333Y-68112761D01*
X231445714Y-68065142D01*
X231398095Y-67969904D01*
X231350476Y-67779428D01*
X231350476Y-67541333D01*
X231398095Y-67350857D01*
X231445714Y-67255619D01*
X231493333Y-67208000D01*
X231588571Y-67160380D01*
%TO.C,C26*%
X199129142Y-99702857D02*
X199176761Y-99750476D01*
X199224380Y-99893333D01*
X199224380Y-99988571D01*
X199176761Y-100131428D01*
X199081523Y-100226666D01*
X198986285Y-100274285D01*
X198795809Y-100321904D01*
X198652952Y-100321904D01*
X198462476Y-100274285D01*
X198367238Y-100226666D01*
X198272000Y-100131428D01*
X198224380Y-99988571D01*
X198224380Y-99893333D01*
X198272000Y-99750476D01*
X198319619Y-99702857D01*
X198319619Y-99321904D02*
X198272000Y-99274285D01*
X198224380Y-99179047D01*
X198224380Y-98940952D01*
X198272000Y-98845714D01*
X198319619Y-98798095D01*
X198414857Y-98750476D01*
X198510095Y-98750476D01*
X198652952Y-98798095D01*
X199224380Y-99369523D01*
X199224380Y-98750476D01*
X198224380Y-97893333D02*
X198224380Y-98083809D01*
X198272000Y-98179047D01*
X198319619Y-98226666D01*
X198462476Y-98321904D01*
X198652952Y-98369523D01*
X199033904Y-98369523D01*
X199129142Y-98321904D01*
X199176761Y-98274285D01*
X199224380Y-98179047D01*
X199224380Y-97988571D01*
X199176761Y-97893333D01*
X199129142Y-97845714D01*
X199033904Y-97798095D01*
X198795809Y-97798095D01*
X198700571Y-97845714D01*
X198652952Y-97893333D01*
X198605333Y-97988571D01*
X198605333Y-98179047D01*
X198652952Y-98274285D01*
X198700571Y-98321904D01*
X198795809Y-98369523D01*
%TO.C,C25*%
X228593142Y-99702857D02*
X228640761Y-99750476D01*
X228688380Y-99893333D01*
X228688380Y-99988571D01*
X228640761Y-100131428D01*
X228545523Y-100226666D01*
X228450285Y-100274285D01*
X228259809Y-100321904D01*
X228116952Y-100321904D01*
X227926476Y-100274285D01*
X227831238Y-100226666D01*
X227736000Y-100131428D01*
X227688380Y-99988571D01*
X227688380Y-99893333D01*
X227736000Y-99750476D01*
X227783619Y-99702857D01*
X227783619Y-99321904D02*
X227736000Y-99274285D01*
X227688380Y-99179047D01*
X227688380Y-98940952D01*
X227736000Y-98845714D01*
X227783619Y-98798095D01*
X227878857Y-98750476D01*
X227974095Y-98750476D01*
X228116952Y-98798095D01*
X228688380Y-99369523D01*
X228688380Y-98750476D01*
X227688380Y-97845714D02*
X227688380Y-98321904D01*
X228164571Y-98369523D01*
X228116952Y-98321904D01*
X228069333Y-98226666D01*
X228069333Y-97988571D01*
X228116952Y-97893333D01*
X228164571Y-97845714D01*
X228259809Y-97798095D01*
X228497904Y-97798095D01*
X228593142Y-97845714D01*
X228640761Y-97893333D01*
X228688380Y-97988571D01*
X228688380Y-98226666D01*
X228640761Y-98321904D01*
X228593142Y-98369523D01*
%TO.C,C18*%
X207637142Y-66253142D02*
X207589523Y-66300761D01*
X207446666Y-66348380D01*
X207351428Y-66348380D01*
X207208571Y-66300761D01*
X207113333Y-66205523D01*
X207065714Y-66110285D01*
X207018095Y-65919809D01*
X207018095Y-65776952D01*
X207065714Y-65586476D01*
X207113333Y-65491238D01*
X207208571Y-65396000D01*
X207351428Y-65348380D01*
X207446666Y-65348380D01*
X207589523Y-65396000D01*
X207637142Y-65443619D01*
X208589523Y-66348380D02*
X208018095Y-66348380D01*
X208303809Y-66348380D02*
X208303809Y-65348380D01*
X208208571Y-65491238D01*
X208113333Y-65586476D01*
X208018095Y-65634095D01*
X209160952Y-65776952D02*
X209065714Y-65729333D01*
X209018095Y-65681714D01*
X208970476Y-65586476D01*
X208970476Y-65538857D01*
X209018095Y-65443619D01*
X209065714Y-65396000D01*
X209160952Y-65348380D01*
X209351428Y-65348380D01*
X209446666Y-65396000D01*
X209494285Y-65443619D01*
X209541904Y-65538857D01*
X209541904Y-65586476D01*
X209494285Y-65681714D01*
X209446666Y-65729333D01*
X209351428Y-65776952D01*
X209160952Y-65776952D01*
X209065714Y-65824571D01*
X209018095Y-65872190D01*
X208970476Y-65967428D01*
X208970476Y-66157904D01*
X209018095Y-66253142D01*
X209065714Y-66300761D01*
X209160952Y-66348380D01*
X209351428Y-66348380D01*
X209446666Y-66300761D01*
X209494285Y-66253142D01*
X209541904Y-66157904D01*
X209541904Y-65967428D01*
X209494285Y-65872190D01*
X209446666Y-65824571D01*
X209351428Y-65776952D01*
%TO.C,C21*%
X87877142Y-80906857D02*
X87924761Y-80954476D01*
X87972380Y-81097333D01*
X87972380Y-81192571D01*
X87924761Y-81335428D01*
X87829523Y-81430666D01*
X87734285Y-81478285D01*
X87543809Y-81525904D01*
X87400952Y-81525904D01*
X87210476Y-81478285D01*
X87115238Y-81430666D01*
X87020000Y-81335428D01*
X86972380Y-81192571D01*
X86972380Y-81097333D01*
X87020000Y-80954476D01*
X87067619Y-80906857D01*
X87067619Y-80525904D02*
X87020000Y-80478285D01*
X86972380Y-80383047D01*
X86972380Y-80144952D01*
X87020000Y-80049714D01*
X87067619Y-80002095D01*
X87162857Y-79954476D01*
X87258095Y-79954476D01*
X87400952Y-80002095D01*
X87972380Y-80573523D01*
X87972380Y-79954476D01*
X87972380Y-79002095D02*
X87972380Y-79573523D01*
X87972380Y-79287809D02*
X86972380Y-79287809D01*
X87115238Y-79383047D01*
X87210476Y-79478285D01*
X87258095Y-79573523D01*
%TO.C,C32*%
X92321142Y-142961142D02*
X92273523Y-143008761D01*
X92130666Y-143056380D01*
X92035428Y-143056380D01*
X91892571Y-143008761D01*
X91797333Y-142913523D01*
X91749714Y-142818285D01*
X91702095Y-142627809D01*
X91702095Y-142484952D01*
X91749714Y-142294476D01*
X91797333Y-142199238D01*
X91892571Y-142104000D01*
X92035428Y-142056380D01*
X92130666Y-142056380D01*
X92273523Y-142104000D01*
X92321142Y-142151619D01*
X92654476Y-142056380D02*
X93273523Y-142056380D01*
X92940190Y-142437333D01*
X93083047Y-142437333D01*
X93178285Y-142484952D01*
X93225904Y-142532571D01*
X93273523Y-142627809D01*
X93273523Y-142865904D01*
X93225904Y-142961142D01*
X93178285Y-143008761D01*
X93083047Y-143056380D01*
X92797333Y-143056380D01*
X92702095Y-143008761D01*
X92654476Y-142961142D01*
X93654476Y-142151619D02*
X93702095Y-142104000D01*
X93797333Y-142056380D01*
X94035428Y-142056380D01*
X94130666Y-142104000D01*
X94178285Y-142151619D01*
X94225904Y-142246857D01*
X94225904Y-142342095D01*
X94178285Y-142484952D01*
X93606857Y-143056380D01*
X94225904Y-143056380D01*
%TO.C,C27*%
X109593142Y-91941142D02*
X109545523Y-91988761D01*
X109402666Y-92036380D01*
X109307428Y-92036380D01*
X109164571Y-91988761D01*
X109069333Y-91893523D01*
X109021714Y-91798285D01*
X108974095Y-91607809D01*
X108974095Y-91464952D01*
X109021714Y-91274476D01*
X109069333Y-91179238D01*
X109164571Y-91084000D01*
X109307428Y-91036380D01*
X109402666Y-91036380D01*
X109545523Y-91084000D01*
X109593142Y-91131619D01*
X109974095Y-91131619D02*
X110021714Y-91084000D01*
X110116952Y-91036380D01*
X110355047Y-91036380D01*
X110450285Y-91084000D01*
X110497904Y-91131619D01*
X110545523Y-91226857D01*
X110545523Y-91322095D01*
X110497904Y-91464952D01*
X109926476Y-92036380D01*
X110545523Y-92036380D01*
X110878857Y-91036380D02*
X111545523Y-91036380D01*
X111116952Y-92036380D01*
%TO.C,D6*%
X203665648Y-62313484D02*
X203665648Y-61313484D01*
X203903744Y-61313484D01*
X204046601Y-61361104D01*
X204141839Y-61456342D01*
X204189458Y-61551580D01*
X204237077Y-61742056D01*
X204237077Y-61884913D01*
X204189458Y-62075389D01*
X204141839Y-62170627D01*
X204046601Y-62265865D01*
X203903744Y-62313484D01*
X203665648Y-62313484D01*
X205094220Y-61313484D02*
X204903744Y-61313484D01*
X204808505Y-61361104D01*
X204760886Y-61408723D01*
X204665648Y-61551580D01*
X204618029Y-61742056D01*
X204618029Y-62123008D01*
X204665648Y-62218246D01*
X204713267Y-62265865D01*
X204808505Y-62313484D01*
X204998982Y-62313484D01*
X205094220Y-62265865D01*
X205141839Y-62218246D01*
X205189458Y-62123008D01*
X205189458Y-61884913D01*
X205141839Y-61789675D01*
X205094220Y-61742056D01*
X204998982Y-61694437D01*
X204808505Y-61694437D01*
X204713267Y-61742056D01*
X204665648Y-61789675D01*
X204618029Y-61884913D01*
%TO.C,C23*%
X144645142Y-79749142D02*
X144597523Y-79796761D01*
X144454666Y-79844380D01*
X144359428Y-79844380D01*
X144216571Y-79796761D01*
X144121333Y-79701523D01*
X144073714Y-79606285D01*
X144026095Y-79415809D01*
X144026095Y-79272952D01*
X144073714Y-79082476D01*
X144121333Y-78987238D01*
X144216571Y-78892000D01*
X144359428Y-78844380D01*
X144454666Y-78844380D01*
X144597523Y-78892000D01*
X144645142Y-78939619D01*
X145026095Y-78939619D02*
X145073714Y-78892000D01*
X145168952Y-78844380D01*
X145407047Y-78844380D01*
X145502285Y-78892000D01*
X145549904Y-78939619D01*
X145597523Y-79034857D01*
X145597523Y-79130095D01*
X145549904Y-79272952D01*
X144978476Y-79844380D01*
X145597523Y-79844380D01*
X145930857Y-78844380D02*
X146549904Y-78844380D01*
X146216571Y-79225333D01*
X146359428Y-79225333D01*
X146454666Y-79272952D01*
X146502285Y-79320571D01*
X146549904Y-79415809D01*
X146549904Y-79653904D01*
X146502285Y-79749142D01*
X146454666Y-79796761D01*
X146359428Y-79844380D01*
X146073714Y-79844380D01*
X145978476Y-79796761D01*
X145930857Y-79749142D01*
%TO.C,D15*%
X79557714Y-143708380D02*
X79557714Y-142708380D01*
X79795809Y-142708380D01*
X79938666Y-142756000D01*
X80033904Y-142851238D01*
X80081523Y-142946476D01*
X80129142Y-143136952D01*
X80129142Y-143279809D01*
X80081523Y-143470285D01*
X80033904Y-143565523D01*
X79938666Y-143660761D01*
X79795809Y-143708380D01*
X79557714Y-143708380D01*
X81081523Y-143708380D02*
X80510095Y-143708380D01*
X80795809Y-143708380D02*
X80795809Y-142708380D01*
X80700571Y-142851238D01*
X80605333Y-142946476D01*
X80510095Y-142994095D01*
X81986285Y-142708380D02*
X81510095Y-142708380D01*
X81462476Y-143184571D01*
X81510095Y-143136952D01*
X81605333Y-143089333D01*
X81843428Y-143089333D01*
X81938666Y-143136952D01*
X81986285Y-143184571D01*
X82033904Y-143279809D01*
X82033904Y-143517904D01*
X81986285Y-143613142D01*
X81938666Y-143660761D01*
X81843428Y-143708380D01*
X81605333Y-143708380D01*
X81510095Y-143660761D01*
X81462476Y-143613142D01*
%TO.C,D2*%
X86567868Y-74065592D02*
X86567868Y-73065592D01*
X86805964Y-73065592D01*
X86948821Y-73113212D01*
X87044059Y-73208450D01*
X87091678Y-73303688D01*
X87139297Y-73494164D01*
X87139297Y-73637021D01*
X87091678Y-73827497D01*
X87044059Y-73922735D01*
X86948821Y-74017973D01*
X86805964Y-74065592D01*
X86567868Y-74065592D01*
X87520249Y-73160831D02*
X87567868Y-73113212D01*
X87663106Y-73065592D01*
X87901202Y-73065592D01*
X87996440Y-73113212D01*
X88044059Y-73160831D01*
X88091678Y-73256069D01*
X88091678Y-73351307D01*
X88044059Y-73494164D01*
X87472630Y-74065592D01*
X88091678Y-74065592D01*
%TO.C,D5*%
X174738814Y-62437723D02*
X174738814Y-61437723D01*
X174976910Y-61437723D01*
X175119767Y-61485343D01*
X175215005Y-61580581D01*
X175262624Y-61675819D01*
X175310243Y-61866295D01*
X175310243Y-62009152D01*
X175262624Y-62199628D01*
X175215005Y-62294866D01*
X175119767Y-62390104D01*
X174976910Y-62437723D01*
X174738814Y-62437723D01*
X176215005Y-61437723D02*
X175738814Y-61437723D01*
X175691195Y-61913914D01*
X175738814Y-61866295D01*
X175834052Y-61818676D01*
X176072148Y-61818676D01*
X176167386Y-61866295D01*
X176215005Y-61913914D01*
X176262624Y-62009152D01*
X176262624Y-62247247D01*
X176215005Y-62342485D01*
X176167386Y-62390104D01*
X176072148Y-62437723D01*
X175834052Y-62437723D01*
X175738814Y-62390104D01*
X175691195Y-62342485D01*
%TO.C,D14*%
X70921714Y-143708380D02*
X70921714Y-142708380D01*
X71159809Y-142708380D01*
X71302666Y-142756000D01*
X71397904Y-142851238D01*
X71445523Y-142946476D01*
X71493142Y-143136952D01*
X71493142Y-143279809D01*
X71445523Y-143470285D01*
X71397904Y-143565523D01*
X71302666Y-143660761D01*
X71159809Y-143708380D01*
X70921714Y-143708380D01*
X72445523Y-143708380D02*
X71874095Y-143708380D01*
X72159809Y-143708380D02*
X72159809Y-142708380D01*
X72064571Y-142851238D01*
X71969333Y-142946476D01*
X71874095Y-142994095D01*
X73302666Y-143041714D02*
X73302666Y-143708380D01*
X73064571Y-142660761D02*
X72826476Y-143375047D01*
X73445523Y-143375047D01*
%TO.C,D8*%
X227170350Y-93897678D02*
X227170350Y-92897678D01*
X227408446Y-92897678D01*
X227551303Y-92945298D01*
X227646541Y-93040536D01*
X227694160Y-93135774D01*
X227741779Y-93326250D01*
X227741779Y-93469107D01*
X227694160Y-93659583D01*
X227646541Y-93754821D01*
X227551303Y-93850059D01*
X227408446Y-93897678D01*
X227170350Y-93897678D01*
X228313207Y-93326250D02*
X228217969Y-93278631D01*
X228170350Y-93231012D01*
X228122731Y-93135774D01*
X228122731Y-93088155D01*
X228170350Y-92992917D01*
X228217969Y-92945298D01*
X228313207Y-92897678D01*
X228503684Y-92897678D01*
X228598922Y-92945298D01*
X228646541Y-92992917D01*
X228694160Y-93088155D01*
X228694160Y-93135774D01*
X228646541Y-93231012D01*
X228598922Y-93278631D01*
X228503684Y-93326250D01*
X228313207Y-93326250D01*
X228217969Y-93373869D01*
X228170350Y-93421488D01*
X228122731Y-93516726D01*
X228122731Y-93707202D01*
X228170350Y-93802440D01*
X228217969Y-93850059D01*
X228313207Y-93897678D01*
X228503684Y-93897678D01*
X228598922Y-93850059D01*
X228646541Y-93802440D01*
X228694160Y-93707202D01*
X228694160Y-93516726D01*
X228646541Y-93421488D01*
X228598922Y-93373869D01*
X228503684Y-93326250D01*
%TO.C,D13*%
X62285714Y-143708380D02*
X62285714Y-142708380D01*
X62523809Y-142708380D01*
X62666666Y-142756000D01*
X62761904Y-142851238D01*
X62809523Y-142946476D01*
X62857142Y-143136952D01*
X62857142Y-143279809D01*
X62809523Y-143470285D01*
X62761904Y-143565523D01*
X62666666Y-143660761D01*
X62523809Y-143708380D01*
X62285714Y-143708380D01*
X63809523Y-143708380D02*
X63238095Y-143708380D01*
X63523809Y-143708380D02*
X63523809Y-142708380D01*
X63428571Y-142851238D01*
X63333333Y-142946476D01*
X63238095Y-142994095D01*
X64142857Y-142708380D02*
X64761904Y-142708380D01*
X64428571Y-143089333D01*
X64571428Y-143089333D01*
X64666666Y-143136952D01*
X64714285Y-143184571D01*
X64761904Y-143279809D01*
X64761904Y-143517904D01*
X64714285Y-143613142D01*
X64666666Y-143660761D01*
X64571428Y-143708380D01*
X64285714Y-143708380D01*
X64190476Y-143660761D01*
X64142857Y-143613142D01*
%TO.C,D4*%
X148105904Y-73848380D02*
X148105904Y-72848380D01*
X148344000Y-72848380D01*
X148486857Y-72896000D01*
X148582095Y-72991238D01*
X148629714Y-73086476D01*
X148677333Y-73276952D01*
X148677333Y-73419809D01*
X148629714Y-73610285D01*
X148582095Y-73705523D01*
X148486857Y-73800761D01*
X148344000Y-73848380D01*
X148105904Y-73848380D01*
X149534476Y-73181714D02*
X149534476Y-73848380D01*
X149296380Y-72800761D02*
X149058285Y-73515047D01*
X149677333Y-73515047D01*
%TO.C,D16*%
X88193714Y-143708380D02*
X88193714Y-142708380D01*
X88431809Y-142708380D01*
X88574666Y-142756000D01*
X88669904Y-142851238D01*
X88717523Y-142946476D01*
X88765142Y-143136952D01*
X88765142Y-143279809D01*
X88717523Y-143470285D01*
X88669904Y-143565523D01*
X88574666Y-143660761D01*
X88431809Y-143708380D01*
X88193714Y-143708380D01*
X89717523Y-143708380D02*
X89146095Y-143708380D01*
X89431809Y-143708380D02*
X89431809Y-142708380D01*
X89336571Y-142851238D01*
X89241333Y-142946476D01*
X89146095Y-142994095D01*
X90574666Y-142708380D02*
X90384190Y-142708380D01*
X90288952Y-142756000D01*
X90241333Y-142803619D01*
X90146095Y-142946476D01*
X90098476Y-143136952D01*
X90098476Y-143517904D01*
X90146095Y-143613142D01*
X90193714Y-143660761D01*
X90288952Y-143708380D01*
X90479428Y-143708380D01*
X90574666Y-143660761D01*
X90622285Y-143613142D01*
X90669904Y-143517904D01*
X90669904Y-143279809D01*
X90622285Y-143184571D01*
X90574666Y-143136952D01*
X90479428Y-143089333D01*
X90288952Y-143089333D01*
X90193714Y-143136952D01*
X90146095Y-143184571D01*
X90098476Y-143279809D01*
%TO.C,D11*%
X142023308Y-105040686D02*
X142023308Y-104040686D01*
X142261403Y-104040686D01*
X142404260Y-104088306D01*
X142499498Y-104183544D01*
X142547117Y-104278782D01*
X142594736Y-104469258D01*
X142594736Y-104612115D01*
X142547117Y-104802591D01*
X142499498Y-104897829D01*
X142404260Y-104993067D01*
X142261403Y-105040686D01*
X142023308Y-105040686D01*
X143547117Y-105040686D02*
X142975689Y-105040686D01*
X143261403Y-105040686D02*
X143261403Y-104040686D01*
X143166165Y-104183544D01*
X143070927Y-104278782D01*
X142975689Y-104326401D01*
X144499498Y-105040686D02*
X143928070Y-105040686D01*
X144213784Y-105040686D02*
X144213784Y-104040686D01*
X144118546Y-104183544D01*
X144023308Y-104278782D01*
X143928070Y-104326401D01*
%TO.C,D9*%
X197958004Y-93906587D02*
X197958004Y-92906587D01*
X198196100Y-92906587D01*
X198338957Y-92954207D01*
X198434195Y-93049445D01*
X198481814Y-93144683D01*
X198529433Y-93335159D01*
X198529433Y-93478016D01*
X198481814Y-93668492D01*
X198434195Y-93763730D01*
X198338957Y-93858968D01*
X198196100Y-93906587D01*
X197958004Y-93906587D01*
X199005623Y-93906587D02*
X199196100Y-93906587D01*
X199291338Y-93858968D01*
X199338957Y-93811349D01*
X199434195Y-93668492D01*
X199481814Y-93478016D01*
X199481814Y-93097064D01*
X199434195Y-93001826D01*
X199386576Y-92954207D01*
X199291338Y-92906587D01*
X199100861Y-92906587D01*
X199005623Y-92954207D01*
X198958004Y-93001826D01*
X198910385Y-93097064D01*
X198910385Y-93335159D01*
X198958004Y-93430397D01*
X199005623Y-93478016D01*
X199100861Y-93525635D01*
X199291338Y-93525635D01*
X199386576Y-93478016D01*
X199434195Y-93430397D01*
X199481814Y-93335159D01*
%TO.C,C17*%
X119401142Y-142882857D02*
X119448761Y-142930476D01*
X119496380Y-143073333D01*
X119496380Y-143168571D01*
X119448761Y-143311428D01*
X119353523Y-143406666D01*
X119258285Y-143454285D01*
X119067809Y-143501904D01*
X118924952Y-143501904D01*
X118734476Y-143454285D01*
X118639238Y-143406666D01*
X118544000Y-143311428D01*
X118496380Y-143168571D01*
X118496380Y-143073333D01*
X118544000Y-142930476D01*
X118591619Y-142882857D01*
X119496380Y-141930476D02*
X119496380Y-142501904D01*
X119496380Y-142216190D02*
X118496380Y-142216190D01*
X118639238Y-142311428D01*
X118734476Y-142406666D01*
X118782095Y-142501904D01*
X118496380Y-141597142D02*
X118496380Y-140930476D01*
X119496380Y-141359047D01*
%TO.C,C24*%
X58921142Y-80398857D02*
X58968761Y-80446476D01*
X59016380Y-80589333D01*
X59016380Y-80684571D01*
X58968761Y-80827428D01*
X58873523Y-80922666D01*
X58778285Y-80970285D01*
X58587809Y-81017904D01*
X58444952Y-81017904D01*
X58254476Y-80970285D01*
X58159238Y-80922666D01*
X58064000Y-80827428D01*
X58016380Y-80684571D01*
X58016380Y-80589333D01*
X58064000Y-80446476D01*
X58111619Y-80398857D01*
X58111619Y-80017904D02*
X58064000Y-79970285D01*
X58016380Y-79875047D01*
X58016380Y-79636952D01*
X58064000Y-79541714D01*
X58111619Y-79494095D01*
X58206857Y-79446476D01*
X58302095Y-79446476D01*
X58444952Y-79494095D01*
X59016380Y-80065523D01*
X59016380Y-79446476D01*
X58349714Y-78589333D02*
X59016380Y-78589333D01*
X57968761Y-78827428D02*
X58683047Y-79065523D01*
X58683047Y-78446476D01*
%TO.C,D3*%
X113255142Y-85367952D02*
X113255142Y-84367952D01*
X113493238Y-84367952D01*
X113636095Y-84415572D01*
X113731333Y-84510810D01*
X113778952Y-84606048D01*
X113826571Y-84796524D01*
X113826571Y-84939381D01*
X113778952Y-85129857D01*
X113731333Y-85225095D01*
X113636095Y-85320333D01*
X113493238Y-85367952D01*
X113255142Y-85367952D01*
X114159904Y-84367952D02*
X114778952Y-84367952D01*
X114445618Y-84748905D01*
X114588476Y-84748905D01*
X114683714Y-84796524D01*
X114731333Y-84844143D01*
X114778952Y-84939381D01*
X114778952Y-85177476D01*
X114731333Y-85272714D01*
X114683714Y-85320333D01*
X114588476Y-85367952D01*
X114302761Y-85367952D01*
X114207523Y-85320333D01*
X114159904Y-85272714D01*
%TO.C,D1*%
X57514866Y-74026464D02*
X57514866Y-73026464D01*
X57752962Y-73026464D01*
X57895819Y-73074084D01*
X57991057Y-73169322D01*
X58038676Y-73264560D01*
X58086295Y-73455036D01*
X58086295Y-73597893D01*
X58038676Y-73788369D01*
X57991057Y-73883607D01*
X57895819Y-73978845D01*
X57752962Y-74026464D01*
X57514866Y-74026464D01*
X59038676Y-74026464D02*
X58467247Y-74026464D01*
X58752962Y-74026464D02*
X58752962Y-73026464D01*
X58657723Y-73169322D01*
X58562485Y-73264560D01*
X58467247Y-73312179D01*
%TO.C,C28*%
X170681142Y-100182857D02*
X170728761Y-100230476D01*
X170776380Y-100373333D01*
X170776380Y-100468571D01*
X170728761Y-100611428D01*
X170633523Y-100706666D01*
X170538285Y-100754285D01*
X170347809Y-100801904D01*
X170204952Y-100801904D01*
X170014476Y-100754285D01*
X169919238Y-100706666D01*
X169824000Y-100611428D01*
X169776380Y-100468571D01*
X169776380Y-100373333D01*
X169824000Y-100230476D01*
X169871619Y-100182857D01*
X169871619Y-99801904D02*
X169824000Y-99754285D01*
X169776380Y-99659047D01*
X169776380Y-99420952D01*
X169824000Y-99325714D01*
X169871619Y-99278095D01*
X169966857Y-99230476D01*
X170062095Y-99230476D01*
X170204952Y-99278095D01*
X170776380Y-99849523D01*
X170776380Y-99230476D01*
X170204952Y-98659047D02*
X170157333Y-98754285D01*
X170109714Y-98801904D01*
X170014476Y-98849523D01*
X169966857Y-98849523D01*
X169871619Y-98801904D01*
X169824000Y-98754285D01*
X169776380Y-98659047D01*
X169776380Y-98468571D01*
X169824000Y-98373333D01*
X169871619Y-98325714D01*
X169966857Y-98278095D01*
X170014476Y-98278095D01*
X170109714Y-98325714D01*
X170157333Y-98373333D01*
X170204952Y-98468571D01*
X170204952Y-98659047D01*
X170252571Y-98754285D01*
X170300190Y-98801904D01*
X170395428Y-98849523D01*
X170585904Y-98849523D01*
X170681142Y-98801904D01*
X170728761Y-98754285D01*
X170776380Y-98659047D01*
X170776380Y-98468571D01*
X170728761Y-98373333D01*
X170681142Y-98325714D01*
X170585904Y-98278095D01*
X170395428Y-98278095D01*
X170300190Y-98325714D01*
X170252571Y-98373333D01*
X170204952Y-98468571D01*
%TO.C,C22*%
X143757142Y-111386857D02*
X143804761Y-111434476D01*
X143852380Y-111577333D01*
X143852380Y-111672571D01*
X143804761Y-111815428D01*
X143709523Y-111910666D01*
X143614285Y-111958285D01*
X143423809Y-112005904D01*
X143280952Y-112005904D01*
X143090476Y-111958285D01*
X142995238Y-111910666D01*
X142900000Y-111815428D01*
X142852380Y-111672571D01*
X142852380Y-111577333D01*
X142900000Y-111434476D01*
X142947619Y-111386857D01*
X142947619Y-111005904D02*
X142900000Y-110958285D01*
X142852380Y-110863047D01*
X142852380Y-110624952D01*
X142900000Y-110529714D01*
X142947619Y-110482095D01*
X143042857Y-110434476D01*
X143138095Y-110434476D01*
X143280952Y-110482095D01*
X143852380Y-111053523D01*
X143852380Y-110434476D01*
X142947619Y-110053523D02*
X142900000Y-110005904D01*
X142852380Y-109910666D01*
X142852380Y-109672571D01*
X142900000Y-109577333D01*
X142947619Y-109529714D01*
X143042857Y-109482095D01*
X143138095Y-109482095D01*
X143280952Y-109529714D01*
X143852380Y-110101142D01*
X143852380Y-109482095D01*
%TO.C,SW8*%
X80320000Y-59170000D02*
X80320000Y-58170000D01*
X94320000Y-58170000D02*
X94320000Y-59170000D01*
X80320000Y-58170000D02*
X81320000Y-58170000D01*
X80320000Y-72170000D02*
X81320000Y-72170000D01*
X93320000Y-72170000D02*
X94320000Y-72170000D01*
X94320000Y-58170000D02*
X93320000Y-58170000D01*
X94320000Y-71170000D02*
X94320000Y-72170000D01*
X80320000Y-72170000D02*
X80320000Y-71170000D01*
X81320000Y-58170000D02*
X80320000Y-58170000D01*
%TO.C,SW9*%
X120920000Y-69520000D02*
X119920000Y-69520000D01*
X106920000Y-83520000D02*
X106920000Y-82520000D01*
X119920000Y-83520000D02*
X120920000Y-83520000D01*
X106920000Y-83520000D02*
X107920000Y-83520000D01*
X106920000Y-70520000D02*
X106920000Y-69520000D01*
X107920000Y-69520000D02*
X106920000Y-69520000D01*
X120920000Y-69520000D02*
X120920000Y-70520000D01*
X106920000Y-69520000D02*
X107920000Y-69520000D01*
X120920000Y-82520000D02*
X120920000Y-83520000D01*
%TO.C,SW18*%
X124420000Y-123620000D02*
X124420000Y-122620000D01*
X138420000Y-122620000D02*
X138420000Y-123620000D01*
X137420000Y-136620000D02*
X138420000Y-136620000D01*
X124420000Y-122620000D02*
X125420000Y-122620000D01*
X125420000Y-122620000D02*
X124420000Y-122620000D01*
X138420000Y-135620000D02*
X138420000Y-136620000D01*
X138420000Y-122620000D02*
X137420000Y-122620000D01*
X124420000Y-136620000D02*
X124420000Y-135620000D01*
X124420000Y-136620000D02*
X125420000Y-136620000D01*
%TO.C,SW10*%
X141860000Y-72110000D02*
X142860000Y-72110000D01*
X141860000Y-58110000D02*
X142860000Y-58110000D01*
X141860000Y-72110000D02*
X141860000Y-71110000D01*
X154860000Y-72110000D02*
X155860000Y-72110000D01*
X141860000Y-59110000D02*
X141860000Y-58110000D01*
X142860000Y-58110000D02*
X141860000Y-58110000D01*
X155860000Y-58110000D02*
X154860000Y-58110000D01*
X155860000Y-71110000D02*
X155860000Y-72110000D01*
X155860000Y-58110000D02*
X155860000Y-59110000D01*
%TO.C,SW11*%
X169420000Y-46580000D02*
X168420000Y-46580000D01*
X168420000Y-46580000D02*
X169420000Y-46580000D01*
X182420000Y-46580000D02*
X181420000Y-46580000D01*
X168420000Y-60580000D02*
X168420000Y-59580000D01*
X168420000Y-60580000D02*
X169420000Y-60580000D01*
X181420000Y-60580000D02*
X182420000Y-60580000D01*
X182420000Y-59580000D02*
X182420000Y-60580000D01*
X182420000Y-46580000D02*
X182420000Y-47580000D01*
X168420000Y-47580000D02*
X168420000Y-46580000D01*
%TO.C,SW12*%
X197390000Y-47460000D02*
X197390000Y-46460000D01*
X211390000Y-59460000D02*
X211390000Y-60460000D01*
X197390000Y-60460000D02*
X197390000Y-59460000D01*
X197390000Y-60460000D02*
X198390000Y-60460000D01*
X211390000Y-46460000D02*
X210390000Y-46460000D01*
X197390000Y-46460000D02*
X198390000Y-46460000D01*
X198390000Y-46460000D02*
X197390000Y-46460000D01*
X210390000Y-60460000D02*
X211390000Y-60460000D01*
X211390000Y-46460000D02*
X211390000Y-47460000D01*
%TO.C,SW13*%
X240360000Y-59700000D02*
X240360000Y-60700000D01*
X226360000Y-60700000D02*
X227360000Y-60700000D01*
X240360000Y-46700000D02*
X240360000Y-47700000D01*
X226360000Y-46700000D02*
X227360000Y-46700000D01*
X226360000Y-47700000D02*
X226360000Y-46700000D01*
X239360000Y-60700000D02*
X240360000Y-60700000D01*
X226360000Y-60700000D02*
X226360000Y-59700000D01*
X227360000Y-46700000D02*
X226360000Y-46700000D01*
X240360000Y-46700000D02*
X239360000Y-46700000D01*
%TO.C,SW14*%
X136250000Y-103150000D02*
X137250000Y-103150000D01*
X136250000Y-90150000D02*
X136250000Y-89150000D01*
X136250000Y-89150000D02*
X137250000Y-89150000D01*
X136250000Y-103150000D02*
X136250000Y-102150000D01*
X150250000Y-89150000D02*
X149250000Y-89150000D01*
X150250000Y-102150000D02*
X150250000Y-103150000D01*
X137250000Y-89150000D02*
X136250000Y-89150000D01*
X150250000Y-89150000D02*
X150250000Y-90150000D01*
X149250000Y-103150000D02*
X150250000Y-103150000D01*
%TO.C,SW15*%
X163860000Y-78040000D02*
X162860000Y-78040000D01*
X162860000Y-78040000D02*
X163860000Y-78040000D01*
X162860000Y-92040000D02*
X163860000Y-92040000D01*
X175860000Y-92040000D02*
X176860000Y-92040000D01*
X176860000Y-91040000D02*
X176860000Y-92040000D01*
X162860000Y-92040000D02*
X162860000Y-91040000D01*
X162860000Y-79040000D02*
X162860000Y-78040000D01*
X176860000Y-78040000D02*
X175860000Y-78040000D01*
X176860000Y-78040000D02*
X176860000Y-79040000D01*
%TO.C,SW16*%
X191710000Y-78040000D02*
X192710000Y-78040000D01*
X191710000Y-79040000D02*
X191710000Y-78040000D01*
X205710000Y-78040000D02*
X204710000Y-78040000D01*
X192710000Y-78040000D02*
X191710000Y-78040000D01*
X205710000Y-91040000D02*
X205710000Y-92040000D01*
X191710000Y-92040000D02*
X192710000Y-92040000D01*
X191710000Y-92040000D02*
X191710000Y-91040000D01*
X205710000Y-78040000D02*
X205710000Y-79040000D01*
X204710000Y-92040000D02*
X205710000Y-92040000D01*
%TO.C,SW17*%
X220920000Y-92040000D02*
X220920000Y-91040000D01*
X220920000Y-78040000D02*
X221920000Y-78040000D01*
X234920000Y-91040000D02*
X234920000Y-92040000D01*
X221920000Y-78040000D02*
X220920000Y-78040000D01*
X220920000Y-92040000D02*
X221920000Y-92040000D01*
X220920000Y-79040000D02*
X220920000Y-78040000D01*
X234920000Y-78040000D02*
X234920000Y-79040000D01*
X234920000Y-78040000D02*
X233920000Y-78040000D01*
X233920000Y-92040000D02*
X234920000Y-92040000D01*
%TO.C,SW7*%
X51225000Y-72050000D02*
X51225000Y-71050000D01*
X65225000Y-58050000D02*
X64225000Y-58050000D01*
X52225000Y-58050000D02*
X51225000Y-58050000D01*
X64225000Y-72050000D02*
X65225000Y-72050000D01*
X65225000Y-58050000D02*
X65225000Y-59050000D01*
X65225000Y-71050000D02*
X65225000Y-72050000D01*
X51225000Y-72050000D02*
X52225000Y-72050000D01*
X51225000Y-59050000D02*
X51225000Y-58050000D01*
X51225000Y-58050000D02*
X52225000Y-58050000D01*
D15*
%TO.C,SW4*%
X91500000Y-36250000D02*
X90000000Y-36250000D01*
X90000000Y-43250000D02*
X91500000Y-43250000D01*
X94000000Y-42000000D02*
X94000000Y-37500000D01*
X87500000Y-37500000D02*
X87500000Y-42000000D01*
%TO.C,SW2*%
X68500000Y-36250000D02*
X67000000Y-36250000D01*
X64500000Y-37500000D02*
X64500000Y-42000000D01*
X71000000Y-42000000D02*
X71000000Y-37500000D01*
X67000000Y-43250000D02*
X68500000Y-43250000D01*
%TO.C,SW5*%
X97500000Y-37500000D02*
X97500000Y-42000000D01*
X101500000Y-36250000D02*
X100000000Y-36250000D01*
X100000000Y-43250000D02*
X101500000Y-43250000D01*
X104000000Y-42000000D02*
X104000000Y-37500000D01*
%TO.C,SW1*%
X57000000Y-43250000D02*
X58500000Y-43250000D01*
X54500000Y-37500000D02*
X54500000Y-42000000D01*
X58500000Y-36250000D02*
X57000000Y-36250000D01*
X61000000Y-42000000D02*
X61000000Y-37500000D01*
%TO.C,SW3*%
X74500000Y-37500000D02*
X74500000Y-42000000D01*
X78500000Y-36250000D02*
X77000000Y-36250000D01*
X81000000Y-42000000D02*
X81000000Y-37500000D01*
X77000000Y-43250000D02*
X78500000Y-43250000D01*
%TO.C,SW6*%
X114000000Y-42000000D02*
X114000000Y-37500000D01*
X107500000Y-37500000D02*
X107500000Y-42000000D01*
X110000000Y-43250000D02*
X111500000Y-43250000D01*
X111500000Y-36250000D02*
X110000000Y-36250000D01*
%TO.C,R7*%
X146930000Y-34346359D02*
X146930000Y-34653641D01*
X146170000Y-34346359D02*
X146170000Y-34653641D01*
%TO.C,R6*%
X142303641Y-34430000D02*
X141996359Y-34430000D01*
X142303641Y-33670000D02*
X141996359Y-33670000D01*
%TO.C,C1*%
X145440000Y-42857836D02*
X145440000Y-42642164D01*
X146160000Y-42857836D02*
X146160000Y-42642164D01*
%TO.C,C2*%
X129792164Y-54240000D02*
X130007836Y-54240000D01*
X129792164Y-54960000D02*
X130007836Y-54960000D01*
%TO.C,C4*%
X141360000Y-42857836D02*
X141360000Y-42642164D01*
X140640000Y-42857836D02*
X140640000Y-42642164D01*
%TO.C,C5*%
X127642164Y-34440000D02*
X127857836Y-34440000D01*
X127642164Y-35160000D02*
X127857836Y-35160000D01*
%TO.C,C6*%
X130240000Y-40207836D02*
X130240000Y-39992164D01*
X130960000Y-40207836D02*
X130960000Y-39992164D01*
%TO.C,C7*%
X133090000Y-53192164D02*
X133090000Y-53407836D01*
X133810000Y-53192164D02*
X133810000Y-53407836D01*
%TO.C,C8*%
X135210000Y-40807836D02*
X135210000Y-40592164D01*
X134490000Y-40807836D02*
X134490000Y-40592164D01*
%TO.C,C9*%
X131290000Y-40807836D02*
X131290000Y-40592164D01*
X132010000Y-40807836D02*
X132010000Y-40592164D01*
%TO.C,C10*%
X135540000Y-41807836D02*
X135540000Y-41592164D01*
X136260000Y-41807836D02*
X136260000Y-41592164D01*
%TO.C,C15*%
X136992164Y-44810000D02*
X137207836Y-44810000D01*
X136992164Y-44090000D02*
X137207836Y-44090000D01*
%TO.C,C16*%
X136992164Y-43040000D02*
X137207836Y-43040000D01*
X136992164Y-43760000D02*
X137207836Y-43760000D01*
%TO.C,R1*%
X122030000Y-43446359D02*
X122030000Y-43753641D01*
X121270000Y-43446359D02*
X121270000Y-43753641D01*
%TO.C,R2*%
X117846359Y-36020000D02*
X118153641Y-36020000D01*
X117846359Y-36780000D02*
X118153641Y-36780000D01*
%TO.C,R4*%
X133400000Y-40546359D02*
X133400000Y-40853641D01*
X134160000Y-40546359D02*
X134160000Y-40853641D01*
%TO.C,SW19*%
X109600000Y-62150000D02*
X109600000Y-61150000D01*
X111600000Y-53950000D02*
X114200000Y-53950000D01*
X111600000Y-60150000D02*
X114200000Y-60150000D01*
X110600000Y-62150000D02*
X109600000Y-62150000D01*
X116150000Y-54050000D02*
X116150000Y-60050000D01*
X109650000Y-54150000D02*
X109650000Y-59950000D01*
%TO.C,U1*%
X142500000Y-43860000D02*
X144950000Y-43860000D01*
X144300000Y-40640000D02*
X142500000Y-40640000D01*
%TO.C,U2*%
X121325000Y-41025000D02*
X121325000Y-40765000D01*
X126775000Y-41025000D02*
X126775000Y-40765000D01*
X124050000Y-41025000D02*
X121325000Y-41025000D01*
X124050000Y-41025000D02*
X126775000Y-41025000D01*
X126775000Y-35575000D02*
X126775000Y-35835000D01*
X124050000Y-35575000D02*
X126775000Y-35575000D01*
X121325000Y-35575000D02*
X121325000Y-35835000D01*
X121325000Y-35835000D02*
X119650000Y-35835000D01*
X124050000Y-35575000D02*
X121325000Y-35575000D01*
%TO.C,U3*%
X135460000Y-43790000D02*
X135460000Y-44440000D01*
X128890000Y-43790000D02*
X128240000Y-43790000D01*
X128890000Y-51010000D02*
X128240000Y-51010000D01*
X128240000Y-51010000D02*
X128240000Y-50360000D01*
X134810000Y-51010000D02*
X135460000Y-51010000D01*
X135460000Y-51010000D02*
X135460000Y-50360000D01*
X134810000Y-43790000D02*
X135460000Y-43790000D01*
%TO.C,Y1*%
X129100000Y-55250000D02*
X129100000Y-59250000D01*
X132400000Y-55250000D02*
X129100000Y-55250000D01*
%TO.C,R3*%
X132320000Y-40546359D02*
X132320000Y-40853641D01*
X133080000Y-40546359D02*
X133080000Y-40853641D01*
%TO.C,C3*%
X133460000Y-57142164D02*
X133460000Y-57357836D01*
X132740000Y-57142164D02*
X132740000Y-57357836D01*
%TO.C,SW20*%
X123300000Y-59950000D02*
X123300000Y-54150000D01*
X123350000Y-51950000D02*
X123350000Y-52950000D01*
X122350000Y-51950000D02*
X123350000Y-51950000D01*
X121350000Y-53950000D02*
X118750000Y-53950000D01*
X116800000Y-60050000D02*
X116800000Y-54050000D01*
X121350000Y-60150000D02*
X118750000Y-60150000D01*
%TO.C,C13*%
X103767836Y-50440000D02*
X103552164Y-50440000D01*
X103767836Y-51160000D02*
X103552164Y-51160000D01*
%TO.C,C12*%
X137588164Y-48040000D02*
X137803836Y-48040000D01*
X137588164Y-48760000D02*
X137803836Y-48760000D01*
%TO.C,R5*%
X131780000Y-54303641D02*
X131780000Y-53996359D01*
X131020000Y-54303641D02*
X131020000Y-53996359D01*
%TO.C,C14*%
X132060000Y-53192164D02*
X132060000Y-53407836D01*
X132780000Y-53192164D02*
X132780000Y-53407836D01*
%TO.C,C11*%
X126707836Y-43640000D02*
X126492164Y-43640000D01*
X126707836Y-44360000D02*
X126492164Y-44360000D01*
%TO.C,D10*%
G36*
X170362072Y-90634903D02*
G01*
X169862072Y-90634903D01*
X169862072Y-88634903D01*
X170362072Y-88634903D01*
X170362072Y-90634903D01*
G37*
%TO.C,C19*%
X179216164Y-67924000D02*
X179431836Y-67924000D01*
X179216164Y-67204000D02*
X179431836Y-67204000D01*
%TO.C,C31*%
X84220164Y-143404000D02*
X84435836Y-143404000D01*
X84220164Y-144124000D02*
X84435836Y-144124000D01*
%TO.C,C29*%
X64876000Y-141359836D02*
X64876000Y-141144164D01*
X64156000Y-141359836D02*
X64156000Y-141144164D01*
%TO.C,C30*%
X75584164Y-144124000D02*
X75799836Y-144124000D01*
X75584164Y-143404000D02*
X75799836Y-143404000D01*
%TO.C,D7*%
G36*
X233818331Y-59276441D02*
G01*
X233318331Y-59276441D01*
X233318331Y-57276441D01*
X233818331Y-57276441D01*
X233818331Y-59276441D01*
G37*
%TO.C,D12*%
G36*
X132003009Y-135269362D02*
G01*
X131503009Y-135269362D01*
X131503009Y-133269362D01*
X132003009Y-133269362D01*
X132003009Y-135269362D01*
G37*
%TO.C,C20*%
X230767836Y-66908000D02*
X230552164Y-66908000D01*
X230767836Y-66188000D02*
X230552164Y-66188000D01*
%TO.C,C26*%
X197972000Y-98952164D02*
X197972000Y-99167836D01*
X197252000Y-98952164D02*
X197252000Y-99167836D01*
%TO.C,C25*%
X227436000Y-98952164D02*
X227436000Y-99167836D01*
X226716000Y-98952164D02*
X226716000Y-99167836D01*
%TO.C,C18*%
X207664164Y-66696000D02*
X207879836Y-66696000D01*
X207664164Y-67416000D02*
X207879836Y-67416000D01*
%TO.C,C21*%
X86720000Y-80156164D02*
X86720000Y-80371836D01*
X86000000Y-80156164D02*
X86000000Y-80371836D01*
%TO.C,C32*%
X92856164Y-144124000D02*
X93071836Y-144124000D01*
X92856164Y-143404000D02*
X93071836Y-143404000D01*
%TO.C,C27*%
X110343836Y-90784000D02*
X110128164Y-90784000D01*
X110343836Y-90064000D02*
X110128164Y-90064000D01*
%TO.C,D6*%
G36*
X204903744Y-59061104D02*
G01*
X204403744Y-59061104D01*
X204403744Y-57061104D01*
X204903744Y-57061104D01*
X204903744Y-59061104D01*
G37*
%TO.C,C23*%
X145395836Y-78592000D02*
X145180164Y-78592000D01*
X145395836Y-77872000D02*
X145180164Y-77872000D01*
%TO.C,D15*%
G36*
X80772000Y-146796000D02*
G01*
X80272000Y-146796000D01*
X80272000Y-144796000D01*
X80772000Y-144796000D01*
X80772000Y-146796000D01*
G37*
%TO.C,D2*%
G36*
X87805964Y-70813212D02*
G01*
X87305964Y-70813212D01*
X87305964Y-68813212D01*
X87805964Y-68813212D01*
X87805964Y-70813212D01*
G37*
%TO.C,D5*%
G36*
X175976910Y-59185343D02*
G01*
X175476910Y-59185343D01*
X175476910Y-57185343D01*
X175976910Y-57185343D01*
X175976910Y-59185343D01*
G37*
%TO.C,D14*%
G36*
X72136000Y-146796000D02*
G01*
X71636000Y-146796000D01*
X71636000Y-144796000D01*
X72136000Y-144796000D01*
X72136000Y-146796000D01*
G37*
%TO.C,D8*%
G36*
X228408446Y-90645298D02*
G01*
X227908446Y-90645298D01*
X227908446Y-88645298D01*
X228408446Y-88645298D01*
X228408446Y-90645298D01*
G37*
%TO.C,D13*%
G36*
X63500000Y-146796000D02*
G01*
X63000000Y-146796000D01*
X63000000Y-144796000D01*
X63500000Y-144796000D01*
X63500000Y-146796000D01*
G37*
%TO.C,D4*%
G36*
X149344000Y-70596000D02*
G01*
X148844000Y-70596000D01*
X148844000Y-68596000D01*
X149344000Y-68596000D01*
X149344000Y-70596000D01*
G37*
%TO.C,D16*%
G36*
X89408000Y-146796000D02*
G01*
X88908000Y-146796000D01*
X88908000Y-144796000D01*
X89408000Y-144796000D01*
X89408000Y-146796000D01*
G37*
%TO.C,D11*%
G36*
X143737594Y-101788306D02*
G01*
X143237594Y-101788306D01*
X143237594Y-99788306D01*
X143737594Y-99788306D01*
X143737594Y-101788306D01*
G37*
%TO.C,D9*%
G36*
X199196100Y-90654207D02*
G01*
X198696100Y-90654207D01*
X198696100Y-88654207D01*
X199196100Y-88654207D01*
X199196100Y-90654207D01*
G37*
%TO.C,C17*%
X118244000Y-142132164D02*
X118244000Y-142347836D01*
X117524000Y-142132164D02*
X117524000Y-142347836D01*
%TO.C,C24*%
X57044000Y-79648164D02*
X57044000Y-79863836D01*
X57764000Y-79648164D02*
X57764000Y-79863836D01*
%TO.C,D3*%
G36*
X114493238Y-82115572D02*
G01*
X113993238Y-82115572D01*
X113993238Y-80115572D01*
X114493238Y-80115572D01*
X114493238Y-82115572D01*
G37*
%TO.C,D1*%
G36*
X58752962Y-70774084D02*
G01*
X58252962Y-70774084D01*
X58252962Y-68774084D01*
X58752962Y-68774084D01*
X58752962Y-70774084D01*
G37*
%TO.C,C28*%
X169524000Y-99432164D02*
X169524000Y-99647836D01*
X168804000Y-99432164D02*
X168804000Y-99647836D01*
%TO.C,C22*%
X141880000Y-110636164D02*
X141880000Y-110851836D01*
X142600000Y-110636164D02*
X142600000Y-110851836D01*
%TD*%
M02*
