%TF.GenerationSoftware,KiCad,Pcbnew,(6.0.4)*%
%TF.CreationDate,2022-04-24T23:02:38-04:00*%
%TF.ProjectId,Flatbox-rev4-rgb-kicad-WS2812B-4020,466c6174-626f-4782-9d72-6576342d7267,rev?*%
%TF.SameCoordinates,Original*%
%TF.FileFunction,Legend,Bot*%
%TF.FilePolarity,Positive*%
%FSLAX46Y46*%
G04 Gerber Fmt 4.6, Leading zero omitted, Abs format (unit mm)*
G04 Created by KiCad (PCBNEW (6.0.4)) date 2022-04-24 23:02:38*
%MOMM*%
%LPD*%
G01*
G04 APERTURE LIST*
%ADD10C,0.150000*%
G04 APERTURE END LIST*
D10*
%TO.C,SW8*%
X93653333Y-67574761D02*
X93510476Y-67622380D01*
X93272380Y-67622380D01*
X93177142Y-67574761D01*
X93129523Y-67527142D01*
X93081904Y-67431904D01*
X93081904Y-67336666D01*
X93129523Y-67241428D01*
X93177142Y-67193809D01*
X93272380Y-67146190D01*
X93462857Y-67098571D01*
X93558095Y-67050952D01*
X93605714Y-67003333D01*
X93653333Y-66908095D01*
X93653333Y-66812857D01*
X93605714Y-66717619D01*
X93558095Y-66670000D01*
X93462857Y-66622380D01*
X93224761Y-66622380D01*
X93081904Y-66670000D01*
X92748571Y-66622380D02*
X92510476Y-67622380D01*
X92320000Y-66908095D01*
X92129523Y-67622380D01*
X91891428Y-66622380D01*
X91367619Y-67050952D02*
X91462857Y-67003333D01*
X91510476Y-66955714D01*
X91558095Y-66860476D01*
X91558095Y-66812857D01*
X91510476Y-66717619D01*
X91462857Y-66670000D01*
X91367619Y-66622380D01*
X91177142Y-66622380D01*
X91081904Y-66670000D01*
X91034285Y-66717619D01*
X90986666Y-66812857D01*
X90986666Y-66860476D01*
X91034285Y-66955714D01*
X91081904Y-67003333D01*
X91177142Y-67050952D01*
X91367619Y-67050952D01*
X91462857Y-67098571D01*
X91510476Y-67146190D01*
X91558095Y-67241428D01*
X91558095Y-67431904D01*
X91510476Y-67527142D01*
X91462857Y-67574761D01*
X91367619Y-67622380D01*
X91177142Y-67622380D01*
X91081904Y-67574761D01*
X91034285Y-67527142D01*
X90986666Y-67431904D01*
X90986666Y-67241428D01*
X91034285Y-67146190D01*
X91081904Y-67098571D01*
X91177142Y-67050952D01*
%TO.C,SW9*%
X120253333Y-78924761D02*
X120110476Y-78972380D01*
X119872380Y-78972380D01*
X119777142Y-78924761D01*
X119729523Y-78877142D01*
X119681904Y-78781904D01*
X119681904Y-78686666D01*
X119729523Y-78591428D01*
X119777142Y-78543809D01*
X119872380Y-78496190D01*
X120062857Y-78448571D01*
X120158095Y-78400952D01*
X120205714Y-78353333D01*
X120253333Y-78258095D01*
X120253333Y-78162857D01*
X120205714Y-78067619D01*
X120158095Y-78020000D01*
X120062857Y-77972380D01*
X119824761Y-77972380D01*
X119681904Y-78020000D01*
X119348571Y-77972380D02*
X119110476Y-78972380D01*
X118920000Y-78258095D01*
X118729523Y-78972380D01*
X118491428Y-77972380D01*
X118062857Y-78972380D02*
X117872380Y-78972380D01*
X117777142Y-78924761D01*
X117729523Y-78877142D01*
X117634285Y-78734285D01*
X117586666Y-78543809D01*
X117586666Y-78162857D01*
X117634285Y-78067619D01*
X117681904Y-78020000D01*
X117777142Y-77972380D01*
X117967619Y-77972380D01*
X118062857Y-78020000D01*
X118110476Y-78067619D01*
X118158095Y-78162857D01*
X118158095Y-78400952D01*
X118110476Y-78496190D01*
X118062857Y-78543809D01*
X117967619Y-78591428D01*
X117777142Y-78591428D01*
X117681904Y-78543809D01*
X117634285Y-78496190D01*
X117586666Y-78400952D01*
%TO.C,SW18*%
X138229523Y-132024761D02*
X138086666Y-132072380D01*
X137848571Y-132072380D01*
X137753333Y-132024761D01*
X137705714Y-131977142D01*
X137658095Y-131881904D01*
X137658095Y-131786666D01*
X137705714Y-131691428D01*
X137753333Y-131643809D01*
X137848571Y-131596190D01*
X138039047Y-131548571D01*
X138134285Y-131500952D01*
X138181904Y-131453333D01*
X138229523Y-131358095D01*
X138229523Y-131262857D01*
X138181904Y-131167619D01*
X138134285Y-131120000D01*
X138039047Y-131072380D01*
X137800952Y-131072380D01*
X137658095Y-131120000D01*
X137324761Y-131072380D02*
X137086666Y-132072380D01*
X136896190Y-131358095D01*
X136705714Y-132072380D01*
X136467619Y-131072380D01*
X135562857Y-132072380D02*
X136134285Y-132072380D01*
X135848571Y-132072380D02*
X135848571Y-131072380D01*
X135943809Y-131215238D01*
X136039047Y-131310476D01*
X136134285Y-131358095D01*
X134991428Y-131500952D02*
X135086666Y-131453333D01*
X135134285Y-131405714D01*
X135181904Y-131310476D01*
X135181904Y-131262857D01*
X135134285Y-131167619D01*
X135086666Y-131120000D01*
X134991428Y-131072380D01*
X134800952Y-131072380D01*
X134705714Y-131120000D01*
X134658095Y-131167619D01*
X134610476Y-131262857D01*
X134610476Y-131310476D01*
X134658095Y-131405714D01*
X134705714Y-131453333D01*
X134800952Y-131500952D01*
X134991428Y-131500952D01*
X135086666Y-131548571D01*
X135134285Y-131596190D01*
X135181904Y-131691428D01*
X135181904Y-131881904D01*
X135134285Y-131977142D01*
X135086666Y-132024761D01*
X134991428Y-132072380D01*
X134800952Y-132072380D01*
X134705714Y-132024761D01*
X134658095Y-131977142D01*
X134610476Y-131881904D01*
X134610476Y-131691428D01*
X134658095Y-131596190D01*
X134705714Y-131548571D01*
X134800952Y-131500952D01*
%TO.C,SW10*%
X155669523Y-67514761D02*
X155526666Y-67562380D01*
X155288571Y-67562380D01*
X155193333Y-67514761D01*
X155145714Y-67467142D01*
X155098095Y-67371904D01*
X155098095Y-67276666D01*
X155145714Y-67181428D01*
X155193333Y-67133809D01*
X155288571Y-67086190D01*
X155479047Y-67038571D01*
X155574285Y-66990952D01*
X155621904Y-66943333D01*
X155669523Y-66848095D01*
X155669523Y-66752857D01*
X155621904Y-66657619D01*
X155574285Y-66610000D01*
X155479047Y-66562380D01*
X155240952Y-66562380D01*
X155098095Y-66610000D01*
X154764761Y-66562380D02*
X154526666Y-67562380D01*
X154336190Y-66848095D01*
X154145714Y-67562380D01*
X153907619Y-66562380D01*
X153002857Y-67562380D02*
X153574285Y-67562380D01*
X153288571Y-67562380D02*
X153288571Y-66562380D01*
X153383809Y-66705238D01*
X153479047Y-66800476D01*
X153574285Y-66848095D01*
X152383809Y-66562380D02*
X152288571Y-66562380D01*
X152193333Y-66610000D01*
X152145714Y-66657619D01*
X152098095Y-66752857D01*
X152050476Y-66943333D01*
X152050476Y-67181428D01*
X152098095Y-67371904D01*
X152145714Y-67467142D01*
X152193333Y-67514761D01*
X152288571Y-67562380D01*
X152383809Y-67562380D01*
X152479047Y-67514761D01*
X152526666Y-67467142D01*
X152574285Y-67371904D01*
X152621904Y-67181428D01*
X152621904Y-66943333D01*
X152574285Y-66752857D01*
X152526666Y-66657619D01*
X152479047Y-66610000D01*
X152383809Y-66562380D01*
%TO.C,SW11*%
X182229523Y-55984761D02*
X182086666Y-56032380D01*
X181848571Y-56032380D01*
X181753333Y-55984761D01*
X181705714Y-55937142D01*
X181658095Y-55841904D01*
X181658095Y-55746666D01*
X181705714Y-55651428D01*
X181753333Y-55603809D01*
X181848571Y-55556190D01*
X182039047Y-55508571D01*
X182134285Y-55460952D01*
X182181904Y-55413333D01*
X182229523Y-55318095D01*
X182229523Y-55222857D01*
X182181904Y-55127619D01*
X182134285Y-55080000D01*
X182039047Y-55032380D01*
X181800952Y-55032380D01*
X181658095Y-55080000D01*
X181324761Y-55032380D02*
X181086666Y-56032380D01*
X180896190Y-55318095D01*
X180705714Y-56032380D01*
X180467619Y-55032380D01*
X179562857Y-56032380D02*
X180134285Y-56032380D01*
X179848571Y-56032380D02*
X179848571Y-55032380D01*
X179943809Y-55175238D01*
X180039047Y-55270476D01*
X180134285Y-55318095D01*
X178610476Y-56032380D02*
X179181904Y-56032380D01*
X178896190Y-56032380D02*
X178896190Y-55032380D01*
X178991428Y-55175238D01*
X179086666Y-55270476D01*
X179181904Y-55318095D01*
%TO.C,SW12*%
X211199523Y-55864761D02*
X211056666Y-55912380D01*
X210818571Y-55912380D01*
X210723333Y-55864761D01*
X210675714Y-55817142D01*
X210628095Y-55721904D01*
X210628095Y-55626666D01*
X210675714Y-55531428D01*
X210723333Y-55483809D01*
X210818571Y-55436190D01*
X211009047Y-55388571D01*
X211104285Y-55340952D01*
X211151904Y-55293333D01*
X211199523Y-55198095D01*
X211199523Y-55102857D01*
X211151904Y-55007619D01*
X211104285Y-54960000D01*
X211009047Y-54912380D01*
X210770952Y-54912380D01*
X210628095Y-54960000D01*
X210294761Y-54912380D02*
X210056666Y-55912380D01*
X209866190Y-55198095D01*
X209675714Y-55912380D01*
X209437619Y-54912380D01*
X208532857Y-55912380D02*
X209104285Y-55912380D01*
X208818571Y-55912380D02*
X208818571Y-54912380D01*
X208913809Y-55055238D01*
X209009047Y-55150476D01*
X209104285Y-55198095D01*
X208151904Y-55007619D02*
X208104285Y-54960000D01*
X208009047Y-54912380D01*
X207770952Y-54912380D01*
X207675714Y-54960000D01*
X207628095Y-55007619D01*
X207580476Y-55102857D01*
X207580476Y-55198095D01*
X207628095Y-55340952D01*
X208199523Y-55912380D01*
X207580476Y-55912380D01*
%TO.C,SW13*%
X240169523Y-56104761D02*
X240026666Y-56152380D01*
X239788571Y-56152380D01*
X239693333Y-56104761D01*
X239645714Y-56057142D01*
X239598095Y-55961904D01*
X239598095Y-55866666D01*
X239645714Y-55771428D01*
X239693333Y-55723809D01*
X239788571Y-55676190D01*
X239979047Y-55628571D01*
X240074285Y-55580952D01*
X240121904Y-55533333D01*
X240169523Y-55438095D01*
X240169523Y-55342857D01*
X240121904Y-55247619D01*
X240074285Y-55200000D01*
X239979047Y-55152380D01*
X239740952Y-55152380D01*
X239598095Y-55200000D01*
X239264761Y-55152380D02*
X239026666Y-56152380D01*
X238836190Y-55438095D01*
X238645714Y-56152380D01*
X238407619Y-55152380D01*
X237502857Y-56152380D02*
X238074285Y-56152380D01*
X237788571Y-56152380D02*
X237788571Y-55152380D01*
X237883809Y-55295238D01*
X237979047Y-55390476D01*
X238074285Y-55438095D01*
X237169523Y-55152380D02*
X236550476Y-55152380D01*
X236883809Y-55533333D01*
X236740952Y-55533333D01*
X236645714Y-55580952D01*
X236598095Y-55628571D01*
X236550476Y-55723809D01*
X236550476Y-55961904D01*
X236598095Y-56057142D01*
X236645714Y-56104761D01*
X236740952Y-56152380D01*
X237026666Y-56152380D01*
X237121904Y-56104761D01*
X237169523Y-56057142D01*
%TO.C,SW14*%
X150059523Y-98554761D02*
X149916666Y-98602380D01*
X149678571Y-98602380D01*
X149583333Y-98554761D01*
X149535714Y-98507142D01*
X149488095Y-98411904D01*
X149488095Y-98316666D01*
X149535714Y-98221428D01*
X149583333Y-98173809D01*
X149678571Y-98126190D01*
X149869047Y-98078571D01*
X149964285Y-98030952D01*
X150011904Y-97983333D01*
X150059523Y-97888095D01*
X150059523Y-97792857D01*
X150011904Y-97697619D01*
X149964285Y-97650000D01*
X149869047Y-97602380D01*
X149630952Y-97602380D01*
X149488095Y-97650000D01*
X149154761Y-97602380D02*
X148916666Y-98602380D01*
X148726190Y-97888095D01*
X148535714Y-98602380D01*
X148297619Y-97602380D01*
X147392857Y-98602380D02*
X147964285Y-98602380D01*
X147678571Y-98602380D02*
X147678571Y-97602380D01*
X147773809Y-97745238D01*
X147869047Y-97840476D01*
X147964285Y-97888095D01*
X146535714Y-97935714D02*
X146535714Y-98602380D01*
X146773809Y-97554761D02*
X147011904Y-98269047D01*
X146392857Y-98269047D01*
%TO.C,SW15*%
X176669523Y-87444761D02*
X176526666Y-87492380D01*
X176288571Y-87492380D01*
X176193333Y-87444761D01*
X176145714Y-87397142D01*
X176098095Y-87301904D01*
X176098095Y-87206666D01*
X176145714Y-87111428D01*
X176193333Y-87063809D01*
X176288571Y-87016190D01*
X176479047Y-86968571D01*
X176574285Y-86920952D01*
X176621904Y-86873333D01*
X176669523Y-86778095D01*
X176669523Y-86682857D01*
X176621904Y-86587619D01*
X176574285Y-86540000D01*
X176479047Y-86492380D01*
X176240952Y-86492380D01*
X176098095Y-86540000D01*
X175764761Y-86492380D02*
X175526666Y-87492380D01*
X175336190Y-86778095D01*
X175145714Y-87492380D01*
X174907619Y-86492380D01*
X174002857Y-87492380D02*
X174574285Y-87492380D01*
X174288571Y-87492380D02*
X174288571Y-86492380D01*
X174383809Y-86635238D01*
X174479047Y-86730476D01*
X174574285Y-86778095D01*
X173098095Y-86492380D02*
X173574285Y-86492380D01*
X173621904Y-86968571D01*
X173574285Y-86920952D01*
X173479047Y-86873333D01*
X173240952Y-86873333D01*
X173145714Y-86920952D01*
X173098095Y-86968571D01*
X173050476Y-87063809D01*
X173050476Y-87301904D01*
X173098095Y-87397142D01*
X173145714Y-87444761D01*
X173240952Y-87492380D01*
X173479047Y-87492380D01*
X173574285Y-87444761D01*
X173621904Y-87397142D01*
%TO.C,SW16*%
X205519523Y-87444761D02*
X205376666Y-87492380D01*
X205138571Y-87492380D01*
X205043333Y-87444761D01*
X204995714Y-87397142D01*
X204948095Y-87301904D01*
X204948095Y-87206666D01*
X204995714Y-87111428D01*
X205043333Y-87063809D01*
X205138571Y-87016190D01*
X205329047Y-86968571D01*
X205424285Y-86920952D01*
X205471904Y-86873333D01*
X205519523Y-86778095D01*
X205519523Y-86682857D01*
X205471904Y-86587619D01*
X205424285Y-86540000D01*
X205329047Y-86492380D01*
X205090952Y-86492380D01*
X204948095Y-86540000D01*
X204614761Y-86492380D02*
X204376666Y-87492380D01*
X204186190Y-86778095D01*
X203995714Y-87492380D01*
X203757619Y-86492380D01*
X202852857Y-87492380D02*
X203424285Y-87492380D01*
X203138571Y-87492380D02*
X203138571Y-86492380D01*
X203233809Y-86635238D01*
X203329047Y-86730476D01*
X203424285Y-86778095D01*
X201995714Y-86492380D02*
X202186190Y-86492380D01*
X202281428Y-86540000D01*
X202329047Y-86587619D01*
X202424285Y-86730476D01*
X202471904Y-86920952D01*
X202471904Y-87301904D01*
X202424285Y-87397142D01*
X202376666Y-87444761D01*
X202281428Y-87492380D01*
X202090952Y-87492380D01*
X201995714Y-87444761D01*
X201948095Y-87397142D01*
X201900476Y-87301904D01*
X201900476Y-87063809D01*
X201948095Y-86968571D01*
X201995714Y-86920952D01*
X202090952Y-86873333D01*
X202281428Y-86873333D01*
X202376666Y-86920952D01*
X202424285Y-86968571D01*
X202471904Y-87063809D01*
%TO.C,SW17*%
X234729523Y-87444761D02*
X234586666Y-87492380D01*
X234348571Y-87492380D01*
X234253333Y-87444761D01*
X234205714Y-87397142D01*
X234158095Y-87301904D01*
X234158095Y-87206666D01*
X234205714Y-87111428D01*
X234253333Y-87063809D01*
X234348571Y-87016190D01*
X234539047Y-86968571D01*
X234634285Y-86920952D01*
X234681904Y-86873333D01*
X234729523Y-86778095D01*
X234729523Y-86682857D01*
X234681904Y-86587619D01*
X234634285Y-86540000D01*
X234539047Y-86492380D01*
X234300952Y-86492380D01*
X234158095Y-86540000D01*
X233824761Y-86492380D02*
X233586666Y-87492380D01*
X233396190Y-86778095D01*
X233205714Y-87492380D01*
X232967619Y-86492380D01*
X232062857Y-87492380D02*
X232634285Y-87492380D01*
X232348571Y-87492380D02*
X232348571Y-86492380D01*
X232443809Y-86635238D01*
X232539047Y-86730476D01*
X232634285Y-86778095D01*
X231729523Y-86492380D02*
X231062857Y-86492380D01*
X231491428Y-87492380D01*
%TO.C,SW7*%
X64558333Y-67454761D02*
X64415476Y-67502380D01*
X64177380Y-67502380D01*
X64082142Y-67454761D01*
X64034523Y-67407142D01*
X63986904Y-67311904D01*
X63986904Y-67216666D01*
X64034523Y-67121428D01*
X64082142Y-67073809D01*
X64177380Y-67026190D01*
X64367857Y-66978571D01*
X64463095Y-66930952D01*
X64510714Y-66883333D01*
X64558333Y-66788095D01*
X64558333Y-66692857D01*
X64510714Y-66597619D01*
X64463095Y-66550000D01*
X64367857Y-66502380D01*
X64129761Y-66502380D01*
X63986904Y-66550000D01*
X63653571Y-66502380D02*
X63415476Y-67502380D01*
X63225000Y-66788095D01*
X63034523Y-67502380D01*
X62796428Y-66502380D01*
X62510714Y-66502380D02*
X61844047Y-66502380D01*
X62272619Y-67502380D01*
%TO.C,SW8*%
X85320000Y-60970000D02*
X85820000Y-61470000D01*
X94320000Y-59570000D02*
X94320000Y-58970000D01*
X94320000Y-58970000D02*
X89820000Y-58970000D01*
X85820000Y-61470000D02*
X88320000Y-61470000D01*
X89820000Y-63670000D02*
X94320000Y-63670000D01*
X85320000Y-57470000D02*
X85820000Y-56970000D01*
X85820000Y-56970000D02*
X88820000Y-56970000D01*
X89820000Y-62970000D02*
X89820000Y-63670000D01*
X88820000Y-56970000D02*
X89320000Y-57470000D01*
X94320000Y-63670000D02*
X94320000Y-63170000D01*
X89320000Y-58470000D02*
X89320000Y-57470000D01*
X89820000Y-62970000D02*
G75*
G03*
X88320000Y-61470000I-1500001J-1D01*
G01*
X89320000Y-58470000D02*
G75*
G03*
X89820000Y-58970000I500001J1D01*
G01*
%TO.C,SW9*%
X112420000Y-68320000D02*
X115420000Y-68320000D01*
X115420000Y-68320000D02*
X115920000Y-68820000D01*
X111920000Y-72320000D02*
X112420000Y-72820000D01*
X120920000Y-70920000D02*
X120920000Y-70320000D01*
X116420000Y-75020000D02*
X120920000Y-75020000D01*
X112420000Y-72820000D02*
X114920000Y-72820000D01*
X120920000Y-75020000D02*
X120920000Y-74520000D01*
X120920000Y-70320000D02*
X116420000Y-70320000D01*
X111920000Y-68820000D02*
X112420000Y-68320000D01*
X115920000Y-69820000D02*
X115920000Y-68820000D01*
X116420000Y-74320000D02*
X116420000Y-75020000D01*
X115920000Y-69820000D02*
G75*
G03*
X116420000Y-70320000I500001J1D01*
G01*
X116420000Y-74320000D02*
G75*
G03*
X114920000Y-72820000I-1500001J-1D01*
G01*
%TO.C,SW18*%
X133420000Y-122920000D02*
X133420000Y-121920000D01*
X129420000Y-121920000D02*
X129920000Y-121420000D01*
X133920000Y-128120000D02*
X138420000Y-128120000D01*
X133920000Y-127420000D02*
X133920000Y-128120000D01*
X129920000Y-121420000D02*
X132920000Y-121420000D01*
X138420000Y-128120000D02*
X138420000Y-127620000D01*
X138420000Y-124020000D02*
X138420000Y-123420000D01*
X129420000Y-125420000D02*
X129920000Y-125920000D01*
X132920000Y-121420000D02*
X133420000Y-121920000D01*
X129920000Y-125920000D02*
X132420000Y-125920000D01*
X138420000Y-123420000D02*
X133920000Y-123420000D01*
X133420000Y-122920000D02*
G75*
G03*
X133920000Y-123420000I500001J1D01*
G01*
X133920000Y-127420000D02*
G75*
G03*
X132420000Y-125920000I-1500001J-1D01*
G01*
%TO.C,SW10*%
X150860000Y-58410000D02*
X150860000Y-57410000D01*
X151360000Y-63610000D02*
X155860000Y-63610000D01*
X155860000Y-63610000D02*
X155860000Y-63110000D01*
X146860000Y-57410000D02*
X147360000Y-56910000D01*
X151360000Y-62910000D02*
X151360000Y-63610000D01*
X155860000Y-59510000D02*
X155860000Y-58910000D01*
X146860000Y-60910000D02*
X147360000Y-61410000D01*
X147360000Y-61410000D02*
X149860000Y-61410000D01*
X150360000Y-56910000D02*
X150860000Y-57410000D01*
X155860000Y-58910000D02*
X151360000Y-58910000D01*
X147360000Y-56910000D02*
X150360000Y-56910000D01*
X150860000Y-58410000D02*
G75*
G03*
X151360000Y-58910000I500001J1D01*
G01*
X151360000Y-62910000D02*
G75*
G03*
X149860000Y-61410000I-1500001J-1D01*
G01*
%TO.C,SW11*%
X182420000Y-47980000D02*
X182420000Y-47380000D01*
X182420000Y-47380000D02*
X177920000Y-47380000D01*
X177420000Y-46880000D02*
X177420000Y-45880000D01*
X177920000Y-51380000D02*
X177920000Y-52080000D01*
X176920000Y-45380000D02*
X177420000Y-45880000D01*
X173920000Y-45380000D02*
X176920000Y-45380000D01*
X173420000Y-45880000D02*
X173920000Y-45380000D01*
X173920000Y-49880000D02*
X176420000Y-49880000D01*
X177920000Y-52080000D02*
X182420000Y-52080000D01*
X182420000Y-52080000D02*
X182420000Y-51580000D01*
X173420000Y-49380000D02*
X173920000Y-49880000D01*
X177420000Y-46880000D02*
G75*
G03*
X177920000Y-47380000I500001J1D01*
G01*
X177920000Y-51380000D02*
G75*
G03*
X176420000Y-49880000I-1500001J-1D01*
G01*
%TO.C,SW12*%
X206890000Y-51960000D02*
X211390000Y-51960000D01*
X211390000Y-47860000D02*
X211390000Y-47260000D01*
X206890000Y-51260000D02*
X206890000Y-51960000D01*
X211390000Y-51960000D02*
X211390000Y-51460000D01*
X202390000Y-49260000D02*
X202890000Y-49760000D01*
X205890000Y-45260000D02*
X206390000Y-45760000D01*
X202890000Y-49760000D02*
X205390000Y-49760000D01*
X202390000Y-45760000D02*
X202890000Y-45260000D01*
X202890000Y-45260000D02*
X205890000Y-45260000D01*
X206390000Y-46760000D02*
X206390000Y-45760000D01*
X211390000Y-47260000D02*
X206890000Y-47260000D01*
X206390000Y-46760000D02*
G75*
G03*
X206890000Y-47260000I500001J1D01*
G01*
X206890000Y-51260000D02*
G75*
G03*
X205390000Y-49760000I-1500001J-1D01*
G01*
%TO.C,SW13*%
X235860000Y-52200000D02*
X240360000Y-52200000D01*
X240360000Y-52200000D02*
X240360000Y-51700000D01*
X234860000Y-45500000D02*
X235360000Y-46000000D01*
X240360000Y-47500000D02*
X235860000Y-47500000D01*
X240360000Y-48100000D02*
X240360000Y-47500000D01*
X235360000Y-47000000D02*
X235360000Y-46000000D01*
X231860000Y-50000000D02*
X234360000Y-50000000D01*
X231860000Y-45500000D02*
X234860000Y-45500000D01*
X235860000Y-51500000D02*
X235860000Y-52200000D01*
X231360000Y-46000000D02*
X231860000Y-45500000D01*
X231360000Y-49500000D02*
X231860000Y-50000000D01*
X235860000Y-51500000D02*
G75*
G03*
X234360000Y-50000000I-1500001J-1D01*
G01*
X235360000Y-47000000D02*
G75*
G03*
X235860000Y-47500000I500001J1D01*
G01*
%TO.C,SW14*%
X145250000Y-89450000D02*
X145250000Y-88450000D01*
X141250000Y-88450000D02*
X141750000Y-87950000D01*
X141750000Y-92450000D02*
X144250000Y-92450000D01*
X141250000Y-91950000D02*
X141750000Y-92450000D01*
X150250000Y-94650000D02*
X150250000Y-94150000D01*
X150250000Y-89950000D02*
X145750000Y-89950000D01*
X145750000Y-93950000D02*
X145750000Y-94650000D01*
X141750000Y-87950000D02*
X144750000Y-87950000D01*
X150250000Y-90550000D02*
X150250000Y-89950000D01*
X144750000Y-87950000D02*
X145250000Y-88450000D01*
X145750000Y-94650000D02*
X150250000Y-94650000D01*
X145250000Y-89450000D02*
G75*
G03*
X145750000Y-89950000I500001J1D01*
G01*
X145750000Y-93950000D02*
G75*
G03*
X144250000Y-92450000I-1500001J-1D01*
G01*
%TO.C,SW15*%
X167860000Y-77340000D02*
X168360000Y-76840000D01*
X176860000Y-83540000D02*
X176860000Y-83040000D01*
X172360000Y-83540000D02*
X176860000Y-83540000D01*
X176860000Y-79440000D02*
X176860000Y-78840000D01*
X171860000Y-78340000D02*
X171860000Y-77340000D01*
X168360000Y-76840000D02*
X171360000Y-76840000D01*
X172360000Y-82840000D02*
X172360000Y-83540000D01*
X168360000Y-81340000D02*
X170860000Y-81340000D01*
X167860000Y-80840000D02*
X168360000Y-81340000D01*
X171360000Y-76840000D02*
X171860000Y-77340000D01*
X176860000Y-78840000D02*
X172360000Y-78840000D01*
X172360000Y-82840000D02*
G75*
G03*
X170860000Y-81340000I-1500001J-1D01*
G01*
X171860000Y-78340000D02*
G75*
G03*
X172360000Y-78840000I500001J1D01*
G01*
%TO.C,SW16*%
X200710000Y-78340000D02*
X200710000Y-77340000D01*
X200210000Y-76840000D02*
X200710000Y-77340000D01*
X196710000Y-77340000D02*
X197210000Y-76840000D01*
X197210000Y-81340000D02*
X199710000Y-81340000D01*
X205710000Y-83540000D02*
X205710000Y-83040000D01*
X205710000Y-78840000D02*
X201210000Y-78840000D01*
X201210000Y-83540000D02*
X205710000Y-83540000D01*
X201210000Y-82840000D02*
X201210000Y-83540000D01*
X196710000Y-80840000D02*
X197210000Y-81340000D01*
X197210000Y-76840000D02*
X200210000Y-76840000D01*
X205710000Y-79440000D02*
X205710000Y-78840000D01*
X201210000Y-82840000D02*
G75*
G03*
X199710000Y-81340000I-1500001J-1D01*
G01*
X200710000Y-78340000D02*
G75*
G03*
X201210000Y-78840000I500001J1D01*
G01*
%TO.C,SW17*%
X234920000Y-79440000D02*
X234920000Y-78840000D01*
X234920000Y-78840000D02*
X230420000Y-78840000D01*
X234920000Y-83540000D02*
X234920000Y-83040000D01*
X230420000Y-82840000D02*
X230420000Y-83540000D01*
X226420000Y-76840000D02*
X229420000Y-76840000D01*
X229920000Y-78340000D02*
X229920000Y-77340000D01*
X226420000Y-81340000D02*
X228920000Y-81340000D01*
X225920000Y-80840000D02*
X226420000Y-81340000D01*
X225920000Y-77340000D02*
X226420000Y-76840000D01*
X229420000Y-76840000D02*
X229920000Y-77340000D01*
X230420000Y-83540000D02*
X234920000Y-83540000D01*
X230420000Y-82840000D02*
G75*
G03*
X228920000Y-81340000I-1500001J-1D01*
G01*
X229920000Y-78340000D02*
G75*
G03*
X230420000Y-78840000I500001J1D01*
G01*
%TO.C,SW7*%
X56225000Y-57350000D02*
X56725000Y-56850000D01*
X59725000Y-56850000D02*
X60225000Y-57350000D01*
X56225000Y-60850000D02*
X56725000Y-61350000D01*
X56725000Y-56850000D02*
X59725000Y-56850000D01*
X60725000Y-62850000D02*
X60725000Y-63550000D01*
X60725000Y-63550000D02*
X65225000Y-63550000D01*
X56725000Y-61350000D02*
X59225000Y-61350000D01*
X65225000Y-59450000D02*
X65225000Y-58850000D01*
X65225000Y-63550000D02*
X65225000Y-63050000D01*
X60225000Y-58350000D02*
X60225000Y-57350000D01*
X65225000Y-58850000D02*
X60725000Y-58850000D01*
X60725000Y-62850000D02*
G75*
G03*
X59225000Y-61350000I-1500001J-1D01*
G01*
X60225000Y-58350000D02*
G75*
G03*
X60725000Y-58850000I500001J1D01*
G01*
%TD*%
M02*
