M48
; DRILL file {KiCad 7.0.2} date Sat Dec 16 15:11:12 2023
; FORMAT={-:-/ absolute / inch / decimal}
; #@! TF.CreationDate,2023-12-16T15:11:12-05:00
; #@! TF.GenerationSoftware,Kicad,Pcbnew,7.0.2
; #@! TF.FileFunction,Plated,1,2,PTH
FMAT,2
INCH
; #@! TA.AperFunction,Plated,PTH,ViaDrill
T1C0.0118
; #@! TA.AperFunction,Plated,PTH,ViaDrill
T2C0.0138
; #@! TA.AperFunction,Plated,PTH,ComponentDrill
T3C0.0138
; #@! TA.AperFunction,Plated,PTH,ComponentDrill
T4C0.0236
; #@! TA.AperFunction,Plated,PTH,ComponentDrill
T5C0.0472
; #@! TA.AperFunction,Plated,PTH,ComponentDrill
T6C0.0500
%
G90
G05
T1
X4.275Y-2.4
X4.57Y-1.4
X4.635Y-2.465
X4.83Y-2.165
X5.02Y-2.725
X5.14Y-2.605
X5.24Y-2.465
X5.8Y-4.835
X5.9131Y-4.7262
X6.22Y-1.85
X6.235Y-1.82
X6.295Y-1.925
X6.33Y-1.9
T2
X4.752Y-1.7382
X4.752Y-1.998
X4.8051Y-1.5827
X4.9232Y-1.9055
X4.9252Y-1.7323
X4.998Y-2.1772
X5.005Y-2.325
X5.02Y-2.11
X5.0453Y-2.2441
X5.0925Y-1.3701
X5.1Y-2.12
X5.1417Y-1.5177
X5.1772Y-2.3661
X5.1831Y-1.5433
X5.1831Y-1.6555
X5.2165Y-1.9491
X5.2224Y-1.7813
X5.2323Y-2.1555
X5.2362Y-2.0472
X5.2835Y-2.3327
X5.2913Y-2.1181
X5.3091Y-1.5433
X5.313Y-2.2205
X5.3504Y-1.5886
X5.4606Y-1.7087
X5.4606Y-1.75
X5.535Y-1.93
X5.54Y-1.625
X5.7697Y-1.4173
X5.78Y-1.65
X5.8366Y-1.3346
T3
X5.1407Y-1.8159
X5.1407Y-1.8661
X5.1407Y-1.9163
X5.1909Y-1.8159
X5.1909Y-1.8661
X5.1909Y-1.9163
X5.2411Y-1.8159
X5.2411Y-1.8661
X5.2411Y-1.9163
T5
X6.0435Y-4.7258
X6.2177Y-4.6038
X6.6539Y-5.745
X6.7329Y-5.6897
X6.8168Y-5.631
X6.8832Y-4.3048
X6.8958Y-5.5757
X7.0829Y-4.232
X7.2089Y-5.4473
X7.2996Y-5.4143
X7.3957Y-5.3793
X7.4864Y-5.3463
X7.8552Y-4.0635
X8.0188Y-5.2403
X8.0631Y-4.0193
X8.1131Y-5.2202
X8.2133Y-5.1989
X8.3076Y-5.1789
X8.7974Y-5.1625
X8.882Y-3.9775
X8.8938Y-5.1625
X8.9962Y-5.1625
X9.0926Y-5.1625
X9.0946Y-3.9775
T6
X2.0955Y-2.7106
X2.2923Y-2.7933
X3.2409Y-2.7154
X3.4378Y-2.798
X4.2882Y-3.1622
X4.485Y-3.2449
X4.9772Y-5.2528
X5.174Y-5.3354
X5.4429Y-3.935
X5.6398Y-4.0177
X5.6638Y-2.713
X5.8606Y-2.7957
X6.4906Y-3.4976
X6.6874Y-3.5803
X6.7094Y-2.2591
X6.9063Y-2.3417
X7.6264Y-3.4976
X7.8232Y-3.5803
X7.85Y-2.2543
X8.0469Y-2.337
X8.7764Y-3.4976
X8.9732Y-3.5803
X8.9906Y-2.2638
X9.1874Y-2.3465
T4
G00X5.5386Y-1.0787
M15
G01X5.5386Y-1.0551
M16
G05
G00X5.5386Y-1.2531
M15
G01X5.5386Y-1.2098
M16
G05
G00X5.8787Y-1.0787
M15
G01X5.8787Y-1.0551
M16
G05
G00X5.8787Y-1.2531
M15
G01X5.8787Y-1.2098
M16
G05
T0
M30
